<?xml version="1.0" encoding="utf-8"?>
<!-- Generator: Adobe Illustrator 16.0.0, SVG Export Plug-In . SVG Version: 6.00 Build 0)  -->
<!DOCTYPE svg PUBLIC "-//W3C//DTD SVG 1.1//EN" "http://www.w3.org/Graphics/SVG/1.1/DTD/svg11.dtd">
<svg version="1.1" id="Layer_1" xmlns="http://www.w3.org/2000/svg" xmlns:xlink="http://www.w3.org/1999/xlink" x="0px" y="0px"
	 width="84.825px" height="31.935px" viewBox="6.467 2.681 84.825 31.935" enable-background="new 6.467 2.681 84.825 31.935"
	 xml:space="preserve">
<rect x="6.467" y="2.681" class="path" fill="#EF4056" width="84.825" height="31.935"/>
<path fill="#FFFFFF" d="M18.69,10.845c-0.966,0.063-1.551,0.615-1.551,1.596v5.875c0,4.773,4.747,8.525,8.854,8.496
	c4.618-0.035,8.883-3.933,8.883-8.496v-5.875c0-0.985-0.622-1.541-1.596-1.596H18.69L18.69,10.845z"/>
<path class="path" fill="#EF4056" d="M22.431,15.625l3.562,3.384l3.566-3.384c1.596-0.67,2.292,1.151,1.636,1.685l-4.643,4.433
	c-0.152,0.145-0.963,0.145-1.115,0l-4.643-4.433C20.168,16.721,20.983,14.87,22.431,15.625L22.431,15.625z"/>
<g>
	<path fill="#FFFFFF" d="M46.385,14.868c0.537-0.089,1.24-0.166,2.135-0.166c1.099,0,1.904,0.255,2.415,0.715
		c0.472,0.409,0.752,1.036,0.752,1.802c0,0.78-0.229,1.394-0.664,1.84c-0.587,0.626-1.547,0.946-2.632,0.946
		c-0.332,0-0.64-0.014-0.895-0.078v3.45h-1.112L46.385,14.868L46.385,14.868z M47.496,19.021c0.244,0.063,0.55,0.089,0.92,0.089
		c1.343,0,2.16-0.651,2.16-1.84c0-1.138-0.805-1.687-2.032-1.687c-0.484,0-0.855,0.039-1.048,0.089L47.496,19.021L47.496,19.021z"/>
	<path fill="#FFFFFF" d="M58.421,20.234c0,2.287-1.585,3.284-3.08,3.284c-1.674,0-2.965-1.227-2.965-3.182
		c0-2.07,1.356-3.284,3.067-3.284C57.219,17.052,58.421,18.343,58.421,20.234z M53.514,20.298c0,1.355,0.778,2.377,1.878,2.377
		c1.074,0,1.879-1.01,1.879-2.403c0-1.048-0.523-2.377-1.852-2.377C54.087,17.896,53.514,19.123,53.514,20.298z"/>
	<path fill="#FFFFFF" d="M64.244,23.148c-0.293,0.153-0.945,0.357-1.775,0.357c-1.866,0-3.078-1.265-3.078-3.156
		c0-1.904,1.304-3.285,3.321-3.285c0.664,0,1.252,0.166,1.559,0.319l-0.255,0.869c-0.269-0.153-0.689-0.294-1.304-0.294
		c-1.418,0-2.185,1.048-2.185,2.338c0,1.431,0.92,2.313,2.146,2.313c0.64,0,1.061-0.167,1.38-0.307L64.244,23.148z"/>
	<path fill="#FFFFFF" d="M66.67,20.03h0.024c0.154-0.217,0.371-0.485,0.549-0.702l1.815-2.134h1.354l-2.39,2.542l2.722,3.643h-1.368
		l-2.134-2.965l-0.575,0.641v2.324h-1.112v-9.074h1.112v5.725H66.67z"/>
	<path fill="#FFFFFF" d="M72.176,20.49c0.024,1.52,0.996,2.147,2.12,2.147c0.806,0,1.291-0.142,1.713-0.319l0.192,0.805
		c-0.396,0.18-1.074,0.384-2.058,0.384c-1.904,0-3.042-1.252-3.042-3.118c0-1.866,1.099-3.335,2.901-3.335
		c2.018,0,2.556,1.776,2.556,2.913c0,0.23-0.025,0.409-0.039,0.524L72.176,20.49L72.176,20.49z M75.471,19.686
		c0.014-0.716-0.294-1.828-1.558-1.828c-1.138,0-1.636,1.048-1.725,1.828H75.471z"/>
	<path fill="#FFFFFF" d="M79.303,15.417v1.776h1.609v0.856h-1.609v3.335c0,0.767,0.217,1.201,0.844,1.201
		c0.293,0,0.512-0.038,0.651-0.077l0.051,0.844c-0.217,0.089-0.563,0.153-0.997,0.153c-0.523,0-0.947-0.166-1.214-0.473
		c-0.32-0.332-0.436-0.882-0.436-1.612v-3.373h-0.957v-0.856h0.957v-1.483L79.303,15.417z"/>
</g>
</svg>
