<?xml version="1.0" encoding="utf-8"?>
<!-- Generator: Adobe Illustrator 16.0.0, SVG Export Plug-In . SVG Version: 6.00 Build 0)  -->
<!DOCTYPE svg PUBLIC "-//W3C//DTD SVG 1.1//EN" "http://www.w3.org/Graphics/SVG/1.1/DTD/svg11.dtd">
<svg version="1.1" id="Layer_1" xmlns="http://www.w3.org/2000/svg" xmlns:xlink="http://www.w3.org/1999/xlink" x="0px" y="0px"
	 width="118.004px" height="90px" viewBox="-0.925 -0.5 118.004 90" enable-background="new -0.925 -0.5 118.004 90"
	 xml:space="preserve">
<path fill="#FFFFFF" d="M-0.925,89.5v-85c0-2.761,2.238-5,5-5h108.004c2.762,0,5,2.239,5,5v85"/>
<rect x="-0.925" y="85.5" class="path" fill="#EF4056" width="118.004" height="4"/>
<path fill="#FFFFFF" d="M64.328,32.377c-0.518,0.729-1.271,1.307-2.266,1.719c-0.989,0.422-2.168,0.625-3.528,0.625
	c-1.631,0-2.977-0.283-4.039-0.852c-0.75-0.406-1.362-0.951-1.833-1.633c-0.47-0.68-0.704-1.346-0.704-1.99
	c0-0.371,0.143-0.691,0.423-0.957c0.282-0.27,0.642-0.402,1.077-0.402c0.354,0,0.652,0.104,0.896,0.313
	c0.246,0.207,0.455,0.518,0.627,0.926c0.209,0.484,0.438,0.893,0.682,1.213c0.244,0.326,0.588,0.598,1.031,0.807
	c0.442,0.209,1.028,0.314,1.75,0.314c0.99,0,1.797-0.209,2.417-0.637c0.621-0.426,0.935-0.957,0.935-1.596
	c0-0.504-0.17-0.914-0.504-1.227c-0.334-0.316-0.771-0.557-1.296-0.723c-0.531-0.168-1.24-0.344-2.128-0.527
	c-1.188-0.256-2.184-0.557-2.982-0.898c-0.8-0.344-1.438-0.811-1.906-1.398c-0.47-0.596-0.703-1.33-0.703-2.207
	c0-0.838,0.246-1.582,0.744-2.23c0.496-0.652,1.211-1.152,2.154-1.502c0.939-0.35,2.046-0.525,3.314-0.525
	c1.016,0,1.895,0.119,2.634,0.348c0.74,0.232,1.354,0.541,1.841,0.924c0.49,0.385,0.849,0.787,1.072,1.209
	c0.226,0.42,0.338,0.834,0.338,1.232c0,0.367-0.142,0.699-0.42,0.992c-0.283,0.293-0.636,0.441-1.056,0.441
	c-0.385,0-0.676-0.09-0.875-0.266c-0.198-0.176-0.416-0.465-0.647-0.867c-0.301-0.574-0.66-1.021-1.082-1.342
	c-0.421-0.322-1.098-0.482-2.03-0.482c-0.864,0-1.563,0.172-2.093,0.521c-0.527,0.35-0.796,0.771-0.796,1.262
	c0,0.303,0.093,0.566,0.272,0.787c0.178,0.223,0.428,0.41,0.746,0.568c0.314,0.16,0.633,0.285,0.957,0.377
	c0.322,0.09,0.857,0.221,1.603,0.393c0.934,0.201,1.775,0.422,2.531,0.666c0.754,0.242,1.398,0.537,1.93,0.879
	c0.527,0.346,0.941,0.787,1.24,1.316c0.296,0.529,0.445,1.178,0.445,1.945C65.102,30.816,64.842,31.645,64.328,32.377L64.328,32.377
	z"/>
<path class="path" fill="#EF4056" d="M47.168,10.473c-1.693,0.111-2.719,1.078-2.719,2.799v10.303c0,8.371,8.322,14.95,15.524,14.898
	c8.097-0.062,15.576-6.896,15.576-14.898V13.272c0-1.728-1.09-2.702-2.798-2.799H47.168L47.168,10.473z"/>
<path fill="#FFFFFF" d="M53.728,18.854l6.246,5.935l6.252-5.935c2.798-1.175,4.019,2.019,2.87,2.955l-8.142,7.772
	c-0.268,0.253-1.689,0.253-1.955,0l-8.142-7.772C49.76,20.777,51.189,17.531,53.728,18.854L53.728,18.854z"/>
<g>
	<path class="path" fill="#EF4056" d="M27.639,57.311C28.645,57.143,29.964,57,31.642,57c2.061,0,3.568,0.477,4.526,1.34
		c0.886,0.766,1.411,1.941,1.411,3.377c0,1.463-0.43,2.613-1.245,3.451c-1.101,1.174-2.9,1.771-4.934,1.771
		c-0.623,0-1.199-0.025-1.678-0.145v6.469h-2.085L27.639,57.311L27.639,57.311z M29.723,65.096c0.456,0.119,1.031,0.168,1.724,0.168
		c2.518,0,4.049-1.223,4.049-3.449c0-2.135-1.509-3.164-3.81-3.164c-0.908,0-1.604,0.074-1.965,0.17L29.723,65.096L29.723,65.096z"
		/>
	<path class="path" fill="#EF4056" d="M50.202,67.369c0,4.289-2.971,6.158-5.773,6.158c-3.138,0-5.559-2.301-5.559-5.965
		c0-3.881,2.543-6.156,5.75-6.156C47.948,61.404,50.202,63.824,50.202,67.369z M41.003,67.488c0,2.541,1.459,4.459,3.521,4.459
		c2.014,0,3.522-1.893,3.522-4.506c0-1.963-0.981-4.455-3.471-4.455C42.078,62.986,41.003,65.287,41.003,67.488z"/>
	<path class="path" fill="#EF4056" d="M61.117,72.834c-0.549,0.287-1.771,0.668-3.328,0.668c-3.499,0-5.771-2.371-5.771-5.916
		c0-3.568,2.443-6.156,6.226-6.156c1.244,0,2.346,0.311,2.921,0.598l-0.476,1.629c-0.506-0.289-1.293-0.551-2.445-0.551
		c-2.658,0-4.096,1.963-4.096,4.383c0,2.684,1.725,4.336,4.024,4.336c1.198,0,1.989-0.313,2.585-0.574L61.117,72.834z"/>
	<path class="path" fill="#EF4056" d="M65.664,66.988h0.048c0.29-0.408,0.696-0.912,1.028-1.318l3.402-4h2.541l-4.482,4.766l5.104,6.828h-2.566
		l-3.998-5.559l-1.08,1.203v4.355h-2.082v-17.01h2.082v10.734H65.664z"/>
	<path class="path" fill="#EF4056" d="M75.985,67.848c0.048,2.85,1.867,4.025,3.976,4.025c1.508,0,2.419-0.266,3.211-0.598l0.358,1.508
		c-0.743,0.338-2.014,0.719-3.854,0.719c-3.569,0-5.703-2.346-5.703-5.844s2.061-6.254,5.439-6.254c3.781,0,4.788,3.332,4.788,5.463
		c0,0.43-0.048,0.766-0.072,0.98H75.985L75.985,67.848z M82.161,66.342c0.025-1.342-0.55-3.426-2.917-3.426
		c-2.134,0-3.068,1.965-3.232,3.426H82.161z"/>
	<path class="path" fill="#EF4056" d="M89.345,58.34v3.33h3.017v1.605h-3.017v6.252c0,1.438,0.406,2.25,1.582,2.25
		c0.549,0,0.959-0.07,1.223-0.145l0.095,1.582c-0.406,0.168-1.055,0.287-1.871,0.287c-0.981,0-1.775-0.311-2.273-0.885
		c-0.601-0.623-0.817-1.652-0.817-3.023v-6.322h-1.793v-1.604h1.793v-2.781L89.345,58.34z"/>
</g>
</svg>
