<?xml version="1.0" encoding="utf-8"?>
<!-- Generator: Adobe Illustrator 16.0.0, SVG Export Plug-In . SVG Version: 6.00 Build 0)  -->
<!DOCTYPE svg PUBLIC "-//W3C//DTD SVG 1.1//EN" "http://www.w3.org/Graphics/SVG/1.1/DTD/svg11.dtd">
<svg version="1.1" id="Layer_1" xmlns="http://www.w3.org/2000/svg" xmlns:xlink="http://www.w3.org/1999/xlink" x="0px" y="0px"
	 width="120px" height="40px" viewBox="7 0 120 40" enable-background="new 7 0 120 40" xml:space="preserve">
<path class="path" fill="#09ACF1" d="M127,35.016c0,2.762-2.238,5-5,5H12c-2.762,0-5-2.238-5-5v-30c0-2.761,2.238-5,5-5h110c2.762,0,5,2.239,5,5
	V35.016z"/>
<g>
	<g>
		<path fill="#FFFFFF" d="M36.631,24.122h-3.864c-0.538,0-0.994-0.188-1.371-0.563c-0.376-0.375-0.564-0.831-0.564-1.368v-1.367
			h5.508c0.498,0,0.925-0.177,1.28-0.53c0.354-0.355,0.533-0.782,0.533-1.275c0-0.497-0.179-0.92-0.534-1.274
			c-0.357-0.354-0.786-0.532-1.284-0.532h-5.503v-2.826c0-0.536-0.189-0.992-0.571-1.375c-0.381-0.381-0.838-0.573-1.37-0.573
			c-0.549,0-1.013,0.188-1.395,0.562c-0.381,0.375-0.57,0.837-0.57,1.388v7.804c0,1.606,0.57,2.977,1.714,4.115
			c1.143,1.138,2.518,1.707,4.128,1.707h3.863c0.537,0,0.997-0.19,1.38-0.573c0.384-0.38,0.575-0.84,0.575-1.373
			c0-0.53-0.191-0.989-0.575-1.376C37.628,24.313,37.167,24.122,36.631,24.122z M81.888,24.122h-1.756
			c-0.536,0-0.992-0.188-1.368-0.563c-0.376-0.375-0.563-0.831-0.563-1.368v-1.367h3.397c0.498,0,0.926-0.177,1.28-0.532
			c0.354-0.354,0.53-0.78,0.53-1.273c0-0.497-0.179-0.92-0.532-1.274c-0.355-0.354-0.784-0.532-1.283-0.532H78.2v-2.826
			c0-0.536-0.191-0.992-0.573-1.375c-0.38-0.381-0.837-0.573-1.37-0.573c-0.548,0-1.012,0.188-1.394,0.562
			c-0.382,0.375-0.571,0.837-0.571,1.388v7.804c0,1.606,0.571,2.977,1.714,4.115c1.143,1.138,2.518,1.707,4.128,1.707h1.757
			c0.534,0,0.995-0.19,1.377-0.573c0.384-0.38,0.577-0.84,0.577-1.373c0-0.53-0.193-0.989-0.577-1.376
			C82.886,24.313,82.425,24.122,81.888,24.122z M71.673,24.122h-1.756c-0.537,0-0.995-0.188-1.37-0.563
			c-0.376-0.375-0.563-0.831-0.563-1.368v-1.367h3.399c0.497,0,0.923-0.177,1.278-0.532c0.356-0.354,0.535-0.78,0.535-1.273
			c0-0.497-0.179-0.92-0.537-1.274c-0.355-0.354-0.783-0.532-1.283-0.532h-3.393v-2.826c0-0.536-0.191-0.992-0.572-1.375
			c-0.379-0.381-0.838-0.573-1.369-0.573c-0.549,0-1.014,0.188-1.395,0.562c-0.38,0.375-0.571,0.837-0.571,1.388v7.804
			c0,1.606,0.571,2.977,1.714,4.115c1.143,1.138,2.519,1.707,4.128,1.707h1.756c0.537,0,0.995-0.19,1.38-0.573
			c0.383-0.38,0.575-0.84,0.575-1.373c0-0.53-0.193-0.989-0.575-1.376C72.67,24.313,72.211,24.122,71.673,24.122z M55.602,16.94
			c-0.501,0-0.931,0.179-1.289,0.537c-0.358,0.357-0.538,0.787-0.538,1.288v3.806c0,0.502-0.176,0.927-0.527,1.276
			c-0.351,0.35-0.777,0.521-1.278,0.521c-0.488,0-0.907-0.176-1.259-0.521c-0.352-0.352-0.526-0.774-0.526-1.276v-3.806
			c0-0.501-0.18-0.929-0.541-1.288c-0.358-0.358-0.789-0.537-1.292-0.537c-0.517,0-0.955,0.184-1.313,0.548
			c-0.36,0.365-0.539,0.796-0.539,1.297v3.784c0,0.502-0.176,0.927-0.527,1.278c-0.351,0.348-0.771,0.521-1.259,0.521
			c-0.501,0-0.929-0.176-1.279-0.521c-0.352-0.354-0.527-0.776-0.527-1.278v-3.805c0-0.516-0.179-0.948-0.538-1.298
			c-0.356-0.351-0.788-0.526-1.289-0.526s-0.932,0.175-1.29,0.526c-0.357,0.35-0.536,0.783-0.536,1.296v3.805
			c0,1.502,0.533,2.784,1.602,3.851c1.069,1.064,2.356,1.596,3.862,1.596c1.376,0,2.581-0.463,3.614-1.394
			c1.047,0.931,2.258,1.394,3.637,1.394c1.505,0,2.791-0.531,3.86-1.596c1.069-1.066,1.603-2.349,1.603-3.851l0,0v-3.805
			c0-0.5-0.179-0.929-0.538-1.287C56.534,17.12,56.104,16.94,55.602,16.94z M60.753,12.016c-0.537,0-0.996,0.19-1.38,0.571
			c-0.382,0.381-0.573,0.84-0.573,1.375s0.191,0.992,0.573,1.375c0.384,0.38,0.843,0.573,1.38,0.573
			c0.536,0,0.995-0.192,1.379-0.573c0.383-0.383,0.574-0.84,0.574-1.375s-0.191-0.993-0.574-1.375
			C61.747,12.206,61.289,12.016,60.753,12.016z M60.753,16.94c-0.537,0-0.996,0.191-1.38,0.574
			c-0.382,0.382-0.573,0.839-0.573,1.375v7.176c0,0.532,0.191,0.99,0.573,1.377c0.384,0.383,0.843,0.569,1.38,0.569
			c0.536,0,0.995-0.188,1.379-0.569c0.383-0.386,0.574-0.844,0.574-1.377v-7.175c0-0.536-0.191-0.995-0.574-1.375
			C61.747,17.132,61.289,16.94,60.753,16.94z M106.542,20.294c0.356-0.355,0.534-0.78,0.534-1.275c0-0.497-0.179-0.92-0.532-1.274
			c-0.354-0.354-0.784-0.532-1.278-0.532h-2.665c-1.49,0-2.769,0.529-3.827,1.584c-1.063,1.056-1.589,2.327-1.589,3.817v3.593
			c0,0.497,0.179,0.923,0.529,1.275c0.354,0.354,0.782,0.529,1.278,0.529c0.494,0,0.925-0.177,1.276-0.529
			c0.355-0.354,0.531-0.78,0.531-1.274v-3.597c0-0.496,0.176-0.917,0.523-1.267c0.354-0.35,0.773-0.523,1.274-0.523h2.666
			C105.759,20.824,106.186,20.649,106.542,20.294z M94.19,23.529c1.328,0,1.913-0.451,1.913-1.729c0-1.61-1.41-4.864-6.044-4.864
			c-5.922,0-5.811,5.238-5.811,5.238c0,1.647,0.439,2.917,1.582,4.087c1.143,1.169,2.592,1.751,4.128,1.751h4.172
			c0.861,0,1.564-0.697,1.564-1.566c0-0.863-0.699-1.566-1.564-1.566h-3.38c-2.698,0-2.486-1.357-2.486-1.357h5.923L94.19,23.529
			L94.19,23.529z M90.262,19.758c0,0,1.935,0,1.935,1.278h-3.888C88.309,19.758,90.262,19.758,90.262,19.758z"/>
	</g>
</g>
</svg>
