<?xml version="1.0" encoding="utf-8"?>
<!-- Generator: Adobe Illustrator 16.0.0, SVG Export Plug-In . SVG Version: 6.00 Build 0)  -->
<!DOCTYPE svg PUBLIC "-//W3C//DTD SVG 1.1//EN" "http://www.w3.org/Graphics/SVG/1.1/DTD/svg11.dtd">
<svg version="1.1" id="Layer_1" xmlns="http://www.w3.org/2000/svg" xmlns:xlink="http://www.w3.org/1999/xlink" x="0px" y="0px"
	 width="135px" height="40px" viewBox="0 0 135 40" enable-background="new 0 0 135 40" xml:space="preserve">
<path class="path" fill="#09ACF1" d="M135,35.031c0,2.762-2.238,5-5,5H5c-2.763,0-5-2.238-5-5v-30c0-2.761,2.237-5,5-5h125c2.762,0,5,2.239,5,5
	V35.031z"/>
<path fill="#FFFFFF" d="M79.378,12.877c-0.875,0.379-1.813,0.633-2.801,0.748c1.008-0.588,1.78-1.515,2.146-2.619
	c-0.943,0.543-1.986,0.938-3.097,1.147c-0.892-0.919-2.155-1.492-3.56-1.492c-2.688,0-4.873,2.116-4.873,4.729
	c0,0.371,0.043,0.732,0.127,1.078c-4.051-0.196-7.643-2.08-10.045-4.941c-0.422,0.697-0.66,1.51-0.66,2.377
	c0,1.641,0.859,3.09,2.167,3.936c-0.8-0.024-1.55-0.235-2.209-0.592v0.061c0,2.291,1.681,4.203,3.909,4.64
	c-0.407,0.105-0.838,0.166-1.282,0.166c-0.313,0-0.619-0.029-0.917-0.086c0.619,1.881,2.42,3.248,4.554,3.285
	c-1.668,1.27-3.771,2.022-6.054,2.022c-0.395,0-0.781-0.021-1.163-0.063c2.157,1.342,4.719,2.127,7.474,2.127
	c8.965,0,13.867-7.211,13.867-13.461l-0.014-0.612C77.896,14.66,78.725,13.828,79.378,12.877z"/>
</svg>
