<?xml version="1.0" encoding="utf-8"?>
<!-- Generator: Adobe Illustrator 16.0.0, SVG Export Plug-In . SVG Version: 6.00 Build 0)  -->
<!DOCTYPE svg PUBLIC "-//W3C//DTD SVG 1.1//EN" "http://www.w3.org/Graphics/SVG/1.1/DTD/svg11.dtd">
<svg version="1.1" id="Layer_1" xmlns="http://www.w3.org/2000/svg" xmlns:xlink="http://www.w3.org/1999/xlink" x="0px" y="0px"
	 width="40px" height="40px" viewBox="0 0 40 40" enable-background="new 0 0 40 40" xml:space="preserve">
<path fill="#09ACF1" class="path" d="M40,35c0,2.762-2.238,5-5,5H5c-2.761,0-5-2.238-5-5V5c0-2.761,2.239-5,5-5h30c2.762,0,5,2.239,5,5V35z"/>
<g>
	<g>
		<g>
			<defs>
				<polygon id="SVGID_1_" points="31.879,12.846 60.855,39.252 45.925,56.5 8.12,27.242 14.438,28.688 28.148,14.666 				"/>
			</defs>
			<clipPath id="SVGID_2_">
				<use xlink:href="#SVGID_1_"  overflow="visible"/>
			</clipPath>
			<path clip-path="url(#SVGID_2_)" fill="#008EBF" d="M40.007,35c0,2.762-2.237,4.998-4.999,4.998h-30c-2.761,0-5-2.236-5-4.998V5
				c0-2.761,2.239-5,5-5h30c2.762,0,4.999,2.239,4.999,5V35z"/>
		</g>
	</g>
</g>
<path fill="#FFFFFF" d="M31.879,12.846c-0.875,0.378-1.814,0.632-2.801,0.747c1.008-0.587,1.781-1.514,2.145-2.619
	c-0.943,0.543-1.986,0.938-3.096,1.148c-0.891-0.919-2.156-1.492-3.559-1.492c-2.689,0-4.875,2.116-4.875,4.729
	c0,0.371,0.043,0.732,0.127,1.078c-4.05-0.197-7.642-2.08-10.044-4.941c-0.421,0.698-0.66,1.51-0.66,2.377
	c0,1.641,0.859,3.09,2.167,3.937c-0.8-0.025-1.55-0.236-2.209-0.593v0.061c0,2.292,1.681,4.205,3.91,4.64
	c-0.409,0.107-0.839,0.166-1.284,0.166c-0.313,0-0.618-0.029-0.916-0.086c0.62,1.881,2.42,3.248,4.554,3.285
	c-1.669,1.27-3.771,2.025-6.054,2.025c-0.394,0-0.781-0.021-1.164-0.066c2.159,1.342,4.719,2.127,7.473,2.127
	c8.966,0,13.869-7.211,13.869-13.462l-0.014-0.611C30.398,14.628,31.225,13.796,31.879,12.846z"/>
</svg>
