<?xml version="1.0" encoding="utf-8"?>
<!-- Generator: Adobe Illustrator 16.0.0, SVG Export Plug-In . SVG Version: 6.00 Build 0)  -->
<!DOCTYPE svg PUBLIC "-//W3C//DTD SVG 1.1//EN" "http://www.w3.org/Graphics/SVG/1.1/DTD/svg11.dtd">
<svg version="1.1" id="Layer_1" xmlns="http://www.w3.org/2000/svg" xmlns:xlink="http://www.w3.org/1999/xlink" x="0px" y="0px"
	 width="114.292px" height="40px" viewBox="0 0 114.292 40" enable-background="new 0 0 114.292 40" xml:space="preserve">
<path class="path" fill="#09ACF1" d="M114.292,37c0,1.657-1.343,3-3,3H3.047c-1.656,0-3-1.343-3-3V3c0-1.657,1.344-3,3-3h108.245
	c1.657,0,3,1.343,3,3V37z"/>
<path opacity="0.16" d="M0.047,33.195c0,1.657,1.344,3,3,3h108.245c1.657,0,3-1.343,3-3V37c0,1.657-1.343,3-3,3H3.047
	c-1.656,0-3-1.343-3-3V33.195z"/>
<path fill="#FFFFFF" d="M37.987,13.128c-0.841,0.363-1.743,0.607-2.69,0.717c0.969-0.564,1.711-1.454,2.061-2.516
	c-0.906,0.521-1.908,0.901-2.974,1.103C33.528,11.55,32.313,11,30.965,11c-2.583,0-4.683,2.033-4.683,4.542
	c0,0.356,0.041,0.703,0.122,1.036c-3.891-0.189-7.34-1.998-9.648-4.746c-0.404,0.67-0.633,1.45-0.633,2.283
	c0,1.576,0.824,2.968,2.081,3.782c-0.769-0.024-1.489-0.227-2.122-0.57v0.059c0,2.202,1.615,4.039,3.756,4.458
	c-0.393,0.103-0.806,0.159-1.232,0.159c-0.301,0-0.595-0.028-0.881-0.083c0.596,1.807,2.324,3.12,4.375,3.156
	c-1.604,1.219-3.623,1.945-5.815,1.945c-0.378,0-0.751-0.021-1.118-0.064C17.239,28.245,19.699,29,22.344,29
	c8.612,0,13.322-6.927,13.322-12.931l-0.014-0.587C36.565,14.84,37.359,14.041,37.987,13.128z"/>
<g>
	<path fill="#FFFFFF" d="M51.611,15.265h-3.629v-1.31h8.832v1.31h-3.646v10.62h-1.557V15.265z"/>
	<path fill="#FFFFFF" d="M58,17.318l1.133,4.354c0.248,0.957,0.479,1.842,0.638,2.727h0.053c0.195-0.867,0.479-1.787,0.762-2.709
		l1.398-4.371h1.31l1.327,4.283c0.319,1.027,0.566,1.93,0.762,2.797h0.053c0.142-0.867,0.372-1.77,0.655-2.779l1.221-4.301h1.54
		l-2.761,8.566h-1.416l-1.311-4.088c-0.301-0.957-0.549-1.806-0.761-2.815h-0.035c-0.213,1.027-0.479,1.912-0.779,2.833l-1.38,4.07
		h-1.416l-2.585-8.566H58z"/>
	<path fill="#FFFFFF" d="M72.143,14.911c0.018,0.531-0.371,0.956-0.991,0.956c-0.548,0-0.938-0.425-0.938-0.956
		c0-0.549,0.407-0.974,0.974-0.974C71.771,13.938,72.143,14.362,72.143,14.911z M70.408,25.885v-8.566h1.558v8.566H70.408z"/>
	<path fill="#FFFFFF" d="M76.426,14.858v2.46h2.23v1.186h-2.23v4.621c0,1.061,0.301,1.662,1.169,1.662
		c0.407,0,0.708-0.053,0.902-0.105l0.071,1.168c-0.302,0.125-0.779,0.213-1.381,0.213c-0.726,0-1.311-0.23-1.682-0.654
		c-0.442-0.461-0.602-1.223-0.602-2.23v-4.673h-1.328v-1.186h1.328v-2.053L76.426,14.858z"/>
	<path fill="#FFFFFF" d="M82.285,14.858v2.46h2.23v1.186h-2.23v4.621c0,1.061,0.301,1.662,1.169,1.662
		c0.407,0,0.708-0.053,0.902-0.105l0.071,1.168c-0.302,0.125-0.779,0.213-1.381,0.213c-0.726,0-1.311-0.23-1.682-0.654
		c-0.442-0.461-0.602-1.223-0.602-2.23v-4.673h-1.328v-1.186h1.328v-2.053L82.285,14.858z"/>
	<path fill="#FFFFFF" d="M87.028,21.885c0.036,2.107,1.381,2.975,2.938,2.975c1.115,0,1.788-0.195,2.372-0.443l0.266,1.115
		c-0.549,0.248-1.487,0.531-2.851,0.531c-2.637,0-4.212-1.734-4.212-4.318c0-2.584,1.522-4.621,4.018-4.621
		c2.797,0,3.54,2.46,3.54,4.036c0,0.319-0.035,0.567-0.053,0.726H87.028z M91.596,20.77c0.018-0.991-0.407-2.531-2.16-2.531
		c-1.575,0-2.266,1.451-2.39,2.531H91.596z"/>
	<path fill="#FFFFFF" d="M95.029,19.991c0-1.009-0.018-1.876-0.07-2.672h1.362L96.375,19h0.07c0.39-1.15,1.328-1.876,2.372-1.876
		c0.177,0,0.301,0.018,0.442,0.053v1.469c-0.159-0.035-0.318-0.053-0.531-0.053c-1.098,0-1.876,0.831-2.088,2
		c-0.036,0.211-0.071,0.46-0.071,0.725v4.566h-1.54V19.991z"/>
</g>
</svg>
