<?xml version="1.0" encoding="utf-8"?>
<!-- Generator: Adobe Illustrator 16.0.0, SVG Export Plug-In . SVG Version: 6.00 Build 0)  -->
<!DOCTYPE svg PUBLIC "-//W3C//DTD SVG 1.1//EN" "http://www.w3.org/Graphics/SVG/1.1/DTD/svg11.dtd">
<svg version="1.1" id="Layer_1" xmlns="http://www.w3.org/2000/svg" xmlns:xlink="http://www.w3.org/1999/xlink" x="0px" y="0px"
	 width="114.292px" height="40px" viewBox="0 0 114.292 40" enable-background="new 0 0 114.292 40" xml:space="preserve">
<path fill="#FFFFFF" d="M0,40V5c0-2.762,2.239-5,5-5h104.292c2.762,0,5,2.238,5,5v35"/>
<path class="path" fill="#09ACF1" d="M37.987,13.128c-0.841,0.363-1.743,0.607-2.69,0.717c0.969-0.563,1.711-1.454,2.061-2.516
	c-0.906,0.521-1.908,0.901-2.974,1.103C33.528,11.55,32.313,11,30.965,11c-2.583,0-4.683,2.033-4.683,4.542
	c0,0.356,0.041,0.703,0.122,1.036c-3.891-0.189-7.34-1.998-9.648-4.746c-0.404,0.67-0.633,1.45-0.633,2.283
	c0,1.576,0.824,2.968,2.081,3.782c-0.769-0.024-1.489-0.227-2.122-0.57v0.059c0,2.202,1.615,4.039,3.756,4.458
	c-0.393,0.104-0.806,0.159-1.232,0.159c-0.301,0-0.595-0.028-0.881-0.083c0.596,1.807,2.324,3.12,4.375,3.156
	c-1.604,1.219-3.623,1.945-5.815,1.945c-0.378,0-0.751-0.021-1.118-0.064C17.239,28.245,19.699,29,22.344,29
	c8.612,0,13.322-6.927,13.322-12.931l-0.014-0.587C36.565,14.84,37.359,14.041,37.987,13.128z"/>
<g>
	<path class="path" fill="#09ACF1" d="M51.611,15.265h-3.629v-1.31h8.832v1.31h-3.646v10.62h-1.557V15.265z"/>
	<path class="path" fill="#09ACF1" d="M58,17.318l1.133,4.354c0.248,0.957,0.479,1.842,0.641,2.727h0.055c0.193-0.864,0.479-1.787,0.762-2.709
		l1.396-4.371h1.313l1.326,4.283c0.317,1.027,0.564,1.933,0.762,2.797h0.054c0.142-0.864,0.372-1.77,0.655-2.776l1.221-4.301h1.54
		l-2.761,8.566h-1.416l-1.311-4.088c-0.304-0.957-0.552-1.806-0.764-2.815H62.57c-0.213,1.027-0.479,1.915-0.777,2.833l-1.379,4.069
		h-1.416L56.41,17.32L58,17.318L58,17.318z"/>
	<path class="path" fill="#09ACF1" d="M72.143,14.911c0.019,0.531-0.371,0.956-0.991,0.956c-0.548,0-0.938-0.425-0.938-0.956
		c0-0.549,0.406-0.974,0.974-0.974C71.771,13.938,72.143,14.362,72.143,14.911z M70.408,25.885v-8.566h1.559v8.566H70.408z"/>
	<path class="path" fill="#09ACF1" d="M76.425,14.858v2.46h2.229v1.186h-2.229v4.621c0,1.061,0.302,1.662,1.17,1.662
		c0.406,0,0.708-0.053,0.902-0.105l0.068,1.168c-0.302,0.125-0.777,0.213-1.381,0.213c-0.729,0-1.313-0.229-1.684-0.651
		c-0.44-0.461-0.603-1.226-0.603-2.229v-4.675h-1.327V17.32h1.327v-2.053L76.425,14.858z"/>
	<path class="path" fill="#09ACF1" d="M82.285,14.858v2.46h2.23v1.186h-2.23v4.621c0,1.061,0.301,1.662,1.17,1.662
		c0.406,0,0.707-0.053,0.901-0.105l0.071,1.168c-0.303,0.125-0.779,0.213-1.381,0.213c-0.729,0-1.313-0.229-1.684-0.651
		c-0.441-0.461-0.604-1.226-0.604-2.229v-4.675h-1.327V17.32h1.327v-2.053L82.285,14.858z"/>
	<path class="path" fill="#09ACF1" d="M87.028,21.885c0.036,2.107,1.382,2.975,2.938,2.975c1.115,0,1.787-0.192,2.371-0.44l0.267,1.115
		c-0.549,0.247-1.487,0.528-2.851,0.528c-2.637,0-4.213-1.731-4.213-4.315s1.521-4.621,4.019-4.621c2.797,0,3.54,2.46,3.54,4.036
		c0,0.316-0.035,0.564-0.053,0.727L87.028,21.885L87.028,21.885z M91.596,20.77c0.018-0.991-0.407-2.528-2.16-2.528
		c-1.575,0-2.267,1.451-2.39,2.528H91.596z"/>
	<path class="path" fill="#09ACF1" d="M95.029,19.991c0-1.009-0.018-1.876-0.07-2.672h1.362L96.375,19h0.07c0.391-1.15,1.328-1.876,2.372-1.876
		c0.177,0,0.302,0.018,0.442,0.053v1.469c-0.159-0.035-0.318-0.053-0.531-0.053c-1.098,0-1.876,0.831-2.088,2
		c-0.036,0.212-0.071,0.46-0.071,0.726v4.565h-1.54V19.991L95.029,19.991z"/>
</g>
<rect y="36" class="path" fill="#09ACF1" width="114.292" height="4"/>
</svg>
