<?xml version="1.0" encoding="utf-8"?>
<!-- Generator: Adobe Illustrator 16.0.0, SVG Export Plug-In . SVG Version: 6.00 Build 0)  -->
<!DOCTYPE svg PUBLIC "-//W3C//DTD SVG 1.1//EN" "http://www.w3.org/Graphics/SVG/1.1/DTD/svg11.dtd">
<svg version="1.1" id="Layer_1" xmlns="http://www.w3.org/2000/svg" xmlns:xlink="http://www.w3.org/1999/xlink" x="0px" y="0px"
	 width="40px" height="40px" viewBox="0 0 40 40" enable-background="new 0 0 40 40" xml:space="preserve">
<path class="path" fill="#EB512E" d="M40,35c0,2.762-2.238,5-5,5H5c-2.762,0-5-2.238-5-5V5c0-2.761,2.238-5,5-5h30c2.762,0,5,2.239,5,5V35z"/>
<g>
	<path fill="#FFFFFF" d="M12.963,29.807c3.142,0,5.689-2.547,5.689-5.689v-8.234c0-0.745,0.604-1.347,1.349-1.347
		c0.744,0,1.347,0.602,1.347,1.347v1.646l1.953,0.824l2.39-0.824v-1.646c0-3.143-2.547-5.69-5.689-5.69s-5.69,2.547-5.69,5.69v8.086
		c0,0.744-0.604,1.348-1.348,1.348c-0.745,0-1.348-0.604-1.348-1.348v-3.594H7.273v3.742C7.273,27.26,9.819,29.807,12.963,29.807z"
		/>
	<path fill="#FFFFFF" d="M25.69,20.45l-2.39,0.823l-1.953-0.823v3.667c0,3.143,2.547,5.689,5.689,5.689
		c3.144,0,5.689-2.547,5.689-5.689v-3.592h-4.341v3.592c0,0.744-0.604,1.348-1.349,1.348c-0.744,0-1.347-0.604-1.347-1.348V20.45
		L25.69,20.45z"/>
</g>
</svg>
