<?xml version="1.0" encoding="utf-8"?>
<!-- Generator: Adobe Illustrator 16.0.0, SVG Export Plug-In . SVG Version: 6.00 Build 0)  -->
<!DOCTYPE svg PUBLIC "-//W3C//DTD SVG 1.1//EN" "http://www.w3.org/Graphics/SVG/1.1/DTD/svg11.dtd">
<svg version="1.1" id="Layer_1" xmlns="http://www.w3.org/2000/svg" xmlns:xlink="http://www.w3.org/1999/xlink" x="0px" y="0px"
	 width="40px" height="40px" viewBox="0 0 40 40" enable-background="new 0 0 40 40" xml:space="preserve">
<path class="path" fill="#EB512E" d="M20,0c11.046,0,20,8.955,20,20c0,11.047-8.953,20-20,20S0,31.047,0,20C0,8.955,8.954,0,20,0z"/>
<g>
	<path fill="#FFFFFF" d="M12.963,29.807c3.142,0,5.689-2.547,5.689-5.688v-8.235c0-0.745,0.604-1.346,1.349-1.346
		c0.744,0,1.347,0.602,1.347,1.346v1.647l1.953,0.823l2.391-0.823v-1.647c0-3.143-2.547-5.689-5.689-5.689
		c-3.142,0-5.69,2.547-5.69,5.689v8.086c0,0.744-0.604,1.348-1.348,1.348c-0.745,0-1.348-0.604-1.348-1.348v-3.593H7.273v3.742
		C7.273,27.26,9.819,29.807,12.963,29.807z"/>
	<path fill="#FFFFFF" d="M25.689,20.45l-2.39,0.823l-1.952-0.823v3.667c0,3.143,2.547,5.689,5.688,5.689
		c3.144,0,5.688-2.548,5.688-5.689v-3.592h-4.341v3.592c0,0.744-0.604,1.348-1.349,1.348s-1.348-0.604-1.348-1.348V20.45H25.689z"/>
</g>
</svg>
