<?xml version="1.0" encoding="utf-8"?>
<!-- Generator: Adobe Illustrator 16.0.0, SVG Export Plug-In . SVG Version: 6.00 Build 0)  -->
<!DOCTYPE svg PUBLIC "-//W3C//DTD SVG 1.1//EN" "http://www.w3.org/Graphics/SVG/1.1/DTD/svg11.dtd">
<svg version="1.1" id="Layer_1" xmlns="http://www.w3.org/2000/svg" xmlns:xlink="http://www.w3.org/1999/xlink" x="0px" y="0px"
	 width="146.956px" height="40px" viewBox="1.044 0 146.956 40" enable-background="new 1.044 0 146.956 40" xml:space="preserve">
<path class="path" fill="#EB512E" d="M148,35.076c0,2.762-2.238,5-5,5H6.044c-2.761,0-5-2.238-5-5v-30c0-2.761,2.239-5,5-5H143
	c2.762,0,5,2.239,5,5V35.076z"/>
<g>
	<path fill="#FFFFFF" stroke="#FFFFFF" d="M21.582,23.697l0.636-1.502c0.324,0.225,0.731,0.41,1.215,0.559
		c0.482,0.15,0.918,0.229,1.303,0.229c0.678,0,1.225-0.178,1.634-0.52c0.414-0.354,0.618-0.795,0.618-1.332
		c0-0.406-0.111-0.78-0.341-1.122c-0.228-0.348-0.806-0.724-1.729-1.133l-1.029-0.448c-0.868-0.383-1.477-0.836-1.821-1.356
		c-0.349-0.524-0.521-1.153-0.521-1.89c0-0.894,0.34-1.636,1.01-2.223c0.677-0.59,1.541-0.882,2.596-0.882
		c1.412,0,2.392,0.215,2.945,0.645l-0.514,1.423c-0.232-0.16-0.589-0.311-1.065-0.458c-0.476-0.148-0.916-0.221-1.323-0.221
		c-0.592,0-1.059,0.156-1.397,0.475c-0.343,0.315-0.511,0.722-0.511,1.215c0,0.308,0.063,0.584,0.186,0.834
		c0.122,0.252,0.291,0.461,0.508,0.632c0.218,0.167,0.662,0.404,1.337,0.71l1.046,0.467c0.869,0.385,1.481,0.849,1.832,1.385
		c0.352,0.538,0.527,1.219,0.527,2.044c0,0.898-0.384,1.664-1.154,2.291c-0.769,0.625-1.799,0.938-3.085,0.938
		C23.35,24.449,22.384,24.195,21.582,23.697L21.582,23.697z"/>
	<path fill="#FFFFFF" stroke="#FFFFFF" d="M31.385,17.19h-1.082v-1.152h1.082v-1.718l1.652-0.56v2.277h2.563v1.152h-2.563v4.083
		c0,0.688,0.134,1.184,0.399,1.473c0.263,0.295,0.688,0.441,1.273,0.441c0.423,0,0.863-0.098,1.314-0.287l0.245,1.283
		c-0.685,0.15-1.437,0.23-2.254,0.23c-0.741,0-1.362-0.248-1.87-0.729c-0.509-0.484-0.762-1.098-0.762-1.83v-4.665L31.385,17.19
		L31.385,17.19z"/>
	<path fill="#FFFFFF" stroke="#FFFFFF" d="M39.619,16.038v5.242c0,1.27,0.625,1.906,1.872,1.906c0.545,0,1.045-0.141,1.5-0.414
		c0.451-0.279,0.752-0.6,0.894-0.963v-5.771h1.655v8.218h-1.655v-1.137c-0.185,0.318-0.559,0.613-1.117,0.891
		c-0.562,0.268-1.11,0.402-1.642,0.402c-1.023,0-1.806-0.264-2.348-0.775c-0.541-0.52-0.813-1.252-0.813-2.203v-5.396H39.619
		L39.619,16.038z"/>
	<path fill="#FFFFFF" stroke="#FFFFFF" d="M59.081,24.256v-5.2c0-1.295-0.637-1.943-1.906-1.943c-0.402,0-0.775,0.11-1.123,0.327
		c-0.348,0.217-0.586,0.462-0.714,0.742v6.075h-1.656v-5.839c0-0.404-0.172-0.721-0.519-0.953c-0.348-0.231-0.803-0.351-1.373-0.351
		c-0.331,0-0.684,0.112-1.06,0.339c-0.375,0.222-0.64,0.471-0.796,0.743v6.061h-1.653v-8.217h1.081l0.545,0.954
		c0.641-0.738,1.438-1.106,2.396-1.106c1.335,0,2.27,0.364,2.805,1.1c0.188-0.313,0.531-0.574,1.037-0.784
		c0.505-0.21,1.026-0.314,1.558-0.314c0.966,0,1.712,0.252,2.241,0.754c0.527,0.507,0.792,1.214,0.792,2.123v5.493h-1.654V24.256z"
		/>
	<path fill="#FFFFFF" stroke="#FFFFFF" d="M64.383,23.668L63.8,24.416h-0.825V12.369h1.652v4.275
		c0.159-0.19,0.453-0.365,0.886-0.521c0.432-0.16,0.856-0.238,1.275-0.238c1.274,0,2.311,0.388,3.102,1.166
		c0.795,0.78,1.189,1.762,1.189,2.946c0,1.372-0.397,2.452-1.191,3.237c-0.796,0.785-1.871,1.182-3.232,1.182
		c-0.442,0-0.877-0.076-1.302-0.223C64.927,24.043,64.604,23.875,64.383,23.668L64.383,23.668z M64.627,17.759v4.743
		c0,0.08,0.206,0.217,0.618,0.4c0.413,0.184,0.727,0.281,0.941,0.281c1.125,0,1.933-0.24,2.421-0.717
		c0.486-0.479,0.73-1.271,0.73-2.394c0-0.928-0.286-1.658-0.853-2.179c-0.568-0.521-1.334-0.784-2.299-0.784
		c-0.204,0-0.489,0.078-0.851,0.229C64.976,17.497,64.737,17.637,64.627,17.759L64.627,17.759z"/>
	<path fill="#FFFFFF" stroke="#FFFFFF" d="M73.525,21.93v-9.561h1.655v9.318c0,0.439,0.145,0.787,0.433,1.041
		c0.288,0.25,0.662,0.379,1.131,0.379v1.309C74.6,24.416,73.525,23.586,73.525,21.93L73.525,21.93z"/>
	<path fill="#FFFFFF" stroke="#FFFFFF" d="M86.103,20.29h-6.725c0,0.966,0.301,1.7,0.897,2.22c0.524,0.451,1.203,0.682,2.039,0.682
		c0.944,0,1.735-0.246,2.368-0.727l0.695,1.051c-0.257,0.225-0.646,0.42-1.184,0.582c-0.657,0.219-1.392,0.324-2.211,0.324
		c-1.173,0-2.17-0.354-2.984-1.059c-0.912-0.768-1.369-1.807-1.369-3.114c0-1.355,0.474-2.442,1.399-3.26
		c0.837-0.734,1.826-1.1,2.971-1.1c1.328,0,2.371,0.332,3.127,0.991c0.729,0.633,1.101,1.475,1.101,2.522
		C86.232,19.724,86.186,20.02,86.103,20.29L86.103,20.29z M82.087,17.112c-0.74,0-1.357,0.211-1.856,0.631
		c-0.478,0.396-0.744,0.894-0.811,1.485h5.165c0-0.588-0.21-1.078-0.627-1.471C83.498,17.326,82.873,17.112,82.087,17.112
		L82.087,17.112z"/>
	<path fill="#FFFFFF" stroke="#FFFFFF" d="M88.589,12.271h1.739v8.197c0,0.733,0.245,1.335,0.74,1.804
		c0.491,0.471,1.144,0.709,1.965,0.709c0.858,0,1.532-0.229,2.025-0.686c0.495-0.457,0.738-1.078,0.738-1.866V12.27h1.741v8.33
		c0,1.213-0.397,2.154-1.207,2.834c-0.803,0.684-1.896,1.02-3.289,1.02c-1.429,0-2.525-0.332-3.302-0.996
		c-0.771-0.666-1.159-1.617-1.159-2.861L88.589,12.271L88.589,12.271z"/>
	<path fill="#FFFFFF" stroke="#FFFFFF" d="M101.417,23.807v4.27h-1.653V16.038h1.653v0.678c0.625-0.553,1.388-0.83,2.272-0.83
		c1.322,0,2.353,0.364,3.093,1.09c0.738,0.727,1.105,1.791,1.105,3.19c0,1.252-0.372,2.27-1.113,3.061
		c-0.746,0.789-1.818,1.186-3.22,1.186c-0.395,0-0.816-0.064-1.267-0.188C101.832,24.104,101.544,23.963,101.417,23.807
		L101.417,23.807z M101.417,17.811V22.6c0.104,0.141,0.327,0.27,0.662,0.395c0.337,0.125,0.664,0.188,0.981,0.188
		c2.057,0,3.087-1.025,3.087-3.072c0-1.04-0.243-1.8-0.734-2.278c-0.481-0.482-1.267-0.724-2.341-0.724
		c-0.231,0-0.519,0.072-0.854,0.213C101.879,17.472,101.615,17.634,101.417,17.811L101.417,17.811z"/>
	<path fill="#FFFFFF" stroke="#FFFFFF" d="M109.275,20.131c0-1.271,0.39-2.296,1.166-3.075c0.769-0.778,1.794-1.17,3.055-1.17
		c1.341,0,2.375,0.375,3.11,1.125c0.736,0.749,1.102,1.789,1.102,3.121c0,1.324-0.376,2.371-1.134,3.135
		c-0.752,0.768-1.78,1.148-3.083,1.148c-1.328,0-2.365-0.393-3.107-1.162C109.647,22.479,109.275,21.439,109.275,20.131
		L109.275,20.131z M111.017,20.131c0,2.061,0.831,3.09,2.482,3.09c0.773,0,1.381-0.275,1.815-0.826
		c0.438-0.553,0.656-1.309,0.656-2.264c0-2.039-0.824-3.055-2.473-3.055c-0.756,0-1.354,0.27-1.808,0.813
		C111.244,18.432,111.017,19.179,111.017,20.131L111.017,20.131z"/>
	<path fill="#FFFFFF" stroke="#FFFFFF" d="M125.836,24.256v-4.778c0-0.875-0.149-1.488-0.449-1.839
		c-0.298-0.352-0.801-0.526-1.502-0.526c-0.378,0-0.772,0.102-1.186,0.302c-0.408,0.199-0.727,0.442-0.947,0.734v6.107h-1.65v-8.217
		h1.133l0.52,1.062c0.547-0.811,1.438-1.215,2.677-1.215c2.045,0,3.066,1.097,3.066,3.286v5.086h-1.659v-0.002H125.836z"/>
</g>
</svg>
