<?xml version="1.0" encoding="utf-8"?>
<!-- Generator: Adobe Illustrator 16.0.0, SVG Export Plug-In . SVG Version: 6.00 Build 0)  -->
<!DOCTYPE svg PUBLIC "-//W3C//DTD SVG 1.1//EN" "http://www.w3.org/Graphics/SVG/1.1/DTD/svg11.dtd">
<svg version="1.1" id="Layer_1" xmlns="http://www.w3.org/2000/svg" xmlns:xlink="http://www.w3.org/1999/xlink" x="0px" y="0px"
	 width="148px" height="40px" viewBox="0 0 148 40" enable-background="new 0 0 148 40" xml:space="preserve">
<path class="path" fill="#EB512E" d="M147.999,35c0,2.762-2.238,5-5,5h-138c-2.762,0-5-2.238-5-5V5c0-2.761,2.238-5,5-5h138c2.762,0,5,2.239,5,5
	V35z"/>
<g>
	<path fill="#FFFFFF" d="M66.963,29.807c3.142,0,5.689-2.547,5.689-5.689v-8.234c0-0.745,0.604-1.347,1.349-1.347
		s1.347,0.602,1.347,1.347v1.646l1.953,0.824l2.39-0.824v-1.646c0-3.143-2.547-5.689-5.689-5.689s-5.69,2.547-5.69,5.689v8.087
		c0,0.742-0.604,1.348-1.348,1.348c-0.745,0-1.348-0.605-1.348-1.348v-3.595h-4.342v3.742C61.272,27.26,63.819,29.807,66.963,29.807
		z"/>
	<path fill="#FFFFFF" d="M79.689,20.45l-2.39,0.824l-1.953-0.824v3.667c0,3.143,2.547,5.689,5.689,5.689
		c3.144,0,5.688-2.549,5.688-5.689v-3.592h-4.341v3.592c0,0.744-0.604,1.348-1.35,1.348c-0.744,0-1.347-0.604-1.347-1.348V20.45
		H79.689z"/>
</g>
</svg>
