<?xml version="1.0" encoding="utf-8"?>
<!-- Generator: Adobe Illustrator 16.0.0, SVG Export Plug-In . SVG Version: 6.00 Build 0)  -->
<!DOCTYPE svg PUBLIC "-//W3C//DTD SVG 1.1//EN" "http://www.w3.org/Graphics/SVG/1.1/DTD/svg11.dtd">
<svg version="1.1" id="Layer_1" xmlns="http://www.w3.org/2000/svg" xmlns:xlink="http://www.w3.org/1999/xlink" x="0px" y="0px"
	 width="40px" height="40px" viewBox="0 0 40 40" enable-background="new 0 0 40 40" xml:space="preserve">
<path class="path" fill="#EB512E" d="M40,35.001c0,2.762-2.238,5-5,5H5c-2.762,0-5-2.238-5-5v-30c0-2.761,2.238-5,5-5h30c2.762,0,5,2.239,5,5
	V35.001z"/>
<g>
	<g>
		<defs>
			<path id="SVGID_1_" d="M23.626,11.499l37.223,27.755L44.905,57.027L10.479,29.23l-0.567-0.314l4.15-0.791
				c0,0-1.537-0.303,1.625-2.375c5.438-3.563-3.161,1.295,0.795-7.938c2.33-5.438,3.429-3.221,3.476-3.503
				c0.047-0.282,2.434-2.875,2.434-2.875L23.626,11.499z"/>
		</defs>
		<clipPath id="SVGID_2_">
			<use xlink:href="#SVGID_1_"  overflow="visible"/>
		</clipPath>
		<path clip-path="url(#SVGID_2_)" fill="#BF3A25" d="M40,35.002C40,37.764,37.762,40,35,40H5c-2.761,0-5-2.236-5-4.998v-30
			c0-2.761,2.239-5,5-5h30c2.762,0,5,2.239,5,5V35.002z"/>
	</g>
</g>
<g>
	<path fill="#FFFFFF" d="M12.963,29.807c3.142,0,5.689-2.547,5.689-5.688v-8.234c0-0.745,0.604-1.347,1.349-1.347
		c0.744,0,1.347,0.602,1.347,1.347v1.646l1.953,0.824l2.391-0.824v-1.646c0-3.143-2.547-5.69-5.688-5.69
		c-3.142,0-5.69,2.547-5.69,5.69v8.088c0,0.742-0.604,1.348-1.348,1.348c-0.745,0-1.348-0.604-1.348-1.348v-3.596H7.273v3.742
		C7.273,27.26,9.819,29.807,12.963,29.807z"/>
	<path fill="#FFFFFF" d="M25.689,20.45l-2.392,0.823l-1.95-0.823v3.667c0,3.143,2.547,5.689,5.688,5.689
		c3.145,0,5.688-2.55,5.688-5.689v-3.592h-4.341v3.592c0,0.744-0.604,1.348-1.349,1.348c-0.745,0-1.348-0.604-1.348-1.348V20.45
		H25.689z"/>
</g>
</svg>
