<?xml version="1.0" encoding="utf-8"?>
<!-- Generator: Adobe Illustrator 16.0.0, SVG Export Plug-In . SVG Version: 6.00 Build 0)  -->
<!DOCTYPE svg PUBLIC "-//W3C//DTD SVG 1.1//EN" "http://www.w3.org/Graphics/SVG/1.1/DTD/svg11.dtd">
<svg version="1.1" id="Layer_1" xmlns="http://www.w3.org/2000/svg" xmlns:xlink="http://www.w3.org/1999/xlink" x="0px" y="0px"
	 width="163.004px" height="40px" viewBox="0 0 163.004 40" enable-background="new 0 0 163.004 40" xml:space="preserve">
<rect class="path" fill="#EB512E" width="163.004" height="40"/>
<g>
	<path fill="#FFFFFF" d="M48.866,22.654c0.69,0.425,1.699,0.777,2.762,0.777c1.575,0,2.495-0.832,2.495-2.035
		c0-1.114-0.637-1.751-2.248-2.371c-1.946-0.69-3.15-1.699-3.15-3.381c0-1.858,1.54-3.239,3.858-3.239
		c1.222,0,2.106,0.283,2.638,0.584l-0.425,1.257c-0.39-0.212-1.186-0.566-2.266-0.566c-1.629,0-2.248,0.973-2.248,1.788
		c0,1.115,0.726,1.664,2.372,2.301c2.018,0.779,3.044,1.752,3.044,3.505c0,1.84-1.362,3.434-4.177,3.434
		c-1.15,0-2.407-0.336-3.045-0.762L48.866,22.654z"/>
	<path fill="#FFFFFF" d="M59.574,13.504v2.46h2.23v1.186h-2.23v4.62c0,1.062,0.302,1.662,1.169,1.662
		c0.406,0,0.708-0.053,0.902-0.104l0.07,1.168c-0.301,0.125-0.778,0.213-1.38,0.213c-0.726,0-1.31-0.229-1.682-0.653
		c-0.442-0.462-0.602-1.224-0.602-2.23V17.15h-1.328v-1.186h1.328v-2.053L59.574,13.504z"/>
	<path fill="#FFFFFF" d="M70.727,22.193c0,0.886,0.018,1.664,0.07,2.336h-1.38l-0.089-1.397h-0.035
		c-0.407,0.691-1.311,1.595-2.832,1.595c-1.346,0-2.956-0.744-2.956-3.752v-5.01h1.558v4.744c0,1.629,0.495,2.725,1.911,2.725
		c1.045,0,1.771-0.725,2.054-1.416c0.088-0.229,0.142-0.512,0.142-0.795v-5.257h1.558L70.727,22.193L70.727,22.193z"/>
	<path fill="#FFFFFF" d="M73.31,18.283c0-0.885-0.018-1.611-0.07-2.319h1.362l0.071,1.38h0.053c0.479-0.814,1.274-1.575,2.69-1.575
		c1.168,0,2.054,0.708,2.425,1.717h0.035c0.266-0.478,0.603-0.85,0.956-1.115c0.514-0.39,1.08-0.602,1.895-0.602
		c1.133,0,2.813,0.744,2.813,3.717v5.043h-1.521v-4.847c0-1.647-0.603-2.638-1.858-2.638c-0.886,0-1.575,0.655-1.841,1.416
		c-0.071,0.213-0.124,0.496-0.124,0.779v5.29h-1.522v-5.131c0-1.363-0.602-2.354-1.788-2.354c-0.974,0-1.681,0.779-1.929,1.558
		c-0.089,0.23-0.124,0.496-0.124,0.761v5.168H73.31V18.283z"/>
	<path fill="#FFFFFF" d="M88.002,24.529c0.035-0.584,0.069-1.45,0.069-2.213V11.964h1.54v5.381h0.035
		c0.549-0.956,1.54-1.575,2.921-1.575c2.124,0,3.628,1.771,3.61,4.373c0,3.062-1.93,4.583-3.842,4.583
		c-1.238,0-2.229-0.479-2.866-1.611h-0.054l-0.07,1.416h-1.344V24.529z M89.612,21.098c0,0.194,0.035,0.391,0.07,0.565
		c0.302,1.08,1.204,1.823,2.337,1.823c1.628,0,2.603-1.327,2.603-3.292c0-1.717-0.886-3.186-2.55-3.186
		c-1.062,0-2.053,0.726-2.37,1.911c-0.037,0.178-0.09,0.39-0.09,0.637V21.098z"/>
	<path fill="#FFFFFF" d="M98.144,11.964h1.558v12.565h-1.558V11.964z"/>
	<path fill="#FFFFFF" d="M103.188,20.529c0.036,2.107,1.381,2.976,2.938,2.976c1.115,0,1.789-0.194,2.373-0.442l0.266,1.114
		c-0.549,0.248-1.487,0.531-2.852,0.531c-2.637,0-4.211-1.733-4.211-4.318c0-2.584,1.521-4.62,4.018-4.62
		c2.797,0,3.539,2.46,3.539,4.036c0,0.319-0.034,0.567-0.053,0.725h-6.018V20.529z M107.754,19.416
		c0.019-0.991-0.406-2.531-2.159-2.531c-1.575,0-2.267,1.451-2.39,2.531H107.754z"/>
	<path fill="#FFFFFF" d="M118.357,22.193c0,0.886,0.019,1.664,0.069,2.336h-1.379l-0.09-1.397h-0.035
		c-0.406,0.691-1.311,1.595-2.832,1.595c-1.346,0-2.955-0.744-2.955-3.752v-5.01h1.558v4.744c0,1.629,0.495,2.725,1.911,2.725
		c1.045,0,1.771-0.725,2.055-1.416c0.088-0.229,0.141-0.512,0.141-0.795v-5.257h1.559L118.357,22.193L118.357,22.193z"/>
	<path fill="#FFFFFF" d="M120.94,18.761c0-1.098-0.035-1.982-0.07-2.796h1.398l0.07,1.469h0.035
		c0.638-1.044,1.646-1.664,3.045-1.664c2.069,0,3.627,1.753,3.627,4.355c0,3.08-1.875,4.602-3.894,4.602
		c-1.133,0-2.124-0.496-2.638-1.347h-0.035v4.656h-1.54L120.94,18.761L120.94,18.761z M122.48,21.044
		c0,0.229,0.035,0.442,0.071,0.638c0.283,1.079,1.221,1.823,2.336,1.823c1.646,0,2.602-1.346,2.602-3.31
		c0-1.717-0.902-3.186-2.549-3.186c-1.063,0-2.053,0.761-2.354,1.93c-0.055,0.194-0.106,0.424-0.106,0.636V21.044L122.48,21.044z"/>
	<path fill="#FFFFFF" d="M138.765,20.177c0,3.167-2.195,4.548-4.267,4.548c-2.318,0-4.105-1.699-4.105-4.408
		c0-2.866,1.876-4.548,4.248-4.548C137.101,15.77,138.765,17.558,138.765,20.177z M131.967,20.265c0,1.875,1.08,3.292,2.603,3.292
		c1.487,0,2.603-1.397,2.603-3.328c0-1.452-0.726-3.292-2.566-3.292C132.765,16.938,131.967,18.637,131.967,20.265z"/>
	<path fill="#FFFFFF" d="M140.729,18.283c0-0.885-0.018-1.611-0.07-2.319h1.381l0.088,1.416h0.035
		c0.426-0.813,1.416-1.61,2.832-1.61c1.188,0,3.027,0.708,3.027,3.646v5.113h-1.559v-4.938c0-1.38-0.514-2.531-1.981-2.531
		c-1.026,0-1.823,0.726-2.089,1.594c-0.071,0.194-0.105,0.46-0.105,0.726v5.148h-1.559V18.283z"/>
</g>
<g>
	<path fill="#FFFFFF" d="M20.342,29c2.883,0,5.221-2.338,5.221-5.221v-7.557c0-0.684,0.555-1.236,1.238-1.236
		c0.683,0,1.236,0.553,1.236,1.236v1.511l1.793,0.756l2.193-0.756v-1.511c0-2.885-2.338-5.223-5.219-5.223
		c-2.885,0-5.223,2.338-5.223,5.223v7.422c0,0.682-0.555,1.236-1.238,1.236c-0.683,0-1.236-0.554-1.236-1.236v-3.299h-3.988v3.434
		C15.119,26.662,17.455,29,20.342,29z"/>
	<path fill="#FFFFFF" d="M32.021,20.412l-2.195,0.756l-1.789-0.756v3.365c0,2.885,2.338,5.223,5.221,5.223
		c2.885,0,5.219-2.342,5.219-5.223v-3.296h-3.984v3.296c0,0.684-0.555,1.236-1.236,1.236c-0.684,0-1.238-0.554-1.238-1.236v-3.365
		H32.021z"/>
</g>
</svg>
