<?xml version="1.0" encoding="utf-8"?>
<!-- Generator: Adobe Illustrator 16.0.0, SVG Export Plug-In . SVG Version: 6.00 Build 0)  -->
<!DOCTYPE svg PUBLIC "-//W3C//DTD SVG 1.1//EN" "http://www.w3.org/Graphics/SVG/1.1/DTD/svg11.dtd">
<svg version="1.1" id="Layer_1" xmlns="http://www.w3.org/2000/svg" xmlns:xlink="http://www.w3.org/1999/xlink" x="0px" y="0px"
	 width="154.307px" height="32px" viewBox="4.417 6.131 154.307 32" enable-background="new 4.417 6.131 154.307 32"
	 xml:space="preserve">
<rect x="4.417" y="6.131" class="path" fill="#EB512E" width="154.307" height="32"/>
<g>
	<path fill="#FFFFFF" d="M47.569,24.785c0.69,0.425,1.699,0.777,2.764,0.777c1.575,0,2.495-0.832,2.495-2.035
		c0-1.114-0.639-1.752-2.248-2.373c-1.946-0.688-3.15-1.698-3.15-3.381c0-1.857,1.54-3.238,3.858-3.238
		c1.222,0,2.104,0.283,2.638,0.584L53.5,16.375c-0.392-0.212-1.188-0.565-2.268-0.565c-1.629,0-2.248,0.973-2.248,1.788
		c0,1.114,0.728,1.663,2.372,2.301c2.02,0.778,3.044,1.752,3.044,3.506c0,1.841-1.36,3.435-4.177,3.435
		c-1.148,0-2.407-0.336-3.045-0.763L47.569,24.785z"/>
	<path fill="#FFFFFF" d="M58.277,15.634v2.46h2.23v1.188h-2.23V23.9c0,1.063,0.304,1.662,1.169,1.662
		c0.406,0,0.708-0.054,0.902-0.104l0.07,1.168c-0.301,0.125-0.778,0.213-1.38,0.213c-0.728,0-1.312-0.229-1.684-0.65
		c-0.44-0.463-0.602-1.227-0.602-2.23v-4.68h-1.328v-1.187h1.328V16.04L58.277,15.634z"/>
	<path fill="#FFFFFF" d="M69.43,24.324c0,0.886,0.02,1.664,0.07,2.336h-1.38l-0.089-1.396h-0.035
		c-0.407,0.69-1.313,1.594-2.832,1.594c-1.348,0-2.956-0.742-2.956-3.752v-5.01h1.558v4.745c0,1.63,0.495,2.726,1.911,2.726
		c1.045,0,1.771-0.726,2.054-1.416c0.088-0.229,0.144-0.512,0.144-0.795v-5.26h1.558L69.43,24.324L69.43,24.324z"/>
	<path fill="#FFFFFF" d="M72.013,20.414c0-0.887-0.018-1.612-0.07-2.32h1.362l0.071,1.381h0.053c0.479-0.813,1.274-1.576,2.69-1.576
		c1.168,0,2.054,0.709,2.425,1.719h0.035c0.266-0.479,0.603-0.852,0.956-1.115c0.514-0.391,1.08-0.604,1.895-0.604
		c1.133,0,2.813,0.744,2.813,3.719v5.044h-1.521v-4.849c0-1.646-0.604-2.639-1.857-2.639c-0.888,0-1.575,0.655-1.843,1.417
		c-0.069,0.214-0.124,0.496-0.124,0.779v5.29h-1.521v-5.133c0-1.362-0.604-2.354-1.788-2.354c-0.974,0-1.681,0.779-1.929,1.56
		c-0.091,0.229-0.124,0.496-0.124,0.761v5.169h-1.523V20.414z"/>
	<path fill="#FFFFFF" d="M86.705,26.66c0.035-0.584,0.066-1.45,0.066-2.213V14.095h1.541v5.379h0.035
		c0.549-0.955,1.539-1.574,2.919-1.574c2.125,0,3.629,1.771,3.611,4.373c0,3.063-1.93,4.584-3.842,4.584
		c-1.237,0-2.229-0.479-2.866-1.61h-0.055l-0.068,1.416h-1.346V26.66H86.705z M88.314,23.229c0,0.194,0.035,0.394,0.07,0.565
		c0.303,1.08,1.205,1.823,2.338,1.823c1.626,0,2.604-1.327,2.604-3.292c0-1.718-0.889-3.187-2.552-3.187
		c-1.063,0-2.053,0.726-2.371,1.91c-0.035,0.18-0.09,0.393-0.09,0.639V23.229z"/>
	<path fill="#FFFFFF" d="M96.847,14.095h1.561V26.66h-1.561V14.095z"/>
	<path fill="#FFFFFF" d="M101.89,22.66c0.037,2.105,1.381,2.977,2.939,2.977c1.113,0,1.789-0.195,2.373-0.443l0.266,1.115
		c-0.549,0.248-1.488,0.53-2.852,0.53c-2.641,0-4.213-1.733-4.213-4.317s1.521-4.621,4.02-4.621c2.797,0,3.539,2.461,3.539,4.037
		c0,0.318-0.035,0.566-0.053,0.727h-6.021L101.89,22.66L101.89,22.66z M106.456,21.547c0.02-0.99-0.406-2.531-2.158-2.531
		c-1.576,0-2.27,1.451-2.391,2.531H106.456z"/>
	<path fill="#FFFFFF" d="M117.06,24.324c0,0.886,0.021,1.664,0.068,2.336h-1.379l-0.09-1.396h-0.035
		c-0.406,0.69-1.313,1.594-2.832,1.594c-1.348,0-2.955-0.742-2.955-3.752v-5.01h1.559v4.745c0,1.63,0.494,2.726,1.91,2.726
		c1.045,0,1.771-0.726,2.057-1.416c0.09-0.229,0.143-0.512,0.143-0.795v-5.26h1.559L117.06,24.324L117.06,24.324z"/>
	<path fill="#FFFFFF" d="M119.642,20.893c0-1.099-0.035-1.981-0.066-2.797h1.396l0.07,1.469h0.035
		c0.639-1.043,1.646-1.664,3.045-1.664c2.066,0,3.627,1.754,3.627,4.355c0,3.08-1.875,4.602-3.896,4.602
		c-1.133,0-2.123-0.496-2.637-1.346h-0.035v4.655h-1.541L119.642,20.893L119.642,20.893z M121.183,23.175
		c0,0.229,0.035,0.442,0.07,0.638c0.283,1.08,1.221,1.824,2.336,1.824c1.646,0,2.602-1.347,2.602-3.312
		c0-1.718-0.898-3.187-2.549-3.187c-1.063,0-2.053,0.762-2.354,1.93c-0.057,0.195-0.105,0.425-0.105,0.638V23.175L121.183,23.175z"
		/>
	<path fill="#FFFFFF" d="M137.468,22.309c0,3.166-2.195,4.547-4.268,4.547c-2.318,0-4.105-1.697-4.105-4.405
		c0-2.867,1.877-4.55,4.248-4.55C135.804,17.9,137.468,19.688,137.468,22.309z M130.669,22.395c0,1.877,1.08,3.293,2.604,3.293
		c1.486,0,2.604-1.396,2.604-3.328c0-1.451-0.729-3.293-2.566-3.293C131.468,19.068,130.669,20.77,130.669,22.395z"/>
	<path fill="#FFFFFF" d="M139.431,20.414c0-0.887-0.018-1.612-0.068-2.32h1.383l0.088,1.416h0.035
		c0.426-0.813,1.416-1.609,2.832-1.609c1.188,0,3.023,0.707,3.023,3.646v5.113h-1.559v-4.938c0-1.381-0.516-2.531-1.98-2.531
		c-1.023,0-1.822,0.727-2.09,1.595c-0.07,0.194-0.104,0.461-0.104,0.728v5.146h-1.563L139.431,20.414L139.431,20.414z"/>
</g>
<g>
	<path fill="#FFFFFF" d="M21.06,30.132c2.563,0,4.643-2.077,4.643-4.641v-6.718c0-0.607,0.492-1.1,1.1-1.1s1.099,0.492,1.099,1.1
		v1.344l1.596,0.672l1.947-0.672v-1.344c0-2.563-2.076-4.644-4.639-4.644c-2.563,0-4.643,2.079-4.643,4.644v6.598
		c0,0.605-0.494,1.098-1.103,1.098c-0.605,0-1.099-0.49-1.099-1.098v-2.934h-3.544v3.054C16.417,28.055,18.494,30.132,21.06,30.132z
		"/>
	<path fill="#FFFFFF" d="M31.44,22.498L29.49,23.17l-1.592-0.672v2.991c0,2.563,2.078,4.643,4.642,4.643s4.639-2.082,4.639-4.643
		v-2.933h-3.541v2.933c0,0.606-0.493,1.099-1.099,1.099c-0.608,0-1.103-0.492-1.103-1.099v-2.991H31.44z"/>
</g>
</svg>
