<?xml version="1.0" encoding="utf-8"?>
<!-- Generator: Adobe Illustrator 16.0.0, SVG Export Plug-In . SVG Version: 6.00 Build 0)  -->
<!DOCTYPE svg PUBLIC "-//W3C//DTD SVG 1.1//EN" "http://www.w3.org/Graphics/SVG/1.1/DTD/svg11.dtd">
<svg version="1.1" id="Layer_1" xmlns="http://www.w3.org/2000/svg" xmlns:xlink="http://www.w3.org/1999/xlink" x="0px" y="0px"
	 width="183.378px" height="90.001px" viewBox="-6.899 -10.001 183.378 90.001"
	 enable-background="new -6.899 -10.001 183.378 90.001" xml:space="preserve">
<path class="path" fill="#E8472D" d="M176.479,76.999c0,1.657-1.342,3-3,3H-3.899c-1.656,0-3-1.343-3-3v-84c0-1.657,1.344-3,3-3h177.378
	c1.658,0,3,1.343,3,3V76.999z"/>
<path opacity="0.16" enable-background="new    " d="M-6.899,73.195c0,1.655,1.344,3,3,3h177.378c1.658,0,3-1.345,3-3V77
	c0,1.656-1.342,3-3,3H-3.899c-1.656,0-3-1.344-3-3V73.195z"/>
<g>
	<g>
		<path fill="#FFFFFF" d="M74.748,29.998c4.483,0,8.12-3.639,8.12-8.121V10.125c0-1.065,0.866-1.922,1.927-1.922
			c1.063,0,1.922,0.86,1.922,1.922v2.349l2.789,1.177l3.412-1.177v-2.349C92.917,5.636,89.28,2,84.8,2
			c-4.49,0-8.126,3.636-8.126,8.125v11.544c0,1.06-0.866,1.917-1.925,1.917c-1.061,0-1.921-0.862-1.921-1.917v-5.136h-6.204v5.346
			C66.624,26.359,70.257,29.998,74.748,29.998z"/>
		<path fill="#FFFFFF" d="M92.915,16.64l-3.416,1.176l-2.783-1.176v5.236c0,4.487,3.637,8.124,8.121,8.124
			c4.486,0,8.117-3.643,8.117-8.124v-5.128h-6.193v5.128c0,1.064-0.866,1.922-1.924,1.922c-1.063,0-1.922-0.865-1.922-1.922V16.64
			L92.915,16.64z"/>
	</g>
	<g>
		<path fill="#FFFFFF" d="M12.547,54.825l2.233-0.195c0.106,0.896,0.353,1.63,0.739,2.204c0.386,0.572,0.986,1.037,1.8,1.391
			c0.814,0.354,1.729,0.531,2.747,0.531c0.903,0,1.701-0.135,2.393-0.402c0.691-0.27,1.206-0.637,1.544-1.104
			s0.507-0.979,0.507-1.531c0-0.563-0.163-1.053-0.488-1.471c-0.325-0.42-0.862-0.771-1.611-1.058
			c-0.48-0.188-1.542-0.479-3.187-0.873c-1.644-0.395-2.795-0.767-3.454-1.116c-0.854-0.447-1.491-1.002-1.91-1.666
			c-0.42-0.663-0.629-1.405-0.629-2.228c0-0.904,0.257-1.748,0.769-2.533c0.514-0.785,1.262-1.381,2.246-1.789
			c0.985-0.405,2.08-0.609,3.284-0.609c1.326,0,2.496,0.214,3.51,0.643c1.013,0.426,1.792,1.055,2.337,1.885
			c0.546,0.83,0.839,1.771,0.879,2.82l-2.27,0.17c-0.123-1.131-0.536-1.984-1.239-2.563c-0.704-0.578-1.744-0.867-3.119-0.867
			c-1.433,0-2.477,0.264-3.131,0.787c-0.655,0.525-0.983,1.158-0.983,1.898c0,0.644,0.232,1.172,0.696,1.588
			c0.456,0.414,1.646,0.84,3.57,1.274s3.245,0.816,3.962,1.142c1.041,0.479,1.811,1.089,2.307,1.826
			c0.496,0.735,0.744,1.584,0.744,2.545c0,0.951-0.272,1.85-0.817,2.69c-0.545,0.841-1.329,1.497-2.35,1.966
			s-2.171,0.701-3.448,0.701c-1.62,0-2.978-0.236-4.071-0.708c-1.095-0.472-1.953-1.182-2.576-2.131
			C12.907,57.094,12.579,56.021,12.547,54.825z"/>
		<path fill="#FFFFFF" d="M34.544,58.609l0.317,1.94c-0.618,0.13-1.172,0.195-1.66,0.195c-0.798,0-1.416-0.127-1.855-0.379
			s-0.749-0.584-0.928-0.994c-0.179-0.412-0.269-1.276-0.269-2.595V49.32h-1.611v-1.709h1.611V44.4l2.186-1.318v4.529h2.209v1.709
			h-2.209v7.58c0,0.627,0.038,1.029,0.115,1.209c0.077,0.179,0.203,0.32,0.379,0.427c0.175,0.106,0.425,0.159,0.75,0.159
			C33.823,58.695,34.146,58.666,34.544,58.609z"/>
		<path fill="#FFFFFF" d="M45.188,60.574V58.67c-1.01,1.465-2.381,2.197-4.114,2.197c-0.765,0-1.479-0.146-2.143-0.439
			s-1.155-0.66-1.477-1.104c-0.322-0.444-0.548-0.987-0.678-1.631c-0.09-0.432-0.134-1.114-0.134-2.051v-8.031h2.197V54.8
			c0,1.147,0.044,1.921,0.134,2.319c0.139,0.578,0.432,1.031,0.879,1.359c0.447,0.33,1.001,0.496,1.66,0.496
			c0.659,0,1.277-0.17,1.855-0.508c0.578-0.338,0.986-0.797,1.227-1.379c0.241-0.582,0.36-1.426,0.36-2.533v-6.945h2.197v12.964
			L45.188,60.574L45.188,60.574z"/>
		<path fill="#FFFFFF" d="M50.596,60.574V47.611h1.965v1.818c0.407-0.636,0.948-1.146,1.623-1.531
			c0.676-0.388,1.445-0.58,2.308-0.58c0.96,0,1.747,0.199,2.362,0.598c0.614,0.398,1.048,0.957,1.3,1.672
			c1.025-1.514,2.36-2.27,4.004-2.27c1.286,0,2.274,0.354,2.966,1.067c0.692,0.712,1.038,1.81,1.038,3.289v8.898h-2.185v-8.166
			c0-0.88-0.072-1.513-0.214-1.898c-0.143-0.387-0.401-0.696-0.775-0.934s-0.813-0.354-1.318-0.354
			c-0.911,0-1.668,0.303-2.271,0.908c-0.603,0.607-0.903,1.578-0.903,2.912v7.531h-2.197V52.15c0-0.978-0.179-1.709-0.537-2.197
			s-0.944-0.732-1.758-0.732c-0.618,0-1.19,0.162-1.715,0.488c-0.525,0.325-0.905,0.801-1.142,1.428
			c-0.237,0.627-0.354,1.53-0.354,2.711v6.726L50.596,60.574L50.596,60.574z"/>
		<path fill="#FFFFFF" d="M73.448,60.574h-2.039V42.68h2.197v6.385c0.928-1.164,2.111-1.746,3.553-1.746
			c0.797,0,1.552,0.16,2.264,0.482c0.713,0.32,1.299,0.772,1.758,1.354c0.461,0.581,0.82,1.284,1.08,2.105
			c0.262,0.822,0.392,1.701,0.392,2.638c0,2.222-0.549,3.938-1.647,5.15c-1.098,1.213-2.417,1.818-3.955,1.818
			c-1.53,0-2.73-0.639-3.601-1.916L73.448,60.574L73.448,60.574z M73.423,53.995c0,1.555,0.212,2.678,0.635,3.369
			c0.692,1.132,1.628,1.696,2.809,1.696c0.96,0,1.79-0.416,2.49-1.25c0.698-0.836,1.049-2.078,1.049-3.73
			c0-1.691-0.335-2.941-1.007-3.747c-0.671-0.806-1.483-1.208-2.435-1.208c-0.961,0-1.791,0.416-2.49,1.25
			C73.773,51.21,73.423,52.416,73.423,53.995z"/>
		<path fill="#FFFFFF" d="M85.276,60.574V42.68h2.197v17.896L85.276,60.574L85.276,60.574z"/>
		<path fill="#FFFFFF" d="M99.755,56.4l2.271,0.279c-0.356,1.327-1.021,2.356-1.99,3.09c-0.967,0.731-2.205,1.098-3.711,1.098
			c-1.896,0-3.397-0.584-4.509-1.752c-1.111-1.167-1.666-2.805-1.666-4.912c0-2.182,0.561-3.874,1.684-5.078
			c1.123-1.205,2.579-1.807,4.37-1.807c1.732,0,3.148,0.59,4.248,1.77c1.099,1.18,1.647,2.84,1.647,4.98
			c0,0.131-0.004,0.326-0.014,0.586h-9.666c0.082,1.424,0.483,2.515,1.207,3.271c0.726,0.757,1.629,1.136,2.711,1.136
			c0.805,0,1.492-0.211,2.063-0.636C98.97,58.004,99.421,57.328,99.755,56.4z M92.542,52.848h7.236
			c-0.098-1.09-0.373-1.908-0.83-2.453c-0.699-0.847-1.607-1.27-2.723-1.27c-1.008,0-1.857,0.338-2.545,1.014
			C92.994,50.813,92.613,51.717,92.542,52.848z"/>
		<path fill="#FFFFFF" d="M113.28,60.574V58.67c-1.01,1.465-2.381,2.197-4.113,2.197c-0.766,0-1.479-0.146-2.143-0.439
			c-0.664-0.293-1.156-0.66-1.477-1.104c-0.322-0.444-0.549-0.987-0.679-1.631c-0.09-0.432-0.135-1.114-0.135-2.051v-8.031h2.196
			V54.8c0,1.147,0.046,1.921,0.136,2.319c0.139,0.578,0.433,1.031,0.879,1.359c0.446,0.33,1,0.496,1.66,0.496
			c0.657,0,1.276-0.17,1.854-0.508s0.986-0.797,1.228-1.379s0.358-1.426,0.358-2.533v-6.945h2.197v12.964L113.28,60.574
			L113.28,60.574z"/>
		<path fill="#FFFFFF" d="M118.687,65.543V47.611h2.002v1.684c0.473-0.658,1.006-1.152,1.6-1.482s1.314-0.494,2.16-0.494
			c1.107,0,2.084,0.285,2.93,0.854c0.849,0.57,1.486,1.373,1.918,2.412c0.433,1.037,0.646,2.174,0.646,3.411
			c0,1.327-0.238,2.521-0.715,3.583c-0.475,1.063-1.168,1.875-2.074,2.44c-0.908,0.565-1.861,0.849-2.863,0.849
			c-0.732,0-1.389-0.154-1.971-0.464s-1.061-0.699-1.436-1.172v6.312L118.687,65.543L118.687,65.543z M120.677,54.166
			c0,1.668,0.338,2.9,1.014,3.699c0.676,0.797,1.494,1.195,2.453,1.195c0.977,0,1.813-0.412,2.51-1.238
			c0.695-0.826,1.043-2.105,1.043-3.84c0-1.651-0.34-2.89-1.02-3.711c-0.681-0.821-1.49-1.232-2.437-1.232
			c-0.937,0-1.764,0.438-2.483,1.313C121.038,51.227,120.677,52.498,120.677,54.166z"/>
		<path fill="#FFFFFF" d="M131.772,54.093c0-2.399,0.668-4.179,2.002-5.335c1.115-0.959,2.475-1.439,4.078-1.439
			c1.781,0,3.238,0.584,4.369,1.752s1.697,2.781,1.697,4.841c0,1.668-0.25,2.979-0.75,3.937c-0.502,0.957-1.23,1.698-2.187,2.229
			c-0.957,0.529-2,0.793-3.131,0.793c-1.814,0-3.283-0.581-4.4-1.745C132.333,57.959,131.772,56.282,131.772,54.093z M134.03,54.093
			c0,1.66,0.363,2.903,1.088,3.729s1.635,1.238,2.734,1.238c1.09,0,1.998-0.414,2.721-1.244c0.725-0.83,1.088-2.097,1.088-3.797
			c0-1.604-0.365-2.818-1.094-3.646c-0.729-0.825-1.633-1.238-2.715-1.238c-1.1,0-2.01,0.411-2.734,1.232
			C134.394,51.191,134.03,52.434,134.03,54.093z"/>
		<path fill="#FFFFFF" d="M146.495,60.574V47.611h1.977v1.843c0.953-1.424,2.328-2.136,4.127-2.136c0.781,0,1.5,0.141,2.154,0.42
			c0.654,0.281,1.146,0.65,1.471,1.104c0.326,0.456,0.556,0.997,0.685,1.623c0.082,0.408,0.123,1.119,0.123,2.138v7.971h-2.196
			v-7.885c0-0.896-0.086-1.564-0.259-2.008c-0.17-0.445-0.473-0.8-0.907-1.063c-0.437-0.265-0.947-0.396-1.533-0.396
			c-0.937,0-1.742,0.297-2.422,0.891c-0.681,0.594-1.021,1.721-1.021,3.381v7.08H146.495z"/>
	</g>
</g>
</svg>
