<?xml version="1.0" encoding="utf-8"?>
<!-- Generator: Adobe Illustrator 16.0.0, SVG Export Plug-In . SVG Version: 6.00 Build 0)  -->
<!DOCTYPE svg PUBLIC "-//W3C//DTD SVG 1.1//EN" "http://www.w3.org/Graphics/SVG/1.1/DTD/svg11.dtd">
<svg version="1.1" id="Layer_1" xmlns="http://www.w3.org/2000/svg" xmlns:xlink="http://www.w3.org/1999/xlink" x="0px" y="0px"
	 width="40px" height="40px" viewBox="0 0 40 40" enable-background="new 0 0 40 40" xml:space="preserve">
<path class="path" fill="#0F82BA" d="M40,35c0,2.762-2.238,5-5,5H5c-2.762,0-5-2.238-5-5V5c0-2.761,2.238-5,5-5h30c2.762,0,5,2.239,5,5V35z"/>
<path fill="#FFFFFF" d="M10.641,28.741h3.745V16.259h-3.745V28.741z M25.23,15.825c-1.816,0-3.443,0.664-4.597,2.129v-1.736h-3.759
	v12.523h3.759v-6.773c0-1.431,1.312-2.827,2.954-2.827s2.047,1.396,2.047,2.793v6.806h3.745v-7.084
	C29.38,16.733,27.05,15.825,25.23,15.825z M12.496,15.011c1.035,0,1.875-0.84,1.875-1.875s-0.84-1.875-1.875-1.875
	s-1.875,0.84-1.875,1.875S11.461,15.011,12.496,15.011z"/>
</svg>
