<?xml version="1.0" encoding="utf-8"?>
<!-- Generator: Adobe Illustrator 16.0.0, SVG Export Plug-In . SVG Version: 6.00 Build 0)  -->
<!DOCTYPE svg PUBLIC "-//W3C//DTD SVG 1.1//EN" "http://www.w3.org/Graphics/SVG/1.1/DTD/svg11.dtd">
<svg version="1.1" id="Layer_1" xmlns="http://www.w3.org/2000/svg" xmlns:xlink="http://www.w3.org/1999/xlink" x="0px" y="0px"
	 width="135px" height="40px" viewBox="0 0 135 40" enable-background="new 0 0 135 40" xml:space="preserve">
<path class="path" fill="#0F82BA" d="M135,35c0,2.762-2.238,5-5,5H5c-2.763,0-5-2.238-5-5V5c0-2.761,2.237-5,5-5h125c2.762,0,5,2.239,5,5V35z"/>
<path fill="#FFFFFF" d="M58.14,28.74h3.745V16.258H58.14V28.74z M72.729,15.824c-1.816,0-3.443,0.664-4.597,2.129v-1.736h-3.759
	V28.74h3.759v-6.773c0-1.43,1.312-2.826,2.954-2.826s2.047,1.396,2.047,2.793v6.805h3.745v-7.084
	C76.879,16.732,74.549,15.824,72.729,15.824z M59.995,15.01c1.035,0,1.875-0.84,1.875-1.875s-0.84-1.875-1.875-1.875
	s-1.875,0.84-1.875,1.875S58.96,15.01,59.995,15.01z"/>
</svg>
