<?xml version="1.0" encoding="utf-8"?>
<!-- Generator: Adobe Illustrator 16.0.0, SVG Export Plug-In . SVG Version: 6.00 Build 0)  -->
<!DOCTYPE svg PUBLIC "-//W3C//DTD SVG 1.1//EN" "http://www.w3.org/Graphics/SVG/1.1/DTD/svg11.dtd">
<svg version="1.1" id="Layer_1" xmlns="http://www.w3.org/2000/svg" xmlns:xlink="http://www.w3.org/1999/xlink" x="0px" y="0px"
	 width="40px" height="40px" viewBox="0 0 40 40" enable-background="new 0 0 40 40" xml:space="preserve">
<path class="path" fill="#0F82BA" d="M40,35c0,2.762-2.238,5-5,5H5c-2.761,0-5-2.238-5-5V5c0-2.761,2.239-5,5-5h30c2.762,0,5,2.239,5,5V35z"/>
<g>
	<g>
		<g>
			<defs>
				<polygon id="SVGID_1_" points="19.667,20 27.216,16.117 60.77,39.023 45.719,55.902 10.641,28.74 12.016,16.521 10.621,13.521 
					13.96,11.965 				"/>
			</defs>
			<clipPath id="SVGID_2_">
				<use xlink:href="#SVGID_1_"  overflow="visible"/>
			</clipPath>
			<path clip-path="url(#SVGID_2_)" fill="#0C6284" d="M40.047,35c0,2.762-2.238,4.998-5,4.998h-30c-2.761,0-5-2.236-5-4.998V5
				c0-2.761,2.239-5,5-5h30c2.762,0,5,2.239,5,5V35z"/>
		</g>
	</g>
</g>
<path fill="#FFFFFF" d="M10.641,28.74h3.745V16.258h-3.745V28.74z M25.23,15.825c-1.816,0-3.443,0.664-4.6,2.129v-1.736h-3.759
	V28.74h3.759v-6.773c0-1.43,1.313-2.827,2.954-2.827s2.047,1.397,2.047,2.793v6.805h3.745v-7.084
	C29.38,16.733,27.05,15.825,25.23,15.825z M12.496,15.01c1.035,0,1.875-0.84,1.875-1.875c0-1.035-0.84-1.875-1.875-1.875
	s-1.875,0.84-1.875,1.875C10.621,14.17,11.461,15.01,12.496,15.01z"/>
<path fill="none" d="M38,40"/>
</svg>
