<?xml version="1.0" encoding="utf-8"?>
<!-- Generator: Adobe Illustrator 16.0.0, SVG Export Plug-In . SVG Version: 6.00 Build 0)  -->
<!DOCTYPE svg PUBLIC "-//W3C//DTD SVG 1.1//EN" "http://www.w3.org/Graphics/SVG/1.1/DTD/svg11.dtd">
<svg version="1.1" id="Layer_1" xmlns="http://www.w3.org/2000/svg" xmlns:xlink="http://www.w3.org/1999/xlink" x="0px" y="0px"
	 width="111.939px" height="32px" viewBox="4.073 4.625 111.939 32" enable-background="new 4.073 4.625 111.939 32"
	 xml:space="preserve">
<g>
	<rect class="path" x="4.073" y="4.625" fill="#0F82BA" width="111.939" height="32"/>
</g>
<path fill="#FFFFFF" d="M16.091,28.625h3.43V17.199h-3.43V28.625z M29.444,16.805c-1.661,0-3.15,0.607-4.209,1.947v-1.589h-3.44
	v11.462h3.44v-6.2c0-1.308,1.202-2.586,2.703-2.586s1.873,1.279,1.873,2.556v6.229h3.429v-6.483
	C33.242,17.635,31.111,16.805,29.444,16.805z M17.79,16.059c0.946,0,1.716-0.77,1.716-1.718c0-0.946-0.77-1.716-1.716-1.716
	c-0.948,0-1.717,0.77-1.717,1.717C16.073,15.289,16.842,16.059,17.79,16.059z"/>
<path fill="none" d="M38,20.625"/>
<g>
	<path fill="#FFFFFF" d="M43.24,14.88h1.538v10.638h5.099v1.291H43.24V14.88z"/>
	<path fill="#FFFFFF" d="M53.274,15.836c0.019,0.531-0.371,0.956-0.99,0.956c-0.549,0-0.938-0.425-0.938-0.956
		c0-0.549,0.404-0.974,0.974-0.974C52.903,14.862,53.274,15.287,53.274,15.836z M51.539,26.811v-8.563h1.561v8.563H51.539
		L51.539,26.811z"/>
	<path fill="#FFFFFF" d="M55.681,20.563c0-0.886-0.021-1.607-0.07-2.315h1.381l0.089,1.416h0.035
		c0.425-0.813,1.416-1.611,2.831-1.611c1.187,0,3.026,0.708,3.026,3.646v5.114h-1.56v-4.938c0-1.381-0.514-2.529-1.979-2.529
		c-1.026,0-1.823,0.729-2.089,1.596c-0.071,0.19-0.105,0.459-0.105,0.729v5.15h-1.559V20.563z"/>
	<path fill="#FFFFFF" d="M67.043,22.173h0.035c0.213-0.301,0.514-0.673,0.762-0.975l2.517-2.955h1.877l-3.313,3.521l3.771,5.045
		h-1.896l-2.955-4.104l-0.797,0.885v3.227h-1.541V14.247h1.541V22.173L67.043,22.173z"/>
	<path fill="#FFFFFF" d="M74.672,22.811c0.037,2.104,1.384,2.978,2.938,2.978c1.111,0,1.787-0.195,2.371-0.438l0.267,1.11
		c-0.549,0.248-1.483,0.531-2.851,0.531c-2.644,0-4.215-1.734-4.215-4.318s1.521-4.621,4.021-4.621c2.797,0,3.541,2.46,3.541,4.037
		c0,0.315-0.035,0.563-0.054,0.729H74.67L74.672,22.811L74.672,22.811z M79.24,21.695c0.018-0.991-0.408-2.532-2.16-2.532
		c-1.576,0-2.267,1.451-2.392,2.532H79.24z"/>
	<path fill="#FFFFFF" d="M90.072,14.243v10.354c0,0.762,0.019,1.629,0.068,2.213h-1.396l-0.07-1.486H88.64
		c-0.479,0.955-1.521,1.683-2.923,1.683c-2.067,0-3.661-1.752-3.661-4.354c-0.021-2.852,1.752-4.603,3.842-4.603
		c1.31,0,2.19,0.62,2.584,1.31h0.033v-5.113L90.072,14.243L90.072,14.243z M88.514,21.729c0-0.19-0.021-0.459-0.07-0.65
		c-0.229-0.99-1.08-1.809-2.248-1.809c-1.606,0-2.563,1.416-2.563,3.313c0,1.729,0.854,3.169,2.529,3.169
		c1.045,0,2-0.688,2.282-1.855c0.054-0.211,0.07-0.428,0.07-0.674V21.729L88.514,21.729z"/>
	<path fill="#FFFFFF" d="M94.391,15.836c0.019,0.531-0.371,0.956-0.99,0.956c-0.549,0-0.938-0.425-0.938-0.956
		c0-0.549,0.406-0.974,0.976-0.974C94.02,14.862,94.391,15.287,94.391,15.836z M92.656,26.811v-8.563h1.557v8.563H92.656
		L92.656,26.811z"/>
	<path fill="#FFFFFF" d="M96.797,20.563c0-0.886-0.019-1.607-0.067-2.315h1.381l0.091,1.416h0.034
		c0.425-0.813,1.416-1.611,2.832-1.611c1.188,0,3.022,0.708,3.022,3.646v5.114h-1.557v-4.938c0-1.381-0.519-2.529-1.982-2.529
		c-1.024,0-1.821,0.729-2.09,1.596c-0.067,0.19-0.104,0.459-0.104,0.729v5.15h-1.562L96.797,20.563L96.797,20.563z"/>
</g>
</svg>
