<?xml version="1.0" encoding="utf-8"?>
<!-- Generator: Adobe Illustrator 16.0.0, SVG Export Plug-In . SVG Version: 6.00 Build 0)  -->
<!DOCTYPE svg PUBLIC "-//W3C//DTD SVG 1.1//EN" "http://www.w3.org/Graphics/SVG/1.1/DTD/svg11.dtd">
<svg version="1.1" id="Layer_1" xmlns="http://www.w3.org/2000/svg" xmlns:xlink="http://www.w3.org/1999/xlink" x="0px" y="0px"
	 width="141.25px" height="90px" viewBox="-18.28 -10 141.25 90" enable-background="new -18.28 -10 141.25 90"
	 xml:space="preserve">
<path fill="none" d="M38,59.826"/>
<path class="path" fill="#1C7CB4" d="M122.97,77c0,1.658-1.343,3-3,3H-15.28c-1.657,0-3-1.342-3-3V-7c0-1.657,1.343-3,3-3h135.25
	c1.657,0,3,1.343,3,3V77z"/>
<path opacity="0.16" enable-background="new    " d="M-18.28,73.195c0,1.658,1.343,3,3,3h135.25c1.657,0,3-1.342,3-3V77
	c0,1.658-1.343,3-3,3H-15.28c-1.657,0-3-1.342-3-3V73.195z"/>
<g>
	<path fill="#FFFFFF" d="M37.356,30h5.998V10.008h-5.998V30z M60.724,9.315c-2.905,0-5.515,1.064-7.366,3.408V9.944h-6.023V30h6.021
		V19.151c0-2.291,2.107-4.526,4.731-4.526c2.627,0,3.277,2.237,3.277,4.474v10.898h6V18.653C67.369,10.77,63.64,9.315,60.724,9.315z
		 M40.331,8.008c1.657,0,3.002-1.343,3.002-3.004C43.333,3.348,41.99,2,40.331,2c-1.66,0-3.006,1.347-3.006,3.007
		C37.325,6.665,38.671,8.008,40.331,8.008z"/>
	<g>
		<path fill="#FFFFFF" d="M7,66V48.104h2.368v15.785h8.813V66H7z"/>
		<path fill="#FFFFFF" d="M20.732,50.631v-2.525h2.197v2.525H20.732z M20.732,66V53.036h2.197V66H20.732z"/>
		<path fill="#FFFFFF" d="M26.275,66V53.036h1.977v1.843c0.953-1.424,2.328-2.136,4.127-2.136c0.781,0,1.499,0.141,2.154,0.421
			c0.654,0.281,1.146,0.648,1.471,1.105c0.325,0.455,0.554,0.996,0.684,1.623c0.081,0.406,0.122,1.118,0.122,2.137V66h-2.197v-7.886
			c0-0.896-0.085-1.564-0.257-2.009c-0.17-0.442-0.474-0.797-0.909-1.063c-0.436-0.264-0.946-0.396-1.532-0.396
			c-0.936,0-1.743,0.297-2.423,0.893c-0.68,0.594-1.019,1.721-1.019,3.381V66H26.275z"/>
		<path fill="#FFFFFF" d="M40.19,66V48.104h2.197v10.207l5.2-5.273h2.844l-4.955,4.811L50.932,66h-2.71l-4.285-6.629l-1.55,1.49V66
			H40.19z"/>
		<path fill="#FFFFFF" d="M61.552,61.825l2.271,0.28c-0.357,1.326-1.021,2.355-1.988,3.088c-0.97,0.732-2.207,1.1-3.712,1.1
			c-1.896,0-3.4-0.584-4.511-1.752c-1.111-1.167-1.667-2.807-1.667-4.913c0-2.181,0.563-3.874,1.686-5.078S56.21,52.743,58,52.743
			c1.734,0,3.15,0.59,4.248,1.771c1.101,1.18,1.648,2.84,1.648,4.98c0,0.13-0.005,0.324-0.013,0.586h-9.667
			c0.081,1.424,0.483,2.514,1.208,3.271c0.725,0.756,1.628,1.135,2.71,1.135c0.806,0,1.494-0.213,2.063-0.635
			S61.218,62.753,61.552,61.825z M54.338,58.273h7.239c-0.098-1.092-0.374-1.909-0.83-2.455c-0.699-0.846-1.607-1.27-2.722-1.27
			c-1.01,0-1.858,0.338-2.546,1.014C54.792,56.238,54.412,57.143,54.338,58.273z"/>
		<path fill="#FFFFFF" d="M74.992,66v-1.636c-0.821,1.286-2.03,1.929-3.625,1.929c-1.034,0-1.983-0.285-2.851-0.854
			c-0.867-0.569-1.538-1.365-2.016-2.388c-0.476-1.021-0.714-2.194-0.714-3.521c0-1.295,0.216-2.469,0.647-3.521
			c0.431-1.054,1.078-1.861,1.939-2.423c0.862-0.563,1.827-0.843,2.895-0.843c0.781,0,1.477,0.165,2.087,0.494
			c0.61,0.33,1.106,0.759,1.489,1.287v-6.42h2.186V66H74.992z M68.048,59.53c0,1.659,0.35,2.901,1.049,3.724
			c0.699,0.821,1.525,1.232,2.479,1.232c0.96,0,1.775-0.394,2.447-1.178c0.672-0.785,1.008-1.984,1.008-3.597
			c0-1.772-0.342-3.076-1.025-3.905c-0.683-0.83-1.525-1.244-2.526-1.244c-0.978,0-1.794,0.397-2.447,1.194
			C68.374,56.557,68.048,57.813,68.048,59.53z"/>
		<path fill="#FFFFFF" d="M81.076,66V48.82h2.272V66H81.076z"/>
		<path fill="#FFFFFF" d="M87.154,66V53.036h1.978v1.843c0.953-1.424,2.328-2.136,4.127-2.136c0.78,0,1.498,0.141,2.153,0.421
			c0.654,0.281,1.146,0.648,1.472,1.105c0.324,0.455,0.554,0.996,0.684,1.623c0.081,0.406,0.122,1.118,0.122,2.137V66h-2.197v-7.886
			c0-0.896-0.085-1.564-0.257-2.009c-0.17-0.442-0.475-0.797-0.909-1.063c-0.437-0.264-0.946-0.396-1.532-0.396
			c-0.936,0-1.742,0.297-2.423,0.893c-0.68,0.594-1.019,1.721-1.019,3.381V66H87.154z"/>
	</g>
</g>
</svg>
