<?xml version="1.0" encoding="utf-8"?>
<!-- Generator: Adobe Illustrator 16.0.0, SVG Export Plug-In . SVG Version: 6.00 Build 0)  -->
<!DOCTYPE svg PUBLIC "-//W3C//DTD SVG 1.1//EN" "http://www.w3.org/Graphics/SVG/1.1/DTD/svg11.dtd">
<svg version="1.1" id="Layer_1" xmlns="http://www.w3.org/2000/svg" xmlns:xlink="http://www.w3.org/1999/xlink" x="0px" y="0px"
	 width="141.25px" height="90px" viewBox="-10 -10 141.25 90" enable-background="new -10 -10 141.25 90" xml:space="preserve">
<path fill="#FFFFFF" d="M-10,80V-5c0-2.761,2.23-5,4.981-5h131.288c2.752,0,4.981,2.239,4.981,5v85"/>
<rect x="-10" y="76" class="path" fill="#1C7CB4" width="141.25" height="4"/>
<g>
	<path class="path" fill="#1C7CB4" d="M50.076,30h5.998V10.008h-5.998V30z M73.443,9.315c-2.905,0-5.515,1.064-7.366,3.408V9.944h-6.023V30h6.021
		V19.151c0-2.291,2.107-4.526,4.731-4.526c2.628,0,3.277,2.237,3.277,4.474v10.898h6V18.653C80.089,10.77,76.36,9.315,73.443,9.315z
		 M53.051,8.008c1.657,0,3.002-1.343,3.002-3.004C56.053,3.348,54.71,2,53.051,2c-1.66,0-3.006,1.347-3.006,3.007
		C50.045,6.665,51.391,8.008,53.051,8.008z"/>
	<g>
		<path class="path" fill="#1C7CB4" d="M19.72,66V48.104h2.368v15.784h8.813V66H19.72z"/>
		<path class="path" fill="#1C7CB4" d="M33.452,50.631v-2.526h2.197v2.526H33.452z M33.452,66V53.036h2.197V66H33.452z"/>
		<path class="path" fill="#1C7CB4" d="M38.995,66V53.036h1.977v1.843c0.953-1.424,2.328-2.136,4.127-2.136c0.781,0,1.499,0.141,2.154,0.421
			c0.654,0.281,1.146,0.649,1.471,1.105c0.325,0.455,0.554,0.996,0.684,1.623c0.081,0.407,0.122,1.119,0.122,2.137V66h-2.197v-7.886
			c0-0.896-0.085-1.564-0.257-2.008c-0.17-0.443-0.474-0.798-0.909-1.063c-0.436-0.264-0.946-0.396-1.532-0.396
			c-0.936,0-1.743,0.297-2.423,0.892c-0.68,0.594-1.019,1.721-1.019,3.381V66H38.995z"/>
		<path class="path" fill="#1C7CB4" d="M52.91,66V48.104h2.197V58.31l5.2-5.273h2.844l-4.955,4.81L63.652,66h-2.71l-4.285-6.629l-1.55,1.49V66
			H52.91z"/>
		<path class="path" fill="#1C7CB4" d="M74.272,61.825l2.271,0.28c-0.358,1.327-1.021,2.356-1.989,3.089c-0.969,0.732-2.206,1.099-3.711,1.099
			c-1.896,0-3.4-0.584-4.511-1.752c-1.111-1.167-1.667-2.806-1.667-4.913c0-2.181,0.563-3.874,1.686-5.078s2.579-1.807,4.369-1.807
			c1.734,0,3.15,0.59,4.248,1.771c1.1,1.18,1.648,2.84,1.648,4.98c0,0.13-0.004,0.325-0.012,0.586h-9.668
			c0.081,1.424,0.483,2.514,1.208,3.271c0.725,0.756,1.628,1.135,2.71,1.135c0.806,0,1.493-0.212,2.063-0.635
			C73.487,63.429,73.938,62.753,74.272,61.825z M67.058,58.273h7.239c-0.098-1.091-0.374-1.909-0.83-2.454
			c-0.7-0.847-1.607-1.27-2.722-1.27c-1.01,0-1.858,0.338-2.546,1.013C67.512,56.238,67.132,57.142,67.058,58.273z"/>
		<path class="path" fill="#1C7CB4" d="M87.712,66v-1.636c-0.822,1.286-2.03,1.929-3.625,1.929c-1.034,0-1.984-0.285-2.851-0.854
			c-0.867-0.569-1.538-1.365-2.015-2.387c-0.476-1.021-0.714-2.195-0.714-3.521c0-1.294,0.216-2.468,0.647-3.521
			c0.431-1.054,1.078-1.862,1.94-2.423c0.862-0.563,1.827-0.843,2.894-0.843c0.781,0,1.477,0.165,2.087,0.494
			c0.61,0.33,1.106,0.759,1.489,1.288v-6.421h2.186V66H87.712z M80.767,59.53c0,1.66,0.35,2.901,1.049,3.724
			c0.7,0.821,1.526,1.232,2.479,1.232c0.96,0,1.776-0.393,2.447-1.178c0.672-0.785,1.008-1.984,1.008-3.596
			c0-1.773-0.342-3.076-1.025-3.906s-1.526-1.244-2.527-1.244c-0.977,0-1.793,0.398-2.447,1.195
			C81.094,56.556,80.767,57.813,80.767,59.53z"/>
		<path class="path" fill="#1C7CB4" d="M93.796,66V48.82h2.273V66H93.796z"/>
		<path class="path" fill="#1C7CB4" d="M99.874,66V53.036h1.977v1.843c0.953-1.424,2.328-2.136,4.127-2.136c0.781,0,1.499,0.141,2.154,0.421
			c0.654,0.281,1.146,0.649,1.471,1.105c0.325,0.455,0.554,0.996,0.684,1.623c0.081,0.407,0.122,1.119,0.122,2.137V66h-2.197v-7.886
			c0-0.896-0.085-1.564-0.257-2.008c-0.17-0.443-0.474-0.798-0.909-1.063c-0.436-0.264-0.946-0.396-1.532-0.396
			c-0.936,0-1.743,0.297-2.423,0.892c-0.68,0.594-1.019,1.721-1.019,3.381V66H99.874z"/>
	</g>
</g>
</svg>
