<?xml version="1.0" encoding="utf-8"?>
<!-- Generator: Adobe Illustrator 16.0.0, SVG Export Plug-In . SVG Version: 6.00 Build 0)  -->
<!DOCTYPE svg PUBLIC "-//W3C//DTD SVG 1.1//EN" "http://www.w3.org/Graphics/SVG/1.1/DTD/svg11.dtd">
<svg version="1.1" id="Layer_1" xmlns="http://www.w3.org/2000/svg" xmlns:xlink="http://www.w3.org/1999/xlink" x="0px" y="0px"
	 width="40px" height="40px" viewBox="0 0 40 40" enable-background="new 0 0 40 40" xml:space="preserve">
<circle class="path" fill="#FF4E0D" cx="20" cy="20" r="20"/>
<g>
	<path fill="#FFFFFF" d="M31.867,18.993c0-1.646-1.334-2.98-2.98-2.98c-0.824,0-1.568,0.335-2.107,0.877
		c-1.668-1.075-3.797-1.76-6.136-1.867c0.001-0.993,0.445-1.919,1.221-2.54c0.776-0.623,1.778-0.855,2.75-0.64l0.133,0.029
		c-0.002,0.034-0.005,0.066-0.005,0.1c0,1.374,1.114,2.488,2.488,2.488c1.373,0,2.487-1.114,2.487-2.488
		c0-1.374-1.114-2.487-2.487-2.487c-0.884,0-1.658,0.461-2.099,1.155l-0.238-0.053c-1.355-0.301-2.752,0.024-3.834,0.892
		c-1.081,0.867-1.7,2.159-1.702,3.543c-2.338,0.107-4.467,0.792-6.134,1.866c-0.54-0.542-1.286-0.876-2.109-0.876
		c-1.647,0-2.981,1.334-2.981,2.98c0,1.146,0.65,2.14,1.599,2.639c-0.072,0.368-0.11,0.746-0.11,1.13
		c0,4.283,4.647,7.754,10.378,7.754c5.732,0,10.379-3.471,10.379-7.754c0-0.384-0.037-0.761-0.109-1.13
		C31.219,21.133,31.867,20.139,31.867,18.993z M27.23,10.77c0.662,0,1.201,0.54,1.201,1.202c0,0.663-0.539,1.203-1.201,1.203
		c-0.663,0-1.202-0.54-1.202-1.203C26.028,11.31,26.567,10.77,27.23,10.77z M9.419,18.993c0-0.935,0.76-1.694,1.695-1.694
		c0.399,0,0.767,0.14,1.056,0.373c-0.906,0.778-1.608,1.692-2.043,2.696C9.699,20.06,9.419,19.559,9.419,18.993z M26.569,27.215
		c-1.74,1.3-4.072,2.016-6.569,2.016c-2.496,0-4.829-0.716-6.568-2.016c-1.626-1.216-2.524-2.797-2.524-4.453
		c0-1.655,0.897-3.237,2.524-4.454c1.739-1.299,4.073-2.015,6.568-2.015c2.497,0,4.829,0.716,6.569,2.015
		c1.627,1.216,2.523,2.798,2.523,4.454C29.093,24.418,28.196,25.999,26.569,27.215z M29.873,20.366
		c-0.436-1.004-1.138-1.917-2.043-2.695c0.289-0.233,0.657-0.373,1.057-0.373c0.935,0,1.695,0.759,1.695,1.694
		C30.582,19.559,30.302,20.059,29.873,20.366z"/>
	<circle fill="#FFFFFF" cx="16.21" cy="20.952" r="1.357"/>
	<circle fill="#FFFFFF" cx="23.791" cy="20.952" r="1.357"/>
	<path fill="#FFFFFF" d="M23.217,24.249c-0.956,0.871-2.197,1.352-3.492,1.352c-1.455,0-2.802-0.587-3.794-1.651
		c-0.242-0.259-0.65-0.273-0.909-0.031c-0.26,0.241-0.274,0.649-0.032,0.908c1.221,1.309,2.945,2.061,4.735,2.061
		c1.617,0,3.165-0.6,4.357-1.688c0.263-0.238,0.282-0.646,0.043-0.909C23.887,24.028,23.479,24.01,23.217,24.249z"/>
</g>
</svg>
