<?xml version="1.0" encoding="utf-8"?>
<!-- Generator: Adobe Illustrator 16.0.0, SVG Export Plug-In . SVG Version: 6.00 Build 0)  -->
<!DOCTYPE svg PUBLIC "-//W3C//DTD SVG 1.1//EN" "http://www.w3.org/Graphics/SVG/1.1/DTD/svg11.dtd">
<svg version="1.1" id="Layer_1" xmlns="http://www.w3.org/2000/svg" xmlns:xlink="http://www.w3.org/1999/xlink" x="0px" y="0px"
	 width="124px" height="40px" viewBox="0 0 124 40" enable-background="new 0 0 124 40" xml:space="preserve">
<path class="path" fill="#FF4E0D" d="M124,35.001c0,2.762-2.238,5-5,5H5c-2.763,0-5-2.238-5-5v-30c0-2.761,2.237-5,5-5h114c2.762,0,5,2.239,5,5
	V35.001z"/>
<g>
	<path fill="#FFFFFF" d="M73.867,18.994c0-1.645-1.334-2.979-2.98-2.979c-0.824,0-1.568,0.335-2.107,0.877
		c-1.668-1.075-3.797-1.761-6.137-1.867c0.002-0.993,0.445-1.919,1.221-2.54c0.777-0.623,1.779-0.855,2.75-0.641l0.134,0.029
		c-0.002,0.034-0.004,0.066-0.004,0.101c0,1.374,1.112,2.488,2.487,2.488c1.373,0,2.486-1.114,2.486-2.488s-1.113-2.487-2.486-2.487
		c-0.885,0-1.657,0.461-2.1,1.155l-0.238-0.053c-1.354-0.301-2.752,0.024-3.834,0.892c-1.08,0.867-1.699,2.16-1.701,3.544
		c-2.338,0.106-4.467,0.792-6.134,1.866c-0.54-0.541-1.286-0.876-2.109-0.876c-1.647,0-2.981,1.335-2.981,2.979
		c0,1.146,0.65,2.14,1.599,2.64c-0.071,0.367-0.11,0.746-0.11,1.129c0,4.283,4.647,7.754,10.379,7.754
		c5.733,0,10.379-3.471,10.379-7.754c0-0.383-0.037-0.76-0.108-1.129C73.219,21.134,73.867,20.14,73.867,18.994z M69.23,10.771
		c0.662,0,1.201,0.54,1.201,1.202c0,0.663-0.539,1.202-1.201,1.202c-0.664,0-1.203-0.539-1.203-1.202
		C68.027,11.311,68.566,10.771,69.23,10.771z M51.419,18.994c0-0.935,0.76-1.693,1.694-1.693c0.399,0,0.767,0.141,1.056,0.373
		c-0.906,0.777-1.607,1.691-2.043,2.695C51.699,20.062,51.419,19.56,51.419,18.994z M68.568,27.216
		c-1.74,1.301-4.072,2.016-6.569,2.016c-2.496,0-4.829-0.715-6.568-2.016c-1.627-1.215-2.523-2.797-2.523-4.453
		c0-1.654,0.896-3.237,2.523-4.453c1.739-1.3,4.072-2.016,6.568-2.016c2.497,0,4.829,0.716,6.569,2.016
		c1.627,1.216,2.522,2.798,2.522,4.453C71.092,24.419,70.195,26.001,68.568,27.216z M71.873,20.368
		c-0.436-1.004-1.139-1.917-2.043-2.695c0.289-0.234,0.656-0.373,1.057-0.373c0.934,0,1.695,0.759,1.695,1.693
		C72.582,19.56,72.301,20.06,71.873,20.368z"/>
	<circle fill="#FFFFFF" cx="58.209" cy="20.953" r="1.357"/>
	<circle fill="#FFFFFF" cx="65.791" cy="20.953" r="1.357"/>
	<path fill="#FFFFFF" d="M65.217,24.251c-0.957,0.871-2.197,1.352-3.492,1.352c-1.455,0-2.804-0.588-3.795-1.651
		c-0.242-0.259-0.648-0.273-0.908-0.031c-0.261,0.242-0.274,0.649-0.032,0.908c1.221,1.309,2.944,2.062,4.735,2.062
		c1.617,0,3.164-0.601,4.357-1.688c0.262-0.238,0.281-0.646,0.043-0.908S65.479,24.011,65.217,24.251z"/>
</g>
</svg>
