<?xml version="1.0" encoding="utf-8"?>
<!-- Generator: Adobe Illustrator 16.0.0, SVG Export Plug-In . SVG Version: 6.00 Build 0)  -->
<!DOCTYPE svg PUBLIC "-//W3C//DTD SVG 1.1//EN" "http://www.w3.org/Graphics/SVG/1.1/DTD/svg11.dtd">
<svg version="1.1" id="Layer_1" xmlns="http://www.w3.org/2000/svg" xmlns:xlink="http://www.w3.org/1999/xlink" x="0px" y="0px"
	 width="127.087px" height="90.002px" viewBox="-13.109 -10 127.087 90.002" enable-background="new -13.109 -10 127.087 90.002"
	 xml:space="preserve">
<path class="path" fill="#F9420B" d="M113.979,77c0,1.658-1.342,3-3,3H-10.109c-1.657,0-3-1.342-3-3V-7c0-1.657,1.343-3,3-3h121.087
	c1.658,0,3,1.343,3,3V77z"/>
<path opacity="0.16" enable-background="new    " d="M-13.109,73.195c0,1.658,1.343,3,3,3h121.087c1.658,0,3-1.342,3-3v3.807
	c0,1.658-1.342,3-3,3H-10.109c-1.657,0-3-1.342-3-3V73.195z"/>
<g>
	<g>
		<path fill="#FFFFFF" d="M66.233,14.833c0-2.19-1.775-3.968-3.969-3.968c-1.098,0-2.088,0.446-2.805,1.167
			c-2.229-1.431-5.055-2.344-8.166-2.486c0-1.321,0.59-2.555,1.629-3.381c1.026-0.829,2.361-1.137,3.66-0.854l0.18,0.039
			c-0.002,0.045-0.01,0.089-0.01,0.134c0,1.829,1.48,3.312,3.311,3.312c1.824,0,3.311-1.482,3.311-3.312
			c0-1.831-1.484-3.308-3.311-3.308c-1.178,0-2.203,0.613-2.795,1.537L56.951,3.64c-1.801-0.398-3.662,0.033-5.104,1.19
			c-1.439,1.153-2.264,2.876-2.267,4.717c-3.114,0.141-5.938,1.055-8.166,2.484c-0.72-0.72-1.714-1.167-2.807-1.167
			c-2.193,0-3.972,1.778-3.972,3.968c0,1.522,0.865,2.846,2.128,3.512c-0.098,0.486-0.152,0.995-0.152,1.506
			c0.001,5.703,6.19,10.326,13.823,10.326c7.622,0,13.817-4.623,13.817-10.325c0-0.511-0.053-1.012-0.154-1.506
			C65.369,17.677,66.233,16.357,66.233,14.833z M60.063,3.886c0.879,0,1.598,0.717,1.598,1.599c0,0.882-0.719,1.599-1.598,1.599
			c-0.885,0-1.605-0.717-1.605-1.599C58.459,4.603,59.176,3.886,60.063,3.886z M36.35,14.833c0-1.247,1.012-2.254,2.255-2.254
			c0.531,0,1.021,0.188,1.406,0.495c-1.206,1.034-2.144,2.251-2.719,3.588C36.723,16.25,36.35,15.586,36.35,14.833z M59.178,25.773
			c-2.307,1.729-5.411,2.686-8.736,2.686c-3.329,0-6.436-0.945-8.741-2.686c-2.172-1.617-3.36-3.724-3.36-5.928
			s1.194-4.31,3.36-5.931c2.307-1.729,5.415-2.683,8.741-2.683c3.325,0,6.429,0.952,8.736,2.683
			c2.174,1.619,3.355,3.727,3.355,5.931C62.537,22.05,61.344,24.156,59.178,25.773z M63.576,16.657
			c-0.58-1.336-1.516-2.554-2.719-3.589c0.387-0.309,0.877-0.494,1.406-0.494c1.248,0,2.258,1.009,2.258,2.253
			C64.522,15.586,64.149,16.249,63.576,16.657z"/>
		<circle fill="#FFFFFF" cx="45.387" cy="17.438" r="1.804"/>
		<circle fill="#FFFFFF" cx="55.481" cy="17.438" r="1.804"/>
		<path fill="#FFFFFF" d="M54.719,21.827c-1.271,1.157-2.932,1.797-4.646,1.797c-1.938,0-3.73-0.779-5.052-2.192
			c-0.322-0.352-0.867-0.355-1.209-0.038c-0.348,0.319-0.355,0.868-0.032,1.207c1.625,1.747,3.919,2.749,6.301,2.749
			c2.154,0,4.214-0.807,5.8-2.24c0.357-0.317,0.375-0.862,0.059-1.204C55.61,21.531,55.069,21.508,54.719,21.827z"/>
	</g>
	<g>
		<path fill="#FFFFFF" d="M15.376,65.883V47.988h7.937c1.595,0,2.807,0.16,3.637,0.48c0.83,0.322,1.494,0.891,1.99,1.703
			c0.496,0.814,0.743,1.713,0.743,2.697c0,1.27-0.409,2.34-1.231,3.211s-2.092,1.424-3.809,1.66
			c0.627,0.301,1.103,0.598,1.428,0.891c0.691,0.635,1.348,1.428,1.966,2.381l3.112,4.871h-2.979l-2.367-3.725
			c-0.691-1.074-1.262-1.896-1.709-2.465c-0.447-0.57-0.849-0.969-1.203-1.197c-0.354-0.227-0.714-0.385-1.079-0.477
			c-0.27-0.057-0.708-0.084-1.318-0.084h-2.746v7.945h-2.37V65.883z M17.745,55.885h5.09c1.082,0,1.929-0.111,2.539-0.336
			s1.074-0.582,1.392-1.074c0.318-0.49,0.477-1.025,0.477-1.604c0-0.846-0.307-1.543-0.921-2.088
			c-0.615-0.545-1.585-0.818-2.911-0.818h-5.664L17.745,55.885L17.745,55.885z"/>
		<path fill="#FFFFFF" d="M41.988,61.707l2.271,0.281c-0.357,1.326-1.021,2.355-1.989,3.088s-2.206,1.1-3.712,1.1
			c-1.896,0-3.398-0.584-4.51-1.752c-1.11-1.168-1.666-2.807-1.666-4.914c0-2.18,0.562-3.873,1.685-5.078
			c1.123-1.203,2.58-1.807,4.371-1.807c1.731,0,3.147,0.59,4.248,1.77c1.098,1.182,1.646,2.842,1.646,4.98
			c0,0.131-0.004,0.326-0.013,0.586h-9.668c0.082,1.426,0.483,2.516,1.209,3.271c0.725,0.758,1.628,1.137,2.71,1.137
			c0.806,0,1.493-0.213,2.063-0.635C41.203,63.311,41.654,62.635,41.988,61.707z M34.774,58.154h7.237
			c-0.098-1.09-0.374-1.908-0.83-2.453c-0.699-0.846-1.606-1.27-2.723-1.27c-1.009,0-1.856,0.338-2.545,1.014
			C35.226,56.121,34.846,57.025,34.774,58.154z"/>
		<path fill="#FFFFFF" d="M55.428,65.883v-1.637c-0.822,1.287-2.031,1.93-3.626,1.93c-1.032,0-1.982-0.285-2.85-0.854
			c-0.867-0.57-1.538-1.365-2.015-2.389c-0.477-1.02-0.715-2.193-0.715-3.52c0-1.295,0.217-2.469,0.646-3.521
			c0.432-1.055,1.079-1.861,1.941-2.424c0.861-0.561,1.826-0.842,2.893-0.842c0.781,0,1.478,0.164,2.088,0.494
			c0.61,0.33,1.106,0.76,1.489,1.287v-6.42h2.186v17.895H55.428L55.428,65.883z M48.481,59.412c0,1.66,0.351,2.902,1.051,3.723
			c0.699,0.822,1.524,1.234,2.478,1.234c0.96,0,1.776-0.395,2.448-1.178c0.672-0.787,1.006-1.984,1.006-3.596
			c0-1.773-0.342-3.076-1.023-3.906c-0.684-0.83-1.526-1.246-2.527-1.246c-0.977,0-1.793,0.398-2.447,1.197
			C48.809,56.439,48.481,57.697,48.481,59.412z"/>
		<path fill="#FFFFFF" d="M69.33,65.883v-1.637c-0.822,1.287-2.029,1.93-3.625,1.93c-1.033,0-1.984-0.285-2.85-0.854
			c-0.867-0.57-1.539-1.365-2.016-2.389c-0.477-1.02-0.715-2.193-0.715-3.52c0-1.295,0.217-2.469,0.648-3.521
			c0.43-1.055,1.078-1.861,1.939-2.424c0.861-0.561,1.826-0.842,2.895-0.842c0.779,0,1.477,0.164,2.086,0.494s1.105,0.76,1.49,1.287
			v-6.42h2.186v17.895H69.33L69.33,65.883z M62.385,59.412c0,1.66,0.352,2.902,1.051,3.723c0.699,0.822,1.525,1.234,2.479,1.234
			c0.959,0,1.775-0.395,2.447-1.178c0.672-0.787,1.008-1.984,1.008-3.596c0-1.773-0.342-3.076-1.025-3.906s-1.525-1.246-2.527-1.246
			c-0.977,0-1.793,0.398-2.447,1.197C62.713,56.439,62.385,57.697,62.385,59.412z"/>
		<path fill="#FFFFFF" d="M74.836,50.514v-2.525h2.197v2.525H74.836z M74.836,65.883V52.918h2.197v12.965H74.836z"/>
		<path fill="#FFFFFF" d="M85.176,63.916l0.318,1.941c-0.619,0.131-1.172,0.195-1.66,0.195c-0.799,0-1.416-0.127-1.855-0.379
			s-0.748-0.584-0.928-0.994c-0.18-0.412-0.27-1.275-0.27-2.594v-7.459H79.17v-1.709h1.611v-3.211l2.186-1.318v4.529h2.209v1.709
			h-2.209v7.58c0,0.627,0.039,1.029,0.115,1.209c0.078,0.18,0.203,0.322,0.379,0.428s0.426,0.158,0.75,0.158
			C84.455,64.002,84.778,63.975,85.176,63.916z"/>
	</g>
</g>
</svg>
