<?xml version="1.0" encoding="utf-8"?>
<!-- Generator: Adobe Illustrator 16.0.0, SVG Export Plug-In . SVG Version: 6.00 Build 0)  -->
<!DOCTYPE svg PUBLIC "-//W3C//DTD SVG 1.1//EN" "http://www.w3.org/Graphics/SVG/1.1/DTD/svg11.dtd">
<svg version="1.1" id="Layer_1" xmlns="http://www.w3.org/2000/svg" xmlns:xlink="http://www.w3.org/1999/xlink" x="0px" y="0px"
	 width="105.563px" height="32px" viewBox="0 4.501 105.563 32" enable-background="new 0 4.501 105.563 32" xml:space="preserve">
<rect class="path" x="0" y="4.501" fill="#09ACF1" width="105.563" height="32"/>
<path fill="#FFFFFF" d="M32.285,14.393c-0.748,0.323-1.549,0.54-2.391,0.638c0.86-0.501,1.521-1.293,1.832-2.236
	c-0.806,0.463-1.696,0.801-2.645,0.98c-0.761-0.784-1.84-1.273-3.039-1.273c-2.296,0-4.162,1.808-4.162,4.037
	c0,0.316,0.037,0.625,0.108,0.922c-3.458-0.168-6.524-1.775-8.576-4.219c-0.358,0.595-0.563,1.289-0.563,2.029
	c0,1.4,0.731,2.638,1.85,3.361c-0.684-0.021-1.324-0.202-1.886-0.507v0.053c0,1.957,1.436,3.59,3.338,3.963
	c-0.349,0.092-0.716,0.142-1.095,0.142c-0.269,0-0.529-0.025-0.783-0.073c0.53,1.605,2.064,2.773,3.889,2.805
	c-1.426,1.084-3.221,1.729-5.169,1.729c-0.336,0-0.667-0.019-0.994-0.058c1.842,1.146,4.029,1.815,6.379,1.815
	c7.655,0,11.843-6.157,11.843-11.494l-0.014-0.521C31.021,15.914,31.726,15.204,32.285,14.393z"/>
<g>
	<path fill="#FFFFFF" d="M45.914,15.766h-3.629v-1.31h8.832v1.31h-3.646v10.621h-1.558V15.766z"/>
	<path fill="#FFFFFF" d="M52.302,17.818l1.134,4.355c0.248,0.957,0.479,1.842,0.64,2.727h0.054c0.194-0.864,0.479-1.786,0.763-2.709
		l1.396-4.371H57.6l1.325,4.283c0.318,1.027,0.565,1.933,0.763,2.797h0.054c0.142-0.864,0.372-1.77,0.655-2.776l1.221-4.302h1.54
		l-2.761,8.566H58.98L57.669,22.3c-0.303-0.957-0.551-1.806-0.763-2.815h-0.035c-0.213,1.029-0.479,1.916-0.778,2.834l-1.379,4.068
		h-1.416l-2.585-8.566L52.302,17.818L52.302,17.818z"/>
	<path fill="#FFFFFF" d="M66.446,15.412c0.019,0.531-0.371,0.956-0.991,0.956c-0.548,0-0.938-0.425-0.938-0.956
		c0-0.549,0.405-0.974,0.974-0.974C66.074,14.439,66.446,14.863,66.446,15.412z M64.71,26.387V17.82h1.56v8.566H64.71z"/>
	<path fill="#FFFFFF" d="M70.728,15.359v2.459h2.229v1.187h-2.229v4.622c0,1.061,0.302,1.662,1.17,1.662
		c0.406,0,0.708-0.053,0.901-0.105l0.069,1.168c-0.302,0.125-0.778,0.213-1.381,0.213c-0.729,0-1.313-0.229-1.683-0.651
		c-0.441-0.461-0.604-1.226-0.604-2.229v-4.676h-1.327V17.82h1.327v-2.053L70.728,15.359z"/>
	<path fill="#FFFFFF" d="M76.587,15.359v2.459h2.23v1.187h-2.23v4.622c0,1.061,0.302,1.662,1.17,1.662
		c0.406,0,0.707-0.053,0.901-0.105l0.071,1.168c-0.304,0.125-0.779,0.213-1.381,0.213c-0.729,0-1.313-0.229-1.683-0.651
		c-0.442-0.461-0.604-1.226-0.604-2.229v-4.676h-1.328V17.82h1.328v-2.053L76.587,15.359z"/>
	<path fill="#FFFFFF" d="M81.331,22.387c0.036,2.107,1.382,2.975,2.938,2.975c1.114,0,1.787-0.192,2.371-0.44l0.267,1.115
		c-0.549,0.246-1.487,0.528-2.851,0.528c-2.638,0-4.214-1.731-4.214-4.315c0-2.585,1.521-4.622,4.02-4.622
		c2.797,0,3.54,2.46,3.54,4.036c0,0.317-0.035,0.565-0.053,0.728L81.331,22.387L81.331,22.387z M85.899,21.271
		c0.018-0.992-0.407-2.53-2.16-2.53c-1.575,0-2.267,1.45-2.39,2.53H85.899z"/>
	<path fill="#FFFFFF" d="M89.332,20.492c0-1.01-0.018-1.876-0.069-2.672h1.361l0.055,1.681h0.069
		c0.392-1.149,1.328-1.876,2.372-1.876c0.177,0,0.302,0.018,0.442,0.053v1.469c-0.159-0.035-0.318-0.053-0.531-0.053
		c-1.098,0-1.876,0.831-2.088,2c-0.036,0.213-0.071,0.461-0.071,0.727v4.564h-1.54V20.492L89.332,20.492z"/>
</g>
</svg>
