<?xml version="1.0" encoding="utf-8"?>
<!-- Generator: Adobe Illustrator 16.0.0, SVG Export Plug-In . SVG Version: 6.00 Build 0)  -->
<!DOCTYPE svg PUBLIC "-//W3C//DTD SVG 1.1//EN" "http://www.w3.org/Graphics/SVG/1.1/DTD/svg11.dtd">
<svg version="1.1" id="Layer_1" xmlns="http://www.w3.org/2000/svg" xmlns:xlink="http://www.w3.org/1999/xlink" x="0px" y="0px"
	 width="134.259px" height="90px" viewBox="-12.027 -10 134.259 90" enable-background="new -12.027 -10 134.259 90"
	 xml:space="preserve">
<path class="path" fill="#1DACED" d="M122.231,77c0,1.657-1.344,3-3,3H-9.027c-1.655,0-3-1.343-3-3V-7c0-1.657,1.345-3,3-3h128.259
	c1.656,0,3,1.343,3,3V77z"/>
<path opacity="0.16" enable-background="new    " d="M-12.027,73.195c0,1.656,1.345,3,3,3h128.259c1.656,0,3-1.344,3-3V77
	c0,1.657-1.344,3-3,3H-9.027c-1.655,0-3-1.343-3-3V73.195z"/>
<g>
	<path fill="#FFFFFF" d="M72.85,5.31c-1.31,0.565-2.713,0.943-4.187,1.116c1.51-0.875,2.661-2.262,3.208-3.914
		c-1.408,0.811-2.967,1.401-4.627,1.716C65.914,2.856,64.024,2,61.925,2c-4.017,0-7.282,3.163-7.282,7.065
		c0,0.554,0.063,1.094,0.188,1.612c-6.052-0.294-11.418-3.108-15.007-7.383c-0.628,1.042-0.984,2.256-0.984,3.551
		c0,2.451,1.28,4.617,3.237,5.881c-1.198-0.036-2.316-0.353-3.301-0.885v0.092c0,3.426,2.511,6.283,5.842,6.935
		c-0.612,0.161-1.253,0.246-1.916,0.246c-0.468,0-0.925-0.042-1.371-0.127c0.928,2.81,3.616,4.852,6.807,4.91
		c-2.495,1.896-5.637,3.024-9.045,3.024c-0.588,0-1.168-0.032-1.738-0.099C40.576,28.825,44.404,30,48.518,30
		C61.914,30,69.24,19.224,69.24,9.883l-0.021-0.912C70.635,7.974,71.872,6.73,72.85,5.31z"/>
	<g>
		<path fill="#FFFFFF" d="M24.311,65.5V49.717h-5.896v-2.111H32.6v2.111h-5.922V65.5H24.311z"/>
		<path fill="#FFFFFF" d="M35.759,65.5l-3.966-12.964h2.271l2.063,7.483l0.77,2.782c0.031-0.139,0.257-1.028,0.671-2.674
			l2.063-7.593h2.26l1.939,7.52l0.647,2.479l0.743-2.502l2.223-7.495h2.136L45.525,65.5h-2.282l-2.063-7.764l-0.5-2.209L38.054,65.5
			H35.759z"/>
		<path fill="#FFFFFF" d="M51.434,50.131v-2.525h2.196v2.525H51.434z M51.434,65.5V52.536h2.196V65.5H51.434z"/>
		<path fill="#FFFFFF" d="M61.773,63.535l0.316,1.939c-0.617,0.131-1.172,0.195-1.659,0.195c-0.799,0-1.416-0.126-1.855-0.378
			s-0.749-0.584-0.928-0.995c-0.18-0.411-0.27-1.275-0.27-2.595v-7.458h-1.61v-1.709h1.61v-3.21l2.187-1.318v4.528h2.209v1.709
			h-2.209v7.581c0,0.627,0.038,1.028,0.114,1.208c0.077,0.179,0.203,0.32,0.38,0.427c0.175,0.106,0.425,0.159,0.75,0.159
			C61.052,63.62,61.375,63.592,61.773,63.535z"/>
		<path fill="#FFFFFF" d="M68.718,63.535l0.317,1.939c-0.618,0.131-1.172,0.195-1.66,0.195c-0.798,0-1.416-0.126-1.854-0.378
			c-0.439-0.252-0.749-0.584-0.929-0.995c-0.179-0.411-0.269-1.275-0.269-2.595v-7.458h-1.611v-1.709h1.611v-3.21l2.186-1.318v4.528
			h2.209v1.709h-2.209v7.581c0,0.627,0.038,1.028,0.115,1.208c0.077,0.179,0.203,0.32,0.379,0.427
			c0.175,0.106,0.425,0.159,0.75,0.159C67.998,63.62,68.32,63.592,68.718,63.535z"/>
		<path fill="#FFFFFF" d="M79.742,61.325l2.271,0.28c-0.358,1.326-1.021,2.355-1.989,3.088c-0.969,0.732-2.206,1.1-3.711,1.1
			c-1.896,0-3.4-0.584-4.512-1.752c-1.11-1.168-1.667-2.805-1.667-4.913c0-2.181,0.563-3.874,1.687-5.078s2.579-1.807,4.369-1.807
			c1.733,0,3.149,0.591,4.248,1.771c1.1,1.18,1.647,2.84,1.647,4.98c0,0.13-0.004,0.324-0.012,0.586h-9.668
			c0.081,1.424,0.483,2.514,1.208,3.271c0.725,0.756,1.628,1.135,2.71,1.135c0.806,0,1.493-0.211,2.063-0.635
			C78.957,62.93,79.408,62.253,79.742,61.325z M72.527,57.773h7.239c-0.099-1.092-0.374-1.908-0.83-2.455
			c-0.7-0.846-1.607-1.27-2.723-1.27c-1.01,0-1.857,0.338-2.546,1.014C72.981,55.738,72.602,56.643,72.527,57.773z"/>
		<path fill="#FFFFFF" d="M84.746,65.5V52.536h1.979v1.966c0.504-0.92,0.97-1.525,1.396-1.818s0.897-0.439,1.409-0.439
			c0.741,0,1.494,0.236,2.259,0.708l-0.757,2.038c-0.537-0.318-1.074-0.477-1.611-0.477c-0.479,0-0.911,0.145-1.294,0.434
			s-0.654,0.688-0.816,1.201c-0.244,0.781-0.367,1.637-0.367,2.563V65.5H84.746z"/>
	</g>
</g>
</svg>
