<?xml version="1.0" encoding="utf-8"?>
<!-- Generator: Adobe Illustrator 16.0.0, SVG Export Plug-In . SVG Version: 6.00 Build 0)  -->
<!DOCTYPE svg PUBLIC "-//W3C//DTD SVG 1.1//EN" "http://www.w3.org/Graphics/SVG/1.1/DTD/svg11.dtd">
<svg version="1.1" id="Layer_1" xmlns="http://www.w3.org/2000/svg" xmlns:xlink="http://www.w3.org/1999/xlink" x="0px" y="0px"
	 width="134.018px" height="90px" viewBox="-8.93 -10 134.018 90" enable-background="new -8.93 -10 134.018 90"
	 xml:space="preserve">
<path fill="#FFFFFF" d="M-8.93,80V-5c0-2.762,2.239-5,5-5h124.018c2.762,0,5,2.238,5,5v85"/>
<rect x="-8.93" y="76" class="path" fill="#1DACED" width="134.018" height="4"/>
<g>
	<path class="path" fill="#1DACED" d="M75.826,5.31c-1.309,0.565-2.712,0.943-4.186,1.116c1.51-0.875,2.661-2.262,3.208-3.914
		c-1.408,0.811-2.967,1.401-4.627,1.716C68.891,2.856,67.001,2,64.902,2c-4.017,0-7.283,3.163-7.283,7.065
		c0,0.554,0.064,1.094,0.188,1.612c-6.052-0.294-11.418-3.108-15.007-7.383c-0.628,1.042-0.984,2.256-0.984,3.551
		c0,2.451,1.28,4.617,3.237,5.881c-1.198-0.036-2.316-0.353-3.301-0.885v0.092c0,3.426,2.511,6.283,5.842,6.935
		c-0.612,0.161-1.253,0.246-1.916,0.246c-0.468,0-0.925-0.042-1.371-0.127c0.928,2.81,3.616,4.852,6.807,4.91
		c-2.496,1.896-5.637,3.024-9.045,3.024c-0.588,0-1.168-0.032-1.739-0.099C43.553,28.825,47.381,30,51.494,30
		c13.397,0,20.723-10.776,20.723-20.117l-0.021-0.912C73.612,7.974,74.849,6.73,75.826,5.31z"/>
	<g>
		<path class="path" fill="#1DACED" d="M27.287,65.5V49.717h-5.896v-2.112h14.185v2.112h-5.921V65.5H27.287z"/>
		<path class="path" fill="#1DACED" d="M38.736,65.5L34.77,52.536h2.271l2.063,7.483l0.769,2.783c0.032-0.139,0.257-1.029,0.671-2.674
			l2.063-7.593h2.259l1.94,7.52l0.647,2.478l0.744-2.502l2.222-7.495h2.136L48.502,65.5H46.22l-2.063-7.764l-0.5-2.209L41.031,65.5
			H38.736z"/>
		<path class="path" fill="#1DACED" d="M54.41,50.131v-2.526h2.197v2.526H54.41z M54.41,65.5V52.536h2.197V65.5H54.41z"/>
		<path class="path" fill="#1DACED" d="M64.75,63.535l0.317,1.94c-0.618,0.13-1.172,0.195-1.66,0.195c-0.798,0-1.416-0.126-1.855-0.378
			s-0.749-0.584-0.928-0.995s-0.269-1.276-0.269-2.595v-7.458h-1.611v-1.709h1.611v-3.21l2.186-1.318v4.528h2.209v1.709h-2.209
			v7.581c0,0.627,0.038,1.029,0.115,1.208s0.203,0.321,0.379,0.427c0.175,0.106,0.425,0.159,0.75,0.159
			C64.029,63.62,64.352,63.592,64.75,63.535z"/>
		<path class="path" fill="#1DACED" d="M71.695,63.535l0.317,1.94c-0.618,0.13-1.172,0.195-1.66,0.195c-0.798,0-1.416-0.126-1.855-0.378
			s-0.749-0.584-0.928-0.995s-0.269-1.276-0.269-2.595v-7.458h-1.611v-1.709h1.611v-3.21l2.186-1.318v4.528h2.209v1.709h-2.209
			v7.581c0,0.627,0.038,1.029,0.115,1.208s0.203,0.321,0.379,0.427c0.175,0.106,0.425,0.159,0.75,0.159
			C70.975,63.62,71.297,63.592,71.695,63.535z"/>
		<path class="path" fill="#1DACED" d="M82.719,61.325l2.271,0.28c-0.358,1.327-1.021,2.356-1.989,3.089c-0.969,0.732-2.206,1.099-3.711,1.099
			c-1.896,0-3.4-0.584-4.511-1.752c-1.111-1.168-1.667-2.805-1.667-4.913c0-2.181,0.563-3.874,1.686-5.078s2.579-1.807,4.369-1.807
			c1.734,0,3.15,0.591,4.248,1.771c1.1,1.18,1.648,2.84,1.648,4.98c0,0.13-0.004,0.325-0.012,0.586h-9.668
			c0.081,1.424,0.483,2.514,1.208,3.271c0.725,0.756,1.628,1.135,2.71,1.135c0.806,0,1.493-0.211,2.063-0.635
			C81.934,62.929,82.385,62.253,82.719,61.325z M75.504,57.773h7.239c-0.098-1.091-0.374-1.908-0.83-2.454
			c-0.7-0.847-1.607-1.27-2.722-1.27c-1.01,0-1.858,0.338-2.546,1.013C75.958,55.738,75.578,56.643,75.504,57.773z"/>
		<path class="path" fill="#1DACED" d="M87.723,65.5V52.536h1.979v1.966c0.504-0.92,0.97-1.526,1.397-1.819c0.427-0.293,0.897-0.439,1.409-0.439
			c0.741,0,1.494,0.236,2.259,0.708L94.01,54.99c-0.537-0.318-1.074-0.477-1.611-0.477c-0.48,0-0.911,0.145-1.294,0.434
			s-0.655,0.689-0.817,1.202c-0.244,0.781-0.367,1.636-0.367,2.563V65.5H87.723z"/>
	</g>
</g>
</svg>
