<?xml version="1.0" encoding="utf-8"?>
<!-- Generator: Adobe Illustrator 16.0.0, SVG Export Plug-In . SVG Version: 6.00 Build 0)  -->
<!DOCTYPE svg PUBLIC "-//W3C//DTD SVG 1.1//EN" "http://www.w3.org/Graphics/SVG/1.1/DTD/svg11.dtd">
<svg version="1.1" id="Layer_1" xmlns="http://www.w3.org/2000/svg" xmlns:xlink="http://www.w3.org/1999/xlink" x="0px" y="0px"
	 width="95.438px" height="40px" viewBox="14.313 0 95.438 40" enable-background="new 14.313 0 95.438 40" xml:space="preserve">
<path class="path" fill="#FF4E0D" d="M109.734,35.042c0,2.762-2.238,5-5,5H19.297c-2.762,0-5-2.238-5-5v-30c0-2.761,2.238-5,5-5h85.438
	c2.762,0,5,2.239,5,5V35.042z"/>
<g>
	<g id="g104" transform="translate(280.6885,392.415)">
		<path id="path106" fill="#FFFFFF" stroke="#FFFFFF" stroke-miterlimit="10" d="M-245.844-374.665c0-0.28,0.085-0.504,0.255-0.667
			c0.17-0.167,0.375-0.249,0.617-0.249c0.246,0,0.456,0.08,0.628,0.244c0.175,0.163,0.261,0.385,0.261,0.673v0.915h0.04
			c0.267-0.466,0.616-0.886,1.052-1.265c0.436-0.373,0.891-0.572,1.368-0.592c0.267,0,0.503,0.088,0.709,0.262
			c0.205,0.176,0.31,0.393,0.31,0.655c0,0.307-0.106,0.529-0.316,0.673c-0.211,0.143-0.518,0.267-0.923,0.37
			c-0.402,0.106-0.665,0.189-0.783,0.257c-0.97,0.525-1.455,1.424-1.455,2.7v5.24c0,0.29-0.08,0.514-0.245,0.676
			c-0.163,0.159-0.366,0.237-0.605,0.237c-0.253,0-0.47-0.084-0.646-0.248c-0.177-0.171-0.264-0.404-0.264-0.71L-245.844-374.665
			L-245.844-374.665z"/>
	</g>
	<g id="g108" transform="translate(280.6885,392.415)">
		<path id="path110" fill="#FFFFFF" stroke="#FFFFFF" stroke-width="0.598" d="M-245.844-374.665c0-0.28,0.085-0.504,0.255-0.667
			c0.17-0.167,0.375-0.249,0.617-0.249c0.246,0,0.456,0.08,0.628,0.244c0.175,0.163,0.261,0.385,0.261,0.673v0.915h0.04
			c0.267-0.466,0.616-0.886,1.052-1.265c0.436-0.373,0.891-0.572,1.368-0.592c0.267,0,0.503,0.088,0.709,0.262
			c0.205,0.176,0.31,0.393,0.31,0.655c0,0.307-0.106,0.529-0.316,0.673c-0.211,0.143-0.518,0.267-0.923,0.37
			c-0.402,0.106-0.665,0.189-0.783,0.257c-0.97,0.525-1.455,1.424-1.455,2.7v5.24c0,0.29-0.08,0.514-0.245,0.676
			c-0.163,0.159-0.366,0.237-0.605,0.237c-0.253,0-0.47-0.084-0.646-0.248c-0.177-0.171-0.264-0.404-0.264-0.71L-245.844-374.665
			L-245.844-374.665z"/>
	</g>
	<g id="g112" transform="translate(292.5103,386.2129)">
		<path id="path114" fill="#FFFFFF" stroke="#FFFFFF" stroke-miterlimit="10" d="M-249.127-364.37h5.955
			c-0.018-0.992-0.283-1.788-0.792-2.394c-0.51-0.605-1.207-0.918-2.094-0.936c-0.904,0-1.63,0.294-2.183,0.875
			C-248.792-366.239-249.085-365.42-249.127-364.37 M-250.929-363.805c0.042-0.922,0.254-1.8,0.638-2.628
			c0.383-0.828,0.933-1.5,1.643-2.018c0.711-0.513,1.549-0.777,2.509-0.792c0.934,0,1.762,0.251,2.487,0.757
			c0.726,0.502,1.283,1.168,1.678,1.998c0.396,0.83,0.588,1.698,0.588,2.603c0,0.581-0.328,0.869-0.991,0.869h-6.751
			c0.015,0.723,0.167,1.33,0.463,1.825c0.295,0.494,0.688,0.866,1.183,1.109c0.494,0.247,1.042,0.369,1.646,0.369
			c1.056,0,2.026-0.375,2.91-1.122c0.303-0.219,0.528-0.328,0.671-0.328c0.199,0,0.351,0.073,0.46,0.224
			c0.113,0.148,0.169,0.324,0.169,0.532c0,0.229-0.086,0.445-0.263,0.654c-0.399,0.421-0.962,0.792-1.693,1.106
			c-0.729,0.318-1.515,0.475-2.356,0.475c-0.881,0-1.647-0.163-2.297-0.497c-0.654-0.332-1.175-0.772-1.574-1.324
			c-0.397-0.55-0.688-1.141-0.869-1.78c-0.183-0.636-0.277-1.281-0.289-1.93c0.019-0.037,0.028-0.06,0.032-0.072
			C-250.931-363.79-250.929-363.797-250.929-363.805"/>
	</g>
	<g id="g120" transform="translate(309.4863,385.2158)">
		<path id="path122" fill="#FFFFFF" stroke="#FFFFFF" stroke-miterlimit="10" d="M-254.425-362.907c0,1.102,0.235,2.034,0.71,2.812
			c0.474,0.772,1.179,1.178,2.12,1.215c0.749,0,1.355-0.194,1.823-0.585c0.462-0.39,0.795-0.883,0.993-1.48
			c0.201-0.601,0.304-1.238,0.322-1.92c0-0.788-0.123-1.484-0.379-2.096c-0.255-0.61-0.607-1.082-1.06-1.41
			c-0.45-0.332-0.963-0.499-1.533-0.499c-0.674,0-1.233,0.2-1.681,0.594c-0.448,0.396-0.771,0.893-0.978,1.492
			C-254.295-364.182-254.409-363.557-254.425-362.907 M-248.661-366.951v-5.33c0-0.278,0.089-0.495,0.26-0.654
			c0.175-0.16,0.38-0.239,0.614-0.239c0.262,0,0.478,0.079,0.653,0.237c0.172,0.16,0.261,0.392,0.261,0.693v13.988
			c0,0.288-0.091,0.51-0.268,0.675c-0.179,0.161-0.396,0.241-0.646,0.241c-0.223,0-0.426-0.08-0.606-0.241
			c-0.177-0.164-0.268-0.375-0.268-0.634v-0.581h-0.039c-0.193,0.391-0.508,0.722-0.942,1.007c-0.435,0.279-1.027,0.429-1.77,0.449
			c-0.953,0-1.79-0.23-2.51-0.698c-0.718-0.467-1.278-1.112-1.676-1.95c-0.391-0.831-0.597-1.776-0.617-2.832
			c0-0.758,0.111-1.479,0.332-2.163c0.226-0.685,0.537-1.283,0.941-1.793c0.403-0.512,0.888-0.913,1.452-1.2
			c0.567-0.291,1.186-0.436,1.859-0.436c1.216,0,2.193,0.488,2.93,1.459L-248.661-366.951L-248.661-366.951z"/>
	</g>
	<g id="g124" transform="translate(309.4863,385.2158)">
		<path id="path126" fill="#FFFFFF" stroke="#FFFFFF" stroke-width="0.598" d="M-254.425-362.907c0,1.102,0.235,2.034,0.71,2.812
			c0.474,0.772,1.179,1.178,2.12,1.215c0.749,0,1.355-0.194,1.823-0.585c0.462-0.39,0.795-0.883,0.993-1.48
			c0.201-0.601,0.304-1.238,0.322-1.92c0-0.788-0.123-1.484-0.379-2.096c-0.255-0.61-0.607-1.082-1.06-1.41
			c-0.45-0.332-0.963-0.499-1.533-0.499c-0.674,0-1.233,0.2-1.681,0.594c-0.448,0.396-0.771,0.893-0.978,1.492
			C-254.295-364.182-254.409-363.557-254.425-362.907z M-248.661-366.951v-5.33c0-0.278,0.089-0.495,0.26-0.654
			c0.175-0.16,0.38-0.239,0.614-0.239c0.262,0,0.478,0.079,0.653,0.237c0.172,0.16,0.261,0.392,0.261,0.693v13.988
			c0,0.288-0.091,0.51-0.268,0.675c-0.179,0.161-0.396,0.241-0.646,0.241c-0.223,0-0.426-0.08-0.606-0.241
			c-0.177-0.164-0.268-0.375-0.268-0.634v-0.581h-0.039c-0.193,0.391-0.508,0.722-0.942,1.007c-0.435,0.279-1.027,0.429-1.77,0.449
			c-0.953,0-1.79-0.23-2.51-0.698c-0.718-0.467-1.278-1.112-1.676-1.95c-0.391-0.831-0.597-1.776-0.617-2.832
			c0-0.758,0.111-1.479,0.332-2.163c0.226-0.685,0.537-1.283,0.941-1.793c0.403-0.512,0.888-0.913,1.452-1.2
			c0.567-0.291,1.186-0.436,1.859-0.436c1.216,0,2.193,0.488,2.93,1.459L-248.661-366.951L-248.661-366.951z"/>
	</g>
	<g id="g128" transform="translate(327.3467,385.2158)">
		<path id="path130" fill="#FFFFFF" stroke="#FFFFFF" stroke-miterlimit="10" d="M-260.51-362.907c0,1.102,0.235,2.034,0.709,2.812
			c0.477,0.772,1.186,1.178,2.122,1.215c0.748,0,1.354-0.194,1.82-0.585c0.466-0.39,0.799-0.883,0.998-1.48
			c0.198-0.601,0.304-1.238,0.323-1.92c0-0.788-0.127-1.484-0.38-2.096c-0.255-0.61-0.607-1.082-1.063-1.41
			c-0.449-0.332-0.962-0.499-1.532-0.499c-0.674,0-1.231,0.2-1.682,0.594c-0.443,0.396-0.77,0.893-0.979,1.492
			C-260.381-364.182-260.493-363.557-260.51-362.907 M-254.743-366.951v-5.33c0-0.278,0.086-0.495,0.26-0.654
			c0.174-0.16,0.376-0.239,0.611-0.239c0.26,0,0.479,0.079,0.654,0.237c0.175,0.16,0.261,0.392,0.261,0.693v13.988
			c0,0.288-0.092,0.51-0.269,0.675c-0.181,0.161-0.396,0.241-0.646,0.241c-0.224,0-0.424-0.08-0.602-0.241
			c-0.18-0.164-0.27-0.375-0.27-0.634v-0.581h-0.039c-0.196,0.391-0.507,0.722-0.946,1.007c-0.433,0.279-1.023,0.429-1.767,0.449
			c-0.954,0-1.788-0.23-2.511-0.698c-0.716-0.467-1.273-1.112-1.67-1.95c-0.398-0.831-0.603-1.776-0.618-2.832
			c0-0.758,0.109-1.479,0.328-2.163c0.227-0.685,0.535-1.283,0.939-1.793c0.404-0.512,0.889-0.913,1.455-1.2
			c0.564-0.291,1.182-0.436,1.855-0.436c1.216,0,2.193,0.488,2.932,1.459L-254.743-366.951L-254.743-366.951z"/>
	</g>
	<g id="g132" transform="translate(327.3467,385.2158)">
		<path id="path134" fill="#FFFFFF" stroke="#FFFFFF" stroke-width="0.598" d="M-260.51-362.907c0,1.102,0.235,2.034,0.709,2.812
			c0.477,0.772,1.186,1.178,2.122,1.215c0.748,0,1.354-0.194,1.82-0.585c0.466-0.39,0.799-0.883,0.998-1.48
			c0.198-0.601,0.304-1.238,0.323-1.92c0-0.788-0.127-1.484-0.38-2.096c-0.255-0.61-0.607-1.082-1.063-1.41
			c-0.449-0.332-0.962-0.499-1.532-0.499c-0.674,0-1.231,0.2-1.682,0.594c-0.443,0.396-0.77,0.893-0.979,1.492
			C-260.381-364.182-260.493-363.557-260.51-362.907z M-254.743-366.951v-5.33c0-0.278,0.086-0.495,0.26-0.654
			c0.174-0.16,0.376-0.239,0.611-0.239c0.26,0,0.479,0.079,0.654,0.237c0.175,0.16,0.261,0.392,0.261,0.693v13.988
			c0,0.288-0.092,0.51-0.269,0.675c-0.181,0.161-0.396,0.241-0.646,0.241c-0.224,0-0.424-0.08-0.602-0.241
			c-0.18-0.164-0.27-0.375-0.27-0.634v-0.581h-0.039c-0.196,0.391-0.507,0.722-0.946,1.007c-0.433,0.279-1.023,0.429-1.767,0.449
			c-0.954,0-1.788-0.23-2.511-0.698c-0.716-0.467-1.273-1.112-1.67-1.95c-0.398-0.831-0.603-1.776-0.618-2.832
			c0-0.758,0.109-1.479,0.328-2.163c0.227-0.685,0.535-1.283,0.939-1.793c0.404-0.512,0.889-0.913,1.455-1.2
			c0.564-0.291,1.182-0.436,1.855-0.436c1.216,0,2.193,0.488,2.932,1.459L-254.743-366.951L-254.743-366.951z"/>
	</g>
	<g id="g136" transform="translate(351.7471,391.2998)">
		<path id="path138" fill="#FFFFFF" stroke="#FFFFFF" stroke-miterlimit="10" d="M-265.966-372.841h-0.79
			c-0.25,0-0.453-0.072-0.61-0.215c-0.151-0.144-0.238-0.324-0.267-0.535c0.055-0.531,0.347-0.796,0.877-0.796h0.79v-2.415
			c0-0.262,0.085-0.466,0.254-0.614c0.167-0.144,0.374-0.217,0.618-0.217c0.26,0,0.478,0.073,0.65,0.219
			c0.177,0.149,0.263,0.366,0.263,0.658v2.369h0.788c0.272,0,0.478,0.072,0.622,0.217c0.139,0.146,0.21,0.336,0.21,0.578
			c0,0.203-0.071,0.375-0.206,0.526c-0.14,0.149-0.32,0.224-0.542,0.224h-0.873v8.539c0,0.271-0.092,0.486-0.278,0.646
			c-0.188,0.158-0.415,0.234-0.676,0.234c-0.231,0-0.433-0.078-0.594-0.234c-0.158-0.159-0.238-0.387-0.238-0.682v-8.501H-265.966
			L-265.966-372.841z"/>
	</g>
	<g id="g148" transform="translate(346.8604,398.5088)">
		<path id="path150" fill="none" stroke="#FFFFFF" d="M-266.155-384.617c0,0.808-0.652,1.462-1.46,1.462s-1.464-0.654-1.464-1.462
			c0-0.806,0.656-1.462,1.464-1.462S-266.155-385.422-266.155-384.617z"/>
	</g>
	<g id="g152" transform="translate(344.5557,392.5674)">
		<path id="path154" fill="#FFFFFF" stroke="#FFFFFF" stroke-width="3" stroke-linecap="round" d="M-265.309-374.68v9.368"/>
	</g>
</g>
</svg>
