<?xml version="1.0" encoding="utf-8"?>
<!-- Generator: Adobe Illustrator 16.0.0, SVG Export Plug-In . SVG Version: 6.00 Build 0)  -->
<!DOCTYPE svg PUBLIC "-//W3C//DTD SVG 1.1//EN" "http://www.w3.org/Graphics/SVG/1.1/DTD/svg11.dtd">
<svg version="1.1" id="Layer_1" xmlns="http://www.w3.org/2000/svg" xmlns:xlink="http://www.w3.org/1999/xlink" x="0px" y="0px"
	 width="40px" height="40px" viewBox="0 0 40 40" enable-background="new 0 0 40 40" xml:space="preserve">
<path class="path" fill-rule="evenodd" clip-rule="evenodd" fill="#FF4E0D" d="M10,0.002h20c2.842,0,10,0,10,0s0,7.32,0,10v20
	c0,5.523-4.477,10-10,10H10c-3.025,0-10,0-10,0s0-7.502,0-10v-20C0,4.479,4.477,0.002,10,0.002z"/>
<g>
	<path fill="#FFFFFF" d="M31.867,18.993c0-1.645-1.334-2.979-2.98-2.979c-0.824,0-1.568,0.335-2.107,0.877
		c-1.668-1.075-3.797-1.761-6.135-1.867c0-0.993,0.444-1.919,1.222-2.54c0.774-0.623,1.776-0.855,2.75-0.641l0.133,0.029
		c-0.002,0.034-0.005,0.066-0.005,0.101c0,1.374,1.113,2.488,2.486,2.488s2.487-1.114,2.487-2.488s-1.114-2.487-2.487-2.487
		c-0.883,0-1.656,0.461-2.099,1.155l-0.237-0.053c-1.354-0.301-2.752,0.024-3.834,0.892c-1.082,0.867-1.701,2.16-1.703,3.544
		c-2.338,0.106-4.467,0.792-6.134,1.866c-0.54-0.541-1.286-0.876-2.109-0.876c-1.647,0-2.981,1.335-2.981,2.979
		c0,1.146,0.65,2.141,1.599,2.64c-0.072,0.368-0.11,0.746-0.11,1.131c0,4.282,4.647,7.754,10.378,7.754
		c5.731,0,10.379-3.472,10.379-7.754c0-0.385-0.037-0.762-0.108-1.131C31.219,21.134,31.867,20.14,31.867,18.993z M27.23,10.771
		c0.662,0,1.201,0.54,1.201,1.202c0,0.663-0.539,1.202-1.201,1.202c-0.664,0-1.203-0.539-1.203-1.202
		C26.027,11.311,26.566,10.771,27.23,10.771z M9.419,18.993c0-0.935,0.76-1.693,1.695-1.693c0.399,0,0.767,0.141,1.056,0.373
		c-0.906,0.777-1.608,1.691-2.043,2.695C9.699,20.062,9.419,19.56,9.419,18.993z M26.568,27.216c-1.739,1.3-4.071,2.017-6.568,2.017
		c-2.496,0-4.829-0.717-6.568-2.017c-1.626-1.216-2.524-2.797-2.524-4.452c0-1.656,0.897-3.238,2.524-4.454
		c1.739-1.3,4.073-2.016,6.568-2.016c2.497,0,4.829,0.716,6.568,2.016c1.627,1.216,2.522,2.797,2.522,4.454
		C29.093,24.419,28.195,26,26.568,27.216z M29.873,20.367c-0.436-1.004-1.139-1.917-2.043-2.694
		c0.289-0.234,0.656-0.373,1.057-0.373c0.937,0,1.695,0.759,1.695,1.693C30.582,19.56,30.302,20.06,29.873,20.367z"/>
	<circle fill="#FFFFFF" cx="16.21" cy="20.953" r="1.357"/>
	<circle fill="#FFFFFF" cx="23.791" cy="20.953" r="1.357"/>
	<path fill="#FFFFFF" d="M23.217,24.25c-0.956,0.871-2.197,1.352-3.492,1.352c-1.455,0-2.802-0.586-3.794-1.649
		c-0.242-0.261-0.65-0.272-0.909-0.031c-0.26,0.241-0.274,0.647-0.032,0.908c1.221,1.31,2.945,2.062,4.735,2.062
		c1.617,0,3.166-0.601,4.357-1.688c0.264-0.238,0.282-0.646,0.043-0.909C23.887,24.029,23.479,24.011,23.217,24.25z"/>
</g>
</svg>
