<?xml version="1.0" encoding="utf-8"?>
<!-- Generator: Adobe Illustrator 16.0.0, SVG Export Plug-In . SVG Version: 6.00 Build 0)  -->
<!DOCTYPE svg PUBLIC "-//W3C//DTD SVG 1.1//EN" "http://www.w3.org/Graphics/SVG/1.1/DTD/svg11.dtd">
<svg version="1.1" id="Layer_1" xmlns="http://www.w3.org/2000/svg" xmlns:xlink="http://www.w3.org/1999/xlink" x="0px" y="0px"
	 width="106.934px" height="40px" viewBox="0 0 106.934 40" enable-background="new 0 0 106.934 40" xml:space="preserve">
<path class="path" fill="#FF4E0D" d="M106.934,34c0,3.313-2.687,6-6,6H6c-3.313,0-6-2.688-6-6V6c0-3.313,2.687-6,6-6h94.934c3.313,0,6,2.687,6,6
	V34z"/>
<g>
	<path fill="#FFFFFF" d="M45.313,14.418c0.779-0.159,1.896-0.248,2.955-0.248c1.646,0,2.709,0.301,3.453,0.974
		c0.604,0.531,0.938,1.345,0.938,2.266c0,1.575-0.992,2.62-2.248,3.044v0.054c0.92,0.318,1.469,1.168,1.752,2.406
		c0.391,1.664,0.674,2.814,0.92,3.275H51.49c-0.195-0.336-0.465-1.363-0.801-2.854c-0.354-1.646-0.988-2.268-2.389-2.316H46.85v5.17
		h-1.539L45.313,14.418L45.313,14.418z M46.852,19.852h1.576c1.646,0,2.689-0.902,2.689-2.266c0-1.54-1.113-2.212-2.742-2.23
		c-0.744,0-1.275,0.071-1.523,0.142V19.852z"/>
	<path fill="#FFFFFF" d="M55.721,22.189c0.035,2.104,1.381,2.973,2.938,2.973c1.111,0,1.789-0.195,2.373-0.441l0.266,1.113
		c-0.549,0.248-1.488,0.531-2.854,0.531c-2.637,0-4.211-1.734-4.211-4.318c0-2.583,1.521-4.62,4.021-4.62
		c2.797,0,3.539,2.46,3.539,4.036c0,0.318-0.035,0.566-0.053,0.727H55.721L55.721,22.189z M60.287,21.074
		c0.018-0.992-0.406-2.532-2.16-2.532c-1.574,0-2.27,1.451-2.393,2.532H60.287z"/>
	<path fill="#FFFFFF" d="M71.119,13.622v10.354c0,0.763,0.018,1.629,0.066,2.213H69.79l-0.07-1.487h-0.035
		c-0.479,0.957-1.521,1.682-2.92,1.682c-2.072,0-3.664-1.752-3.664-4.354c-0.018-2.845,1.752-4.598,3.84-4.598
		c1.313,0,2.195,0.62,2.584,1.31h0.035v-5.115L71.119,13.622L71.119,13.622z M69.561,21.109c0-0.195-0.018-0.461-0.066-0.656
		c-0.23-0.99-1.08-1.805-2.248-1.805c-1.609,0-2.566,1.416-2.566,3.31c0,1.733,0.85,3.168,2.531,3.168c1.045,0,2-0.688,2.283-1.858
		c0.053-0.211,0.066-0.425,0.066-0.672V21.109L69.561,21.109z"/>
	<path fill="#FFFFFF" d="M81.102,13.622v10.354c0,0.763,0.021,1.629,0.072,2.213h-1.398l-0.068-1.487H79.67
		c-0.479,0.957-1.521,1.682-2.92,1.682c-2.07,0-3.664-1.752-3.664-4.354c-0.021-2.845,1.752-4.598,3.842-4.598
		c1.309,0,2.193,0.62,2.584,1.31h0.035v-5.115L81.102,13.622L81.102,13.622z M79.545,21.109c0-0.195-0.021-0.461-0.07-0.656
		c-0.229-0.99-1.08-1.805-2.248-1.805c-1.607,0-2.563,1.416-2.563,3.31c0,1.733,0.85,3.168,2.527,3.168c1.043,0,2-0.688,2.283-1.858
		c0.053-0.211,0.07-0.425,0.07-0.672V21.109L79.545,21.109z"/>
	<path fill="#FFFFFF" d="M85.42,15.215c0.018,0.531-0.371,0.956-0.99,0.956c-0.549,0-0.938-0.425-0.938-0.956
		c0-0.549,0.402-0.974,0.973-0.974C85.049,14.241,85.42,14.666,85.42,15.215z M83.686,26.189v-8.567h1.563v8.567H83.686z"/>
	<path fill="#FFFFFF" d="M89.703,15.162v2.46h2.229v1.186h-2.229v4.62c0,1.063,0.301,1.664,1.17,1.664
		c0.402,0,0.707-0.053,0.898-0.107l0.07,1.17c-0.301,0.123-0.779,0.215-1.381,0.215c-0.728,0-1.313-0.229-1.684-0.654
		c-0.439-0.461-0.604-1.221-0.604-2.229V18.81H86.85v-1.186h1.328v-2.053L89.703,15.162z"/>
</g>
<g>
	<path fill="#FFFFFF" d="M35.313,19.139c0-1.408-1.142-2.55-2.551-2.55c-0.705,0-1.342,0.287-1.804,0.75
		c-1.427-0.92-3.249-1.507-5.25-1.598c0-0.85,0.38-1.643,1.048-2.174c0.66-0.533,1.518-0.731,2.354-0.548l0.114,0.025
		c-0.002,0.029-0.005,0.057-0.005,0.086c0,1.176,0.95,2.129,2.126,2.129c1.175,0,2.129-0.953,2.129-2.129
		c0-1.176-0.954-2.128-2.129-2.128c-0.756,0-1.415,0.394-1.796,0.988l-0.203-0.045c-1.159-0.257-2.354,0.021-3.281,0.764
		c-0.926,0.742-1.456,1.849-1.457,3.033c-2.002,0.09-3.82,0.678-5.25,1.597c-0.463-0.463-1.102-0.75-1.805-0.75
		c-1.41,0-2.553,1.143-2.553,2.55c0,0.98,0.557,1.832,1.369,2.259c-0.063,0.313-0.098,0.639-0.098,0.968
		c0,3.665,3.979,6.637,8.886,6.637c4.901,0,8.883-2.972,8.883-6.637c0-0.329-0.032-0.651-0.095-0.968
		C34.758,20.971,35.313,20.12,35.313,19.139z M31.345,12.102c0.566,0,1.027,0.462,1.027,1.029c0,0.567-0.461,1.028-1.027,1.028
		c-0.568,0-1.03-0.461-1.03-1.028C30.314,12.564,30.776,12.102,31.345,12.102z M16.101,19.139c0-0.8,0.65-1.449,1.45-1.449
		c0.342,0,0.656,0.121,0.904,0.319c-0.775,0.665-1.377,1.447-1.748,2.307C16.34,20.053,16.101,19.624,16.101,19.139z M30.778,26.176
		c-1.485,1.112-3.481,1.727-5.618,1.727c-2.141,0-4.137-0.61-5.621-1.727c-1.396-1.04-2.16-2.394-2.16-3.811s0.768-2.771,2.16-3.812
		c1.484-1.113,3.482-1.725,5.621-1.725c2.137,0,4.133,0.612,5.618,1.725c1.396,1.041,2.156,2.395,2.156,3.812
		C32.938,23.782,32.17,25.136,30.778,26.176z M33.606,20.314c-0.373-0.859-0.975-1.641-1.749-2.306
		c0.248-0.2,0.563-0.319,0.904-0.319c0.804,0,1.451,0.65,1.451,1.449C34.213,19.624,33.973,20.052,33.606,20.314z"/>
	<circle fill="#FFFFFF" cx="21.912" cy="20.816" r="1.161"/>
	<circle fill="#FFFFFF" cx="28.4" cy="20.816" r="1.161"/>
	<path fill="#FFFFFF" d="M27.909,23.639c-0.818,0.744-1.884,1.155-2.988,1.155c-1.245,0-2.397-0.501-3.247-1.409
		c-0.207-0.226-0.557-0.23-0.777-0.025c-0.223,0.205-0.23,0.557-0.023,0.776c1.045,1.123,2.52,1.767,4.052,1.767
		c1.384,0,2.709-0.518,3.729-1.441c0.229-0.204,0.241-0.557,0.036-0.775C28.482,23.448,28.134,23.434,27.909,23.639z"/>
</g>
</svg>
