<?xml version="1.0" encoding="utf-8"?>
<!-- Generator: Adobe Illustrator 16.0.0, SVG Export Plug-In . SVG Version: 6.00 Build 0)  -->
<!DOCTYPE svg PUBLIC "-//W3C//DTD SVG 1.1//EN" "http://www.w3.org/Graphics/SVG/1.1/DTD/svg11.dtd">
<svg version="1.1" id="Layer_1" xmlns="http://www.w3.org/2000/svg" xmlns:xlink="http://www.w3.org/1999/xlink" x="0px" y="0px"
	 width="126.93px" height="90px" viewBox="-6.932 -10 126.93 90" enable-background="new -6.932 -10 126.93 90"
	 xml:space="preserve">
<path fill="#FFFFFF" d="M-6.932,80V-5c0-2.761,2.237-5,5-5h116.93c2.762,0,5,2.239,5,5v85"/>
<rect x="-6.932" y="76" class="path" fill="#FC450D" width="126.93" height="4"/>
<g>
	<g>
		<path class="path" fill="#FC450D" d="M72.33,14.657c0-2.19-1.774-3.968-3.968-3.968c-1.097,0-2.087,0.446-2.804,1.167
			c-2.229-1.431-5.055-2.344-8.166-2.486c0-1.321,0.59-2.555,1.629-3.381c1.026-0.829,2.36-1.137,3.66-0.854l0.18,0.039
			c-0.003,0.045-0.01,0.089-0.01,0.134c0,1.829,1.479,3.312,3.309,3.312c1.826,0,3.312-1.482,3.312-3.312
			C69.472,3.477,67.987,2,66.16,2c-1.176,0-2.202,0.613-2.795,1.537L63.05,3.465c-1.802-0.398-3.662,0.033-5.104,1.19
			c-1.44,1.153-2.264,2.876-2.267,4.717c-3.114,0.141-5.938,1.055-8.166,2.484c-0.72-0.72-1.714-1.167-2.807-1.167
			c-2.193,0-3.971,1.778-3.971,3.968c0,1.522,0.865,2.846,2.128,3.512c-0.098,0.486-0.153,0.995-0.153,1.506
			C42.711,25.377,48.901,30,56.533,30c7.622,0,13.817-4.623,13.817-10.324c0-0.511-0.052-1.012-0.153-1.506
			C71.468,17.502,72.33,16.182,72.33,14.657z M66.16,3.711c0.88,0,1.598,0.717,1.598,1.599c0,0.882-0.718,1.599-1.598,1.599
			c-0.884,0-1.604-0.717-1.604-1.599C64.557,4.428,65.274,3.711,66.16,3.711z M42.448,14.657c0-1.247,1.012-2.254,2.255-2.254
			c0.532,0,1.021,0.188,1.407,0.495c-1.206,1.034-2.144,2.251-2.719,3.588C42.822,16.074,42.448,15.411,42.448,14.657z
			 M65.277,25.598c-2.308,1.729-5.412,2.686-8.737,2.686c-3.329,0-6.435-0.946-8.741-2.686c-2.172-1.617-3.36-3.724-3.36-5.928
			s1.194-4.31,3.36-5.931c2.307-1.729,5.415-2.683,8.741-2.683c3.325,0,6.43,0.952,8.737,2.683c2.172,1.619,3.354,3.727,3.354,5.931
			C68.636,21.875,67.443,23.981,65.277,25.598z M69.675,16.482c-0.58-1.336-1.516-2.554-2.719-3.589
			c0.386-0.309,0.877-0.494,1.406-0.494c1.249,0,2.258,1.009,2.258,2.253C70.62,15.411,70.246,16.073,69.675,16.482z"/>
		<circle class="path" fill="#FC450D" cx="51.486" cy="17.263" r="1.804"/>
		<circle class="path" fill="#FC450D" cx="61.579" cy="17.263" r="1.804"/>
		<path class="path" fill="#FC450D" d="M60.817,21.652c-1.271,1.157-2.932,1.797-4.646,1.797c-1.938,0-3.73-0.779-5.052-2.192
			c-0.322-0.352-0.867-0.355-1.209-0.038c-0.347,0.319-0.355,0.868-0.032,1.207c1.625,1.747,3.919,2.749,6.301,2.749
			c2.154,0,4.214-0.807,5.8-2.24c0.358-0.317,0.376-0.862,0.058-1.204C61.707,21.356,61.166,21.333,60.817,21.652z"/>
	</g>
	<g>
		<path class="path" fill="#FC450D" d="M21.474,65.707V47.812h7.936c1.595,0,2.807,0.16,3.637,0.482c0.83,0.321,1.494,0.889,1.99,1.703
			c0.496,0.813,0.744,1.713,0.744,2.697c0,1.27-0.41,2.34-1.232,3.211s-2.092,1.424-3.809,1.66c0.627,0.301,1.103,0.598,1.428,0.891
			c0.692,0.635,1.348,1.428,1.966,2.381l3.112,4.87h-2.979L31.9,61.983c-0.692-1.074-1.262-1.896-1.709-2.465
			c-0.448-0.57-0.849-0.969-1.203-1.197c-0.354-0.227-0.714-0.386-1.08-0.476c-0.269-0.057-0.708-0.085-1.318-0.085h-2.746v7.946
			H21.474z M23.843,55.71h5.09c1.082,0,1.929-0.112,2.539-0.336c0.61-0.225,1.074-0.582,1.392-1.074s0.476-1.027,0.476-1.605
			c0-0.846-0.307-1.542-0.921-2.088c-0.615-0.545-1.585-0.817-2.911-0.817h-5.664V55.71z"/>
		<path class="path" fill="#FC450D" d="M48.086,61.532l2.271,0.281c-0.358,1.326-1.021,2.355-1.99,3.088C47.399,65.634,46.161,66,44.656,66
			c-1.896,0-3.399-0.584-4.51-1.752c-1.111-1.167-1.666-2.806-1.666-4.913c0-2.181,0.561-3.873,1.684-5.078
			c1.123-1.204,2.58-1.807,4.371-1.807c1.732,0,3.148,0.59,4.248,1.77c1.098,1.181,1.647,2.841,1.647,4.98
			c0,0.131-0.004,0.326-0.013,0.586h-9.668c0.082,1.425,0.484,2.516,1.209,3.271c0.725,0.758,1.628,1.136,2.71,1.136
			c0.806,0,1.493-0.212,2.063-0.635C47.301,63.136,47.752,62.46,48.086,61.532z M40.872,57.979h7.238
			c-0.098-1.09-0.374-1.908-0.83-2.453c-0.7-0.846-1.607-1.27-2.723-1.27c-1.009,0-1.857,0.338-2.545,1.014
			S40.945,56.849,40.872,57.979z"/>
		<path class="path" fill="#FC450D" d="M61.526,65.707v-1.636C60.703,65.357,59.495,66,57.9,66c-1.033,0-1.983-0.285-2.85-0.854
			c-0.867-0.569-1.538-1.365-2.015-2.387c-0.476-1.021-0.714-2.195-0.714-3.521c0-1.294,0.216-2.468,0.646-3.521
			c0.432-1.055,1.079-1.861,1.941-2.424c0.862-0.561,1.827-0.842,2.893-0.842c0.781,0,1.478,0.165,2.088,0.494
			c0.61,0.33,1.106,0.76,1.489,1.288v-6.421h2.185v17.896H61.526z M54.579,59.237c0,1.66,0.351,2.901,1.051,3.723
			c0.699,0.822,1.525,1.233,2.478,1.233c0.96,0,1.776-0.393,2.447-1.178c0.672-0.786,1.007-1.983,1.007-3.595
			c0-1.774-0.342-3.076-1.025-3.906s-1.525-1.246-2.526-1.246c-0.977,0-1.793,0.399-2.447,1.197
			C54.907,56.263,54.579,57.521,54.579,59.237z"/>
		<path class="path" fill="#FC450D" d="M75.429,65.707v-1.636C74.607,65.357,73.399,66,71.804,66c-1.034,0-1.984-0.285-2.851-0.854
			c-0.867-0.569-1.538-1.365-2.015-2.387c-0.476-1.021-0.714-2.195-0.714-3.521c0-1.294,0.216-2.468,0.647-3.521
			c0.431-1.055,1.078-1.861,1.94-2.424c0.862-0.561,1.827-0.842,2.894-0.842c0.781,0,1.477,0.165,2.087,0.494
			c0.61,0.33,1.106,0.76,1.489,1.288v-6.421h2.186v17.896H75.429z M68.484,59.237c0,1.66,0.35,2.901,1.049,3.723
			c0.7,0.822,1.526,1.233,2.479,1.233c0.96,0,1.776-0.393,2.447-1.178c0.672-0.786,1.008-1.983,1.008-3.595
			c0-1.774-0.342-3.076-1.025-3.906s-1.526-1.246-2.527-1.246c-0.977,0-1.793,0.399-2.447,1.197
			C68.811,56.263,68.484,57.521,68.484,59.237z"/>
		<path class="path" fill="#FC450D" d="M80.935,50.339v-2.527h2.197v2.527H80.935z M80.935,65.707V52.743h2.197v12.964H80.935z"/>
		<path class="path" fill="#FC450D" d="M91.275,63.741l0.317,1.941c-0.618,0.13-1.172,0.195-1.66,0.195c-0.798,0-1.416-0.127-1.855-0.379
			s-0.749-0.584-0.928-0.994c-0.179-0.411-0.269-1.275-0.269-2.594v-7.459h-1.611v-1.709h1.611v-3.211l2.186-1.318v4.529h2.209
			v1.709h-2.209v7.58c0,0.627,0.038,1.03,0.115,1.209c0.077,0.18,0.203,0.322,0.379,0.428c0.175,0.105,0.425,0.158,0.75,0.158
			C90.554,63.827,90.876,63.799,91.275,63.741z"/>
	</g>
</g>
</svg>
