<?xml version="1.0" encoding="utf-8"?>
<!-- Generator: Adobe Illustrator 16.0.0, SVG Export Plug-In . SVG Version: 6.00 Build 0)  -->
<!DOCTYPE svg PUBLIC "-//W3C//DTD SVG 1.1//EN" "http://www.w3.org/Graphics/SVG/1.1/DTD/svg11.dtd">
<svg version="1.1" id="Layer_1" xmlns="http://www.w3.org/2000/svg" xmlns:xlink="http://www.w3.org/1999/xlink" x="0px" y="0px"
	 width="40px" height="40px" viewBox="0 0 40 40" enable-background="new 0 0 40 40" xml:space="preserve">
<circle class="path" fill="#36495D" cx="20" cy="20" r="20"/>
<g>
	<path fill="#FFFFFF" d="M20.741,13.559V8.188h-3.467c-0.078,0.196-0.117,0.436-0.117,0.674c-0.037,0.117-0.079,0.201-0.079,0.318
		c-0.355,1.991-1.39,3.381-3.143,4.14c-0.52,0.24-0.998,0.276-1.512,0.24v4.33h2.548c0.041,6.094,0.041,9.235,0.041,9.395v0.361
		c0.32,2.658,1.71,4.25,4.178,4.851c0.993,0.274,2.065,0.397,3.142,0.397c1.391-0.043,2.744-0.28,4.098-0.717v-5.096
		c-0.791,0.238-1.512,0.439-2.147,0.637c-1.232,0.36-2.267,0.122-3.105-0.674c-0.079-0.121-0.196-0.281-0.237-0.441
		c-0.117-0.636-0.191-1.311-0.191-1.945v-6.769h5.523v-4.33H20.741z"/>
</g>
</svg>
