<?xml version="1.0" encoding="utf-8"?>
<!-- Generator: Adobe Illustrator 16.0.0, SVG Export Plug-In . SVG Version: 6.00 Build 0)  -->
<!DOCTYPE svg PUBLIC "-//W3C//DTD SVG 1.1//EN" "http://www.w3.org/Graphics/SVG/1.1/DTD/svg11.dtd">
<svg version="1.1" id="Layer_1" xmlns="http://www.w3.org/2000/svg" xmlns:xlink="http://www.w3.org/1999/xlink" x="0px" y="0px"
	 width="40px" height="40px" viewBox="0 0 40 40" enable-background="new 0 0 40 40" xml:space="preserve">
<path class="path" fill-rule="evenodd" clip-rule="evenodd" fill="#36495D" d="M10,0h20c2.842,0,10,0,10,0s0,7.32,0,10v20c0,5.523-4.477,10-10,10
	H10c-3.024,0-10,0-10,0s0-7.502,0-10V10C0,4.477,4.477,0,10,0z"/>
<g>
	<path fill="#FFFFFF" d="M20.742,13.558V8.187h-3.466c-0.078,0.196-0.116,0.436-0.116,0.674c-0.037,0.117-0.08,0.201-0.08,0.318
		c-0.355,1.991-1.39,3.381-3.143,4.14c-0.52,0.24-0.997,0.276-1.512,0.24v4.33h2.548c0.041,6.093,0.041,9.236,0.041,9.394v0.361
		c0.319,2.655,1.71,4.252,4.178,4.852c0.993,0.275,2.066,0.398,3.142,0.398c1.391-0.043,2.744-0.281,4.098-0.72V27.08
		c-0.791,0.236-1.512,0.438-2.146,0.637c-1.231,0.359-2.271,0.121-3.104-0.674c-0.08-0.121-0.197-0.279-0.238-0.439
		c-0.116-0.639-0.19-1.313-0.19-1.946v-6.768h5.522v-4.33L20.742,13.558L20.742,13.558z"/>
</g>
</svg>
