<?xml version="1.0" encoding="utf-8"?>
<!-- Generator: Adobe Illustrator 16.0.0, SVG Export Plug-In . SVG Version: 6.00 Build 0)  -->
<!DOCTYPE svg PUBLIC "-//W3C//DTD SVG 1.1//EN" "http://www.w3.org/Graphics/SVG/1.1/DTD/svg11.dtd">
<svg version="1.1" id="Layer_1" xmlns="http://www.w3.org/2000/svg" xmlns:xlink="http://www.w3.org/1999/xlink" x="0px" y="0px"
	 width="40px" height="40px" viewBox="0 0 40 40" enable-background="new 0 0 40 40" xml:space="preserve">
<path class="path" fill="#36495D" d="M40,35c0,2.762-2.239,5-5,5H5c-2.761,0-5-2.238-5-5V5c0-2.761,2.239-5,5-5h30c2.761,0,5,2.239,5,5V35z"/>
<g>
	<g>
		<defs>
			<path id="SVGID_1_" d="M20.742,8.187l40.106,31.065L45.917,56.5L16.119,30.616l2.631-2.679l-1.938-1.375
				c0,0-2.85-1.115,0.313-3.188c5.438-3.563-4.599,3.668-0.643-5.565c2.33-5.438,3.429-3.221,3.476-3.503
				c0.047-0.282-3.043-4.409-3.043-4.409L20.742,8.187z"/>
		</defs>
		<clipPath id="SVGID_2_">
			<use xlink:href="#SVGID_1_"  overflow="visible"/>
		</clipPath>
		<path clip-path="url(#SVGID_2_)" fill="#25333F" d="M40,35c0,2.762-2.238,4.998-5,4.998H5c-2.761,0-5-2.236-5-4.998V5
			c0-2.761,2.239-5,5-5h30c2.762,0,5,2.239,5,5V35z"/>
	</g>
</g>
<g>
	<path fill="#FFFFFF" d="M20.742,13.558V8.187h-3.466c-0.078,0.196-0.116,0.436-0.116,0.674c-0.037,0.117-0.08,0.201-0.08,0.318
		c-0.355,1.991-1.39,3.381-3.143,4.14c-0.52,0.24-0.997,0.276-1.512,0.24v4.33h2.548c0.041,6.093,0.041,9.236,0.041,9.394v0.361
		c0.319,2.654,1.71,4.252,4.178,4.852c0.993,0.275,2.066,0.398,3.142,0.398c1.391-0.043,2.744-0.281,4.098-0.721V27.08
		c-0.791,0.236-1.512,0.438-2.146,0.637c-1.231,0.359-2.271,0.121-3.104-0.674c-0.08-0.121-0.197-0.279-0.238-0.439
		c-0.115-0.639-0.189-1.313-0.189-1.945V17.89h5.521v-4.33L20.742,13.558L20.742,13.558z"/>
</g>
</svg>
