<?xml version="1.0" encoding="utf-8"?>
<!-- Generator: Adobe Illustrator 16.0.0, SVG Export Plug-In . SVG Version: 6.00 Build 0)  -->
<!DOCTYPE svg PUBLIC "-//W3C//DTD SVG 1.1//EN" "http://www.w3.org/Graphics/SVG/1.1/DTD/svg11.dtd">
<svg version="1.1" id="Layer_1" xmlns="http://www.w3.org/2000/svg" xmlns:xlink="http://www.w3.org/1999/xlink" x="0px" y="0px"
	 width="102.501px" height="40px" viewBox="0 0 102.501 40" enable-background="new 0 0 102.501 40" xml:space="preserve">
<path class="path" fill="#36495D" d="M102.501,37c0,1.657-1.343,3-3,3H3c-1.656,0-3-1.343-3-3V3c0-1.657,1.344-3,3-3h96.501c1.657,0,3,1.343,3,3
	V37z"/>
<path opacity="0.16" d="M0,33.195c0,1.657,1.344,3,3,3h96.501c1.657,0,3-1.343,3-3V37c0,1.657-1.343,3-3,3H3c-1.656,0-3-1.343-3-3
	V33.195z"/>
<g>
	<path fill="#FFFFFF" d="M38.811,15.566h-3.629v-1.31h8.832v1.31h-3.646v10.62h-1.557V15.566z"/>
	<path fill="#FFFFFF" d="M51.66,23.85c0,0.885,0.018,1.664,0.07,2.336H50.35l-0.088-1.398h-0.035
		c-0.407,0.691-1.311,1.594-2.832,1.594c-1.346,0-2.956-0.744-2.956-3.752v-5.01h1.558v4.744c0,1.629,0.495,2.725,1.911,2.725
		c1.045,0,1.771-0.725,2.054-1.416c0.088-0.229,0.142-0.512,0.142-0.795v-5.258h1.558V23.85z"/>
	<path fill="#FFFFFF" d="M54.244,19.938c0-0.885-0.018-1.611-0.07-2.319h1.362L55.607,19h0.053c0.479-0.814,1.274-1.575,2.69-1.575
		c1.168,0,2.054,0.708,2.425,1.717h0.035c0.266-0.478,0.603-0.85,0.956-1.115c0.514-0.39,1.08-0.602,1.895-0.602
		c1.133,0,2.813,0.744,2.813,3.717v5.044h-1.521v-4.849c0-1.647-0.602-2.638-1.858-2.638c-0.886,0-1.575,0.655-1.841,1.416
		c-0.071,0.213-0.124,0.497-0.124,0.78v5.291h-1.522v-5.132c0-1.364-0.602-2.355-1.788-2.355c-0.974,0-1.681,0.779-1.929,1.558
		c-0.089,0.23-0.124,0.496-0.124,0.761v5.168h-1.522V19.938z"/>
	<path fill="#FFFFFF" d="M68.937,26.186c0.035-0.584,0.07-1.451,0.07-2.213V13.619h1.54V19h0.035
		c0.549-0.956,1.54-1.575,2.921-1.575c2.124,0,3.628,1.771,3.61,4.373c0,3.063-1.929,4.584-3.841,4.584
		c-1.239,0-2.229-0.479-2.867-1.611h-0.053l-0.071,1.416H68.937z M70.547,22.752c0,0.195,0.035,0.391,0.07,0.566
		c0.302,1.08,1.204,1.824,2.337,1.824c1.628,0,2.602-1.328,2.602-3.293c0-1.717-0.885-3.186-2.549-3.186
		c-1.062,0-2.053,0.726-2.371,1.911c-0.036,0.178-0.089,0.391-0.089,0.639V22.752z"/>
	<path fill="#FFFFFF" d="M79.077,13.619h1.558v12.567h-1.558V13.619z"/>
	<path fill="#FFFFFF" d="M83.255,20.292c0-1.009-0.018-1.876-0.07-2.672h1.362l0.054,1.681h0.07c0.39-1.15,1.327-1.876,2.372-1.876
		c0.177,0,0.301,0.018,0.442,0.053v1.469c-0.159-0.035-0.318-0.053-0.531-0.053c-1.097,0-1.876,0.831-2.089,2
		c-0.035,0.212-0.07,0.46-0.07,0.725v4.566h-1.54V20.292z"/>
</g>
<g>
	<path fill="#FFFFFF" d="M21.059,14.913V11h-2.525c-0.056,0.143-0.084,0.317-0.084,0.491c-0.027,0.085-0.058,0.146-0.058,0.232
		c-0.259,1.45-1.013,2.463-2.29,3.015c-0.379,0.175-0.727,0.202-1.102,0.175v3.155h1.856c0.03,4.439,0.03,6.729,0.03,6.845v0.263
		c0.233,1.934,1.247,3.098,3.044,3.535c0.725,0.2,1.506,0.29,2.289,0.29c1.014-0.031,1.999-0.205,2.985-0.526v-3.71
		c-0.576,0.172-1.102,0.319-1.563,0.464c-0.897,0.262-1.655,0.088-2.263-0.491c-0.058-0.088-0.143-0.203-0.173-0.319
		c-0.083-0.466-0.138-0.957-0.138-1.417v-4.932h4.022v-3.154L21.059,14.913L21.059,14.913z"/>
</g>
</svg>
