<?xml version="1.0" encoding="utf-8"?>
<!-- Generator: Adobe Illustrator 16.0.0, SVG Export Plug-In . SVG Version: 6.00 Build 0)  -->
<!DOCTYPE svg PUBLIC "-//W3C//DTD SVG 1.1//EN" "http://www.w3.org/Graphics/SVG/1.1/DTD/svg11.dtd">
<svg version="1.1" id="Layer_1" xmlns="http://www.w3.org/2000/svg" xmlns:xlink="http://www.w3.org/1999/xlink" x="0px" y="0px"
	 width="95.45px" height="32px" viewBox="4.113 2.538 95.45 32" enable-background="new 4.113 2.538 95.45 32" xml:space="preserve"
	>
<rect class="path" x="4.113" y="2.538" fill="#36495D" width="95.45" height="32"/>
<g>
	<path fill="#FFFFFF" d="M38.811,14.102h-3.629v-1.31h8.832v1.31h-3.646v10.621h-1.557V14.102z"/>
	<path fill="#FFFFFF" d="M51.661,22.386c0,0.886,0.018,1.664,0.069,2.337h-1.38l-0.088-1.396h-0.035
		c-0.407,0.689-1.311,1.594-2.832,1.594c-1.346,0-2.956-0.742-2.956-3.752v-5.01h1.558v4.744c0,1.629,0.495,2.725,1.911,2.725
		c1.045,0,1.771-0.725,2.053-1.416c0.088-0.229,0.143-0.512,0.143-0.795v-5.259h1.559v6.229H51.661L51.661,22.386z"/>
	<path fill="#FFFFFF" d="M54.245,18.475c0-0.886-0.019-1.611-0.07-2.32h1.361l0.071,1.382h0.054
		c0.479-0.813,1.272-1.575,2.688-1.575c1.168,0,2.055,0.708,2.426,1.717h0.035c0.267-0.478,0.603-0.85,0.955-1.115
		c0.514-0.39,1.08-0.602,1.896-0.602c1.133,0,2.813,0.744,2.813,3.719v5.043h-1.521v-4.85c0-1.646-0.604-2.639-1.857-2.639
		c-0.887,0-1.576,0.656-1.842,1.416c-0.07,0.214-0.125,0.496-0.125,0.779v5.291h-1.521V19.59c0-1.365-0.602-2.355-1.787-2.355
		c-0.975,0-1.682,0.779-1.93,1.559c-0.09,0.23-0.123,0.496-0.123,0.762v5.168h-1.521v-6.248H54.245z"/>
	<path fill="#FFFFFF" d="M68.938,24.723c0.035-0.584,0.068-1.451,0.068-2.214V12.155h1.541v5.381h0.035
		c0.549-0.956,1.539-1.575,2.92-1.575c2.125,0,3.629,1.771,3.608,4.373c0,3.063-1.928,4.584-3.84,4.584
		c-1.237,0-2.229-0.479-2.867-1.609h-0.053l-0.069,1.416h-1.347v-0.002H68.938z M70.547,21.288c0,0.194,0.035,0.392,0.07,0.565
		c0.301,1.08,1.202,1.824,2.336,1.824c1.629,0,2.604-1.328,2.604-3.293c0-1.719-0.887-3.188-2.551-3.188
		c-1.063,0-2.053,0.726-2.371,1.91c-0.035,0.179-0.088,0.392-0.088,0.64V21.288z"/>
	<path fill="#FFFFFF" d="M79.077,12.155h1.561v12.566h-1.561V12.155z"/>
	<path fill="#FFFFFF" d="M83.254,18.828c0-1.01-0.019-1.876-0.068-2.672h1.361l0.055,1.681h0.068
		c0.391-1.149,1.328-1.876,2.373-1.876c0.178,0,0.301,0.018,0.44,0.053v1.469c-0.157-0.034-0.317-0.053-0.53-0.053
		c-1.099,0-1.875,0.831-2.088,2c-0.035,0.211-0.07,0.459-0.07,0.725v4.566h-1.541V18.828z"/>
</g>
<g>
	<path fill="#FFFFFF" d="M21.498,14.016v-3.478h-2.244c-0.05,0.127-0.075,0.282-0.075,0.437c-0.024,0.076-0.052,0.13-0.052,0.206
		c-0.23,1.289-0.9,2.189-2.035,2.68c-0.337,0.156-0.646,0.18-0.979,0.156v2.803h1.649c0.026,3.947,0.026,5.981,0.026,6.084v0.234
		c0.208,1.719,1.108,2.752,2.706,3.143c0.644,0.178,1.338,0.257,2.034,0.257c0.901-0.026,1.777-0.183,2.653-0.468v-3.297
		c-0.512,0.152-0.979,0.283-1.389,0.412c-0.797,0.233-1.471,0.078-2.011-0.436c-0.052-0.079-0.127-0.182-0.154-0.284
		c-0.074-0.414-0.123-0.851-0.123-1.26v-4.384h3.575v-2.803L21.498,14.016L21.498,14.016z"/>
</g>
</svg>
