<?xml version="1.0" encoding="utf-8"?>
<!-- Generator: Adobe Illustrator 16.0.0, SVG Export Plug-In . SVG Version: 6.00 Build 0)  -->
<!DOCTYPE svg PUBLIC "-//W3C//DTD SVG 1.1//EN" "http://www.w3.org/Graphics/SVG/1.1/DTD/svg11.dtd">
<svg version="1.1" id="Layer_1" xmlns="http://www.w3.org/2000/svg" xmlns:xlink="http://www.w3.org/1999/xlink" x="0px" y="0px"
	 width="80.836px" height="32.333px" viewBox="6.33 -0.348 80.836 32.333" enable-background="new 6.33 -0.348 80.836 32.333"
	 xml:space="preserve">
<rect class="path" x="6.33" y="-0.348" fill="#00AFF0" width="80.836" height="32.333"/>
<path fill="#FFFFFF" d="M33.206,16.202c0.116-0.527,0.177-1.072,0.177-1.632c0-4.198-3.451-7.603-7.709-7.603
	c-0.448,0-0.89,0.04-1.317,0.112c-0.688-0.428-1.503-0.677-2.378-0.677c-2.47,0-4.471,1.975-4.471,4.411
	c0,0.812,0.225,1.575,0.613,2.23c-0.102,0.493-0.156,1.005-0.156,1.528c0,4.199,3.452,7.476,7.708,7.476
	c0.483,0,0.954-0.043,1.412-0.127c0.63,0.334,1.349,0.65,2.114,0.65c2.471,0,4.471-1.973,4.471-4.409
	C33.669,17.457,33.502,16.792,33.206,16.202L33.206,16.202z"/>
<path class="path" fill="#00AFF0" d="M29.191,17.674c-0.298,0.421-0.733,0.754-1.307,0.992c-0.572,0.243-1.252,0.361-2.038,0.361
	c-0.943,0-1.719-0.164-2.333-0.492c-0.433-0.235-0.786-0.549-1.058-0.942c-0.271-0.393-0.407-0.776-0.407-1.149
	c0-0.214,0.082-0.399,0.245-0.552c0.163-0.155,0.37-0.232,0.622-0.232c0.204,0,0.377,0.06,0.518,0.181
	c0.142,0.12,0.262,0.297,0.362,0.533c0.121,0.281,0.253,0.516,0.394,0.701c0.141,0.188,0.339,0.345,0.595,0.465
	c0.256,0.121,0.594,0.183,1.01,0.183c0.572,0,1.038-0.121,1.397-0.368c0.358-0.245,0.538-0.552,0.538-0.92
	c0-0.291-0.098-0.529-0.291-0.709c-0.193-0.183-0.443-0.321-0.748-0.416c-0.307-0.097-0.716-0.199-1.229-0.306
	c-0.686-0.147-1.26-0.321-1.721-0.518c-0.462-0.199-0.83-0.468-1.101-0.808c-0.271-0.343-0.407-0.768-0.407-1.274
	c0-0.483,0.143-0.913,0.43-1.287c0.287-0.376,0.7-0.665,1.244-0.867c0.542-0.202,1.181-0.303,1.914-0.303
	c0.586,0,1.094,0.068,1.521,0.2c0.429,0.134,0.783,0.313,1.063,0.534c0.283,0.222,0.489,0.455,0.619,0.698
	c0.13,0.242,0.195,0.481,0.195,0.711c0,0.212-0.081,0.404-0.242,0.573c-0.164,0.169-0.366,0.255-0.609,0.255
	c-0.222,0-0.39-0.052-0.505-0.154c-0.115-0.101-0.24-0.268-0.374-0.5c-0.174-0.332-0.381-0.589-0.625-0.775
	c-0.243-0.186-0.634-0.279-1.172-0.279c-0.499,0-0.902,0.1-1.208,0.302c-0.305,0.202-0.459,0.444-0.459,0.728
	c0,0.175,0.054,0.328,0.157,0.455c0.104,0.129,0.247,0.237,0.431,0.329c0.182,0.092,0.366,0.164,0.552,0.217
	c0.187,0.052,0.496,0.126,0.925,0.227c0.539,0.116,1.026,0.244,1.461,0.384c0.436,0.14,0.809,0.31,1.114,0.508
	c0.305,0.2,0.544,0.454,0.716,0.76c0.171,0.305,0.258,0.679,0.258,1.123C29.637,16.773,29.487,17.25,29.191,17.674L29.191,17.674z"
	/>
<g>
	<path fill="#FFFFFF" d="M41.176,17.045l1.156-0.101c0.054,0.462,0.182,0.843,0.382,1.139c0.2,0.297,0.51,0.537,0.932,0.721
		c0.421,0.184,0.893,0.275,1.42,0.275c0.468,0,0.88-0.069,1.238-0.209c0.356-0.139,0.624-0.328,0.799-0.571
		c0.174-0.243,0.262-0.507,0.262-0.792c0-0.29-0.084-0.544-0.253-0.76c-0.169-0.218-0.448-0.398-0.833-0.546
		c-0.249-0.097-0.798-0.248-1.648-0.452c-0.851-0.205-1.446-0.397-1.787-0.578c-0.442-0.231-0.772-0.519-0.988-0.862
		c-0.218-0.343-0.325-0.727-0.325-1.152c0-0.467,0.133-0.904,0.398-1.311c0.265-0.406,0.653-0.714,1.163-0.926
		c0.508-0.21,1.075-0.316,1.699-0.316c0.686,0,1.292,0.111,1.815,0.332s0.926,0.546,1.209,0.976c0.282,0.43,0.433,0.916,0.455,1.459
		l-1.175,0.088c-0.063-0.585-0.277-1.027-0.641-1.327s-0.901-0.449-1.613-0.449c-0.741,0-1.28,0.136-1.62,0.408
		c-0.34,0.271-0.509,0.599-0.509,0.982c0,0.333,0.12,0.606,0.36,0.821c0.235,0.215,0.851,0.435,1.847,0.66
		c0.994,0.225,1.678,0.422,2.049,0.59c0.539,0.249,0.936,0.563,1.194,0.944c0.256,0.382,0.385,0.821,0.385,1.317
		c0,0.492-0.141,0.956-0.421,1.393c-0.284,0.436-0.688,0.774-1.216,1.017c-0.528,0.244-1.124,0.363-1.784,0.363
		c-0.838,0-1.54-0.121-2.105-0.367c-0.566-0.242-1.01-0.61-1.333-1.1C41.364,18.218,41.193,17.663,41.176,17.045z"/>
	<path fill="#FFFFFF" d="M50.146,20.018v-9.257h1.137v5.279l2.69-2.728h1.47L52.878,15.8l2.823,4.218H54.3l-2.216-3.428
		l-0.802,0.771v2.657H50.146z"/>
	<path fill="#FFFFFF" d="M56.62,22.603l-0.126-1.066c0.249,0.066,0.465,0.101,0.65,0.101c0.253,0,0.455-0.043,0.605-0.126
		c0.152-0.085,0.277-0.202,0.375-0.354c0.071-0.114,0.186-0.395,0.347-0.847c0.021-0.063,0.054-0.154,0.102-0.278l-2.544-6.72h1.226
		l1.396,3.884c0.183,0.492,0.344,1.011,0.487,1.554c0.13-0.521,0.286-1.031,0.466-1.528l1.434-3.909h1.137l-2.551,6.82
		c-0.274,0.737-0.486,1.244-0.638,1.522c-0.202,0.375-0.433,0.649-0.695,0.825c-0.26,0.175-0.571,0.262-0.933,0.262
		C57.135,22.739,56.89,22.693,56.62,22.603z"/>
	<path fill="#FFFFFF" d="M63.202,22.589v-9.277h1.035v0.872c0.243-0.341,0.521-0.596,0.827-0.767s0.68-0.255,1.117-0.255
		c0.572,0,1.078,0.148,1.516,0.442c0.438,0.294,0.769,0.711,0.992,1.247c0.224,0.537,0.335,1.125,0.335,1.766
		c0,0.688-0.123,1.305-0.369,1.854c-0.247,0.55-0.605,0.969-1.074,1.263c-0.47,0.294-0.962,0.439-1.48,0.439
		c-0.379,0-0.72-0.08-1.02-0.24c-0.302-0.158-0.55-0.36-0.742-0.606v3.266L63.202,22.589L63.202,22.589z M64.231,16.703
		c0,0.863,0.175,1.501,0.524,1.914c0.348,0.412,0.771,0.619,1.269,0.619c0.506,0,0.937-0.215,1.297-0.641
		c0.358-0.427,0.539-1.091,0.539-1.986c0-0.856-0.177-1.495-0.526-1.919c-0.351-0.425-0.771-0.638-1.261-0.638
		c-0.484,0-0.912,0.226-1.286,0.679C64.416,15.183,64.231,15.84,64.231,16.703z"/>
	<path fill="#FFFFFF" d="M75.051,17.858l1.174,0.146c-0.185,0.687-0.527,1.219-1.029,1.599c-0.499,0.379-1.139,0.567-1.919,0.567
		c-0.98,0-1.759-0.302-2.334-0.905c-0.574-0.604-0.86-1.452-0.86-2.542c0-1.129,0.289-2.004,0.87-2.627
		c0.582-0.624,1.336-0.935,2.263-0.935c0.895,0,1.629,0.305,2.197,0.916s0.854,1.469,0.854,2.577c0,0.067-0.003,0.168-0.008,0.304
		h-5.001c0.042,0.735,0.25,1.301,0.623,1.692c0.376,0.392,0.843,0.587,1.402,0.587c0.417,0,0.772-0.109,1.065-0.327
		C74.644,18.69,74.878,18.339,75.051,17.858z M71.318,16.021h3.745c-0.051-0.564-0.193-0.988-0.429-1.269
		c-0.361-0.438-0.83-0.657-1.408-0.657c-0.522,0-0.961,0.174-1.317,0.524C71.554,14.968,71.356,15.436,71.318,16.021z"/>
</g>
</svg>
