<?xml version="1.0" encoding="utf-8"?>
<!-- Generator: Adobe Illustrator 16.0.0, SVG Export Plug-In . SVG Version: 6.00 Build 0)  -->
<!DOCTYPE svg PUBLIC "-//W3C//DTD SVG 1.1//EN" "http://www.w3.org/Graphics/SVG/1.1/DTD/svg11.dtd">
<svg version="1.1" id="Layer_1" xmlns="http://www.w3.org/2000/svg" xmlns:xlink="http://www.w3.org/1999/xlink" x="0px" y="0px"
	 width="118px" height="90px" viewBox="-3.593 -10 118 90" enable-background="new -3.593 -10 118 90" xml:space="preserve">
<g>
	<path class="path" fill="#00AFF0" d="M114.407,77c0,1.657-1.342,3-3,3h-112c-1.657,0-3-1.343-3-3V-7c0-1.657,1.343-3,3-3h112
		c1.658,0,3,1.343,3,3V77z"/>
	<path opacity="0.16" enable-background="new    " d="M-3.593,73.195c0,1.656,1.343,3,3,3h112c1.658,0,3-1.344,3-3V77
		c0,1.657-1.342,3-3,3h-112c-1.657,0-3-1.343-3-3V73.195z"/>
</g>
<g>
	<g>
		<path fill="#FFFFFF" d="M68.61,20.324c0.202-0.914,0.309-1.857,0.309-2.827c0-7.272-5.979-13.168-13.354-13.168
			c-0.776,0-1.541,0.069-2.282,0.193c-1.193-0.742-2.604-1.172-4.119-1.172c-4.279,0-7.744,3.42-7.744,7.639
			c0,1.407,0.389,2.729,1.063,3.863c-0.177,0.854-0.27,1.74-0.27,2.646c0,7.274,5.979,12.95,13.352,12.95
			c0.836,0,1.652-0.075,2.445-0.22c1.091,0.578,2.336,1.126,3.662,1.126c4.278,0,7.743-3.416,7.743-7.638
			C69.414,22.498,69.126,21.345,68.61,20.324L68.61,20.324z"/>
		<path class="path" fill="#00AFF0" d="M61.657,22.872c-0.516,0.73-1.271,1.308-2.264,1.72c-0.991,0.422-2.169,0.625-3.529,0.625
			c-1.632,0-2.977-0.283-4.04-0.852c-0.75-0.407-1.362-0.951-1.833-1.633c-0.469-0.68-0.704-1.345-0.704-1.99
			c0-0.372,0.142-0.692,0.423-0.957c0.282-0.269,0.641-0.402,1.077-0.402c0.353,0,0.653,0.104,0.897,0.313
			c0.245,0.207,0.454,0.516,0.626,0.924c0.21,0.486,0.438,0.893,0.682,1.214c0.244,0.325,0.588,0.597,1.031,0.806
			s1.029,0.315,1.75,0.315c0.991,0,1.797-0.209,2.419-0.637c0.62-0.426,0.933-0.957,0.933-1.595c0-0.504-0.17-0.915-0.504-1.228
			c-0.334-0.316-0.769-0.556-1.296-0.721c-0.531-0.168-1.24-0.345-2.128-0.529c-1.188-0.255-2.183-0.556-2.982-0.897
			c-0.8-0.345-1.437-0.811-1.906-1.4c-0.47-0.594-0.704-1.329-0.704-2.207c0-0.837,0.247-1.581,0.744-2.23
			c0.497-0.651,1.212-1.151,2.155-1.501c0.939-0.35,2.046-0.525,3.315-0.525c1.015,0,1.894,0.118,2.633,0.347
			c0.742,0.232,1.355,0.541,1.841,0.924c0.49,0.385,0.848,0.787,1.072,1.209c0.226,0.419,0.338,0.833,0.338,1.232
			c0,0.367-0.141,0.7-0.42,0.993c-0.283,0.292-0.635,0.441-1.055,0.441c-0.384,0-0.675-0.09-0.875-0.267
			c-0.199-0.175-0.416-0.464-0.648-0.866c-0.301-0.574-0.66-1.021-1.082-1.342c-0.421-0.322-1.098-0.483-2.03-0.483
			c-0.864,0-1.563,0.173-2.093,0.523c-0.528,0.349-0.796,0.77-0.796,1.26c0,0.303,0.093,0.567,0.272,0.788
			c0.179,0.223,0.428,0.41,0.746,0.569c0.315,0.159,0.634,0.284,0.957,0.376c0.323,0.09,0.858,0.22,1.603,0.393
			c0.933,0.201,1.777,0.422,2.532,0.666c0.755,0.242,1.399,0.537,1.929,0.879c0.529,0.346,0.943,0.787,1.241,1.316
			c0.296,0.529,0.446,1.177,0.446,1.946C62.429,21.313,62.171,22.14,61.657,22.872L61.657,22.872z"/>
	</g>
	<g>
		<path fill="#FFFFFF" d="M27.702,57.645l1.826-0.159c0.084,0.73,0.287,1.331,0.603,1.799c0.315,0.469,0.806,0.848,1.471,1.138
			c0.665,0.291,1.41,0.436,2.244,0.436c0.738,0,1.389-0.11,1.955-0.331c0.563-0.219,0.984-0.519,1.261-0.902
			c0.275-0.384,0.415-0.8,0.415-1.25c0-0.457-0.133-0.858-0.4-1.2c-0.267-0.343-0.708-0.628-1.316-0.862
			c-0.393-0.152-1.259-0.391-2.603-0.714c-1.344-0.322-2.284-0.627-2.822-0.912c-0.698-0.365-1.219-0.82-1.561-1.361
			c-0.343-0.542-0.513-1.146-0.513-1.819c0-0.738,0.209-1.428,0.628-2.069c0.418-0.641,1.031-1.128,1.835-1.461
			c0.803-0.332,1.697-0.5,2.683-0.5c1.083,0,2.04,0.176,2.866,0.523c0.827,0.348,1.463,0.862,1.911,1.541
			c0.445,0.678,0.683,1.445,0.718,2.305l-1.855,0.139c-0.099-0.924-0.438-1.622-1.012-2.096c-0.576-0.472-1.423-0.708-2.547-0.708
			c-1.169,0-2.022,0.214-2.559,0.643c-0.536,0.43-0.803,0.946-0.803,1.551c0,0.526,0.189,0.958,0.568,1.298
			c0.372,0.339,1.344,0.687,2.917,1.041c1.57,0.355,2.65,0.667,3.236,0.933c0.851,0.394,1.478,0.888,1.885,1.49
			c0.404,0.604,0.608,1.297,0.608,2.079c0,0.778-0.223,1.511-0.666,2.199c-0.449,0.688-1.087,1.224-1.92,1.605
			c-0.834,0.385-1.774,0.573-2.816,0.573c-1.324,0-2.432-0.19-3.324-0.578c-0.895-0.384-1.595-0.965-2.104-1.737
			C27.999,59.497,27.729,58.621,27.702,57.645z"/>
		<path fill="#FFFFFF" d="M41.865,62.339V47.722h1.795v8.335l4.248-4.308h2.321l-4.049,3.929l4.458,6.661h-2.212l-3.499-5.413
			l-1.267,1.217v4.196H41.865z"/>
		<path fill="#FFFFFF" d="M52.089,66.42l-0.199-1.684c0.394,0.105,0.734,0.159,1.027,0.159c0.4,0,0.719-0.068,0.957-0.199
			c0.241-0.133,0.438-0.319,0.591-0.56c0.113-0.181,0.294-0.623,0.548-1.336c0.033-0.1,0.085-0.244,0.16-0.44l-4.016-10.611h1.935
			l2.204,6.134c0.288,0.776,0.543,1.596,0.771,2.453c0.205-0.824,0.451-1.629,0.735-2.414l2.264-6.173h1.795L56.831,62.52
			c-0.433,1.163-0.768,1.965-1.007,2.403c-0.319,0.593-0.683,1.026-1.097,1.305c-0.41,0.275-0.902,0.412-1.473,0.412
			C52.902,66.638,52.514,66.564,52.089,66.42z"/>
		<path fill="#FFFFFF" d="M62.482,66.399v-14.65h1.636v1.376c0.384-0.538,0.822-0.941,1.305-1.212
			c0.483-0.269,1.073-0.402,1.766-0.402c0.903,0,1.701,0.233,2.393,0.698c0.692,0.465,1.213,1.123,1.567,1.97
			c0.353,0.848,0.528,1.776,0.528,2.788c0,1.084-0.194,2.06-0.583,2.928c-0.391,0.868-0.955,1.529-1.695,1.995
			c-0.743,0.463-1.52,0.692-2.339,0.692c-0.599,0-1.137-0.126-1.61-0.379c-0.477-0.25-0.867-0.569-1.172-0.957v5.155L62.482,66.399
			L62.482,66.399z M64.108,57.105c0,1.362,0.276,2.369,0.827,3.021c0.55,0.651,1.219,0.979,2.005,0.979
			c0.797,0,1.478-0.339,2.047-1.013c0.565-0.673,0.853-1.722,0.853-3.136c0-1.352-0.279-2.361-0.832-3.032
			c-0.555-0.67-1.218-1.007-1.99-1.007c-0.766,0-1.441,0.357-2.032,1.073C64.399,54.704,64.108,55.743,64.108,57.105z"/>
		<path fill="#FFFFFF" d="M81.192,58.929l1.855,0.23c-0.292,1.083-0.833,1.925-1.626,2.524c-0.789,0.599-1.799,0.896-3.031,0.896
			c-1.548,0-2.777-0.478-3.685-1.43c-0.908-0.955-1.359-2.294-1.359-4.016c0-1.781,0.457-3.165,1.374-4.148
			c0.92-0.983,2.109-1.476,3.572-1.476c1.414,0,2.573,0.482,3.471,1.446c0.897,0.963,1.349,2.319,1.349,4.069
			c0,0.106-0.005,0.266-0.013,0.479h-7.897c0.065,1.162,0.395,2.055,0.984,2.673c0.594,0.618,1.33,0.928,2.214,0.928
			c0.658,0,1.219-0.174,1.683-0.517C80.55,60.242,80.92,59.688,81.192,58.929z M75.299,56.028h5.914
			c-0.08-0.892-0.305-1.56-0.677-2.003c-0.571-0.693-1.311-1.039-2.225-1.039c-0.823,0-1.517,0.275-2.079,0.827
			C75.671,54.365,75.359,55.104,75.299,56.028z"/>
	</g>
</g>
</svg>
