<?xml version="1.0" encoding="utf-8"?>
<!-- Generator: Adobe Illustrator 16.0.0, SVG Export Plug-In . SVG Version: 6.00 Build 0)  -->
<!DOCTYPE svg PUBLIC "-//W3C//DTD SVG 1.1//EN" "http://www.w3.org/Graphics/SVG/1.1/DTD/svg11.dtd">
<svg version="1.1" id="Layer_1" xmlns="http://www.w3.org/2000/svg" xmlns:xlink="http://www.w3.org/1999/xlink" x="0px" y="0px"
	 width="110.074px" height="32px" viewBox="3.799 3.64 110.074 32" enable-background="new 3.799 3.64 110.074 32"
	 xml:space="preserve">
<g>
	<rect class="path" x="3.799" y="3.64" fill="#D02322" width="110.074" height="32"/>
</g>
<g>
	<path fill="#FFFFFF" d="M38.591,13.772c0.744-0.124,1.717-0.23,2.955-0.23c1.523,0,2.639,0.354,3.346,0.991
		c0.656,0.566,1.045,1.433,1.045,2.496c0,1.078-0.318,1.93-0.92,2.549c-0.814,0.867-2.143,1.311-3.646,1.311
		c-0.461,0-0.885-0.02-1.24-0.104v4.778h-1.539L38.591,13.772L38.591,13.772z M40.13,19.523c0.338,0.088,0.762,0.123,1.275,0.123
		c1.857,0,2.99-0.901,2.99-2.549c0-1.575-1.113-2.335-2.813-2.335c-0.674,0-1.188,0.053-1.453,0.124L40.13,19.523L40.13,19.523z"/>
	<path fill="#FFFFFF" d="M49.405,14.586c0.018,0.531-0.371,0.956-0.99,0.956c-0.549,0-0.938-0.425-0.938-0.956
		c0-0.549,0.406-0.974,0.973-0.974C49.034,13.612,49.405,14.037,49.405,14.586z M47.671,25.559v-8.565h1.56v8.565H47.671z"/>
	<path fill="#FFFFFF" d="M51.813,19.313c0-0.886-0.018-1.611-0.07-2.319h1.379l0.09,1.416h0.035c0.424-0.813,1.416-1.61,2.832-1.61
		c1.187,0,3.026,0.709,3.026,3.646v5.111h-1.561v-4.938c0-1.38-0.514-2.529-1.979-2.529c-1.027,0-1.822,0.727-2.089,1.596
		c-0.071,0.191-0.106,0.459-0.106,0.728v5.147h-1.557L51.813,19.313L51.813,19.313z"/>
	<path fill="#FFFFFF" d="M63.441,14.533v2.459h2.229v1.188h-2.229v4.618c0,1.063,0.302,1.662,1.168,1.662
		c0.406,0,0.709-0.053,0.901-0.104l0.067,1.168c-0.303,0.125-0.773,0.213-1.379,0.213c-0.729,0-1.313-0.229-1.684-0.651
		c-0.441-0.461-0.604-1.226-0.604-2.229v-4.674h-1.328v-1.188h1.328V14.94L63.441,14.533z"/>
	<path fill="#FFFFFF" d="M68.186,21.559c0.035,2.106,1.381,2.976,2.938,2.976c1.115,0,1.787-0.192,2.371-0.44l0.269,1.113
		c-0.55,0.247-1.486,0.529-2.853,0.529c-2.638,0-4.213-1.73-4.213-4.316c0-2.584,1.521-4.619,4.02-4.619
		c2.798,0,3.541,2.461,3.541,4.035c0,0.316-0.034,0.564-0.055,0.729L68.186,21.559L68.186,21.559z M72.751,20.445
		c0.021-0.992-0.405-2.532-2.158-2.532c-1.575,0-2.266,1.451-2.391,2.532H72.751z"/>
	<path fill="#FFFFFF" d="M76.188,19.665c0-1.011-0.019-1.877-0.068-2.673h1.359l0.057,1.681h0.068
		c0.391-1.147,1.326-1.875,2.371-1.875c0.178,0,0.301,0.019,0.44,0.054v1.469c-0.158-0.034-0.315-0.053-0.528-0.053
		c-1.101,0-1.878,0.83-2.091,2c-0.034,0.213-0.069,0.461-0.069,0.727v4.564h-1.539V19.665L76.188,19.665z"/>
	<path fill="#FFFFFF" d="M82.663,21.559c0.035,2.106,1.381,2.976,2.938,2.976c1.113,0,1.787-0.192,2.371-0.44l0.267,1.113
		c-0.55,0.247-1.486,0.529-2.851,0.529c-2.639,0-4.215-1.73-4.215-4.316c0-2.584,1.521-4.619,4.02-4.619
		c2.798,0,3.541,2.461,3.541,4.035c0,0.316-0.034,0.564-0.053,0.729L82.663,21.559L82.663,21.559z M87.229,20.445
		c0.021-0.992-0.403-2.532-2.158-2.532c-1.573,0-2.266,1.451-2.391,2.532H87.229z"/>
	<path fill="#FFFFFF" d="M90.452,23.966c0.461,0.302,1.274,0.619,2.053,0.619c1.134,0,1.664-0.565,1.664-1.274
		c0-0.742-0.44-1.149-1.592-1.574c-1.541-0.549-2.267-1.396-2.267-2.424c0-1.381,1.111-2.515,2.955-2.515
		c0.865,0,1.629,0.248,2.104,0.529l-0.391,1.135c-0.336-0.213-0.955-0.496-1.752-0.496c-0.922,0-1.437,0.531-1.437,1.168
		c0,0.707,0.515,1.024,1.629,1.449c1.485,0.563,2.246,1.312,2.246,2.584c0,1.506-1.168,2.565-3.203,2.565
		c-0.938,0-1.805-0.229-2.403-0.586L90.452,23.966z"/>
	<path fill="#FFFFFF" d="M99.55,14.533v2.459h2.229v1.188H99.55v4.618c0,1.063,0.302,1.662,1.168,1.662
		c0.406,0,0.709-0.053,0.902-0.104l0.069,1.168c-0.301,0.125-0.776,0.213-1.379,0.213c-0.729,0-1.313-0.229-1.684-0.651
		c-0.441-0.461-0.604-1.226-0.604-2.229v-4.674h-1.328v-1.188h1.328V14.94L99.55,14.533z"/>
</g>
<path fill="#FFFFFF" d="M22.584,11.639c-4.51,0-6.785,3.131-6.785,5.74c0,1.581,0.617,2.987,1.944,3.512
	c0.217,0.086,0.413,0.004,0.476-0.229l0.193-0.737c0.063-0.229,0.039-0.309-0.136-0.51c-0.383-0.438-0.626-1.002-0.626-1.805
	c0-2.32,1.794-4.398,4.673-4.398c2.547,0,3.948,1.507,3.948,3.521c0,2.647-1.213,4.89-3.009,4.89c-0.991,0-1.735-0.795-1.497-1.774
	c0.285-1.164,0.84-2.42,0.84-3.262c0-0.75-0.418-1.379-1.281-1.379c-1.014,0-1.829,1.016-1.829,2.378
	c0,0.868,0.303,1.453,0.303,1.453l-1.221,5.011c-0.362,1.483-0.054,3.309-0.029,3.49c0.016,0.109,0.16,0.137,0.226,0.057
	c0.093-0.123,1.302-1.563,1.714-3.011c0.116-0.409,0.667-2.526,0.667-2.526c0.33,0.611,1.294,1.146,2.318,1.146
	c3.051,0,5.121-2.689,5.121-6.296C28.592,14.177,26.208,11.639,22.584,11.639z"/>
</svg>
