<?xml version="1.0" encoding="utf-8"?>
<!-- Generator: Adobe Illustrator 16.0.0, SVG Export Plug-In . SVG Version: 6.00 Build 0)  -->
<!DOCTYPE svg PUBLIC "-//W3C//DTD SVG 1.1//EN" "http://www.w3.org/Graphics/SVG/1.1/DTD/svg11.dtd">
<svg version="1.1" id="Layer_1" xmlns="http://www.w3.org/2000/svg" xmlns:xlink="http://www.w3.org/1999/xlink" x="0px" y="0px"
	 width="138.231px" height="90px" viewBox="-9.012 -10 138.231 90" enable-background="new -9.012 -10 138.231 90"
	 xml:space="preserve">
<path fill="#FFFFFF" d="M-9.012,80V-5c0-2.761,2.237-5,5-5H124.22c2.761,0,5,2.239,5,5v85"/>
<rect x="-9.012" y="76" class="path" fill="#CB1F27" width="138.231" height="4"/>
<g>
	<path class="path" fill="#CB1F27" d="M60.785,2C52.892,2,48.91,7.479,48.91,12.047c0,2.767,1.078,5.227,3.402,6.143
		c0.38,0.153,0.724,0.009,0.832-0.403l0.338-1.29c0.112-0.4,0.068-0.542-0.236-0.894c-0.672-0.763-1.095-1.753-1.095-3.155
		c0-4.063,3.14-7.701,8.177-7.701c4.457,0,6.907,2.637,6.907,6.161c0,4.636-2.122,8.555-5.266,8.555c-1.734,0-3.038-1.39-2.62-3.104
		c0.497-2.035,1.469-4.235,1.469-5.707c0-1.313-0.732-2.414-2.24-2.414c-1.776,0-3.205,1.78-3.205,4.163
		c0,1.519,0.533,2.544,0.533,2.544l-2.137,8.77c-0.634,2.595-0.097,5.793-0.051,6.107c0.028,0.191,0.28,0.236,0.396,0.098
		c0.163-0.213,2.28-2.738,3-5.268c0.204-0.717,1.167-4.424,1.167-4.424c0.577,1.07,2.264,2.005,4.055,2.005
		c5.341,0,8.962-4.706,8.962-11.019C71.298,6.442,67.126,2,60.785,2z"/>
	<g>
		<path class="path" fill="#CB1F27" d="M11.832,65.707V47.812h6.751c1.188,0,2.095,0.058,2.722,0.171c0.879,0.146,1.615,0.426,2.21,0.836
			c0.594,0.411,1.071,0.987,1.434,1.728c0.362,0.741,0.543,1.555,0.543,2.441c0,1.522-0.483,2.81-1.452,3.863
			s-2.718,1.581-5.249,1.581H14.2v7.275H11.832z M14.2,56.32h4.627c1.529,0,2.616-0.285,3.259-0.855
			c0.643-0.568,0.964-1.371,0.964-2.404c0-0.748-0.188-1.39-0.567-1.923c-0.378-0.532-0.877-0.885-1.495-1.056
			c-0.398-0.105-1.135-0.158-2.209-0.158H14.2V56.32z"/>
		<path class="path" fill="#CB1F27" d="M28.238,50.338v-2.526h2.197v2.526H28.238z M28.238,65.707V52.743h2.197v12.964H28.238z"/>
		<path class="path" fill="#CB1F27" d="M33.78,65.707V52.743h1.977v1.843c0.953-1.424,2.328-2.136,4.127-2.136c0.781,0,1.499,0.141,2.154,0.421
			c0.654,0.281,1.146,0.649,1.471,1.105c0.325,0.455,0.554,0.996,0.684,1.623c0.081,0.407,0.122,1.119,0.122,2.137v7.971h-2.197
			v-7.886c0-0.896-0.085-1.564-0.257-2.008c-0.17-0.444-0.474-0.798-0.909-1.063s-0.946-0.396-1.532-0.396
			c-0.936,0-1.743,0.298-2.423,0.892s-1.019,1.721-1.019,3.381v7.08H33.78z"/>
		<path class="path" fill="#CB1F27" d="M52.481,63.742l0.317,1.94c-0.618,0.13-1.172,0.195-1.66,0.195c-0.798,0-1.416-0.126-1.855-0.378
			s-0.749-0.584-0.928-0.995s-0.269-1.276-0.269-2.595v-7.458h-1.611v-1.709h1.611v-3.21l2.186-1.318v4.528h2.209v1.709h-2.209
			v7.581c0,0.627,0.038,1.029,0.115,1.208s0.203,0.321,0.379,0.427c0.175,0.106,0.425,0.159,0.75,0.159
			C51.761,63.827,52.083,63.799,52.481,63.742z"/>
		<path class="path" fill="#CB1F27" d="M63.504,61.532l2.271,0.28c-0.358,1.327-1.021,2.356-1.99,3.089C62.816,65.634,61.579,66,60.073,66
			c-1.896,0-3.399-0.584-4.51-1.752c-1.111-1.168-1.666-2.805-1.666-4.913c0-2.181,0.561-3.874,1.684-5.078s2.58-1.807,4.371-1.807
			c1.732,0,3.148,0.591,4.248,1.771c1.098,1.18,1.647,2.84,1.647,4.98c0,0.13-0.004,0.325-0.013,0.586h-9.668
			c0.082,1.424,0.484,2.514,1.209,3.271c0.725,0.756,1.628,1.135,2.71,1.135c0.806,0,1.493-0.211,2.063-0.635
			C62.719,63.136,63.17,62.46,63.504,61.532z M56.29,57.98h7.238c-0.098-1.091-0.374-1.908-0.83-2.454
			c-0.7-0.847-1.607-1.27-2.723-1.27c-1.009,0-1.857,0.338-2.545,1.013C56.743,55.945,56.362,56.85,56.29,57.98z"/>
		<path class="path" fill="#CB1F27" d="M68.509,65.707V52.743h1.979v1.966c0.504-0.92,0.97-1.526,1.397-1.819
			c0.427-0.293,0.897-0.439,1.409-0.439c0.741,0,1.494,0.236,2.259,0.708l-0.757,2.039c-0.537-0.318-1.074-0.477-1.611-0.477
			c-0.48,0-0.911,0.145-1.294,0.434s-0.655,0.689-0.817,1.202c-0.244,0.781-0.367,1.636-0.367,2.563v6.787H68.509z"/>
		<path class="path" fill="#CB1F27" d="M85.733,61.532l2.271,0.28c-0.358,1.327-1.021,2.356-1.989,3.089C85.046,65.634,83.809,66,82.304,66
			c-1.896,0-3.4-0.584-4.511-1.752c-1.111-1.168-1.667-2.805-1.667-4.913c0-2.181,0.563-3.874,1.686-5.078s2.579-1.807,4.369-1.807
			c1.734,0,3.15,0.591,4.248,1.771c1.1,1.18,1.648,2.84,1.648,4.98c0,0.13-0.004,0.325-0.012,0.586h-9.668
			c0.081,1.424,0.483,2.514,1.208,3.271c0.725,0.756,1.628,1.135,2.71,1.135c0.806,0,1.493-0.211,2.063-0.635
			C84.948,63.136,85.399,62.46,85.733,61.532z M78.519,57.98h7.239c-0.098-1.091-0.374-1.908-0.83-2.454
			c-0.7-0.847-1.607-1.27-2.722-1.27c-1.01,0-1.858,0.338-2.546,1.013C78.973,55.945,78.593,56.85,78.519,57.98z"/>
		<path class="path" fill="#CB1F27" d="M89.884,61.838l2.172-0.342c0.123,0.871,0.462,1.537,1.02,2.002c0.558,0.463,1.337,0.695,2.338,0.695
			c1.009,0,1.758-0.205,2.246-0.616s0.732-0.894,0.732-1.446c0-0.496-0.216-0.887-0.646-1.172c-0.302-0.195-1.051-0.443-2.246-0.745
			c-1.611-0.407-2.729-0.759-3.352-1.056c-0.622-0.297-1.095-0.708-1.416-1.233c-0.321-0.524-0.482-1.104-0.482-1.739
			c0-0.578,0.133-1.113,0.397-1.605c0.264-0.492,0.624-0.9,1.08-1.227c0.342-0.252,0.808-0.466,1.397-0.641
			c0.59-0.176,1.223-0.263,1.898-0.263c1.018,0,1.91,0.146,2.68,0.439c0.769,0.293,1.336,0.689,1.703,1.19
			c0.365,0.5,0.618,1.17,0.756,2.008l-2.148,0.293c-0.098-0.667-0.38-1.188-0.848-1.563c-0.469-0.374-1.129-0.562-1.984-0.562
			c-1.009,0-1.729,0.167-2.16,0.501s-0.646,0.725-0.646,1.172c0,0.285,0.089,0.541,0.268,0.769c0.18,0.236,0.46,0.432,0.843,0.586
			c0.22,0.081,0.866,0.269,1.94,0.562c1.555,0.415,2.639,0.755,3.254,1.02c0.614,0.264,1.097,0.648,1.446,1.153
			s0.524,1.132,0.524,1.88c0,0.732-0.213,1.422-0.641,2.069c-0.427,0.646-1.043,1.147-1.85,1.501C97.354,65.823,96.442,66,95.425,66
			c-1.684,0-2.968-0.35-3.851-1.05C90.69,64.25,90.128,63.213,89.884,61.838z"/>
		<path class="path" fill="#CB1F27" d="M108.06,63.742l0.317,1.94c-0.618,0.13-1.172,0.195-1.66,0.195c-0.798,0-1.416-0.126-1.855-0.378
			s-0.749-0.584-0.928-0.995s-0.269-1.276-0.269-2.595v-7.458h-1.611v-1.709h1.611v-3.21l2.186-1.318v4.528h2.209v1.709h-2.209
			v7.581c0,0.627,0.038,1.029,0.115,1.208s0.203,0.321,0.379,0.427c0.175,0.106,0.425,0.159,0.75,0.159
			C107.339,63.827,107.661,63.799,108.06,63.742z"/>
	</g>
</g>
</svg>
