<?xml version="1.0" encoding="utf-8"?>
<!-- Generator: Adobe Illustrator 16.0.0, SVG Export Plug-In . SVG Version: 6.00 Build 0)  -->
<!DOCTYPE svg PUBLIC "-//W3C//DTD SVG 1.1//EN" "http://www.w3.org/Graphics/SVG/1.1/DTD/svg11.dtd">
<svg version="1.1" id="Layer_1" xmlns="http://www.w3.org/2000/svg" xmlns:xlink="http://www.w3.org/1999/xlink" x="0px" y="0px"
	 width="129.343px" height="40px" viewBox="12.625 0 129.343 40" enable-background="new 12.625 0 129.343 40" xml:space="preserve"
	>
<path class="path" fill="#557398" d="M141.968,35c0,2.76-2.238,5-5,5H17.625c-2.761,0-5-2.24-5-5V5c0-2.761,2.239-5,5-5h119.343
	c2.762,0,5,2.239,5,5V35z"/>
<path fill="#FFFFFF" d="M41.515,18.845c-0.169,0.08-0.334,0.122-0.493,0.131c-0.159,0.008-0.438,0.013-0.834,0.013h-0.292v-1.958
	h0.162c0.413,0,0.725,0.002,0.933,0.01c0.209,0.005,0.391,0.042,0.544,0.108c0.161,0.072,0.279,0.185,0.356,0.342
	c0.078,0.158,0.115,0.31,0.115,0.46c0,0.202-0.035,0.38-0.105,0.535C41.83,18.638,41.701,18.758,41.515,18.845L41.515,18.845
	L41.515,18.845z M41.979,22.711c-0.239,0.102-0.475,0.158-0.707,0.166c-0.23,0.01-0.649,0.014-1.253,0.014h-0.125v-2.318h0.428
	c0.414,0,0.744,0.004,0.99,0.012c0.247,0.006,0.439,0.035,0.58,0.088c0.232,0.084,0.406,0.207,0.522,0.369
	c0.115,0.16,0.173,0.383,0.173,0.668c0,0.223-0.049,0.424-0.146,0.602C42.345,22.484,42.191,22.617,41.979,22.711L41.979,22.711z
	 M44.461,20.252c-0.342-0.371-0.799-0.616-1.37-0.736v-0.049c0.396-0.166,0.707-0.424,0.933-0.777
	c0.225-0.351,0.338-0.754,0.338-1.205c0-0.39-0.082-0.732-0.244-1.031c-0.164-0.3-0.411-0.536-0.742-0.715
	c-0.305-0.166-0.633-0.275-0.982-0.326s-0.863-0.078-1.542-0.078h-3.263v9.25h3.697c0.641,0,1.17-0.059,1.585-0.174
	c0.417-0.115,0.797-0.311,1.144-0.584c0.295-0.229,0.527-0.516,0.702-0.863c0.173-0.348,0.26-0.752,0.26-1.213
	C44.977,21.121,44.804,20.623,44.461,20.252L44.461,20.252L44.461,20.252z M45.545,28h-9.69c-1.736,0-3.143-1.41-3.143-3.148v-9.705
	c0-1.737,1.407-3.147,3.143-3.147h9.69c1.737,0,3.145,1.409,3.145,3.147v9.705C48.689,26.59,47.282,28,45.545,28L45.545,28z
	 M56.699,24.158l-2.005-3.361h-0.68v3.361h-2.64v-8.48h2.64v3.406c0.373-0.004,0.65-0.06,0.833-0.163
	c0.183-0.102,0.383-0.376,0.599-0.819c0.07-0.15,0.146-0.315,0.227-0.498c0.081-0.181,0.153-0.341,0.218-0.482
	c0.267-0.559,0.594-0.941,0.984-1.148c0.389-0.207,0.862-0.31,1.421-0.31c0.196,0,0.382,0.002,0.558,0.007
	c0.175,0.005,0.301,0.008,0.377,0.008v2.265h-0.514c-0.16,0-0.304,0.032-0.433,0.095c-0.127,0.063-0.24,0.142-0.335,0.238
	c-0.095,0.101-0.167,0.201-0.214,0.302c-0.048,0.1-0.094,0.199-0.14,0.293c-0.116,0.272-0.201,0.465-0.256,0.582
	c-0.055,0.116-0.154,0.229-0.294,0.34l2.692,4.365H56.699L56.699,24.158L56.699,24.158z M65.831,18.68
	c-0.084-0.334-0.198-0.603-0.343-0.804c-0.157-0.211-0.333-0.359-0.528-0.441c-0.196-0.083-0.42-0.125-0.671-0.125
	c-0.238,0-0.451,0.037-0.642,0.11c-0.19,0.074-0.366,0.212-0.527,0.419c-0.15,0.196-0.272,0.466-0.363,0.807
	c-0.089,0.343-0.135,0.773-0.135,1.292c0,0.519,0.043,0.938,0.128,1.258c0.085,0.318,0.196,0.574,0.332,0.766
	c0.141,0.195,0.318,0.34,0.529,0.43c0.21,0.092,0.443,0.137,0.7,0.137c0.211,0,0.426-0.045,0.646-0.137
	c0.218-0.09,0.393-0.227,0.524-0.406c0.155-0.217,0.273-0.477,0.353-0.783c0.081-0.303,0.121-0.725,0.121-1.264
	C65.954,19.433,65.913,19.015,65.831,18.68L65.831,18.68L65.831,18.68z M64.289,24.422c-1.383,0-2.457-0.4-3.225-1.205
	c-0.766-0.803-1.15-1.902-1.15-3.295c0-1.41,0.384-2.514,1.15-3.311c0.767-0.798,1.84-1.198,3.225-1.198
	c1.388,0,2.463,0.402,3.227,1.205c0.763,0.803,1.146,1.904,1.146,3.303c0,1.394-0.379,2.493-1.142,3.296
	C66.758,24.021,65.681,24.422,64.289,24.422L64.289,24.422L64.289,24.422z M75.278,20.525h-2.73v3.633H69.91v-8.48h2.638v2.937h2.73
	v-2.937h2.639v8.48h-2.639V20.525z M84.111,24.158h-2.64V17.52h-2.624v-1.842h7.887v1.842h-2.623V24.158z M92.333,20.179
	c-0.446,0.046-0.809,0.083-1.086,0.117c-0.276,0.032-0.546,0.098-0.813,0.193c-0.231,0.082-0.411,0.205-0.539,0.367
	s-0.193,0.381-0.193,0.652c0,0.398,0.108,0.672,0.321,0.82c0.215,0.148,0.529,0.223,0.946,0.223c0.229,0,0.468-0.051,0.709-0.16
	c0.241-0.104,0.46-0.252,0.655-0.441V20.179L92.333,20.179z M92.333,23.26c-0.182,0.15-0.343,0.287-0.486,0.406
	c-0.143,0.123-0.336,0.242-0.576,0.363c-0.236,0.115-0.466,0.205-0.689,0.264c-0.224,0.061-0.537,0.092-0.938,0.092
	c-0.752,0-1.373-0.252-1.868-0.756c-0.496-0.504-0.741-1.137-0.741-1.902c0-0.629,0.124-1.139,0.376-1.525
	c0.252-0.387,0.612-0.695,1.086-0.921c0.478-0.231,1.048-0.393,1.71-0.484c0.665-0.09,1.381-0.161,2.142-0.211v-0.045
	c0-0.469-0.17-0.792-0.516-0.971c-0.343-0.179-0.86-0.268-1.548-0.268c-0.311,0-0.678,0.056-1.093,0.17
	c-0.416,0.113-0.825,0.259-1.221,0.434h-0.226v-2.046c0.261-0.075,0.684-0.165,1.265-0.268c0.583-0.104,1.172-0.154,1.766-0.154
	c1.458,0,2.519,0.243,3.188,0.729c0.666,0.486,0.998,1.228,0.998,2.224v5.769h-2.625V23.26H92.333z M102.079,24.158l-2.004-3.361
	h-0.68v3.361h-2.639v-8.48h2.639v3.406c0.373-0.004,0.65-0.06,0.833-0.163c0.185-0.102,0.384-0.376,0.598-0.819
	c0.072-0.15,0.147-0.315,0.228-0.498c0.081-0.181,0.152-0.341,0.219-0.482c0.265-0.559,0.594-0.941,0.984-1.148
	c0.39-0.207,0.863-0.31,1.422-0.31c0.195,0,0.381,0.002,0.557,0.007c0.177,0.005,0.304,0.008,0.376,0.008v2.265h-0.511
	c-0.161,0-0.306,0.032-0.434,0.095c-0.128,0.063-0.241,0.142-0.335,0.238c-0.098,0.101-0.169,0.201-0.217,0.302
	c-0.047,0.1-0.094,0.199-0.138,0.293c-0.117,0.272-0.203,0.465-0.258,0.582c-0.055,0.116-0.152,0.229-0.294,0.34l2.692,4.365
	H102.079L102.079,24.158L102.079,24.158z M110.551,24.158h-2.64V17.52h-2.624v-1.842h7.887v1.842h-2.623V24.158z M119.237,17.55
	c-0.246-0.292-0.617-0.438-1.12-0.438c-0.513,0-0.915,0.154-1.204,0.46c-0.289,0.307-0.448,0.726-0.478,1.254h3.188
	C119.609,18.269,119.479,17.843,119.237,17.55L119.237,17.55L119.237,17.55z M116.442,20.42c0.025,0.392,0.107,0.72,0.251,0.986
	c0.14,0.264,0.325,0.475,0.557,0.629c0.227,0.156,0.49,0.27,0.792,0.338c0.301,0.068,0.63,0.104,0.987,0.104
	c0.306,0,0.607-0.035,0.904-0.104s0.569-0.156,0.815-0.268c0.215-0.096,0.416-0.199,0.599-0.309
	c0.184-0.111,0.334-0.209,0.448-0.295h0.279v2.182c-0.215,0.086-0.413,0.166-0.591,0.238c-0.18,0.074-0.425,0.148-0.735,0.225
	c-0.287,0.076-0.583,0.133-0.886,0.176c-0.306,0.045-0.676,0.064-1.112,0.064c-1.6,0-2.825-0.383-3.676-1.148
	c-0.854-0.764-1.281-1.855-1.281-3.269c0-1.384,0.398-2.49,1.191-3.315c0.795-0.825,1.904-1.238,3.332-1.238
	c1.298,0,2.271,0.351,2.927,1.049c0.652,0.7,0.979,1.702,0.979,3.006v0.952L116.442,20.42L116.442,20.42"/>
</svg>
