<?xml version="1.0" encoding="utf-8"?>
<!-- Generator: Adobe Illustrator 16.0.0, SVG Export Plug-In . SVG Version: 6.00 Build 0)  -->
<!DOCTYPE svg PUBLIC "-//W3C//DTD SVG 1.1//EN" "http://www.w3.org/Graphics/SVG/1.1/DTD/svg11.dtd">
<svg version="1.1" id="Layer_1" xmlns="http://www.w3.org/2000/svg" xmlns:xlink="http://www.w3.org/1999/xlink" x="0px" y="0px"
	 width="40px" height="40px" viewBox="0 0 40 40" enable-background="new 0 0 40 40" xml:space="preserve">
<path class="path" fill="#557398" d="M10,0h20c2.842,0,10,0,10,0s0,7.32,0,10v20c0,5.523-4.477,10-10,10H10c-3.024,0-10,0-10,0s0-7.502,0-10V10
	C0,4.477,4.478,0,10,0z"/>
<g>
	<g>
		<defs>
			<polygon id="SVGID_1_" points="33.094,14.931 60.85,48.245 37.918,56.493 13.208,25.805 20.563,23.375 27.813,18.875 			"/>
		</defs>
		<clipPath id="SVGID_2_">
			<use xlink:href="#SVGID_1_"  overflow="visible"/>
		</clipPath>
		<path clip-path="url(#SVGID_2_)" fill="#405668" d="M40,34.993c0,2.762-2.238,4.998-5,4.998H5c-2.761,0-5-2.236-5-4.998v-30
			c0-2.761,2.239-5,5-5h30c2.762,0,5,2.239,5,5V34.993z"/>
	</g>
</g>
<path fill="#FFFFFF" d="M19.718,28.771h1.57c0,0,0.476-0.055,0.717-0.313c0.224-0.24,0.216-0.688,0.216-0.688
	s-0.031-2.104,0.946-2.418c0.963-0.306,2.201,2.037,3.513,2.938c0.991,0.683,1.745,0.53,1.745,0.53l3.509-0.049
	c0,0,1.834-0.112,0.965-1.557c-0.07-0.117-0.508-1.066-2.607-3.018c-2.197-2.041-1.902-1.713,0.746-5.242
	c1.611-2.149,2.258-3.463,2.057-4.024c-0.191-0.536-1.379-0.394-1.379-0.394l-3.947,0.023c0,0-0.293-0.039-0.512,0.09
	c-0.213,0.128-0.352,0.424-0.352,0.424s-0.625,1.664-1.455,3.08c-1.762,2.987-2.465,3.143-2.75,2.958
	c-0.67-0.432-0.5-1.733-0.5-2.66c0-2.893,0.438-4.1-0.855-4.412c-0.43-0.104-0.744-0.172-1.844-0.184
	c-1.408-0.014-2.602,0.005-3.275,0.336c-0.449,0.22-0.797,0.71-0.586,0.738c0.262,0.035,0.853,0.159,1.166,0.586
	c0.404,0.551,0.391,1.787,0.391,1.787s0.232,3.406-0.543,3.829c-0.533,0.29-1.263-0.302-2.83-3.011
	c-0.804-1.388-1.41-2.922-1.41-2.922s-0.117-0.286-0.325-0.439c-0.253-0.186-0.606-0.245-0.606-0.245l-3.753,0.024
	c0,0-0.563,0.016-0.771,0.261c-0.184,0.218-0.014,0.669-0.014,0.669s2.938,6.873,6.264,10.337
	C16.254,28.98,19.718,28.771,19.718,28.771L19.718,28.771z"/>
</svg>
