<?xml version="1.0" encoding="utf-8"?>
<!-- Generator: Adobe Illustrator 16.0.0, SVG Export Plug-In . SVG Version: 6.00 Build 0)  -->
<!DOCTYPE svg PUBLIC "-//W3C//DTD SVG 1.1//EN" "http://www.w3.org/Graphics/SVG/1.1/DTD/svg11.dtd">
<svg version="1.1" id="Layer_1" xmlns="http://www.w3.org/2000/svg" xmlns:xlink="http://www.w3.org/1999/xlink" x="0px" y="0px"
	 width="142.205px" height="40px" viewBox="0 0 142.205 40" enable-background="new 0 0 142.205 40" xml:space="preserve">
<path class="path" fill="#557398" d="M142.205,37c0,1.657-1.343,3-3,3H3c-1.656,0-3-1.343-3-3V3c0-1.657,1.344-3,3-3h136.205c1.657,0,3,1.343,3,3
	V37z"/>
<path opacity="0.16" d="M0,33.195c0,1.657,1.344,3,3,3h136.205c1.657,0,3-1.343,3-3V37c0,1.657-1.343,3-3,3H3c-1.656,0-3-1.343-3-3
	V33.195z"/>
<path fill="#FFFFFF" d="M28.716,27.338h1.677c0,0,0.509-0.06,0.766-0.334c0.239-0.258,0.229-0.735,0.229-0.735
	s-0.032-2.246,1.012-2.583c1.028-0.326,2.35,2.177,3.752,3.138c1.058,0.729,1.863,0.567,1.863,0.567l3.746-0.053
	c0,0,1.958-0.119,1.03-1.663c-0.073-0.123-0.542-1.138-2.782-3.224c-2.346-2.179-2.03-1.829,0.796-5.597
	c1.72-2.295,2.411-3.698,2.197-4.297c-0.205-0.572-1.474-0.42-1.474-0.42l-4.215,0.024c0,0-0.313-0.042-0.547,0.096
	c-0.227,0.137-0.377,0.453-0.377,0.453s-0.667,1.777-1.552,3.289c-1.883,3.191-2.634,3.356-2.937,3.16
	c-0.717-0.462-0.534-1.851-0.534-2.841c0-3.089,0.469-4.378-0.913-4.711c-0.459-0.111-0.795-0.184-1.97-0.197
	c-1.504-0.015-2.779,0.005-3.497,0.358c-0.479,0.235-0.851,0.758-0.626,0.789c0.279,0.037,0.912,0.169,1.245,0.625
	c0.432,0.589,0.418,1.908,0.418,1.908s0.248,3.637-0.58,4.089c-0.569,0.311-1.349-0.322-3.022-3.215
	c-0.859-1.482-1.505-3.12-1.505-3.12s-0.125-0.306-0.348-0.469c-0.271-0.198-0.647-0.261-0.647-0.261l-4.007,0.025
	c0,0-0.602,0.017-0.823,0.278c-0.196,0.233-0.016,0.714-0.016,0.714s3.139,7.34,6.689,11.039
	C25.017,27.562,28.716,27.338,28.716,27.338L28.716,27.338z"/>
<g>
	<path fill="#FFFFFF" d="M56.936,24.75l-3.895-11.929h1.664l1.858,5.876c0.514,1.612,0.956,3.063,1.274,4.461h0.036
		c0.336-1.381,0.831-2.886,1.362-4.444l2.018-5.894H62.9L58.635,24.75H56.936z"/>
	<path fill="#FFFFFF" d="M65.591,20.113h0.035c0.213-0.301,0.514-0.672,0.762-0.974l2.513-2.956h1.877l-3.311,3.522l3.771,5.044
		h-1.894l-2.956-4.105l-0.797,0.885v3.221h-1.54V12.183h1.54V20.113z"/>
	<path fill="#FFFFFF" d="M80.105,20.396c0,3.168-2.195,4.549-4.266,4.549c-2.319,0-4.106-1.699-4.106-4.408
		c0-2.867,1.876-4.548,4.248-4.548C78.441,15.989,80.105,17.777,80.105,20.396z M73.309,20.484c0,1.877,1.08,3.293,2.602,3.293
		c1.487,0,2.603-1.398,2.603-3.328c0-1.452-0.726-3.292-2.567-3.292C74.105,17.157,73.309,18.856,73.309,20.484z"/>
	<path fill="#FFFFFF" d="M82.069,18.502c0-0.885-0.018-1.611-0.07-2.319h1.38l0.089,1.416h0.035c0.425-0.813,1.416-1.61,2.832-1.61
		c1.187,0,3.027,0.708,3.027,3.646v5.115h-1.558v-4.938c0-1.381-0.514-2.531-1.982-2.531c-1.027,0-1.823,0.726-2.089,1.594
		c-0.071,0.194-0.106,0.46-0.106,0.726v5.15h-1.558V18.502z"/>
	<path fill="#FFFFFF" d="M93.698,13.723v2.46h2.23v1.186h-2.23v4.621c0,1.061,0.302,1.662,1.169,1.662
		c0.406,0,0.708-0.053,0.902-0.105l0.07,1.168c-0.301,0.125-0.778,0.213-1.38,0.213c-0.726,0-1.31-0.23-1.682-0.654
		c-0.442-0.461-0.602-1.223-0.602-2.23V17.37h-1.328v-1.186h1.328V14.13L93.698,13.723z"/>
	<path fill="#FFFFFF" d="M102.426,24.75l-0.124-1.08h-0.054c-0.478,0.674-1.398,1.275-2.619,1.275c-1.734,0-2.62-1.221-2.62-2.461
		c0-2.07,1.841-3.204,5.151-3.186v-0.177c0-0.708-0.195-1.982-1.947-1.982c-0.797,0-1.629,0.248-2.23,0.638l-0.354-1.027
		c0.708-0.46,1.734-0.761,2.814-0.761c2.619,0,3.257,1.788,3.257,3.505v3.204c0,0.744,0.035,1.469,0.142,2.053H102.426z
		 M102.195,20.379c-1.699-0.035-3.629,0.266-3.629,1.93c0,1.008,0.673,1.486,1.47,1.486c1.115,0,1.823-0.709,2.07-1.434
		c0.054-0.16,0.089-0.336,0.089-0.496V20.379z"/>
	<path fill="#FFFFFF" d="M107.753,20.113h0.035c0.213-0.301,0.514-0.672,0.762-0.974l2.513-2.956h1.877l-3.311,3.522l3.771,5.044
		h-1.894l-2.956-4.105l-0.797,0.885v3.221h-1.54V12.183h1.54V20.113z"/>
	<path fill="#FFFFFF" d="M116.39,13.723v2.46h2.23v1.186h-2.23v4.621c0,1.061,0.302,1.662,1.169,1.662
		c0.406,0,0.708-0.053,0.902-0.105l0.07,1.168c-0.301,0.125-0.778,0.213-1.38,0.213c-0.726,0-1.31-0.23-1.682-0.654
		c-0.442-0.461-0.602-1.223-0.602-2.23V17.37h-1.328v-1.186h1.328V14.13L116.39,13.723z"/>
	<path fill="#FFFFFF" d="M121.134,20.75c0.036,2.107,1.381,2.975,2.938,2.975c1.115,0,1.788-0.195,2.372-0.443l0.266,1.115
		c-0.549,0.248-1.487,0.531-2.851,0.531c-2.637,0-4.212-1.734-4.212-4.318c0-2.584,1.522-4.621,4.018-4.621
		c2.797,0,3.54,2.46,3.54,4.036c0,0.319-0.035,0.567-0.053,0.725H121.134z M125.701,19.635c0.018-0.991-0.407-2.531-2.16-2.531
		c-1.575,0-2.266,1.451-2.39,2.531H125.701z"/>
</g>
</svg>
