<?xml version="1.0" encoding="utf-8"?>
<!-- Generator: Adobe Illustrator 16.0.0, SVG Export Plug-In . SVG Version: 6.00 Build 0)  -->
<!DOCTYPE svg PUBLIC "-//W3C//DTD SVG 1.1//EN" "http://www.w3.org/Graphics/SVG/1.1/DTD/svg11.dtd">
<svg version="1.1" id="Layer_1" xmlns="http://www.w3.org/2000/svg" xmlns:xlink="http://www.w3.org/1999/xlink" x="0px" y="0px"
	 width="162.211px" height="90px" viewBox="-14.091 -10 162.211 90" enable-background="new -14.091 -10 162.211 90"
	 xml:space="preserve">
<path class="path" fill="#4E76A1" d="M148.12,77c0,1.657-1.342,3-3,3H-11.091c-1.656,0-3-1.343-3-3V-7c0-1.657,1.344-3,3-3H145.12
	c1.658,0,3,1.343,3,3V77z"/>
<path opacity="0.16" enable-background="new    " d="M-14.091,73.195c0,1.655,1.344,3,3,3H145.12c1.658,0,3-1.345,3-3V77
	c0,1.657-1.342,3-3,3H-11.091c-1.656,0-3-1.343-3-3V73.195z"/>
<g>
	<path fill="#FFFFFF" d="M66.484,29.879h2.936c0,0,0.889-0.105,1.34-0.584c0.417-0.451,0.399-1.285,0.399-1.285
		s-0.055-3.931,1.771-4.521c1.801-0.569,4.111,3.817,6.566,5.499c1.854,1.273,3.258,0.984,3.258,0.984l6.557-0.094
		c0,0,3.428-0.208,1.801-2.908c-0.127-0.215-0.947-1.992-4.867-5.643c-4.104-3.815-3.551-3.201,1.396-9.796
		c3.006-4.016,4.217-6.469,3.84-7.519c-0.357-1-2.576-0.735-2.576-0.735L81.53,3.32c0,0-0.551-0.074-0.957,0.168
		c-0.402,0.241-0.66,0.792-0.66,0.792s-1.168,3.108-2.719,5.755c-3.295,5.582-4.609,5.873-5.142,5.53
		c-1.255-0.808-0.932-3.239-0.932-4.972c0-5.407,0.819-7.663-1.6-8.243c-0.803-0.194-1.391-0.323-3.45-0.345
		c-2.631-0.028-4.858,0.009-6.117,0.625c-0.836,0.411-1.488,1.326-1.095,1.381c0.489,0.065,1.597,0.297,2.182,1.094
		c0.755,1.032,0.731,3.339,0.731,3.339s0.434,6.364-1.015,7.157c-0.995,0.544-2.361-0.564-5.289-5.627
		c-1.503-2.592-2.633-5.46-2.633-5.46s-0.219-0.536-0.611-0.821c-0.474-0.346-1.13-0.457-1.13-0.457l-7.011,0.042
		c0,0-1.054,0.032-1.44,0.486c-0.343,0.408-0.028,1.25-0.028,1.25s5.491,12.844,11.701,19.317
		C60.011,30.271,66.484,29.879,66.484,29.879L66.484,29.879z"/>
	<g>
		<path fill="#FFFFFF" d="M18.931,65.707l-6.934-17.896h2.564l4.65,13.002c0.374,1.041,0.688,2.018,0.939,2.93
			c0.277-0.977,0.599-1.953,0.965-2.93l4.834-13.002h2.417l-7.007,17.896H18.931z"/>
		<path fill="#FFFFFF" d="M30.223,65.707V47.813h2.197v10.205l5.2-5.273h2.844l-4.955,4.811l5.456,8.153h-2.71l-4.285-6.629
			l-1.55,1.489v5.14L30.223,65.707L30.223,65.707z"/>
		<path fill="#FFFFFF" d="M41.893,59.225c0-2.399,0.667-4.178,2.002-5.334c1.115-0.959,2.474-1.439,4.077-1.439
			c1.782,0,3.239,0.584,4.37,1.752c1.131,1.167,1.696,2.781,1.696,4.84c0,1.669-0.25,2.98-0.75,3.938
			c-0.501,0.957-1.229,1.699-2.186,2.229c-0.956,0.527-2,0.793-3.131,0.793c-1.814,0-3.282-0.582-4.4-1.746
			C42.453,63.091,41.893,61.414,41.893,59.225z M44.152,59.225c0,1.66,0.361,2.904,1.086,3.729c0.725,0.826,1.636,1.239,2.734,1.239
			c1.091,0,1.998-0.416,2.723-1.245c0.724-0.83,1.086-2.095,1.086-3.796c0-1.604-0.364-2.818-1.093-3.646s-1.634-1.237-2.716-1.237
			c-1.099,0-2.01,0.41-2.734,1.231C44.514,56.323,44.152,57.564,44.152,59.225z"/>
		<path fill="#FFFFFF" d="M56.615,65.707V52.743h1.977v1.843c0.953-1.424,2.328-2.136,4.127-2.136c0.781,0,1.499,0.141,2.154,0.421
			c0.654,0.281,1.146,0.648,1.471,1.105c0.325,0.455,0.554,0.996,0.684,1.623c0.081,0.406,0.122,1.118,0.122,2.137v7.971h-2.197
			V57.82c0-0.896-0.085-1.563-0.257-2.008c-0.17-0.443-0.474-0.797-0.909-1.063s-0.946-0.396-1.532-0.396
			c-0.936,0-1.743,0.299-2.423,0.893c-0.68,0.594-1.019,1.721-1.019,3.381v7.08H56.615z"/>
		<path fill="#FFFFFF" d="M75.315,63.742l0.317,1.939c-0.618,0.131-1.172,0.195-1.659,0.195c-0.799,0-1.416-0.126-1.855-0.378
			s-0.749-0.584-0.928-0.995s-0.269-1.275-0.269-2.595v-7.458H69.31v-1.709h1.611v-3.21l2.186-1.318v4.528h2.209v1.709h-2.209v7.581
			c0,0.627,0.039,1.028,0.115,1.208c0.077,0.179,0.203,0.32,0.379,0.427s0.426,0.159,0.75,0.159
			C74.595,63.827,74.918,63.799,75.315,63.742z"/>
		<path fill="#FFFFFF" d="M85.923,64.107c-0.813,0.691-1.598,1.181-2.35,1.465C82.821,65.857,82.013,66,81.149,66
			c-1.424,0-2.52-0.348-3.283-1.044c-0.764-0.695-1.146-1.585-1.146-2.667c0-0.635,0.145-1.215,0.434-1.739s0.668-0.946,1.135-1.264
			c0.469-0.318,0.996-0.558,1.582-0.72c0.432-0.114,1.082-0.226,1.953-0.33c1.773-0.211,3.08-0.465,3.918-0.758
			c0.008-0.301,0.012-0.492,0.012-0.572c0-0.896-0.207-1.526-0.621-1.893c-0.563-0.496-1.396-0.744-2.504-0.744
			c-1.033,0-1.797,0.181-2.289,0.543c-0.49,0.36-0.855,1.002-1.092,1.922l-2.148-0.293c0.195-0.92,0.518-1.662,0.965-2.229
			s1.096-1.001,1.941-1.306c0.846-0.306,1.826-0.458,2.941-0.458c1.105,0,2.006,0.13,2.697,0.391
			c0.691,0.262,1.199,0.588,1.525,0.982c0.324,0.396,0.555,0.894,0.684,1.494c0.072,0.375,0.109,1.052,0.109,2.027v2.93
			c0,2.043,0.047,3.334,0.141,3.875s0.279,1.062,0.557,1.558h-2.295C86.134,65.252,85.989,64.719,85.923,64.107z M85.739,59.201
			c-0.797,0.324-1.992,0.602-3.588,0.83c-0.904,0.13-1.543,0.275-1.916,0.438c-0.375,0.162-0.664,0.4-0.867,0.714
			s-0.305,0.661-0.305,1.045c0,0.586,0.221,1.073,0.664,1.465c0.443,0.391,1.094,0.586,1.947,0.586c0.848,0,1.6-0.187,2.258-0.557
			c0.66-0.369,1.145-0.877,1.453-1.521c0.236-0.496,0.354-1.229,0.354-2.197V59.201z"/>
		<path fill="#FFFFFF" d="M91.38,65.707V47.813h2.197v10.205l5.199-5.273h2.846l-4.957,4.811l5.457,8.153h-2.711l-4.283-6.629
			l-1.551,1.489v5.14L91.38,65.707L91.38,65.707z"/>
		<path fill="#FFFFFF" d="M108.665,63.742l0.318,1.939c-0.619,0.131-1.172,0.195-1.66,0.195c-0.799,0-1.416-0.126-1.855-0.378
			s-0.75-0.584-0.928-0.995c-0.18-0.411-0.27-1.275-0.27-2.595v-7.458h-1.611v-1.709h1.611v-3.21l2.186-1.318v4.528h2.209v1.709
			h-2.209v7.581c0,0.627,0.039,1.028,0.115,1.208c0.078,0.179,0.203,0.32,0.379,0.427s0.426,0.159,0.75,0.159
			C107.944,63.827,108.267,63.799,108.665,63.742z"/>
		<path fill="#FFFFFF" d="M119.688,61.532l2.27,0.28c-0.357,1.326-1.02,2.355-1.99,3.088c-0.967,0.732-2.203,1.1-3.711,1.1
			c-1.895,0-3.398-0.584-4.51-1.752s-1.666-2.805-1.666-4.913c0-2.181,0.563-3.874,1.686-5.078s2.578-1.807,4.369-1.807
			c1.732,0,3.148,0.591,4.248,1.771s1.648,2.84,1.648,4.98c0,0.13-0.004,0.324-0.014,0.586h-9.668
			c0.082,1.424,0.484,2.514,1.209,3.271c0.725,0.756,1.629,1.135,2.711,1.135c0.805,0,1.492-0.211,2.063-0.635
			C118.903,63.136,119.354,62.46,119.688,61.532z M112.474,57.98h7.238c-0.098-1.092-0.375-1.908-0.83-2.455
			c-0.699-0.846-1.607-1.27-2.723-1.27c-1.01,0-1.857,0.338-2.545,1.014S112.546,56.85,112.474,57.98z"/>
	</g>
</g>
</svg>
