<?xml version="1.0" encoding="utf-8"?>
<!-- Generator: Adobe Illustrator 16.0.0, SVG Export Plug-In . SVG Version: 6.00 Build 0)  -->
<!DOCTYPE svg PUBLIC "-//W3C//DTD SVG 1.1//EN" "http://www.w3.org/Graphics/SVG/1.1/DTD/svg11.dtd">
<svg version="1.1" id="Layer_1" xmlns="http://www.w3.org/2000/svg" xmlns:xlink="http://www.w3.org/1999/xlink" x="0px" y="0px"
	 width="83px" height="40px" viewBox="0 0 83 40" enable-background="new 0 0 83 40" xml:space="preserve">
<path fill="#347854" class="path" d="M83,35c0,2.762-2.238,5-5,5H5c-2.761,0-5-2.238-5-5V5c0-2.761,2.239-5,5-5h73c2.762,0,5,2.239,5,5V35z"/>
<g>
	<g>
		<path fill="#FFFFFF" d="M36.012,26.175v4.116H46.99v-4.116v-2.743H36.012V26.175z M37.383,24.803h8.234v1.372h-8.234V24.803z
			 M37.383,27.547h8.234v1.373h-8.234V27.547z"/>
		<polygon fill="#FFFFFF" points="46.99,13.826 46.99,9.709 36.012,9.709 36.012,13.826 36.012,16.569 46.99,16.569 		"/>
		<path fill="#FFFFFF" d="M49.732,13.826h-1.371v2.743v1.374H34.639v-1.374v-2.743h-1.371c-1.373,0-2.744,1.372-2.744,2.743v6.863
			c0,1.371,1.371,2.743,2.744,2.743h1.371v-2.743v-1.373h13.723v1.373v2.743h1.373c1.373,0,2.744-1.372,2.744-2.743v-6.863
			C52.479,15.198,51.105,13.826,49.732,13.826z"/>
	</g>
</g>
</svg>
