<?xml version="1.0" encoding="utf-8"?>
<!-- Generator: Adobe Illustrator 16.0.0, SVG Export Plug-In . SVG Version: 6.00 Build 0)  -->
<!DOCTYPE svg PUBLIC "-//W3C//DTD SVG 1.1//EN" "http://www.w3.org/Graphics/SVG/1.1/DTD/svg11.dtd">
<svg version="1.1" id="Layer_1" xmlns="http://www.w3.org/2000/svg" xmlns:xlink="http://www.w3.org/1999/xlink" x="0px" y="0px"
	 width="40px" height="40px" viewBox="0 0 40 40" enable-background="new 0 0 40 40" xml:space="preserve">
<rect fill="#347854" width="40" height="40" class="path"/>
<g>
	<g>
		<path fill="#FFFFFF" d="M14.512,26.175v4.116H25.49v-4.116v-2.743H14.512V26.175z M15.883,24.803h8.234v1.372h-8.234V24.803z
			 M15.883,27.547h8.234v1.373h-8.234V27.547z"/>
		<polygon fill="#FFFFFF" points="25.49,13.825 25.49,9.709 14.512,9.709 14.512,13.825 14.512,16.568 25.49,16.568 		"/>
		<path fill="#FFFFFF" d="M28.233,13.825h-1.372v2.743v1.374H13.139v-1.374v-2.743h-1.372c-1.372,0-2.744,1.372-2.744,2.743v6.863
			c0,1.371,1.372,2.743,2.744,2.743h1.372v-2.743v-1.374h13.723v1.374v2.743h1.372c1.373,0,2.745-1.372,2.745-2.743v-6.863
			C30.979,15.197,29.606,13.825,28.233,13.825z"/>
	</g>
</g>
</svg>
