<?xml version="1.0" encoding="utf-8"?>
<!-- Generator: Adobe Illustrator 16.0.0, SVG Export Plug-In . SVG Version: 6.00 Build 0)  -->
<!DOCTYPE svg PUBLIC "-//W3C//DTD SVG 1.1//EN" "http://www.w3.org/Graphics/SVG/1.1/DTD/svg11.dtd">
<svg version="1.1" id="Layer_1" xmlns="http://www.w3.org/2000/svg" xmlns:xlink="http://www.w3.org/1999/xlink" x="0px" y="0px"
	 width="40px" height="40px" viewBox="0 0 40 40" enable-background="new 0 0 40 40" xml:space="preserve">
<path fill="#347854" d="M40.001,35c0,2.762-2.238,5-5,5h-30c-2.762,0-5-2.238-5-5V5c0-2.761,2.238-5,5-5h30c2.762,0,5,2.239,5,5V35z
	" class="path"/>
<g>
	<g>
		<g>
			<defs>
				<path id="SVGID_1_" d="M25.49,9.709l35.357,29.543L45.917,56.5L14.512,30.291l1.371-2.744l-2.744-1.373V13.825
					c0,0,3.382,1.426,3.408,1.27c0.047-0.283,1.015-2.532,1.015-2.532L25.49,9.709z"/>
			</defs>
			<clipPath id="SVGID_2_">
				<use xlink:href="#SVGID_1_"  overflow="visible"/>
			</clipPath>
			<path clip-path="url(#SVGID_2_)" fill="#295B3E" d="M40,35c0,2.762-2.238,4.998-5,4.998H5c-2.761,0-5-2.236-5-4.998V5
				c0-2.761,2.239-5,5-5h30c2.762,0,5,2.239,5,5V35z"/>
		</g>
	</g>
</g>
<g>
	<g>
		<path fill="#FFFFFF" d="M14.512,26.175v4.116H25.49v-4.116v-2.743H14.512V26.175z M15.883,24.803h8.234l-1.492,1.372h-6.75
			L15.883,24.803z M15.883,27.547h8.234v1.373h-8.234V27.547z"/>
		<polygon fill="#FFFFFF" points="25.49,13.825 25.49,9.709 14.512,9.709 14.512,13.825 14.512,16.568 25.49,16.568 		"/>
		<path fill="#FFFFFF" d="M28.232,13.825h-1.371v2.743v1.374H13.139v-1.374v-2.743h-1.372c-1.372,0-2.744,1.372-2.744,2.743v6.864
			c0,1.37,1.372,2.742,2.744,2.742h1.372v-2.742v-1.375h13.722v1.375v2.742h1.373c1.373,0,2.744-1.372,2.744-2.742v-6.864
			C30.979,15.197,29.605,13.825,28.232,13.825z"/>
	</g>
</g>
</svg>
