<?xml version="1.0" encoding="utf-8"?>
<!-- Generator: Adobe Illustrator 16.0.0, SVG Export Plug-In . SVG Version: 6.00 Build 0)  -->
<!DOCTYPE svg PUBLIC "-//W3C//DTD SVG 1.1//EN" "http://www.w3.org/Graphics/SVG/1.1/DTD/svg11.dtd">
<svg version="1.1" id="Layer_1" xmlns="http://www.w3.org/2000/svg" xmlns:xlink="http://www.w3.org/1999/xlink" x="0px" y="0px"
	 width="92.004px" height="40px" viewBox="0 0 92.004 40" enable-background="new 0 0 92.004 40" xml:space="preserve">
<path class="path" fill="#347854" d="M92.004,20c0,11.046-8.955,20-20,20H20C8.954,40,0,31.046,0,20l0,0C0,8.954,8.954,0,20,0h52.004
	C83.049,0,92.004,8.954,92.004,20L92.004,20z"/>
<g>
	<g>
		<path fill="#FFFFFF" d="M19.8,25.4V29h9.602v-3.6v-2.399H19.8V25.4z M20.999,24.2H28.2l-1.305,1.2h-5.903L20.999,24.2z
			 M20.999,26.602H28.2v1.199h-7.201V26.602z"/>
		<polygon fill="#FFFFFF" points="29.401,14.599 29.401,11 19.8,11 19.8,14.599 19.8,16.998 29.401,16.998 		"/>
		<path fill="#FFFFFF" d="M31.8,14.599h-1.199v2.399V18.2H18.599v-1.202v-2.399H17.4c-1.201,0-2.4,1.2-2.4,2.399v6.003
			c0,1.198,1.199,2.397,2.4,2.397h1.199v-2.397v-1.202H30.6v1.202v2.397h1.2c1.201,0,2.4-1.199,2.4-2.397v-6.003
			C34.201,15.799,33,14.599,31.8,14.599z"/>
	</g>
</g>
<g>
	<path fill="#FFFFFF" d="M44.201,14.132c0.743-0.124,1.717-0.23,2.956-0.23c1.521,0,2.637,0.354,3.346,0.991
		c0.654,0.566,1.043,1.434,1.043,2.496c0,1.079-0.317,1.929-0.92,2.549c-0.813,0.867-2.142,1.31-3.646,1.31
		c-0.461,0-0.885-0.018-1.239-0.107v4.779h-1.539L44.201,14.132L44.201,14.132z M45.74,19.884c0.337,0.089,0.762,0.124,1.273,0.124
		c1.854,0,2.987-0.902,2.987-2.549c0-1.575-1.11-2.336-2.813-2.336c-0.674,0-1.188,0.053-1.454,0.124v4.637H45.74z"/>
	<path fill="#FFFFFF" d="M53.282,20.026c0-1.009-0.019-1.876-0.07-2.672h1.361l0.055,1.681h0.069c0.39-1.15,1.328-1.876,2.371-1.876
		c0.179,0,0.302,0.018,0.438,0.053v1.469c-0.155-0.035-0.313-0.053-0.526-0.053c-1.103,0-1.877,0.831-2.088,2
		c-0.037,0.211-0.072,0.459-0.072,0.726v4.565h-1.538V20.026z"/>
	<path fill="#FFFFFF" d="M60.874,14.946c0.021,0.531-0.371,0.956-0.99,0.956c-0.549,0-0.938-0.425-0.938-0.956
		c0-0.549,0.408-0.974,0.978-0.974C60.502,13.973,60.874,14.397,60.874,14.946z M59.141,25.92v-8.566h1.561v8.566H59.141z"/>
	<path fill="#FFFFFF" d="M63.282,19.672c0-0.885-0.019-1.611-0.07-2.319h1.379l0.091,1.416h0.034c0.425-0.813,1.416-1.61,2.832-1.61
		c1.187,0,3.027,0.708,3.027,3.646v5.115h-1.56v-4.938c0-1.381-0.517-2.532-1.981-2.532c-1.027,0-1.822,0.726-2.089,1.594
		c-0.071,0.194-0.106,0.459-0.106,0.726v5.149h-1.557V19.672z"/>
	<path fill="#FFFFFF" d="M74.911,14.893v2.46h2.229v1.186h-2.229v4.621c0,1.061,0.301,1.662,1.168,1.662
		c0.407,0,0.709-0.053,0.901-0.105l0.067,1.168c-0.301,0.125-0.774,0.213-1.381,0.213c-0.729,0-1.313-0.229-1.685-0.654
		c-0.438-0.461-0.602-1.223-0.602-2.229V18.54h-1.328v-1.186h1.328V15.3L74.911,14.893z"/>
</g>
</svg>
