<?xml version="1.0" encoding="utf-8"?>
<!-- Generator: Adobe Illustrator 16.0.0, SVG Export Plug-In . SVG Version: 6.00 Build 0)  -->
<!DOCTYPE svg PUBLIC "-//W3C//DTD SVG 1.1//EN" "http://www.w3.org/Graphics/SVG/1.1/DTD/svg11.dtd">
<svg version="1.1" id="Layer_1" xmlns="http://www.w3.org/2000/svg" xmlns:xlink="http://www.w3.org/1999/xlink" x="0px" y="0px"
	 width="82.938px" height="32px" viewBox="4.6 11.361 82.938 32" enable-background="new 4.6 11.361 82.938 32"
	 xml:space="preserve">
<rect x="4.6" y="11.361" class="path" fill="#347854" width="82.938" height="32"/>
<g>
	<g>
		<path fill="#FFFFFF" d="M20.6,31.86v3h8.001v-3v-1.998H20.6V31.86z M21.599,30.86H27.6l-1.087,1h-4.92L21.599,30.86z
			 M21.599,32.862H27.6v0.998h-6.001V32.862z"/>
		<polygon fill="#FFFFFF" points="28.601,22.86 28.601,19.86 20.6,19.86 20.6,22.86 20.6,24.858 28.601,24.858 		"/>
		<path fill="#FFFFFF" d="M30.6,22.86h-0.999v1.998v1.002H19.6v-1.002V22.86h-1c-1,0-2,1-2,1.998v5.004c0,0.998,1,1.998,2,1.998h1
			v-1.998V28.86h10v1.002v1.998h1c1.001,0,2-1,2-1.998v-5.004C32.601,23.86,31.6,22.86,30.6,22.86z"/>
	</g>
</g>
<g>
	<path fill="#FFFFFF" d="M42.6,21.492c0.742-0.123,1.717-0.23,2.956-0.23c1.521,0,2.637,0.355,3.346,0.992
		c0.654,0.566,1.043,1.434,1.043,2.496c0,1.078-0.317,1.929-0.92,2.548c-0.813,0.867-2.144,1.312-3.646,1.312
		c-0.461,0-0.885-0.019-1.238-0.106v4.778h-1.539L42.6,21.492L42.6,21.492z M44.139,27.244c0.337,0.088,0.762,0.123,1.272,0.123
		c1.856,0,2.989-0.902,2.989-2.549c0-1.576-1.112-2.336-2.813-2.336c-0.674,0-1.188,0.053-1.451,0.123L44.139,27.244L44.139,27.244z
		"/>
	<path fill="#FFFFFF" d="M51.682,27.385c0-1.008-0.021-1.876-0.07-2.671h1.361l0.055,1.683h0.068
		c0.391-1.149,1.327-1.878,2.37-1.878c0.181,0,0.304,0.019,0.441,0.054v1.47c-0.158-0.035-0.316-0.054-0.529-0.054
		c-1.101,0-1.877,0.832-2.088,2.002c-0.037,0.211-0.072,0.459-0.072,0.725v4.566h-1.536V27.385z"/>
	<path fill="#FFFFFF" d="M59.273,22.306c0.021,0.531-0.371,0.955-0.989,0.955c-0.55,0-0.939-0.424-0.939-0.955
		c0-0.549,0.408-0.974,0.976-0.974C58.9,21.334,59.273,21.757,59.273,22.306z M57.539,33.279v-8.564h1.56v8.564H57.539z"/>
	<path fill="#FFFFFF" d="M61.682,27.029c0-0.883-0.021-1.608-0.07-2.317h1.38l0.09,1.416h0.035c0.424-0.813,1.416-1.609,2.832-1.609
		c1.186,0,3.026,0.71,3.026,3.646v5.114h-1.562v-4.938c0-1.381-0.515-2.532-1.979-2.532c-1.026,0-1.822,0.728-2.091,1.597
		c-0.069,0.192-0.104,0.459-0.104,0.725v5.15h-1.558V27.029z"/>
	<path fill="#FFFFFF" d="M73.311,22.253v2.459h2.229V25.9h-2.229v4.621c0,1.061,0.301,1.661,1.168,1.661
		c0.405,0,0.709-0.054,0.899-0.104l0.07,1.168c-0.302,0.125-0.777,0.213-1.382,0.213c-0.728,0-1.312-0.229-1.683-0.654
		c-0.44-0.461-0.602-1.223-0.602-2.229V25.9h-1.328v-1.187h1.328v-2.056L73.311,22.253z"/>
</g>
</svg>
