<?xml version="1.0" encoding="utf-8"?>
<!-- Generator: Adobe Illustrator 16.0.0, SVG Export Plug-In . SVG Version: 6.00 Build 0)  -->
<!DOCTYPE svg PUBLIC "-//W3C//DTD SVG 1.1//EN" "http://www.w3.org/Graphics/SVG/1.1/DTD/svg11.dtd">
<svg version="1.1" id="Layer_1" xmlns="http://www.w3.org/2000/svg" xmlns:xlink="http://www.w3.org/1999/xlink" x="0px" y="0px"
	 width="106.003px" height="40px" viewBox="-4.122 -1.352 106.003 40" enable-background="new -4.122 -1.352 106.003 40"
	 xml:space="preserve">
<path class="path" fill="#666666" d="M11.066,8.874c-1.21,0.079-1.943,0.77-1.943,1.999v7.36c0,5.979,5.946,10.678,11.09,10.641
	c5.784-0.043,11.127-4.926,11.127-10.641v-7.36c0-1.234-0.779-1.93-1.999-1.999H11.066L11.066,8.874z"/>
<path fill="#FFFFFF" d="M15.751,14.861l4.462,4.239l4.466-4.239c1.999-0.839,2.871,1.442,2.05,2.11l-5.816,5.553
	c-0.19,0.18-1.206,0.18-1.396,0l-5.816-5.553C12.917,16.234,13.938,13.915,15.751,14.861L15.751,14.861z"/>
<g>
	<path class="path" fill="#666666" d="M45.755,13.913c0.672-0.112,1.553-0.208,2.674-0.208c1.377,0,2.385,0.32,3.025,0.896
		c0.592,0.512,0.943,1.297,0.943,2.257c0,0.977-0.287,1.745-0.832,2.305c-0.736,0.784-1.938,1.185-3.297,1.185
		c-0.416,0-0.801-0.017-1.121-0.097v4.321h-1.393V13.913z M47.147,19.115c0.305,0.08,0.689,0.112,1.152,0.112
		c1.682,0,2.705-0.816,2.705-2.305c0-1.425-1.008-2.113-2.545-2.113c-0.607,0-1.072,0.048-1.313,0.112V19.115z"/>
	<path class="path" fill="#666666" d="M60.831,20.635c0,2.865-1.986,4.114-3.859,4.114c-2.096,0-3.713-1.536-3.713-3.985
		c0-2.593,1.697-4.114,3.842-4.114C59.325,16.649,60.831,18.266,60.831,20.635z M54.685,20.715c0,1.697,0.975,2.978,2.352,2.978
		c1.346,0,2.354-1.265,2.354-3.009c0-1.313-0.656-2.978-2.32-2.978C55.403,17.706,54.685,19.243,54.685,20.715z"/>
	<path class="path" fill="#666666" d="M68.125,24.285c-0.368,0.191-1.185,0.447-2.225,0.447c-2.337,0-3.856-1.584-3.856-3.953
		c0-2.385,1.633-4.114,4.16-4.114c0.833,0,1.569,0.208,1.953,0.4l-0.32,1.088c-0.336-0.192-0.864-0.368-1.633-0.368
		c-1.776,0-2.736,1.313-2.736,2.929c0,1.793,1.152,2.897,2.688,2.897c0.801,0,1.329-0.208,1.729-0.384L68.125,24.285z"/>
	<path class="path" fill="#666666" d="M71.163,20.379h0.032c0.192-0.272,0.465-0.608,0.688-0.88l2.273-2.673h1.696l-2.993,3.185l3.409,4.562
		h-1.713l-2.673-3.713l-0.721,0.801v2.912h-1.392V13.208h1.392V20.379z"/>
	<path class="path" fill="#666666" d="M78.06,20.955c0.031,1.904,1.248,2.689,2.656,2.689c1.009,0,1.617-0.176,2.146-0.4l0.24,1.008
		c-0.496,0.225-1.345,0.48-2.577,0.48c-2.385,0-3.81-1.568-3.81-3.905s1.376-4.178,3.634-4.178c2.528,0,3.201,2.225,3.201,3.649
		c0,0.288-0.032,0.512-0.049,0.656H78.06z M82.188,19.947c0.017-0.896-0.368-2.289-1.952-2.289c-1.425,0-2.049,1.313-2.161,2.289
		H82.188z"/>
	<path class="path" fill="#666666" d="M86.987,14.601v2.225h2.017v1.072h-2.017v4.178c0,0.96,0.272,1.504,1.057,1.504
		c0.368,0,0.64-0.048,0.816-0.096l0.063,1.057c-0.271,0.111-0.704,0.191-1.248,0.191c-0.656,0-1.185-0.207-1.521-0.592
		c-0.4-0.416-0.545-1.104-0.545-2.018v-4.225h-1.2v-1.072h1.2v-1.857L86.987,14.601z"/>
</g>
<g>
	<path class="path" fill="#666666" d="M81.884-0.352c10.477,0,19,8.522,19,19c0,10.477-8.523,19-19,19H15.878c-10.477,0-19-8.523-19-19
		c0-10.478,8.523-19,19-19H81.884 M81.884-1.352H15.878c-11.045,0-20,8.953-20,20c0,11.045,8.955,20,20,20h66.003
		c11.045,0,20-8.955,20-20C101.884,7.602,92.929-1.352,81.884-1.352L81.884-1.352z"/>
</g>
</svg>
