<?xml version="1.0" encoding="utf-8"?>
<!-- Generator: Adobe Illustrator 16.0.0, SVG Export Plug-In . SVG Version: 6.00 Build 0)  -->
<!DOCTYPE svg PUBLIC "-//W3C//DTD SVG 1.1//EN" "http://www.w3.org/Graphics/SVG/1.1/DTD/svg11.dtd">
<svg version="1.1" id="Layer_1" xmlns="http://www.w3.org/2000/svg" xmlns:xlink="http://www.w3.org/1999/xlink" x="0px" y="0px"
	 width="118px" height="90px" viewBox="16.554 -0.188 118 90" enable-background="new 16.554 -0.188 118 90" xml:space="preserve">
<path class="path" fill="#EF4056" d="M134.554,86.813c0,1.657-1.342,3-3,3h-112c-1.657,0-3-1.343-3-3v-84c0-1.657,1.343-3,3-3h112
	c1.658,0,3,1.343,3,3V86.813z"/>
<path opacity="0.16" enable-background="new    " d="M16.554,83.008c0,1.656,1.343,3,3,3h112c1.658,0,3-1.344,3-3v3.805
	c0,1.657-1.342,3-3,3h-112c-1.657,0-3-1.343-3-3V83.008z"/>
<path fill="#FFFFFF" d="M62.722,13.285c-1.693,0.111-2.719,1.078-2.719,2.799v10.303c0,8.371,8.322,14.95,15.524,14.898
	c8.097-0.062,15.576-6.896,15.576-14.898V16.084c0-1.728-1.09-2.702-2.798-2.799H62.722L62.722,13.285z"/>
<path class="path" fill="#EF4056" d="M69.281,21.667l6.246,5.935l6.252-5.935c2.798-1.175,4.019,2.019,2.87,2.955l-8.142,7.772
	c-0.268,0.253-1.689,0.253-1.955,0l-8.142-7.772C65.313,23.589,66.743,20.343,69.281,21.667L69.281,21.667z"/>
<g>
	<path fill="#FFFFFF" d="M43.192,60.123c1.006-0.168,2.325-0.311,4.003-0.311c2.061,0,3.568,0.477,4.526,1.339
		c0.886,0.766,1.411,1.941,1.411,3.378c0,1.463-0.43,2.612-1.245,3.45c-1.101,1.174-2.9,1.772-4.934,1.772
		c-0.623,0-1.199-0.026-1.678-0.145v6.468h-2.085L43.192,60.123L43.192,60.123z M45.276,67.907c0.456,0.12,1.031,0.168,1.724,0.168
		c2.518,0,4.049-1.222,4.049-3.448c0-2.136-1.509-3.164-3.81-3.164c-0.908,0-1.604,0.073-1.965,0.169L45.276,67.907L45.276,67.907z"
		/>
	<path fill="#FFFFFF" d="M65.756,70.182c0,4.288-2.971,6.157-5.773,6.157c-3.138,0-5.559-2.3-5.559-5.964
		c0-3.881,2.543-6.156,5.75-6.156C63.502,64.216,65.756,66.637,65.756,70.182z M56.557,70.301c0,2.541,1.459,4.458,3.521,4.458
		c2.014,0,3.522-1.893,3.522-4.505c0-1.963-0.981-4.456-3.471-4.456C57.632,65.798,56.557,68.1,56.557,70.301z"/>
	<path fill="#FFFFFF" d="M76.671,75.646c-0.549,0.287-1.771,0.669-3.328,0.669c-3.499,0-5.771-2.371-5.771-5.917
		c0-3.568,2.443-6.155,6.226-6.155c1.244,0,2.346,0.311,2.921,0.597l-0.476,1.629c-0.506-0.288-1.293-0.551-2.445-0.551
		c-2.658,0-4.096,1.964-4.096,4.384c0,2.683,1.725,4.335,4.024,4.335c1.198,0,1.989-0.313,2.585-0.574L76.671,75.646z"/>
	<path fill="#FFFFFF" d="M81.218,69.8h0.048c0.29-0.407,0.696-0.912,1.028-1.318l3.402-4h2.541l-4.482,4.766l5.104,6.829h-2.566
		l-3.998-5.559l-1.08,1.203v4.355h-2.082v-17.01h2.082V69.8H81.218z"/>
	<path fill="#FFFFFF" d="M91.539,70.66c0.048,2.85,1.867,4.024,3.976,4.024c1.508,0,2.419-0.265,3.211-0.598l0.358,1.508
		c-0.743,0.338-2.014,0.72-3.854,0.72c-3.569,0-5.703-2.347-5.703-5.845c0-3.497,2.061-6.254,5.439-6.254
		c3.781,0,4.788,3.332,4.788,5.463c0,0.431-0.048,0.766-0.072,0.981H91.539L91.539,70.66z M97.715,69.153
		c0.025-1.341-0.55-3.425-2.917-3.425c-2.134,0-3.068,1.964-3.232,3.425H97.715z"/>
	<path fill="#FFFFFF" d="M104.898,61.151v3.33h3.017v1.606h-3.017v6.251c0,1.438,0.406,2.251,1.582,2.251
		c0.549,0,0.959-0.071,1.223-0.145l0.095,1.582c-0.406,0.167-1.055,0.287-1.871,0.287c-0.981,0-1.775-0.312-2.273-0.886
		c-0.601-0.623-0.817-1.652-0.817-3.022v-6.323h-1.793v-1.604h1.793v-2.78L104.898,61.151z"/>
</g>
</svg>
