<?xml version="1.0" encoding="utf-8"?>
<!-- Generator: Adobe Illustrator 16.0.0, SVG Export Plug-In . SVG Version: 6.00 Build 0)  -->
<!DOCTYPE svg PUBLIC "-//W3C//DTD SVG 1.1//EN" "http://www.w3.org/Graphics/SVG/1.1/DTD/svg11.dtd">
<svg version="1.1" id="Layer_1" xmlns="http://www.w3.org/2000/svg" xmlns:xlink="http://www.w3.org/1999/xlink" x="0px" y="0px"
	 width="85.648px" height="40px" viewBox="0 0 85.648 40" enable-background="new 0 0 85.648 40" xml:space="preserve">
<path fill="#347854" d="M85.649,34.999c0,2.762-2.236,5-5,5H5c-2.762,0-5-2.238-5-5V5c0-2.761,2.238-5,5-5h75.648
	c2.764,0,5,2.239,5,5V34.999z" class="path"/>
<g>
	<path fill="#FFFFFF" d="M27.047,12.48c2.03,0,3.557,0.526,4.581,1.579c0.848,0.848,1.27,1.942,1.27,3.288
		c0,1.345-0.422,2.44-1.27,3.288c-1.024,1.054-2.551,1.579-4.581,1.579h-3.99v4.689c0,0.277-0.098,0.512-0.296,0.701
		c-0.196,0.189-0.435,0.285-0.712,0.285c-0.278,0-0.512-0.096-0.701-0.285c-0.19-0.189-0.286-0.424-0.286-0.701V13.489
		c0-0.276,0.096-0.516,0.286-0.712c0.189-0.197,0.423-0.296,0.701-0.296L27.047,12.48L27.047,12.48z M26.849,20.328
		c1.505,0,2.593-0.321,3.266-0.966c0.526-0.495,0.788-1.168,0.788-2.016c0-1.359-0.68-2.266-2.039-2.718
		c-0.523-0.175-1.196-0.262-2.016-0.262h-3.792v5.961H26.849z"/>
	<path fill="#FFFFFF" d="M36.603,18.441c1.022-1.374,2.169-2.06,3.441-2.06h0.109c0.276,0,0.507,0.096,0.69,0.285
		c0.182,0.19,0.272,0.428,0.272,0.712c0,0.285-0.095,0.512-0.283,0.679c-0.191,0.17-0.433,0.253-0.725,0.253H40
		c-0.731,0-1.387,0.18-1.962,0.537c-0.578,0.356-1.057,0.82-1.437,1.393v6.662c0,0.277-0.098,0.512-0.296,0.701
		s-0.435,0.285-0.711,0.285c-0.278,0-0.512-0.096-0.703-0.285c-0.188-0.189-0.283-0.424-0.283-0.701V17.5
		c0-0.278,0.095-0.517,0.283-0.712c0.191-0.198,0.425-0.296,0.703-0.296c0.276,0,0.514,0.098,0.711,0.296
		c0.198,0.195,0.296,0.434,0.296,0.712L36.603,18.441L36.603,18.441z"/>
	<path fill="#FFFFFF" d="M44.822,13.204c0,0.309-0.109,0.57-0.329,0.79c-0.219,0.219-0.481,0.327-0.788,0.327h-0.133
		c-0.308,0-0.568-0.108-0.788-0.327c-0.22-0.22-0.329-0.481-0.329-0.79v-0.087c0-0.308,0.109-0.569,0.329-0.789
		C43.003,12.107,43.265,12,43.572,12h0.133c0.307,0,0.569,0.108,0.788,0.328c0.22,0.219,0.329,0.48,0.329,0.789V13.204z
		 M42.915,16.775c0.188-0.188,0.427-0.283,0.712-0.283s0.521,0.095,0.712,0.283c0.189,0.191,0.285,0.433,0.285,0.725v9.402
		c0,0.279-0.096,0.513-0.285,0.703c-0.189,0.188-0.427,0.283-0.712,0.283s-0.522-0.095-0.712-0.283
		c-0.19-0.19-0.285-0.424-0.285-0.703V17.5C42.63,17.208,42.725,16.967,42.915,16.775z"/>
	<path fill="#FFFFFF" d="M52.217,18.223c-1.286,0-2.485,0.703-3.595,2.105v6.574c0,0.279-0.099,0.513-0.296,0.703
		c-0.198,0.188-0.437,0.283-0.713,0.283c-0.277,0-0.512-0.095-0.701-0.283c-0.189-0.19-0.284-0.424-0.284-0.703V17.5
		c0-0.292,0.095-0.533,0.284-0.725c0.189-0.188,0.424-0.283,0.701-0.283c0.276,0,0.515,0.095,0.713,0.283
		c0.197,0.191,0.296,0.433,0.296,0.725v0.898c0.585-0.612,1.088-1.045,1.513-1.293c0.833-0.482,1.625-0.724,2.378-0.724
		s1.37,0.114,1.852,0.34c0.483,0.228,0.893,0.537,1.229,0.931c0.688,0.806,1.029,1.813,1.029,3.027v6.223
		c0,0.279-0.099,0.513-0.296,0.703c-0.196,0.188-0.437,0.283-0.713,0.283c-0.277,0-0.512-0.095-0.7-0.283
		c-0.19-0.19-0.285-0.424-0.285-0.703v-6.004c0-0.833-0.188-1.488-0.56-1.963C53.697,18.462,53.078,18.223,52.217,18.223z"/>
	<path fill="#FFFFFF" d="M62.427,26.247c0.388,0,0.666-0.034,0.833-0.099c0.168-0.066,0.352-0.101,0.55-0.101
		c0.196,0,0.375,0.073,0.537,0.22c0.16,0.146,0.24,0.365,0.24,0.657c0,0.293-0.146,0.505-0.438,0.636
		C63.521,27.854,62.983,28,62.538,28c-0.446,0-0.853-0.021-1.218-0.066c-0.364-0.043-0.717-0.166-1.053-0.371
		c-0.804-0.469-1.205-1.287-1.205-2.455v-6.795h-1.556c-0.278,0-0.418-0.139-0.418-0.417c0-0.132,0.065-0.255,0.198-0.373
		l2.979-2.915c0.133-0.132,0.256-0.197,0.373-0.197c0.116,0,0.216,0.045,0.296,0.132s0.12,0.189,0.12,0.307v1.753h2.479
		c0.248,0,0.452,0.08,0.612,0.241c0.16,0.163,0.241,0.366,0.241,0.614c0,0.25-0.081,0.453-0.241,0.612
		c-0.16,0.163-0.364,0.243-0.612,0.243h-2.479v6.621c0,0.555,0.169,0.935,0.505,1.141C61.751,26.188,62.04,26.247,62.427,26.247z"/>
</g>
</svg>
