<?xml version="1.0" encoding="utf-8"?>
<!-- Generator: Adobe Illustrator 16.0.0, SVG Export Plug-In . SVG Version: 6.00 Build 0)  -->
<!DOCTYPE svg PUBLIC "-//W3C//DTD SVG 1.1//EN" "http://www.w3.org/Graphics/SVG/1.1/DTD/svg11.dtd">
<svg version="1.1" id="Layer_1" xmlns="http://www.w3.org/2000/svg" xmlns:xlink="http://www.w3.org/1999/xlink" x="0px" y="0px"
	 width="40px" height="40px" viewBox="0 0 40 40" enable-background="new 0 0 40 40" xml:space="preserve">
<path fill-rule="evenodd" clip-rule="evenodd" fill="#347854" d="M10.001,0h20c2.842,0,10,0,10,0s0,7.32,0,10v20
	c0,5.523-4.477,10-10,10h-20c-3.025,0-10,0-10,0s0-7.502,0-10V10C0.001,4.477,4.478,0,10.001,0z" class="path"/>
<g>
	<g>
		<path fill="#FFFFFF" d="M14.512,26.175v4.116H25.49v-4.116v-2.743H14.512V26.175z M15.883,24.803h8.234v1.372h-8.234V24.803z
			 M15.883,27.547h8.234v1.373h-8.234V27.547z"/>
		<polygon fill="#FFFFFF" points="25.49,13.825 25.49,9.709 14.512,9.709 14.512,13.825 14.512,16.568 25.49,16.568 		"/>
		<path fill="#FFFFFF" d="M28.232,13.825h-1.371v2.743v1.374H13.139v-1.374v-2.743h-1.372c-1.372,0-2.744,1.372-2.744,2.743v6.864
			c0,1.37,1.372,2.742,2.744,2.742h1.372v-2.742v-1.375h13.722v1.375v2.742h1.373c1.373,0,2.744-1.372,2.744-2.742v-6.864
			C30.979,15.197,29.605,13.825,28.232,13.825z"/>
	</g>
</g>
</svg>
