<?xml version="1.0" encoding="utf-8"?>
<!-- Generator: Adobe Illustrator 16.0.0, SVG Export Plug-In . SVG Version: 6.00 Build 0)  -->
<!DOCTYPE svg PUBLIC "-//W3C//DTD SVG 1.1//EN" "http://www.w3.org/Graphics/SVG/1.1/DTD/svg11.dtd">
<svg version="1.1" id="Layer_1" xmlns="http://www.w3.org/2000/svg" xmlns:xlink="http://www.w3.org/1999/xlink" x="0px" y="0px"
	 width="92.005px" height="40px" viewBox="0 0 92.005 40" enable-background="new 0 0 92.005 40" xml:space="preserve">
<path class="path" fill="#347854" d="M92.005,37c0,1.657-1.343,3-3,3H3c-1.656,0-3-1.343-3-3V3c0-1.657,1.344-3,3-3h86.005c1.657,0,3,1.343,3,3
	V37z"/>
<path opacity="0.16" d="M0,33.195c0,1.657,1.344,3,3,3h86.005c1.657,0,3-1.343,3-3V37c0,1.657-1.343,3-3,3H3c-1.656,0-3-1.343-3-3
	V33.195z"/>
<g>
	<g>
		<path fill="#FFFFFF" d="M19.8,25.4V29h9.602v-3.6v-2.399H19.8V25.4z M20.999,24.2H28.2l-1.305,1.2h-5.903L20.999,24.2z
			 M20.999,26.601H28.2v1.2h-7.201V26.601z"/>
		<polygon fill="#FFFFFF" points="29.401,14.599 29.401,11 19.8,11 19.8,14.599 19.8,16.998 29.401,16.998 		"/>
		<path fill="#FFFFFF" d="M31.8,14.599h-1.199v2.399V18.2H18.599v-1.202v-2.399H17.4c-1.201,0-2.4,1.2-2.4,2.399v6.003
			c0,1.198,1.199,2.398,2.4,2.398h1.199v-2.398v-1.202h12.001v1.202v2.398h1.2c1.201,0,2.4-1.2,2.4-2.398v-6.003
			C34.201,15.799,33,14.599,31.8,14.599z"/>
	</g>
</g>
<g>
	<path fill="#FFFFFF" d="M44.201,14.132c0.743-0.124,1.717-0.23,2.955-0.23c1.522,0,2.638,0.354,3.346,0.991
		c0.655,0.566,1.044,1.434,1.044,2.496c0,1.079-0.318,1.929-0.92,2.549c-0.814,0.867-2.142,1.31-3.646,1.31
		c-0.46,0-0.885-0.018-1.239-0.107v4.779h-1.539V14.132z M45.74,19.884c0.337,0.089,0.762,0.124,1.274,0.124
		c1.858,0,2.991-0.902,2.991-2.549c0-1.575-1.114-2.336-2.813-2.336c-0.673,0-1.187,0.053-1.452,0.124V19.884z"/>
	<path fill="#FFFFFF" d="M53.281,20.026c0-1.009-0.018-1.876-0.07-2.672h1.362l0.054,1.681h0.07c0.39-1.15,1.328-1.876,2.372-1.876
		c0.177,0,0.301,0.018,0.442,0.053v1.469c-0.159-0.035-0.318-0.053-0.531-0.053c-1.098,0-1.876,0.831-2.088,2
		c-0.036,0.211-0.071,0.459-0.071,0.725v4.566h-1.54V20.026z"/>
	<path fill="#FFFFFF" d="M60.874,14.946c0.019,0.531-0.371,0.956-0.991,0.956c-0.549,0-0.938-0.425-0.938-0.956
		c0-0.549,0.407-0.974,0.974-0.974C60.503,13.973,60.874,14.397,60.874,14.946z M59.14,25.92v-8.566h1.558v8.566H59.14z"/>
	<path fill="#FFFFFF" d="M63.281,19.672c0-0.885-0.018-1.611-0.07-2.319h1.38l0.089,1.416h0.035c0.425-0.813,1.416-1.61,2.832-1.61
		c1.187,0,3.027,0.708,3.027,3.646v5.115h-1.558v-4.938c0-1.381-0.514-2.532-1.982-2.532c-1.027,0-1.823,0.726-2.089,1.594
		c-0.071,0.194-0.106,0.459-0.106,0.725v5.15h-1.558V19.672z"/>
	<path fill="#FFFFFF" d="M74.91,14.893v2.46h2.23v1.186h-2.23v4.621c0,1.061,0.301,1.662,1.169,1.662
		c0.407,0,0.708-0.053,0.902-0.105l0.071,1.168c-0.302,0.125-0.779,0.213-1.381,0.213c-0.726,0-1.311-0.23-1.682-0.654
		c-0.442-0.461-0.602-1.223-0.602-2.23V18.54h-1.328v-1.186h1.328V15.3L74.91,14.893z"/>
</g>
</svg>
