<?xml version="1.0" encoding="utf-8"?>
<!-- Generator: Adobe Illustrator 16.0.0, SVG Export Plug-In . SVG Version: 6.00 Build 0)  -->
<!DOCTYPE svg PUBLIC "-//W3C//DTD SVG 1.1//EN" "http://www.w3.org/Graphics/SVG/1.1/DTD/svg11.dtd">
<svg version="1.1" id="Layer_1" xmlns="http://www.w3.org/2000/svg" xmlns:xlink="http://www.w3.org/1999/xlink" x="0px" y="0px"
	 width="111.686px" height="90.001px" viewBox="-15.475 -10.001 111.686 90.001"
	 enable-background="new -15.475 -10.001 111.686 90.001" xml:space="preserve">
<path class="path" fill="#31774F" d="M96.211,76.998c0,1.658-1.342,3-3,3H-12.475c-1.656,0-3-1.342-3-3v-84c0-1.657,1.344-3,3-3H93.211
	c1.658,0,3,1.343,3,3V76.998z"/>
<path opacity="0.16" enable-background="new    " d="M-15.475,73.194c0,1.656,1.344,3,3,3H93.211c1.658,0,3-1.344,3-3V77
	c0,1.656-1.342,3-3,3H-12.475c-1.656,0-3-1.344-3-3V73.194z"/>
<g>
	<g>
		<g>
			<path fill="#FFFFFF" d="M32.9,24.4V30h14.938v-5.6v-3.731H32.9V24.4z M34.768,22.533h11.2L43.938,24.4h-9.183L34.768,22.533z
				 M34.768,26.268h11.2v1.865h-11.2V26.268z"/>
			<polygon fill="#FFFFFF" points="47.836,7.599 47.836,2 32.9,2 32.9,7.599 32.9,11.33 47.836,11.33 			"/>
			<path fill="#FFFFFF" d="M51.566,7.599h-1.861v3.73v1.87H31.034V11.33V7.599h-1.864c-1.869,0-3.733,1.865-3.733,3.73v9.338
				c0,1.863,1.864,3.729,3.733,3.729h1.864v-3.728v-1.872h18.667v1.87v3.729h1.865c1.867,0,3.732-1.865,3.732-3.729V11.33
				C55.303,9.463,53.434,7.599,51.566,7.599z"/>
		</g>
	</g>
	<g>
		<path fill="#FFFFFF" d="M15.722,65.829V47.934h6.751c1.188,0,2.095,0.059,2.722,0.172c0.879,0.146,1.615,0.426,2.21,0.836
			c0.594,0.41,1.071,0.986,1.434,1.728c0.362,0.741,0.543,1.556,0.543,2.44c0,1.522-0.483,2.811-1.452,3.863
			c-0.969,1.053-2.718,1.582-5.249,1.582h-4.59v7.274H15.722z M18.089,56.441h4.627c1.529,0,2.616-0.284,3.259-0.854
			c0.643-0.567,0.964-1.371,0.964-2.403c0-0.748-0.188-1.391-0.567-1.924c-0.378-0.531-0.877-0.885-1.495-1.056
			c-0.398-0.104-1.135-0.158-2.209-0.158H18.09L18.089,56.441L18.089,56.441z"/>
		<path fill="#FFFFFF" d="M32.091,65.829V52.865h1.977v1.966c0.505-0.92,0.971-1.526,1.398-1.819
			c0.427-0.293,0.896-0.438,1.41-0.438c0.74,0,1.493,0.235,2.258,0.708l-0.757,2.039c-0.537-0.318-1.074-0.478-1.611-0.478
			c-0.48,0-0.911,0.146-1.294,0.435c-0.383,0.289-0.655,0.688-0.818,1.201c-0.244,0.781-0.365,1.637-0.365,2.563v6.787H32.091z"/>
		<path fill="#FFFFFF" d="M40.454,50.46v-2.526h2.197v2.526H40.454z M40.454,65.829V52.865h2.197v12.964H40.454z"/>
		<path fill="#FFFFFF" d="M45.997,65.829V52.865h1.977v1.843c0.952-1.424,2.327-2.136,4.126-2.136c0.781,0,1.5,0.141,2.154,0.421
			s1.146,0.649,1.471,1.104c0.326,0.455,0.555,0.996,0.686,1.623c0.08,0.407,0.121,1.119,0.121,2.137v7.972h-2.197v-7.886
			c0-0.896-0.086-1.564-0.258-2.008c-0.17-0.444-0.475-0.799-0.908-1.063c-0.436-0.265-0.947-0.396-1.533-0.396
			c-0.936,0-1.742,0.297-2.422,0.892c-0.682,0.594-1.02,1.721-1.02,3.381v7.08H45.997z"/>
		<path fill="#FFFFFF" d="M64.695,63.864l0.318,1.94C64.395,65.936,63.842,66,63.354,66c-0.799,0-1.416-0.126-1.855-0.378
			s-0.748-0.584-0.928-0.995s-0.27-1.275-0.27-2.595v-7.458h-1.611v-1.709h1.611v-3.21l2.186-1.318v4.528h2.209v1.709h-2.209v7.581
			c0,0.627,0.039,1.028,0.115,1.208c0.078,0.179,0.203,0.32,0.379,0.427s0.426,0.159,0.752,0.159
			C63.977,63.949,64.297,63.921,64.695,63.864z"/>
	</g>
</g>
</svg>
