<?xml version="1.0" encoding="utf-8"?>
<!-- Generator: Adobe Illustrator 16.0.0, SVG Export Plug-In . SVG Version: 6.00 Build 0)  -->
<!DOCTYPE svg PUBLIC "-//W3C//DTD SVG 1.1//EN" "http://www.w3.org/Graphics/SVG/1.1/DTD/svg11.dtd">
<svg version="1.1" id="Layer_1" xmlns="http://www.w3.org/2000/svg" xmlns:xlink="http://www.w3.org/1999/xlink" x="0px" y="0px"
	 width="112px" height="90px" viewBox="-7.425 -10 112 90" enable-background="new -7.425 -10 112 90" xml:space="preserve">
<path fill="#FFFFFF" d="M-7.425,80V-5c0-2.761,2.239-5,5-5h102c2.762,0,5,2.239,5,5v85"/>
<rect x="-7.425" y="76" class="path" fill="#32754F" width="112" height="4"/>
<g>
	<g>
		<g>
			<path class="path" fill="#32754F" d="M41.107,24.4V30h14.938V24.4v-3.731H41.107V24.4z M42.974,22.533h11.2L52.145,24.4h-9.183L42.974,22.533z
				 M42.974,26.268h11.2v1.865h-11.2V26.268z"/>
			<polygon class="path" fill="#32754F" points="56.043,7.599 56.043,2 41.107,2 41.107,7.599 41.107,11.33 56.043,11.33 			"/>
			<path class="path" fill="#32754F" d="M59.773,7.599h-1.861v3.73v1.87H39.24V11.33V7.599h-1.864c-1.869,0-3.733,1.865-3.733,3.73v9.338
				c0,1.863,1.864,3.729,3.733,3.729h1.864v-3.727v-1.872h18.667v1.87v3.729h1.866c1.868,0,3.732-1.865,3.732-3.729V11.33
				C63.509,9.463,61.641,7.599,59.773,7.599z"/>
		</g>
	</g>
	<g>
		<path class="path" fill="#32754F" d="M23.928,65.829V47.934h6.751c1.188,0,2.095,0.058,2.722,0.171c0.879,0.146,1.615,0.426,2.21,0.836
			c0.594,0.411,1.071,0.987,1.434,1.728c0.362,0.741,0.543,1.555,0.543,2.441c0,1.522-0.483,2.81-1.452,3.863
			s-2.718,1.581-5.249,1.581h-4.59v7.275H23.928z M26.296,56.442h4.627c1.529,0,2.616-0.285,3.259-0.855
			c0.643-0.568,0.964-1.371,0.964-2.404c0-0.748-0.188-1.39-0.567-1.923c-0.378-0.532-0.877-0.885-1.495-1.056
			c-0.398-0.105-1.135-0.158-2.209-0.158h-4.578V56.442z"/>
		<path class="path" fill="#32754F" d="M40.298,65.829V52.865h1.977v1.966c0.505-0.92,0.971-1.526,1.398-1.819
			c0.427-0.293,0.896-0.439,1.41-0.439c0.74,0,1.493,0.236,2.258,0.708l-0.757,2.039c-0.537-0.318-1.074-0.477-1.611-0.477
			c-0.48,0-0.911,0.145-1.294,0.434s-0.655,0.689-0.818,1.202c-0.244,0.781-0.365,1.636-0.365,2.563v6.787H40.298z"/>
		<path class="path" fill="#32754F" d="M48.66,50.46v-2.526h2.197v2.526H48.66z M48.66,65.829V52.865h2.197v12.964H48.66z"/>
		<path class="path" fill="#32754F" d="M54.203,65.829V52.865h1.977v1.843c0.953-1.424,2.328-2.136,4.127-2.136c0.781,0,1.499,0.141,2.154,0.421
			c0.654,0.281,1.146,0.649,1.471,1.105c0.325,0.455,0.554,0.996,0.684,1.623c0.081,0.407,0.122,1.119,0.122,2.137v7.971H62.54
			v-7.886c0-0.896-0.085-1.564-0.257-2.008c-0.17-0.444-0.474-0.798-0.909-1.063s-0.946-0.396-1.532-0.396
			c-0.936,0-1.743,0.298-2.423,0.892S56.4,57.089,56.4,58.749v7.08H54.203z"/>
		<path class="path" fill="#32754F" d="M72.903,63.864l0.317,1.94C72.602,65.935,72.048,66,71.56,66c-0.798,0-1.416-0.126-1.855-0.378
			s-0.749-0.584-0.928-0.995s-0.269-1.276-0.269-2.595v-7.458h-1.611v-1.709h1.611v-3.21l2.185-1.318v4.528h2.21v1.709h-2.21v7.581
			c0,0.627,0.039,1.029,0.116,1.208s0.203,0.321,0.379,0.427c0.175,0.106,0.425,0.159,0.751,0.159
			C72.183,63.949,72.504,63.921,72.903,63.864z"/>
	</g>
</g>
</svg>
