<?xml version="1.0" encoding="utf-8"?>
<!-- Generator: Adobe Illustrator 16.0.0, SVG Export Plug-In . SVG Version: 6.00 Build 0)  -->
<!DOCTYPE svg PUBLIC "-//W3C//DTD SVG 1.1//EN" "http://www.w3.org/Graphics/SVG/1.1/DTD/svg11.dtd">
<svg version="1.1" id="Layer_1" xmlns="http://www.w3.org/2000/svg" xmlns:xlink="http://www.w3.org/1999/xlink" x="0px" y="0px"
	 width="40px" height="40px" viewBox="0 0 40 40" enable-background="new 0 0 40 40" xml:space="preserve">
<path class="path" fill="#36495D" d="M40,35c0,2.762-2.238,5-5,5H5c-2.762,0-5-2.238-5-5V5c0-2.761,2.238-5,5-5h30c2.762,0,5,2.239,5,5V35z"/>
<g>
	<path fill="#FFFFFF" d="M20.743,13.558V8.187h-3.467c-0.078,0.196-0.117,0.436-0.117,0.674c-0.037,0.117-0.079,0.201-0.079,0.318
		c-0.355,1.991-1.39,3.381-3.143,4.14c-0.52,0.24-0.998,0.276-1.512,0.24v4.33h2.548c0.041,6.093,0.041,9.236,0.041,9.394v0.361
		c0.32,2.657,1.71,4.252,4.178,4.852c0.993,0.275,2.065,0.398,3.142,0.398c1.391-0.043,2.744-0.281,4.098-0.718v-5.096
		c-0.791,0.237-1.512,0.438-2.147,0.637c-1.232,0.359-2.267,0.121-3.104-0.674c-0.08-0.121-0.197-0.28-0.238-0.44
		c-0.117-0.638-0.191-1.312-0.191-1.947v-6.768h5.523v-4.33H20.743z"/>
</g>
</svg>
