<?xml version="1.0" encoding="utf-8"?>
<!-- Generator: Adobe Illustrator 16.0.0, SVG Export Plug-In . SVG Version: 6.00 Build 0)  -->
<!DOCTYPE svg PUBLIC "-//W3C//DTD SVG 1.1//EN" "http://www.w3.org/Graphics/SVG/1.1/DTD/svg11.dtd">
<svg version="1.1" id="Layer_1" xmlns="http://www.w3.org/2000/svg" xmlns:xlink="http://www.w3.org/1999/xlink" x="0px" y="0px"
	 width="116.934px" height="40px" viewBox="9 0 116.934 40" enable-background="new 9 0 116.934 40" xml:space="preserve">
<path class="path" fill="#36495D" d="M125.932,35c0,2.762-2.237,5-5,5H14c-2.766,0-5-2.238-5-5V5c0-2.761,2.234-5,5-5h106.934
	c2.763,0,5,2.239,5,5L125.932,35L125.932,35z"/>
<g>
	<g>
		<g>
			<path fill="#FFFFFF" d="M81.027,27.875c-1.087,0-2.153-0.385-3.003-1.083l-0.123-0.082l-0.11,0.096l-0.408,0.92h-2.859V15.866
				c0-0.376-0.199-0.566-0.593-0.566h-0.946l0.05-2.196c1.688-0.237,3.79-0.979,3.812-0.986l1.159,0.007v5.441l0.204-0.167
				c0.73-0.596,1.703-0.967,2.603-0.994c0.117-0.006,0.229-0.008,0.34-0.008c1.8,0,3.107,0.724,3.888,2.151
				c0.68,1.243,0.78,2.695,0.78,3.449c0,3.396-1.531,5.526-4.2,5.842C81.413,27.864,81.217,27.875,81.027,27.875L81.027,27.875z
				 M80.001,18.945c-1.157,0.057-1.997,0.759-1.997,1.67v3.454c0.458,0.846,1.168,1.26,2.07,1.26l0.158-0.004
				c0.683-0.061,2.082-0.186,2.08-3.301c0-2.781-1.535-3.082-2.195-3.082L80.001,18.945z M42.982,27.871
				c-3.986,0-4.295-3.35-4.295-4.377v-6.947h3.557v6.749c0,0.593,0.099,1.009,0.311,1.308c0.265,0.374,0.696,0.556,1.317,0.556
				c2.327-0.034,2.353-1.928,2.353-1.947v-3.866c0-0.377-0.2-0.568-0.595-0.568h-0.868v-2.235h4.968v8.326
				c0,0.376,0.192,0.6,0.515,0.6c0.201,0.016,0.408,0.032,0.533,0.042v2.192h-4.001l-0.033-1.659l-0.216,0.271
				c-0.71,0.89-2.08,1.528-3.33,1.554L42.982,27.871z M34.86,27.866c-3.387,0-4.291-2.526-4.291-4.02v-4.929h-1.825v-2.051
				c2.394-0.869,2.983-3.026,3.121-4.244l2.182,0.001v3.921h2.951v2.401h-2.951v4.708c0,0.495,0.155,1.646,1.587,1.646
				c0.427-0.027,0.923-0.114,1.229-0.249l0.701,2.005c-0.313,0.355-1.516,0.785-2.596,0.811L34.86,27.866z M103.698,27.838
				c-1.162,0-2.108-0.924-2.108-2.06c0-1.134,0.946-2.056,2.108-2.056c0.573,0,1.11,0.222,1.512,0.624
				c0.388,0.388,0.601,0.896,0.6,1.432C105.809,26.914,104.862,27.838,103.698,27.838z M94.055,27.698V25.51
				c0.17-0.01,0.482-0.027,0.658-0.047c0.001,0,0.001,0,0.002,0c0.356,0,0.605-0.249,0.605-0.62v-5.496
				c0-0.387-0.18-0.568-0.566-0.568h-0.813v-2.234h4.203l0.394,1.15l0.142-0.135c0.786-0.754,1.906-1.204,2.994-1.204
				c1.16,0,2.429,0.555,2.508,2.113c0,0.911-0.728,1.885-2.075,1.885c-0.579,0-1.553-0.383-1.699-1.411l-0.02-0.134l-0.132,0.03
				c-0.954,0.217-1.479,1.025-1.479,2.276v3.729c0,0.353,0.228,0.585,0.608,0.62c0.174,0.02,0.489,0.038,0.661,0.047v2.188H94.055z
				 M86.512,27.698V25.51c0.185-0.009,0.537-0.026,0.716-0.047c0.001,0,0.001,0,0.002,0c0.356,0,0.604-0.25,0.604-0.621v-8.975
				c0-0.376-0.199-0.566-0.592-0.566h-0.896v-2.194c1.616-0.214,3.762-0.979,3.783-0.987l1.186,0.007v12.716
				c0,0.384,0.237,0.622,0.618,0.622c0.174,0.02,0.522,0.037,0.707,0.046v2.188H86.512z M67.127,27.693v-2.188
				c0.171-0.009,0.485-0.028,0.662-0.048c0.001,0,0.001,0,0.002,0c0.356,0,0.604-0.249,0.604-0.619v-3.897
				c0-1.253-0.573-1.862-1.753-1.862c-1.62,0-2.224,1.245-2.224,2.029v3.73c0,0.353,0.228,0.584,0.61,0.619
				c0.193,0.02,0.495,0.038,0.66,0.048v2.188h-5.99v-2.188c0.17-0.01,0.481-0.028,0.658-0.048c0,0,0.001,0,0.001,0
				c0.358,0,0.607-0.249,0.607-0.619v-3.897c0-0.867-0.193-1.862-1.698-1.862c-1.724,0-2.281,1.367-2.281,2.029v3.73
				c0,0.353,0.228,0.584,0.609,0.619c0.193,0.02,0.493,0.038,0.658,0.048v2.188h-5.99v-2.188c0.17-0.009,0.484-0.028,0.661-0.048
				c0,0,0.001,0,0.001,0c0.356,0,0.605-0.249,0.605-0.619v-5.495c0-0.377-0.2-0.568-0.594-0.568l-0.95-0.024v-2.238h4.398
				l0.127,1.717l0.201-0.277c0.651-0.901,1.915-1.521,3.219-1.578c0.101-0.004,0.199-0.006,0.296-0.006
				c1.552,0,2.716,0.56,3.461,1.664l0.2,0.198l0.196-0.245c0.653-0.905,1.916-1.524,3.221-1.583c0.101-0.004,0.2-0.007,0.296-0.007
				c1.496,0,2.695,0.53,3.469,1.532c0.742,0.976,0.802,2.109,0.802,3.489v3.452c0,0.358,0.229,0.59,0.586,0.59
				c0.193,0.019,0.492,0.037,0.657,0.047v2.188H67.127z"/>
			<path fill="#36495D" d="M77.879,12.25v5.053v0.526l0.408-0.333c0.71-0.579,1.654-0.94,2.531-0.967
				c0.113-0.005,0.224-0.008,0.332-0.008c1.75,0,3.021,0.702,3.778,2.086c0.666,1.219,0.765,2.646,0.765,3.389
				c0,3.375-1.452,5.405-4.091,5.718c-0.192,0.023-0.386,0.035-0.576,0.035c-1.058,0-2.096-0.374-2.923-1.055
				c-0.031-0.025-0.052-0.041-0.062-0.047l-0.246-0.164l-0.12,0.271l-0.375,0.846h-2.653V15.866c0-0.446-0.255-0.691-0.718-0.691
				h-0.818l0.044-1.962c1.566-0.236,3.387-0.857,3.69-0.963H77.879 M80.074,25.454c0.059,0,0.113-0.002,0.18-0.005
				c0.653-0.059,2.186-0.195,2.184-3.425c0-1.061-0.227-1.88-0.673-2.437c-0.404-0.503-0.974-0.77-1.647-0.77
				c-0.04,0-0.081,0.001-0.123,0.003c-1.226,0.06-2.115,0.814-2.115,1.794v1.852v1.603v0.065l0.032,0.058
				C78.376,25.018,79.124,25.454,80.074,25.454 M91.19,12.251v12.591c0,0.453,0.29,0.746,0.713,0.746c0.001,0,0.002,0,0.003,0
				c0.151,0.016,0.416,0.031,0.609,0.04v1.945h-5.878v-1.945c0.19-0.009,0.446-0.023,0.577-0.039c0.438,0,0.745-0.308,0.745-0.747
				v-8.975c0-0.446-0.255-0.691-0.717-0.691h-0.771v-1.96c1.505-0.218,3.352-0.855,3.659-0.964H91.19 M33.922,12.749v3.671v0.25
				h0.25h2.701v2.151h-2.701h-0.25v0.25v4.583c0,1.108,0.64,1.771,1.712,1.771l0.073-0.002c0.267-0.019,0.729-0.081,1.081-0.208
				l0.632,1.809c-0.332,0.295-1.401,0.693-2.453,0.718l-0.107,0.001c-3.075,0-4.166-2.098-4.166-3.895v-4.804v-0.25h-0.25h-1.575
				v-1.839c2.302-0.878,2.936-2.929,3.105-4.205H33.922 M101.673,16.48c1.104,0,2.309,0.524,2.383,1.982
				c0,0.856-0.684,1.766-1.95,1.766c-0.36,0-1.424-0.24-1.576-1.304l-0.038-0.269l-0.265,0.061
				c-1.017,0.231-1.576,1.083-1.576,2.397v3.729c0,0.418,0.276,0.703,0.718,0.744c0.142,0.017,0.375,0.031,0.552,0.041v1.945h-5.74
				v-1.945c0.171-0.01,0.394-0.024,0.52-0.039c0.439,0,0.746-0.307,0.746-0.746v-5.496c0-0.46-0.232-0.693-0.691-0.693h-0.688
				v-1.984h3.989l0.301,0.88l0.126,0.371l0.283-0.271C99.53,16.917,100.616,16.48,101.673,16.48 M60.229,16.494L60.229,16.494
				c1.507,0,2.637,0.541,3.357,1.608l0.014,0.021l0.019,0.018l0.085,0.083l0.197,0.192l0.172-0.215l0.118-0.147
				c0.628-0.87,1.853-1.469,3.122-1.526c0.099-0.004,0.195-0.007,0.291-0.007c1.456,0,2.621,0.513,3.368,1.482
				c0.72,0.945,0.777,2.058,0.777,3.414v3.452c0,0.427,0.284,0.714,0.695,0.714c0.001,0,0.002,0,0.003,0
				c0.154,0.015,0.377,0.03,0.545,0.041v1.944h-5.74v-1.944c0.172-0.01,0.396-0.025,0.523-0.04c0.438,0,0.745-0.307,0.745-0.745
				v-3.897c0-1.319-0.632-1.987-1.878-1.987c-1.711,0-2.349,1.321-2.349,2.154v3.73c0,0.417,0.277,0.702,0.723,0.744
				c0.155,0.015,0.379,0.03,0.548,0.041v1.944h-5.74v-1.944c0.171-0.011,0.393-0.025,0.52-0.04c0.44,0,0.747-0.307,0.747-0.745
				v-3.897c0-0.853-0.189-1.987-1.823-1.987c-1.818,0-2.406,1.451-2.406,2.154v3.73c0,0.417,0.277,0.702,0.721,0.744
				c0.155,0.015,0.378,0.03,0.546,0.041v1.944h-5.74v-1.944c0.172-0.011,0.395-0.025,0.522-0.04c0.438,0,0.745-0.307,0.745-0.745
				v-5.495c0-0.447-0.255-0.693-0.712-0.693l0,0l-0.832-0.021v-1.992h4.157l0.093,1.26l0.051,0.683l0.401-0.555
				c0.63-0.871,1.855-1.47,3.123-1.526C60.037,16.496,60.134,16.494,60.229,16.494 M49.605,16.668v8.201
				c0,0.44,0.251,0.725,0.64,0.725c0.024,0,0.049-0.001,0.027-0.003c0.128,0.013,0.267,0.024,0.38,0.034v1.953h-3.754l-0.023-1.19
				l-0.014-0.691l-0.432,0.54c-0.678,0.849-2.038,1.482-3.237,1.507c-0.071,0.002-0.142,0.003-0.211,0.003
				c-3.87,0-4.17-3.255-4.17-4.252v-6.822h3.307v6.624c0,0.854,0.182,1.988,1.753,1.988l0.074-0.001
				c1.972-0.028,2.404-1.505,2.404-2.071v-3.866c0-0.447-0.255-0.693-0.72-0.693h-0.743v-1.985H49.605 M103.698,23.848
				c0.54,0,1.045,0.208,1.423,0.587c0.364,0.364,0.564,0.842,0.563,1.344c0,1.066-0.891,1.935-1.986,1.935
				c-1.112,0-1.983-0.85-1.983-1.935C101.714,24.714,102.604,23.848,103.698,23.848 M78.129,12h-1.326c0,0-2.181,0.774-3.893,0.995
				l-0.055,2.43h1.074c0.329,0,0.468,0.137,0.468,0.441v11.984h3.065l0.441-0.994C77.981,26.907,79.143,28,81.027,28
				c0.194,0,0.396-0.012,0.606-0.037c2.816-0.333,4.311-2.569,4.311-5.966c0.001-1.723-0.524-5.725-4.793-5.725
				c-0.112,0-0.227,0.002-0.344,0.008c-0.938,0.028-1.933,0.415-2.678,1.022V12L78.129,12z M80.074,25.204
				c-0.544,0-1.393-0.154-1.945-1.135v-1.603v-1.852c0-0.8,0.742-1.489,1.878-1.545c0.037-0.002,0.074-0.002,0.11-0.002
				c1.112,0,2.07,0.817,2.07,2.957c0.002,3.009-1.324,3.119-1.961,3.176C80.179,25.202,80.128,25.204,80.074,25.204L80.074,25.204z
				 M91.44,12.001h-1.353c0,0-2.234,0.801-3.866,0.995v2.43h1.021c0.329,0,0.467,0.138,0.467,0.441v8.975
				c0,0.302-0.19,0.497-0.495,0.497c-0.247,0.027-0.827,0.051-0.827,0.051v2.434h6.378V25.39c0,0-0.579-0.023-0.832-0.051
				c-0.301,0-0.493-0.166-0.493-0.497V12.001L91.44,12.001z M34.172,12.499h-2.32c-0.027,0-0.11,0.027-0.11,0.11
				c-0.138,1.215-0.719,3.342-3.122,4.169v2.265h1.825v4.804c0,1.722,1.051,4.145,4.416,4.145c0.037,0,0.074,0,0.111-0.001
				c1.158-0.027,2.457-0.498,2.733-0.913l-0.771-2.205c-0.251,0.161-0.83,0.271-1.244,0.301c-0.019,0-0.037,0.001-0.055,0.001
				c-1.224,0-1.462-0.896-1.462-1.521V19.07h2.951v-2.651h-2.951V12.499L34.172,12.499z M101.673,16.23
				c-1.063,0-2.236,0.429-3.081,1.239l-0.358-1.049h-4.418v2.484h0.938c0.332,0,0.441,0.139,0.441,0.443v5.496
				c0,0.302-0.192,0.496-0.496,0.496c-0.248,0.027-0.77,0.052-0.77,0.052v2.433h6.24v-2.433c0,0-0.528-0.024-0.774-0.052
				c-0.303-0.028-0.495-0.194-0.495-0.496v-3.729c0-0.689,0.165-1.877,1.382-2.154c0.166,1.16,1.271,1.519,1.823,1.519
				c1.426,0,2.2-1.05,2.2-2.016C104.229,16.939,103.041,16.23,101.673,16.23L101.673,16.23z M60.229,16.244
				c-0.099,0-0.199,0.002-0.302,0.006c-1.243,0.055-2.596,0.636-3.314,1.63l-0.11-1.492h-4.64v2.485l1.075,0.027
				c0.331,0,0.469,0.138,0.469,0.443v5.495c0,0.302-0.192,0.495-0.495,0.495c-0.25,0.027-0.772,0.054-0.772,0.054v2.431h6.24v-2.431
				c0,0-0.496-0.026-0.771-0.054c-0.304-0.028-0.496-0.193-0.496-0.495v-3.73c0-0.604,0.526-1.904,2.156-1.904
				c1.322,0,1.573,0.801,1.573,1.737v3.897c0,0.302-0.194,0.495-0.497,0.495c-0.249,0.027-0.77,0.054-0.77,0.054v2.431h6.24v-2.431
				c0,0-0.497-0.026-0.773-0.054c-0.304-0.028-0.497-0.193-0.497-0.495v-3.73c0-0.604,0.47-1.904,2.099-1.904
				c1.325,0,1.628,0.801,1.628,1.737v3.897c0,0.302-0.193,0.495-0.495,0.495c-0.249,0.027-0.773,0.054-0.773,0.054v2.431h6.24
				v-2.431c0,0-0.494-0.026-0.771-0.054c-0.004,0-0.008,0-0.012,0c-0.272,0-0.461-0.165-0.461-0.465v-3.452
				c0-1.246-0.027-2.514-0.828-3.565c-0.704-0.914-1.856-1.581-3.567-1.581c-0.099,0-0.199,0.002-0.302,0.007
				c-1.242,0.056-2.597,0.636-3.313,1.629l-0.11,0.138l-0.085-0.083C63.088,16.917,61.962,16.244,60.229,16.244L60.229,16.244z
				 M49.855,16.418h-5.218v2.485h0.993c0.329,0,0.47,0.138,0.47,0.443v3.866c0,0.386-0.279,1.794-2.157,1.821
				c-0.024,0.001-0.047,0.001-0.071,0.001c-1.236,0-1.503-0.761-1.503-1.738v-6.874h-3.807v7.072c0,1.756,0.796,4.502,4.42,4.502
				c0.072,0,0.145-0.001,0.218-0.003c1.243-0.025,2.677-0.664,3.425-1.601l0.028,1.436h4.249v-2.434c0,0-0.33-0.025-0.605-0.053
				c-0.018,0.002-0.035,0.002-0.052,0.002c-0.246,0-0.39-0.165-0.39-0.475V16.418L49.855,16.418z M103.698,23.598
				c-1.242,0-2.233,0.996-2.233,2.181c0,1.216,0.994,2.185,2.233,2.185c1.246,0,2.236-0.996,2.236-2.185
				C105.936,24.594,104.943,23.598,103.698,23.598L103.698,23.598z"/>
		</g>
	</g>
</g>
</svg>
