<?xml version="1.0" encoding="utf-8"?>
<!-- Generator: Adobe Illustrator 16.0.0, SVG Export Plug-In . SVG Version: 6.00 Build 0)  -->
<!DOCTYPE svg PUBLIC "-//W3C//DTD SVG 1.1//EN" "http://www.w3.org/Graphics/SVG/1.1/DTD/svg11.dtd">
<svg version="1.1" id="Layer_1" xmlns="http://www.w3.org/2000/svg" xmlns:xlink="http://www.w3.org/1999/xlink" x="0px" y="0px"
	 width="134.555px" height="40px" viewBox="0 0 134.555 40" enable-background="new 0 0 134.555 40" xml:space="preserve">
<path class="path" fill="#36495D" d="M134.553,35c0,2.762-2.237,5-5,5H5.001c-2.764,0-5-2.238-5-5V5c0-2.761,2.236-5,5-5h124.554
	c2.763,0,5,2.239,5,5L134.553,35L134.553,35z"/>
<g>
	<path fill="#FFFFFF" d="M68.592,13.018V7.646h-3.466c-0.078,0.196-0.117,0.436-0.117,0.674c-0.037,0.117-0.08,0.201-0.08,0.318
		c-0.354,1.991-1.389,3.381-3.143,4.14c-0.521,0.24-0.996,0.276-1.513,0.24v4.33h2.55c0.041,6.093,0.041,9.235,0.041,9.394v0.361
		c0.317,2.657,1.709,4.252,4.178,4.852c0.992,0.275,2.064,0.398,3.142,0.398c1.392-0.043,2.744-0.281,4.099-0.718V26.54
		c-0.791,0.237-1.513,0.438-2.148,0.637c-1.232,0.359-2.268,0.121-3.105-0.674c-0.079-0.121-0.196-0.28-0.237-0.44
		c-0.117-0.638-0.191-1.312-0.191-1.947v-6.768h5.523v-4.33L68.592,13.018L68.592,13.018z"/>
</g>
</svg>
