<?xml version="1.0" encoding="utf-8"?>
<!-- Generator: Adobe Illustrator 16.0.0, SVG Export Plug-In . SVG Version: 6.00 Build 0)  -->
<!DOCTYPE svg PUBLIC "-//W3C//DTD SVG 1.1//EN" "http://www.w3.org/Graphics/SVG/1.1/DTD/svg11.dtd">
<svg version="1.1" id="Layer_1" xmlns="http://www.w3.org/2000/svg" xmlns:xlink="http://www.w3.org/1999/xlink" x="0px" y="0px"
	 width="102.5px" height="40px" viewBox="0 0 102.5 40" enable-background="new 0 0 102.5 40" xml:space="preserve">
<g>
	<path class="path" fill="#36495D" d="M100.5,2v36H2V2H100.5 M102.5,0H0v40h102.5V0L102.5,0z"/>
</g>
<g>
	<path class="path" fill="#36495D" d="M38.811,15.566h-3.629v-1.31h8.832v1.31h-3.646v10.62h-1.557V15.566z"/>
	<path class="path" fill="#36495D" d="M51.66,23.85c0,0.885,0.018,1.664,0.07,2.336h-1.38l-0.088-1.396h-0.035
		c-0.407,0.689-1.311,1.594-2.832,1.594c-1.346,0-2.956-0.742-2.956-3.752v-5.01h1.558v4.744c0,1.629,0.495,2.725,1.911,2.725
		c1.045,0,1.771-0.725,2.054-1.416c0.088-0.229,0.142-0.512,0.142-0.795V17.62h1.558v6.229H51.66L51.66,23.85z"/>
	<path class="path" fill="#36495D" d="M54.245,19.938c0-0.885-0.019-1.611-0.07-2.319h1.361L55.607,19h0.054c0.479-0.814,1.272-1.575,2.688-1.575
		c1.168,0,2.055,0.708,2.426,1.717h0.035c0.267-0.478,0.603-0.85,0.955-1.115c0.514-0.39,1.08-0.602,1.896-0.602
		c1.133,0,2.813,0.744,2.813,3.718v5.043h-1.521v-4.849c0-1.647-0.604-2.638-1.857-2.638c-0.887,0-1.576,0.655-1.842,1.416
		c-0.07,0.213-0.125,0.496-0.125,0.779v5.291h-1.521v-5.131c0-1.366-0.602-2.355-1.787-2.355c-0.975,0-1.682,0.779-1.93,1.558
		c-0.09,0.23-0.123,0.496-0.123,0.761v5.168h-1.522V19.938L54.245,19.938z"/>
	<path class="path" fill="#36495D" d="M68.938,26.186c0.035-0.584,0.068-1.451,0.068-2.213V13.619h1.541V19h0.035
		c0.549-0.956,1.539-1.575,2.92-1.575c2.125,0,3.629,1.771,3.609,4.373c0,3.063-1.928,4.584-3.84,4.584
		c-1.238,0-2.229-0.479-2.867-1.61h-0.053l-0.07,1.416h-1.346v-0.002H68.938z M70.547,22.752c0,0.195,0.035,0.391,0.07,0.566
		c0.301,1.08,1.203,1.824,2.336,1.824c1.629,0,2.604-1.328,2.604-3.293c0-1.719-0.887-3.188-2.551-3.188
		c-1.063,0-2.053,0.726-2.371,1.911c-0.035,0.178-0.088,0.391-0.088,0.639V22.752z"/>
	<path class="path" fill="#36495D" d="M79.077,13.619h1.56v12.566h-1.56V13.619z"/>
	<path class="path" fill="#36495D" d="M83.254,20.292c0-1.009-0.018-1.876-0.068-2.672h1.361l0.055,1.681h0.068
		c0.391-1.15,1.328-1.876,2.373-1.876c0.178,0,0.301,0.018,0.441,0.053v1.469c-0.158-0.035-0.318-0.053-0.531-0.053
		c-1.098,0-1.875,0.831-2.088,2c-0.035,0.211-0.07,0.459-0.07,0.725v4.566h-1.541V20.292z"/>
</g>
<g>
	<path class="path" fill="#36495D" d="M21.059,14.913V11h-2.525c-0.056,0.143-0.084,0.317-0.084,0.491c-0.027,0.085-0.058,0.146-0.058,0.232
		c-0.259,1.45-1.013,2.463-2.29,3.015c-0.379,0.175-0.727,0.202-1.102,0.175v3.155h1.856c0.03,4.439,0.03,6.729,0.03,6.845v0.263
		c0.233,1.934,1.247,3.098,3.044,3.535c0.725,0.2,1.506,0.29,2.289,0.29c1.014-0.03,1.999-0.205,2.985-0.526v-3.709
		c-0.576,0.172-1.102,0.318-1.563,0.463c-0.897,0.264-1.655,0.088-2.263-0.489c-0.058-0.089-0.143-0.203-0.173-0.319
		c-0.083-0.466-0.138-0.957-0.138-1.417V18.07h4.022v-3.154L21.059,14.913L21.059,14.913z"/>
</g>
</svg>
