<?xml version="1.0" encoding="utf-8"?>
<!-- Generator: Adobe Illustrator 16.0.0, SVG Export Plug-In . SVG Version: 6.00 Build 0)  -->
<!DOCTYPE svg PUBLIC "-//W3C//DTD SVG 1.1//EN" "http://www.w3.org/Graphics/SVG/1.1/DTD/svg11.dtd">
<svg version="1.1" id="Layer_1" xmlns="http://www.w3.org/2000/svg" xmlns:xlink="http://www.w3.org/1999/xlink" x="0px" y="0px"
	 width="122.5px" height="90px" viewBox="-8.219 -10 122.5 90" enable-background="new -8.219 -10 122.5 90" xml:space="preserve">
<path fill="#FFFFFF" d="M-8.219,80V-5c0-2.761,2.238-5,5-5h112.5c2.762,0,5,2.239,5,5v85"/>
<rect x="-8.219" y="76" class="path" fill="#35495B" width="122.5" height="4"/>
<g>
	<g>
		<path class="path" fill="#35495B" d="M54.519,8.087V2h-3.925c-0.088,0.223-0.13,0.492-0.13,0.764c-0.043,0.132-0.092,0.227-0.092,0.36
			c-0.403,2.255-1.576,3.831-3.563,4.69c-0.589,0.273-1.132,0.313-1.714,0.273v4.907h2.887c0.047,6.903,0.047,10.466,0.047,10.648
			v0.407c0.36,3.009,1.939,4.819,4.73,5.499C53.889,29.859,55.103,30,56.32,30c1.577-0.047,3.111-0.318,4.646-0.818v-5.77
			c-0.896,0.268-1.717,0.494-2.434,0.721c-1.394,0.414-2.572,0.137-3.519-0.759c-0.091-0.141-0.225-0.315-0.27-0.495
			c-0.128-0.725-0.216-1.489-0.216-2.204v-7.678h6.256V8.091L54.519,8.087L54.519,8.087z"/>
	</g>
	<g>
		<path class="path" fill="#35495B" d="M20.622,66V50.217h-5.896v-2.112H28.91v2.112h-5.921V66H20.622z"/>
		<path class="path" fill="#35495B" d="M38.627,66v-1.904c-1.01,1.465-2.381,2.197-4.114,2.197c-0.765,0-1.479-0.146-2.143-0.439
			s-1.155-0.661-1.477-1.104c-0.322-0.444-0.548-0.987-0.678-1.63c-0.09-0.432-0.134-1.115-0.134-2.051v-8.032h2.197v7.19
			c0,1.146,0.044,1.92,0.134,2.318c0.139,0.578,0.432,1.032,0.879,1.361c0.447,0.33,1.001,0.494,1.66,0.494s1.277-0.168,1.855-0.506
			s0.986-0.798,1.227-1.38c0.24-0.581,0.36-1.426,0.36-2.532v-6.946h2.197V66H38.627z"/>
		<path class="path" fill="#35495B" d="M44.034,66V53.036H46v1.819c0.407-0.635,0.948-1.146,1.624-1.532c0.675-0.387,1.444-0.58,2.307-0.58
			c0.96,0,1.748,0.2,2.363,0.599c0.614,0.398,1.048,0.956,1.3,1.672c1.025-1.514,2.36-2.271,4.004-2.271
			c1.286,0,2.274,0.356,2.967,1.068c0.691,0.712,1.037,1.809,1.037,3.29V66h-2.186v-8.166c0-0.879-0.071-1.512-0.213-1.898
			c-0.143-0.387-0.401-0.697-0.775-0.934s-0.813-0.354-1.318-0.354c-0.911,0-1.668,0.304-2.271,0.909
			c-0.603,0.606-0.903,1.577-0.903,2.912V66h-2.197v-8.423c0-0.977-0.179-1.709-0.537-2.197s-0.944-0.732-1.758-0.732
			c-0.618,0-1.19,0.163-1.715,0.488c-0.525,0.325-0.905,0.802-1.142,1.429s-0.354,1.529-0.354,2.709V66H44.034z"/>
		<path class="path" fill="#35495B" d="M66.886,66h-2.038V48.104h2.197v6.384c0.928-1.163,2.112-1.745,3.552-1.745
			c0.798,0,1.553,0.161,2.265,0.482s1.298,0.772,1.758,1.354s0.82,1.284,1.081,2.105c0.26,0.822,0.391,1.701,0.391,2.637
			c0,2.223-0.55,3.939-1.648,5.152s-2.417,1.818-3.955,1.818c-1.53,0-2.73-0.639-3.602-1.916V66z M66.862,59.42
			c0,1.555,0.211,2.678,0.635,3.369c0.691,1.132,1.627,1.697,2.807,1.697c0.961,0,1.791-0.417,2.49-1.251
			c0.7-0.835,1.051-2.077,1.051-3.729c0-1.692-0.336-2.941-1.008-3.748c-0.671-0.805-1.482-1.208-2.436-1.208
			c-0.96,0-1.79,0.417-2.49,1.251C67.212,56.635,66.862,57.842,66.862,59.42z"/>
		<path class="path" fill="#35495B" d="M78.716,66V48.104h2.197V66H78.716z"/>
		<path class="path" fill="#35495B" d="M84.294,66V53.036h1.977v1.966c0.505-0.92,0.971-1.526,1.398-1.819c0.427-0.293,0.896-0.439,1.41-0.439
			c0.74,0,1.493,0.236,2.258,0.708L90.58,55.49c-0.537-0.318-1.074-0.477-1.611-0.477c-0.48,0-0.911,0.145-1.294,0.434
			s-0.655,0.689-0.818,1.202c-0.244,0.781-0.365,1.636-0.365,2.563V66H84.294z"/>
	</g>
</g>
</svg>
