<?xml version="1.0" encoding="utf-8"?>
<!-- Generator: Adobe Illustrator 16.0.0, SVG Export Plug-In . SVG Version: 6.00 Build 0)  -->
<!DOCTYPE svg PUBLIC "-//W3C//DTD SVG 1.1//EN" "http://www.w3.org/Graphics/SVG/1.1/DTD/svg11.dtd">
<svg version="1.1" id="Layer_1" xmlns="http://www.w3.org/2000/svg" xmlns:xlink="http://www.w3.org/1999/xlink" x="0px" y="0px"
	 width="122.5px" height="90px" viewBox="-8.609 -10 122.5 90" enable-background="new -8.609 -10 122.5 90" xml:space="preserve">
<path class="path" fill="#34485B" d="M113.891,77c0,1.656-1.342,3-3,3h-116.5c-1.656,0-3-1.344-3-3V-7c0-1.657,1.344-3,3-3h116.5
	c1.658,0,3,1.343,3,3V77L113.891,77z"/>
<path opacity="0.16" enable-background="new    " d="M-8.609,73.195c0,1.656,1.344,3,3,3h116.5c1.658,0,3-1.344,3-3V77
	c0,1.656-1.342,3-3,3h-116.5c-1.656,0-3-1.344-3-3V73.195z"/>
<g>
	<g>
		<path fill="#FFFFFF" d="M54.129,8.087V2h-3.925c-0.088,0.223-0.13,0.492-0.13,0.764c-0.043,0.132-0.092,0.227-0.092,0.36
			c-0.403,2.255-1.576,3.831-3.563,4.69c-0.589,0.273-1.132,0.313-1.714,0.273v4.907h2.887c0.047,6.903,0.047,10.466,0.047,10.648
			v0.407c0.36,3.01,1.939,4.819,4.73,5.499C53.498,29.859,54.713,30,55.93,30c1.576-0.047,3.111-0.318,4.646-0.818v-5.77
			c-0.896,0.268-1.717,0.494-2.434,0.721c-1.394,0.414-2.572,0.137-3.519-0.759c-0.092-0.141-0.226-0.315-0.271-0.495
			c-0.128-0.725-0.216-1.489-0.216-2.204v-7.678h6.256V8.091L54.129,8.087L54.129,8.087z"/>
	</g>
	<g>
		<path fill="#FFFFFF" d="M20.231,66V50.217h-5.896v-2.111H28.52v2.111h-5.921V66H20.231z"/>
		<path fill="#FFFFFF" d="M38.236,66v-1.904c-1.01,1.465-2.381,2.197-4.114,2.197c-0.765,0-1.479-0.146-2.143-0.439
			s-1.155-0.66-1.477-1.104c-0.322-0.443-0.548-0.986-0.678-1.63c-0.09-0.433-0.134-1.115-0.134-2.052v-8.031h2.197v7.189
			c0,1.146,0.044,1.92,0.134,2.318c0.139,0.578,0.432,1.032,0.879,1.361c0.447,0.33,1.001,0.494,1.66,0.494
			c0.659,0,1.277-0.168,1.855-0.506c0.578-0.338,0.986-0.799,1.227-1.381c0.24-0.58,0.36-1.426,0.36-2.531v-6.946h2.197V66H38.236z"
			/>
		<path fill="#FFFFFF" d="M43.644,66V53.036h1.966v1.819c0.407-0.636,0.948-1.146,1.624-1.532c0.675-0.388,1.444-0.58,2.307-0.58
			c0.959,0,1.749,0.2,2.363,0.599s1.048,0.956,1.3,1.672c1.025-1.514,2.36-2.271,4.004-2.271c1.286,0,2.274,0.356,2.967,1.067
			c0.691,0.713,1.037,1.81,1.037,3.291V66h-2.186v-8.166c0-0.879-0.07-1.512-0.213-1.898s-0.401-0.696-0.775-0.934
			c-0.373-0.236-0.813-0.354-1.318-0.354c-0.91,0-1.668,0.304-2.271,0.908c-0.603,0.606-0.903,1.577-0.903,2.912V66h-2.197v-8.423
			c0-0.978-0.178-1.709-0.536-2.197c-0.358-0.487-0.944-0.731-1.758-0.731c-0.618,0-1.19,0.162-1.715,0.487
			s-0.905,0.802-1.142,1.429c-0.237,0.627-0.354,1.529-0.354,2.709V66H43.644z"/>
		<path fill="#FFFFFF" d="M66.496,66h-2.039V48.104h2.197v6.385c0.928-1.163,2.112-1.745,3.553-1.745
			c0.797,0,1.553,0.161,2.264,0.481c0.713,0.321,1.299,0.772,1.759,1.354s0.819,1.284,1.081,2.104
			c0.26,0.822,0.391,1.701,0.391,2.637c0,2.224-0.55,3.939-1.648,5.152c-1.098,1.213-2.416,1.818-3.955,1.818
			c-1.529,0-2.729-0.639-3.602-1.916V66L66.496,66z M66.471,59.42c0,1.555,0.212,2.678,0.636,3.369
			c0.69,1.132,1.627,1.697,2.808,1.697c0.961,0,1.791-0.418,2.489-1.252c0.7-0.834,1.052-2.076,1.052-3.729
			c0-1.691-0.337-2.941-1.009-3.748c-0.671-0.805-1.481-1.208-2.437-1.208c-0.959,0-1.789,0.417-2.489,1.251
			C66.821,56.635,66.471,57.842,66.471,59.42z"/>
		<path fill="#FFFFFF" d="M78.325,66V48.104h2.197V66H78.325z"/>
		<path fill="#FFFFFF" d="M83.903,66V53.036h1.978v1.966c0.504-0.92,0.971-1.525,1.397-1.818s0.896-0.439,1.41-0.439
			c0.739,0,1.493,0.236,2.258,0.708l-0.757,2.038c-0.537-0.318-1.074-0.477-1.611-0.477c-0.48,0-0.91,0.145-1.294,0.434
			c-0.383,0.289-0.655,0.688-0.817,1.201c-0.244,0.781-0.365,1.637-0.365,2.563V66H83.903z"/>
	</g>
</g>
</svg>
