<?xml version="1.0" encoding="utf-8"?>
<!-- Generator: Adobe Illustrator 16.0.0, SVG Export Plug-In . SVG Version: 6.00 Build 0)  -->
<!DOCTYPE svg PUBLIC "-//W3C//DTD SVG 1.1//EN" "http://www.w3.org/Graphics/SVG/1.1/DTD/svg11.dtd">
<svg version="1.1" id="Layer_1" xmlns="http://www.w3.org/2000/svg" xmlns:xlink="http://www.w3.org/1999/xlink" x="0px" y="0px"
	 width="40px" height="40px" viewBox="0 0 40 40" enable-background="new 0 0 40 40" xml:space="preserve">
<path class="path" fill-rule="evenodd" clip-rule="evenodd" fill="#EB512E" d="M10,0.001h20c2.842,0,10,0,10,0s0,7.32,0,10v20
	c0,5.523-4.477,10-10,10H10c-3.025,0-10,0-10,0s0-7.502,0-10v-20C0,4.478,4.477,0.001,10,0.001z"/>
<g>
	<path fill="#FFFFFF" d="M12.963,29.807c3.142,0,5.689-2.547,5.689-5.688v-8.234c0-0.745,0.604-1.347,1.349-1.347
		c0.744,0,1.347,0.602,1.347,1.347v1.646l1.953,0.824l2.391-0.824v-1.646c0-3.143-2.547-5.69-5.688-5.69
		c-3.142,0-5.69,2.547-5.69,5.69v8.088c0,0.742-0.604,1.348-1.348,1.348c-0.745,0-1.348-0.604-1.348-1.348v-3.596H7.273v3.742
		C7.273,27.26,9.819,29.807,12.963,29.807z"/>
	<path fill="#FFFFFF" d="M25.689,20.45l-2.391,0.823l-1.951-0.823v3.667c0,3.143,2.547,5.689,5.688,5.689
		c3.145,0,5.688-2.549,5.688-5.689v-3.592h-4.341v3.592c0,0.744-0.604,1.348-1.349,1.348c-0.745,0-1.348-0.604-1.348-1.348V20.45
		H25.689z"/>
</g>
</svg>
