<?xml version="1.0" encoding="utf-8"?>
<!-- Generator: Adobe Illustrator 16.0.0, SVG Export Plug-In . SVG Version: 6.00 Build 0)  -->
<!DOCTYPE svg PUBLIC "-//W3C//DTD SVG 1.1//EN" "http://www.w3.org/Graphics/SVG/1.1/DTD/svg11.dtd">
<svg version="1.1" id="Layer_1" xmlns="http://www.w3.org/2000/svg" xmlns:xlink="http://www.w3.org/1999/xlink" x="0px" y="0px"
	 width="183px" height="90px" viewBox="-11.615 -10 183 90" enable-background="new -11.615 -10 183 90" xml:space="preserve">
<path fill="#FFFFFF" d="M-11.615,80V-5c0-2.761,2.239-5,5-5h173c2.762,0,5,2.239,5,5v85"/>
<rect x="-11.615" y="76" class="path" fill="#EA482D" width="183" height="4"/>
<g>
	<g>
		<path class="path" fill="#EA482D" d="M69.844,29.998c4.483,0,8.12-3.638,8.12-8.121V10.125c0-1.065,0.866-1.922,1.926-1.922
			c1.064,0,1.923,0.86,1.923,1.922v2.349l2.789,1.177l3.412-1.177v-2.349C88.014,5.636,84.377,2,79.896,2
			c-4.49,0-8.126,3.636-8.126,8.125v11.544c0,1.06-0.866,1.917-1.925,1.917c-1.061,0-1.921-0.862-1.921-1.917v-5.136H61.72v5.346
			C61.72,26.36,65.354,29.998,69.844,29.998z"/>
		<path class="path" fill="#EA482D" d="M88.011,16.64l-3.415,1.176l-2.783-1.176v5.236c0,4.487,3.636,8.124,8.121,8.124
			c4.486,0,8.117-3.643,8.117-8.124v-5.128h-6.194v5.128c0,1.064-0.866,1.922-1.923,1.922c-1.063,0-1.923-0.865-1.923-1.922V16.64
			L88.011,16.64z"/>
	</g>
	<g>
		<path class="path" fill="#EA482D" d="M7.644,54.825l2.233-0.195c0.106,0.896,0.353,1.63,0.739,2.204c0.386,0.572,0.986,1.037,1.8,1.391
			c0.814,0.354,1.729,0.531,2.747,0.531c0.903,0,1.701-0.135,2.393-0.402c0.691-0.27,1.206-0.637,1.544-1.105
			c0.338-0.468,0.507-0.979,0.507-1.531c0-0.563-0.163-1.053-0.488-1.471c-0.325-0.42-0.862-0.771-1.611-1.057
			c-0.48-0.188-1.542-0.479-3.187-0.873c-1.644-0.395-2.795-0.767-3.454-1.117c-0.854-0.447-1.491-1.002-1.91-1.666
			c-0.42-0.663-0.629-1.405-0.629-2.228c0-0.903,0.257-1.747,0.769-2.532c0.514-0.786,1.262-1.382,2.246-1.789
			c0.985-0.406,2.08-0.61,3.284-0.61c1.326,0,2.496,0.214,3.51,0.642c1.013,0.426,1.792,1.055,2.337,1.885
			c0.546,0.83,0.839,1.771,0.879,2.82l-2.27,0.171c-0.123-1.131-0.536-1.985-1.239-2.563c-0.704-0.578-1.744-0.867-3.119-0.867
			c-1.433,0-2.477,0.264-3.131,0.787c-0.655,0.525-0.983,1.158-0.983,1.898c0,0.644,0.232,1.172,0.696,1.588
			c0.456,0.414,1.646,0.84,3.57,1.275s3.245,0.816,3.962,1.141c1.041,0.48,1.811,1.089,2.307,1.826
			c0.496,0.736,0.744,1.584,0.744,2.545c0,0.951-0.272,1.85-0.817,2.691s-1.329,1.497-2.35,1.965
			c-1.021,0.469-2.171,0.702-3.448,0.702c-1.62,0-2.978-0.236-4.071-0.708c-1.095-0.472-1.953-1.182-2.576-2.131
			C8.004,57.094,7.676,56.021,7.644,54.825z"/>
		<path class="path" fill="#EA482D" d="M29.641,58.609l0.317,1.941c-0.618,0.129-1.172,0.195-1.66,0.195c-0.798,0-1.416-0.127-1.855-0.379
			s-0.749-0.584-0.928-0.994c-0.179-0.412-0.269-1.276-0.269-2.595V49.32h-1.611v-1.709h1.611V44.4l2.186-1.318v4.529h2.209v1.709
			h-2.209v7.58c0,0.627,0.038,1.029,0.115,1.209c0.077,0.179,0.203,0.321,0.379,0.427c0.175,0.106,0.425,0.159,0.75,0.159
			C28.92,58.695,29.242,58.666,29.641,58.609z"/>
		<path class="path" fill="#EA482D" d="M40.285,60.574V58.67c-1.01,1.465-2.381,2.197-4.114,2.197c-0.765,0-1.479-0.146-2.143-0.439
			s-1.155-0.66-1.477-1.104c-0.322-0.444-0.548-0.987-0.678-1.631c-0.09-0.431-0.134-1.114-0.134-2.051v-8.031h2.197v7.189
			c0,1.147,0.044,1.921,0.134,2.319c0.139,0.578,0.432,1.032,0.879,1.36c0.447,0.33,1.001,0.495,1.66,0.495s1.277-0.169,1.855-0.507
			s0.986-0.797,1.227-1.379s0.36-1.426,0.36-2.533v-6.945h2.197v12.963H40.285z"/>
		<path class="path" fill="#EA482D" d="M45.693,60.574V47.611h1.965v1.818c0.407-0.635,0.948-1.146,1.623-1.531
			c0.676-0.387,1.445-0.58,2.308-0.58c0.96,0,1.747,0.199,2.362,0.598c0.614,0.398,1.048,0.957,1.3,1.672
			c1.025-1.514,2.36-2.27,4.004-2.27c1.286,0,2.274,0.355,2.966,1.068c0.692,0.711,1.038,1.809,1.038,3.289v8.898h-2.185v-8.166
			c0-0.879-0.072-1.512-0.214-1.898c-0.143-0.387-0.401-0.697-0.775-0.934s-0.813-0.354-1.318-0.354
			c-0.911,0-1.668,0.303-2.271,0.908c-0.603,0.607-0.903,1.578-0.903,2.912v7.531h-2.197v-8.422c0-0.977-0.179-1.709-0.537-2.197
			s-0.944-0.732-1.758-0.732c-0.618,0-1.19,0.162-1.715,0.488c-0.525,0.325-0.905,0.801-1.142,1.428s-0.354,1.53-0.354,2.71v6.726
			H45.693z"/>
		<path class="path" fill="#EA482D" d="M68.545,60.574h-2.039V42.68h2.197v6.384c0.928-1.163,2.111-1.745,3.553-1.745
			c0.797,0,1.552,0.16,2.264,0.482c0.712,0.32,1.298,0.772,1.758,1.354c0.46,0.582,0.82,1.285,1.08,2.106
			c0.261,0.822,0.391,1.701,0.391,2.637c0,2.222-0.549,3.938-1.647,5.151s-2.417,1.818-3.955,1.818c-1.53,0-2.73-0.639-3.601-1.916
			V60.574z M68.52,53.995c0,1.555,0.212,2.678,0.635,3.369c0.692,1.132,1.628,1.696,2.809,1.696c0.96,0,1.79-0.416,2.49-1.25
			c0.699-0.835,1.049-2.078,1.049-3.73c0-1.691-0.335-2.941-1.007-3.747c-0.671-0.806-1.483-1.208-2.435-1.208
			c-0.961,0-1.791,0.416-2.49,1.25C68.87,51.21,68.52,52.416,68.52,53.995z"/>
		<path class="path" fill="#EA482D" d="M80.373,60.574V42.68h2.197v17.895H80.373z"/>
		<path class="path" fill="#EA482D" d="M94.852,56.4l2.27,0.28c-0.357,1.327-1.021,2.356-1.99,3.089c-0.967,0.732-2.205,1.098-3.711,1.098
			c-1.895,0-3.398-0.584-4.509-1.752c-1.111-1.167-1.666-2.805-1.666-4.912c0-2.182,0.561-3.874,1.684-5.078
			c1.123-1.205,2.579-1.807,4.37-1.807c1.732,0,3.148,0.59,4.248,1.77c1.098,1.18,1.648,2.84,1.648,4.98
			c0,0.131-0.004,0.326-0.014,0.586h-9.667c0.082,1.424,0.484,2.515,1.208,3.271c0.725,0.757,1.629,1.135,2.711,1.135
			c0.805,0,1.492-0.211,2.063-0.635C94.066,58.004,94.518,57.328,94.852,56.4z M87.638,52.848h7.237
			c-0.098-1.09-0.373-1.908-0.83-2.453c-0.699-0.847-1.607-1.27-2.723-1.27c-1.008,0-1.857,0.338-2.545,1.013
			C88.091,50.813,87.71,51.717,87.638,52.848z"/>
		<path class="path" fill="#EA482D" d="M108.377,60.574V58.67c-1.01,1.465-2.381,2.197-4.113,2.197c-0.766,0-1.48-0.146-2.143-0.439
			c-0.664-0.293-1.156-0.66-1.477-1.104c-0.322-0.444-0.549-0.987-0.678-1.631c-0.09-0.431-0.135-1.114-0.135-2.051v-8.031h2.197
			v7.189c0,1.147,0.045,1.921,0.135,2.319c0.139,0.578,0.432,1.032,0.879,1.36c0.447,0.33,1,0.495,1.66,0.495
			c0.658,0,1.277-0.169,1.855-0.507s0.986-0.797,1.227-1.379s0.359-1.426,0.359-2.533v-6.945h2.197v12.963H108.377z"/>
		<path class="path" fill="#EA482D" d="M113.783,65.543V47.611h2.002v1.684c0.473-0.658,1.006-1.152,1.6-1.482s1.314-0.494,2.16-0.494
			c1.107,0,2.084,0.285,2.93,0.854c0.848,0.57,1.486,1.373,1.918,2.412c0.432,1.037,0.646,2.174,0.646,3.411
			c0,1.327-0.238,2.521-0.715,3.583c-0.475,1.063-1.168,1.875-2.074,2.441c-0.908,0.565-1.861,0.848-2.863,0.848
			c-0.732,0-1.389-0.154-1.971-0.463c-0.582-0.31-1.061-0.7-1.436-1.172v6.311H113.783z M115.773,54.166
			c0,1.668,0.338,2.901,1.014,3.699c0.676,0.797,1.494,1.195,2.453,1.195c0.977,0,1.813-0.412,2.51-1.238
			c0.695-0.826,1.043-2.105,1.043-3.84c0-1.651-0.34-2.889-1.02-3.711c-0.68-0.821-1.49-1.232-2.436-1.232
			c-0.936,0-1.764,0.438-2.484,1.313C116.135,51.227,115.773,52.498,115.773,54.166z"/>
		<path class="path" fill="#EA482D" d="M126.869,54.093c0-2.4,0.668-4.179,2.002-5.335c1.115-0.959,2.475-1.439,4.078-1.439
			c1.781,0,3.238,0.584,4.369,1.752c1.131,1.167,1.697,2.781,1.697,4.84c0,1.668-0.25,2.98-0.75,3.936
			c-0.502,0.957-1.23,1.699-2.186,2.229c-0.957,0.529-2,0.793-3.131,0.793c-1.814,0-3.283-0.581-4.4-1.745
			C127.43,57.959,126.869,56.282,126.869,54.093z M129.127,54.093c0,1.66,0.363,2.903,1.088,3.729s1.635,1.238,2.734,1.238
			c1.09,0,1.998-0.414,2.721-1.244c0.725-0.83,1.088-2.096,1.088-3.797c0-1.604-0.365-2.818-1.094-3.645
			c-0.729-0.825-1.633-1.238-2.715-1.238c-1.1,0-2.01,0.411-2.734,1.232C129.49,51.191,129.127,52.433,129.127,54.093z"/>
		<path class="path" fill="#EA482D" d="M141.592,60.574V47.611h1.977v1.843c0.953-1.424,2.328-2.136,4.127-2.136c0.781,0,1.5,0.141,2.154,0.42
			c0.654,0.281,1.146,0.65,1.471,1.105c0.326,0.456,0.555,0.997,0.684,1.623c0.082,0.408,0.123,1.119,0.123,2.137v7.971h-2.197
			v-7.885c0-0.896-0.086-1.564-0.258-2.008c-0.17-0.444-0.473-0.799-0.908-1.063c-0.436-0.265-0.947-0.396-1.533-0.396
			c-0.936,0-1.742,0.297-2.422,0.891s-1.02,1.721-1.02,3.381v7.08H141.592z"/>
	</g>
</g>
</svg>
