<svg xmlns="http://www.w3.org/2000/svg" width="120" height="120" viewBox="0 0 120 120">
  <defs>
    <style>
      .cls-1 {
        fill: #525f6f;
        fill-rule: evenodd;
      }
    </style>
  </defs>
  <g id="help">
    <path id="_" data-name="?" class="cls-1" d="M779.246,640.474a1.955,1.955,0,0,0-.532,1.446,1.851,1.851,0,0,0,.532,1.369,1.659,1.659,0,0,0,2.435,0,1.855,1.855,0,0,0,.532-1.369,1.884,1.884,0,0,0-.57-1.446,1.731,1.731,0,0,0-1.179-.532A1.68,1.68,0,0,0,779.246,640.474Zm1.9-15.594a18.123,18.123,0,0,1,.266-3.271,9,9,0,0,1,.951-2.7,13.437,13.437,0,0,1,1.9-2.587,29.457,29.457,0,0,1,3.195-2.928q1.37-1.141,2.586-2.321a16.226,16.226,0,0,0,2.168-2.586,12.42,12.42,0,0,0,1.522-3.195,13.944,13.944,0,0,0,.57-4.222,13.462,13.462,0,0,0-1.065-5.515,11.3,11.3,0,0,0-2.967-4.031,13.527,13.527,0,0,0-4.412-2.511,16.1,16.1,0,0,0-5.324-.875,14.352,14.352,0,0,0-9.433,3.195,14.7,14.7,0,0,0-4.945,9.129l1.6,0.3a13.722,13.722,0,0,1,4.108-7.873,11.918,11.918,0,0,1,8.519-3.081,15.416,15.416,0,0,1,4.755.723,11.165,11.165,0,0,1,3.917,2.168,10.114,10.114,0,0,1,2.625,3.575,11.845,11.845,0,0,1,.951,4.868,12.422,12.422,0,0,1-.419,3.424,10.673,10.673,0,0,1-1.141,2.624A14.077,14.077,0,0,1,789.4,609.4q-0.952,1.028-2.092,2.092l-2.587,2.282a14.921,14.921,0,0,0-2.7,2.624,12.389,12.389,0,0,0-1.6,2.663,10.545,10.545,0,0,0-.76,2.624,17.239,17.239,0,0,0-.19,2.51v4.032h1.673V624.88Z" transform="translate(-720 -556)"/>
  </g>
</svg>
