<svg xmlns="http://www.w3.org/2000/svg" width="120" height="120" viewBox="0 0 120 120">
  <defs>
    <style>
      .cls-1, .cls-2 {
        fill: none;
        stroke-linecap: round;
        stroke-width: 2px;
        fill-rule: evenodd;
      }

      .cls-1 {
        stroke: #646b81;
      }

      .cls-2 {
        stroke: #e8ebf5;
      }
    </style>
  </defs>
  <g id="rotate-hor">
    <g>
      <path id="Rounded_Rectangle_4" data-name="Rounded Rectangle 4" class="cls-1" d="M312,1049v-19a4,4,0,0,1,4-4h22a4,4,0,0,1,4,4v19" transform="translate(-280 -996)"/>
      <path id="Rounded_Rectangle_4-2" data-name="Rounded Rectangle 4" class="cls-1" d="M347,1033h10a4,4,0,0,1,4,4v12" transform="translate(-280 -996)"/>
      <path class="cls-1" d="M366,1045l-5,5-5-5" transform="translate(-280 -996)"/>
      <path id="Rounded_Rectangle_4-3" data-name="Rounded Rectangle 4" class="cls-2" d="M316,1056h48a4,4,0,0,1,4,4v22a4,4,0,0,1-4,4H316a4,4,0,0,1-4-4v-22A4,4,0,0,1,316,1056Z" transform="translate(-280 -996)"/>
    </g>
  </g>
</svg>
