<?xml version="1.0" encoding="utf-8"?>
<!-- Generator: Adobe Illustrator 16.0.0, SVG Export Plug-In . SVG Version: 6.00 Build 0)  -->
<!DOCTYPE svg PUBLIC "-//W3C//DTD SVG 1.1//EN" "http://www.w3.org/Graphics/SVG/1.1/DTD/svg11.dtd">
<svg version="1.1" id="Layer_1" xmlns="http://www.w3.org/2000/svg" xmlns:xlink="http://www.w3.org/1999/xlink" x="0px" y="0px"
	 width="126px" height="40px" viewBox="3 0 126 40" enable-background="new 3 0 126 40" xml:space="preserve">
<path class="path" fill="#4863A0" d="M129,35c0,2.762-2.238,5-5,5H8c-2.762,0-5-2.238-5-5V5C3,2.24,5.238,0,8,0h116c2.762,0,5,2.239,5,5V35z"/>
<g>
	<path fill="#FFFFFF" d="M26.023,27.759v-8.241h-1.42v-2.446h1.42v-0.416c0-1.29,0.394-2.71,1.333-3.584
		C28.208,12.284,29.345,12,30.329,12c0.721,0,1.29,0.109,1.749,0.219l-0.132,2.557c-0.285-0.087-0.634-0.152-1.07-0.152
		c-1.094,0-1.553,0.852-1.553,1.901v0.547h2.143v2.447h-2.12v8.241L26.023,27.759L26.023,27.759z"/>
	<path fill="#FFFFFF" d="M40.886,25.18c0,1.005,0.043,1.989,0.174,2.579h-2.994l-0.196-1.071h-0.066
		C37.104,27.54,36.012,28,34.744,28c-2.165,0-3.454-1.575-3.454-3.28c0-2.774,2.491-4.086,6.272-4.086v-0.131
		c0-0.59-0.306-1.399-1.945-1.399c-1.093,0-2.251,0.371-2.952,0.809l-0.611-2.144c0.743-0.414,2.207-0.961,4.152-0.961
		c3.563,0,4.678,2.098,4.678,4.633L40.886,25.18L40.886,25.18z M37.673,22.709c-1.749,0-3.103,0.417-3.103,1.684
		c0,0.853,0.568,1.269,1.311,1.269c0.808,0,1.508-0.547,1.726-1.226c0.044-0.173,0.065-0.37,0.065-0.567L37.673,22.709
		L37.673,22.709z"/>
	<path fill="#FFFFFF" d="M50.459,27.475c-0.591,0.284-1.705,0.501-2.973,0.501c-3.454,0-5.661-2.119-5.661-5.464
		c0-3.125,2.143-5.683,6.12-5.683c0.874,0,1.836,0.154,2.535,0.415l-0.524,2.47c-0.393-0.175-0.983-0.328-1.858-0.328
		c-1.749,0-2.885,1.248-2.863,2.992c0,1.947,1.311,2.995,2.929,2.995c0.787,0,1.399-0.132,1.901-0.351L50.459,27.475z"/>
	<path fill="#FFFFFF" d="M53.52,23.475c0.087,1.378,1.464,2.033,3.016,2.033c1.137,0,2.054-0.152,2.951-0.46l0.437,2.251
		c-1.092,0.46-2.426,0.677-3.869,0.677c-3.628,0-5.705-2.099-5.705-5.44c0-2.711,1.683-5.706,5.399-5.706
		c3.454,0,4.766,2.688,4.766,5.333c0,0.567-0.066,1.071-0.109,1.312L53.52,23.475L53.52,23.475z M57.432,21.202
		c0-0.809-0.35-2.165-1.879-2.165c-1.399,0-1.967,1.29-2.055,2.165H57.432z"/>
	<path fill="#FFFFFF" d="M61.41,12.24h3.322v6.098h0.044c0.634-0.917,1.748-1.507,3.234-1.507c2.558,0,4.416,2.12,4.394,5.4
		c0,3.846-2.426,5.771-4.875,5.771c-1.245,0-2.47-0.459-3.212-1.727h-0.045l-0.131,1.487h-2.819c0.043-0.7,0.087-1.988,0.087-3.19
		L61.41,12.24L61.41,12.24z M64.732,23.213c0,0.219,0.021,0.416,0.066,0.59c0.217,0.874,0.984,1.574,1.945,1.574
		c1.421,0,2.296-1.093,2.296-3.017c0-1.661-0.744-2.973-2.296-2.973c-0.896,0-1.727,0.677-1.945,1.639
		c-0.045,0.197-0.066,0.396-0.066,0.613V23.213L64.732,23.213z"/>
	<path fill="#FFFFFF" d="M84.01,22.295c0,3.914-2.774,5.705-5.638,5.705c-3.126,0-5.531-2.055-5.531-5.51
		c0-3.474,2.273-5.68,5.727-5.68C81.824,16.808,84.01,19.06,84.01,22.295z M76.272,22.403c0,1.837,0.765,3.213,2.185,3.213
		c1.313,0,2.121-1.289,2.121-3.234c0-1.571-0.611-3.189-2.121-3.189C76.885,19.19,76.272,20.831,76.272,22.403z"/>
	<path fill="#FFFFFF" d="M95.595,22.295c0,3.914-2.776,5.705-5.64,5.705c-3.125,0-5.53-2.055-5.53-5.51
		c0-3.474,2.273-5.68,5.728-5.68C93.408,16.808,95.595,19.06,95.595,22.295z M87.856,22.403c0,1.837,0.765,3.213,2.186,3.213
		c1.311,0,2.119-1.289,2.119-3.234c0-1.571-0.61-3.189-2.119-3.189C88.469,19.19,87.856,20.831,87.856,22.403z"/>
	<path fill="#FFFFFF" d="M99.879,21.573h0.043c0.242-0.458,0.503-0.896,0.766-1.29l2.163-3.213h4l-3.824,4.328l4.37,6.359h-4.086
		l-2.603-4.393l-0.829,1.049v3.344h-3.323V12.24h3.323V21.573L99.879,21.573z"/>
</g>
</svg>
