<?xml version="1.0" encoding="utf-8"?>
<!-- Generator: Adobe Illustrator 16.0.0, SVG Export Plug-In . SVG Version: 6.00 Build 0)  -->
<!DOCTYPE svg PUBLIC "-//W3C//DTD SVG 1.1//EN" "http://www.w3.org/Graphics/SVG/1.1/DTD/svg11.dtd">
<svg version="1.1" id="Layer_1" xmlns="http://www.w3.org/2000/svg" xmlns:xlink="http://www.w3.org/1999/xlink" x="0px" y="0px"
	 width="40px" height="40px" viewBox="0 0 40 40" enable-background="new 0 0 40 40" xml:space="preserve">
<path class="path" fill-rule="evenodd" clip-rule="evenodd" fill="#4863A0" d="M10,0.001h20c2.842,0,10,0,10,0s0,7.32,0,10v20
	c0,5.523-4.477,10-10,10H10c-3.024,0-10,0-10,0s0-7.502,0-10v-20C0,4.478,4.478,0.001,10,0.001z"/>
<path fill="#FFFFFF" d="M22.895,12.646h3.063V8.125h-3.601v0.017c-4.357,0.154-5.251,2.605-5.333,5.179h-0.009v2.258h-2.969v4.429
	h2.969v11.868h4.474V20.007h3.664l0.709-4.429h-4.371v-1.364C21.491,13.345,22.07,12.646,22.895,12.646z"/>
</svg>
