<?xml version="1.0" encoding="utf-8"?>
<!-- Generator: Adobe Illustrator 16.0.0, SVG Export Plug-In . SVG Version: 6.00 Build 0)  -->
<!DOCTYPE svg PUBLIC "-//W3C//DTD SVG 1.1//EN" "http://www.w3.org/Graphics/SVG/1.1/DTD/svg11.dtd">
<svg version="1.1" id="Layer_1" xmlns="http://www.w3.org/2000/svg" xmlns:xlink="http://www.w3.org/1999/xlink" x="0px" y="0px"
	 width="118.004px" height="40px" viewBox="0 0 118.004 40" enable-background="new 0 0 118.004 40" xml:space="preserve">
<path class="path" fill="#4863A0" d="M118.004,37c0,1.657-1.342,3-3,3H3c-1.657,0-3-1.343-3-3V3c0-1.657,1.343-3,3-3h112.004c1.658,0,3,1.343,3,3
	V37z"/>
<path opacity="0.16" enable-background="new    " d="M0,33.195c0,1.656,1.343,3,3,3h112.004c1.658,0,3-1.344,3-3V37
	c0,1.657-1.342,3-3,3H3c-1.657,0-3-1.343-3-3V33.195z"/>
<path fill="#FFFFFF" d="M21.705,14.426h2.322V11h-2.728v0.012c-3.303,0.117-3.982,1.975-4.044,3.926H17.25v1.712H15v3.356h2.25V29
	h3.391v-8.996h2.775l0.538-3.355h-3.312v-1.035C20.642,14.956,21.08,14.426,21.705,14.426z"/>
<g>
	<path fill="#FFFFFF" d="M34.027,13.266h6.425v1.292h-4.886v3.965h4.514v1.274h-4.514v5.398h-1.539V13.266z"/>
	<path fill="#FFFFFF" d="M46.542,25.195l-0.124-1.08h-0.054c-0.478,0.674-1.398,1.275-2.619,1.275c-1.734,0-2.62-1.222-2.62-2.461
		c0-2.07,1.841-3.205,5.151-3.187v-0.177c0-0.708-0.195-1.982-1.947-1.982c-0.797,0-1.629,0.248-2.23,0.638l-0.354-1.027
		c0.708-0.46,1.734-0.761,2.814-0.761c2.619,0,3.257,1.788,3.257,3.505v3.204c0,0.744,0.035,1.469,0.142,2.053H46.542L46.542,25.195
		z M46.311,20.824c-1.699-0.035-3.629,0.266-3.629,1.93c0,1.008,0.673,1.486,1.47,1.486c1.115,0,1.823-0.709,2.07-1.434
		c0.054-0.16,0.089-0.336,0.089-0.496V20.824z"/>
	<path fill="#FFFFFF" d="M56.435,24.877c-0.407,0.213-1.31,0.496-2.46,0.496c-2.584,0-4.266-1.752-4.266-4.373
		c0-2.636,1.805-4.548,4.602-4.548c0.921,0,1.734,0.23,2.16,0.443l-0.354,1.204c-0.372-0.213-0.956-0.407-1.806-0.407
		c-1.965,0-3.026,1.451-3.026,3.24c0,1.981,1.274,3.204,2.974,3.204c0.885,0,1.469-0.229,1.911-0.426L56.435,24.877z"/>
	<path fill="#FFFFFF" d="M59.02,21.195c0.035,2.106,1.38,2.975,2.938,2.975c1.114,0,1.788-0.195,2.372-0.443l0.266,1.115
		c-0.549,0.248-1.486,0.531-2.85,0.531c-2.638,0-4.213-1.734-4.213-4.318c0-2.583,1.521-4.621,4.018-4.621
		c2.797,0,3.54,2.46,3.54,4.036c0,0.319-0.035,0.567-0.054,0.725H59.02z M63.586,20.081c0.019-0.991-0.406-2.531-2.159-2.531
		c-1.574,0-2.266,1.451-2.39,2.531H63.586z"/>
	<path fill="#FFFFFF" d="M66.949,25.195c0.035-0.584,0.07-1.451,0.07-2.213V12.628h1.541v5.381h0.034
		c0.55-0.956,1.54-1.575,2.921-1.575c2.124,0,3.629,1.771,3.61,4.373c0,3.063-1.929,4.584-3.841,4.584
		c-1.238,0-2.23-0.479-2.867-1.611h-0.053l-0.071,1.416H66.949L66.949,25.195z M68.56,21.762c0,0.195,0.034,0.391,0.07,0.566
		c0.301,1.08,1.203,1.824,2.336,1.824c1.629,0,2.602-1.328,2.602-3.293c0-1.717-0.885-3.187-2.549-3.187
		c-1.062,0-2.053,0.726-2.371,1.911c-0.035,0.178-0.088,0.39-0.088,0.638V21.762z"/>
	<path fill="#FFFFFF" d="M84.843,20.842c0,3.168-2.195,4.549-4.266,4.549c-2.319,0-4.106-1.699-4.106-4.408
		c0-2.866,1.876-4.547,4.248-4.547C83.179,16.434,84.843,18.222,84.843,20.842z M78.047,20.93c0,1.877,1.08,3.293,2.603,3.293
		c1.486,0,2.603-1.397,2.603-3.328c0-1.452-0.726-3.292-2.567-3.292S78.047,19.301,78.047,20.93z"/>
	<path fill="#FFFFFF" d="M94.562,20.842c0,3.168-2.195,4.549-4.267,4.549c-2.319,0-4.106-1.699-4.106-4.408
		c0-2.866,1.877-4.547,4.248-4.547C92.898,16.434,94.562,18.222,94.562,20.842z M87.764,20.93c0,1.877,1.079,3.293,2.603,3.293
		c1.486,0,2.603-1.397,2.603-3.328c0-1.452-0.728-3.292-2.565-3.292C88.56,17.603,87.764,19.301,87.764,20.93z"/>
	<path fill="#FFFFFF" d="M98.066,20.559h0.035c0.213-0.301,0.514-0.671,0.762-0.974l2.513-2.956h1.877l-3.312,3.522l3.771,5.044
		h-1.895l-2.955-4.105l-0.797,0.885v3.221h-1.541V12.628h1.541V20.559z"/>
</g>
</svg>
