<?xml version="1.0" encoding="utf-8"?>
<!-- Generator: Adobe Illustrator 16.0.0, SVG Export Plug-In . SVG Version: 6.00 Build 0)  -->
<!DOCTYPE svg PUBLIC "-//W3C//DTD SVG 1.1//EN" "http://www.w3.org/Graphics/SVG/1.1/DTD/svg11.dtd">
<svg version="1.1" id="Layer_1" xmlns="http://www.w3.org/2000/svg" xmlns:xlink="http://www.w3.org/1999/xlink" x="0px" y="0px"
	 width="111.839px" height="32px" viewBox="3.551 4.182 111.839 32" enable-background="new 3.551 4.182 111.839 32"
	 xml:space="preserve">
<rect x="3.551" y="4.182" class="path" fill="#4863A0" width="111.839" height="32"/>
<path fill="#FFFFFF" d="M21.461,15.227h2.064v-3.045H21.1v0.011c-2.936,0.104-3.54,1.755-3.595,3.491h-0.004v1.521h-2v2.983h2v7.994
	h3.014v-7.996h2.467l0.479-2.982h-2.944v-0.92C20.517,15.698,20.906,15.227,21.461,15.227z"/>
<g>
	<path fill="#FFFFFF" d="M33.775,14.438H40.2v1.292h-4.886v3.965h4.514v1.273h-4.514v5.398h-1.539V14.438z"/>
	<path fill="#FFFFFF" d="M46.291,26.368l-0.124-1.08h-0.054c-0.479,0.674-1.398,1.274-2.619,1.274c-1.734,0-2.62-1.225-2.62-2.461
		c0-2.069,1.841-3.207,5.151-3.188v-0.178c0-0.709-0.195-1.982-1.947-1.982c-0.797,0-1.629,0.248-2.23,0.639l-0.354-1.027
		c0.708-0.461,1.734-0.762,2.814-0.762c2.619,0,3.257,1.789,3.257,3.506v3.205c0,0.742,0.035,1.47,0.142,2.054H46.291L46.291,26.368
		z M46.06,21.997c-1.699-0.035-3.629,0.267-3.629,1.93c0,1.009,0.673,1.486,1.47,1.486c1.115,0,1.823-0.709,2.07-1.435
		c0.054-0.16,0.089-0.336,0.089-0.496V21.997z"/>
	<path fill="#FFFFFF" d="M56.184,26.05c-0.407,0.214-1.31,0.496-2.46,0.496c-2.584,0-4.266-1.752-4.266-4.373
		c0-2.636,1.805-4.548,4.602-4.548c0.921,0,1.734,0.23,2.16,0.443l-0.354,1.203c-0.372-0.213-0.956-0.406-1.806-0.406
		c-1.965,0-3.026,1.451-3.026,3.24c0,1.98,1.274,3.203,2.974,3.203c0.885,0,1.469-0.229,1.911-0.426L56.184,26.05z"/>
	<path fill="#FFFFFF" d="M58.769,22.368c0.035,2.104,1.38,2.975,2.938,2.975c1.113,0,1.787-0.194,2.371-0.442l0.266,1.115
		c-0.549,0.248-1.485,0.53-2.85,0.53c-2.638,0-4.211-1.733-4.211-4.317s1.521-4.621,4.016-4.621c2.798,0,3.541,2.459,3.541,4.035
		c0,0.319-0.034,0.567-0.055,0.727L58.769,22.368L58.769,22.368z M63.333,21.254c0.021-0.992-0.405-2.531-2.158-2.531
		c-1.573,0-2.266,1.45-2.389,2.531H63.333z"/>
	<path fill="#FFFFFF" d="M66.697,26.368c0.035-0.584,0.07-1.451,0.07-2.214V13.8h1.541v5.382h0.031
		c0.553-0.957,1.539-1.576,2.925-1.576c2.123,0,3.629,1.771,3.606,4.373c0,3.063-1.932,4.584-3.842,4.584
		c-1.238,0-2.229-0.479-2.865-1.61h-0.058l-0.067,1.416H66.697L66.697,26.368z M68.309,22.936c0,0.194,0.032,0.391,0.069,0.565
		c0.302,1.08,1.203,1.824,2.336,1.824c1.631,0,2.604-1.328,2.604-3.293c0-1.718-0.885-3.189-2.549-3.189
		c-1.063,0-2.055,0.726-2.372,1.912c-0.035,0.179-0.088,0.39-0.088,0.638V22.936L68.309,22.936z"/>
	<path fill="#FFFFFF" d="M84.591,22.016c0,3.168-2.193,4.549-4.266,4.549c-2.318,0-4.105-1.699-4.105-4.408
		c0-2.864,1.877-4.545,4.248-4.545C82.929,17.605,84.591,19.395,84.591,22.016z M77.796,22.104c0,1.877,1.08,3.293,2.604,3.293
		c1.486,0,2.604-1.396,2.604-3.328c0-1.452-0.727-3.293-2.563-3.293C78.595,18.775,77.796,20.473,77.796,22.104z"/>
	<path fill="#FFFFFF" d="M94.312,22.016c0,3.168-2.193,4.549-4.268,4.549c-2.318,0-4.105-1.699-4.105-4.408
		c0-2.864,1.877-4.545,4.248-4.545C92.647,17.605,94.312,19.395,94.312,22.016z M87.513,22.104c0,1.877,1.078,3.293,2.604,3.293
		c1.486,0,2.605-1.396,2.605-3.328c0-1.452-0.73-3.293-2.566-3.293C88.31,18.775,87.513,20.473,87.513,22.104z"/>
	<path fill="#FFFFFF" d="M97.815,21.73h0.035c0.213-0.301,0.515-0.668,0.762-0.974l2.513-2.957h1.877l-3.312,3.522l3.771,5.045
		h-1.896l-2.955-4.105l-0.797,0.885v3.222h-1.541V13.8h1.541v7.931H97.815z"/>
</g>
</svg>
