<?xml version="1.0" encoding="utf-8"?>
<!-- Generator: Adobe Illustrator 16.0.0, SVG Export Plug-In . SVG Version: 6.00 Build 0)  -->
<!DOCTYPE svg PUBLIC "-//W3C//DTD SVG 1.1//EN" "http://www.w3.org/Graphics/SVG/1.1/DTD/svg11.dtd">
<svg version="1.1" id="Layer_1" xmlns="http://www.w3.org/2000/svg" xmlns:xlink="http://www.w3.org/1999/xlink" x="0px" y="0px"
	 width="134.906px" height="90px" viewBox="-8.05 -9.903 134.906 90" enable-background="new -8.05 -9.903 134.906 90"
	 xml:space="preserve">
<path fill="#FFFFFF" d="M-8.05,80.097v-85c0-2.761,2.238-5,5-5h124.906c2.762,0,5,2.239,5,5v85"/>
<rect x="-8.05" y="76.097" class="path" fill="#3B5998" width="134.906" height="4"/>
<path class="path" fill="#3B5998" d="M62.812,7.426h3.612V2.097h-4.246v0.019c-5.134,0.183-6.192,3.072-6.291,6.107h-0.005v2.663h-3.5v5.22h3.5
	v13.991h5.274V16.104h4.317l0.835-5.22h-5.149V9.275C61.159,8.251,61.84,7.426,62.812,7.426z"/>
<g>
	<path class="path" fill="#3B5998" d="M5.582,64.998V47.103h12.072v2.112H7.949v5.542h8.398v2.111H7.949v8.13H5.582z"/>
	<path class="path" fill="#3B5998" d="M28.908,63.399c-0.813,0.691-1.598,1.18-2.35,1.465c-0.752,0.284-1.561,0.427-2.424,0.427
		c-1.424,0-2.518-0.348-3.283-1.044c-0.764-0.695-1.146-1.585-1.146-2.667c0-0.635,0.145-1.215,0.434-1.739
		c0.287-0.525,0.666-0.946,1.135-1.264c0.467-0.317,0.994-0.558,1.58-0.721c0.432-0.113,1.082-0.224,1.953-0.329
		c1.775-0.212,3.08-0.464,3.918-0.757c0.01-0.301,0.014-0.492,0.014-0.574c0-0.895-0.209-1.525-0.623-1.892
		c-0.563-0.496-1.396-0.744-2.502-0.744c-1.033,0-1.797,0.181-2.289,0.543s-0.857,1.003-1.094,1.923l-2.148-0.293
		c0.195-0.92,0.518-1.663,0.965-2.229s1.096-1.001,1.941-1.306c0.846-0.306,1.826-0.458,2.941-0.458c1.107,0,2.006,0.13,2.697,0.391
		c0.693,0.261,1.201,0.588,1.527,0.982c0.324,0.396,0.553,0.894,0.684,1.496c0.072,0.374,0.109,1.049,0.109,2.025v2.93
		c0,2.043,0.047,3.335,0.141,3.876c0.094,0.542,0.279,1.061,0.555,1.557h-2.295C29.121,64.542,28.975,64.009,28.908,63.399z
		 M28.725,58.491c-0.797,0.326-1.992,0.603-3.588,0.83c-0.904,0.131-1.543,0.277-1.916,0.439c-0.375,0.163-0.664,0.401-0.867,0.715
		s-0.305,0.661-0.305,1.043c0,0.586,0.221,1.074,0.664,1.465s1.094,0.586,1.947,0.586c0.848,0,1.6-0.185,2.258-0.555
		c0.66-0.37,1.145-0.877,1.453-1.52c0.236-0.497,0.354-1.229,0.354-2.197V58.491z"/>
	<path class="path" fill="#3B5998" d="M42.813,60.249l2.16,0.281c-0.234,1.489-0.84,2.655-1.813,3.497c-0.973,0.843-2.166,1.264-3.582,1.264
		c-1.773,0-3.201-0.58-4.279-1.739c-1.078-1.16-1.617-2.822-1.617-4.986c0-1.4,0.232-2.625,0.695-3.675
		c0.465-1.05,1.17-1.837,2.119-2.362c0.947-0.524,1.979-0.787,3.094-0.787c1.408,0,2.561,0.356,3.455,1.068s1.469,1.723,1.721,3.033
		l-2.137,0.33c-0.203-0.871-0.563-1.526-1.08-1.966c-0.516-0.439-1.141-0.659-1.873-0.659c-1.107,0-2.006,0.396-2.697,1.19
		c-0.691,0.793-1.039,2.049-1.039,3.766c0,1.741,0.334,3.007,1.002,3.796c0.668,0.79,1.537,1.185,2.611,1.185
		c0.863,0,1.584-0.265,2.162-0.794C42.293,62.162,42.658,61.349,42.813,60.249z"/>
	<path class="path" fill="#3B5998" d="M55.729,60.823l2.27,0.281c-0.357,1.326-1.021,2.355-1.99,3.088c-0.967,0.732-2.205,1.099-3.711,1.099
		c-1.895,0-3.398-0.584-4.51-1.752c-1.111-1.167-1.666-2.806-1.666-4.913c0-2.181,0.561-3.874,1.684-5.078s2.58-1.807,4.371-1.807
		c1.732,0,3.148,0.591,4.248,1.771c1.098,1.18,1.648,2.84,1.648,4.979c0,0.131-0.004,0.326-0.014,0.586h-9.668
		c0.082,1.425,0.484,2.516,1.209,3.271c0.725,0.758,1.629,1.136,2.711,1.136c0.805,0,1.492-0.212,2.063-0.635
		S55.395,61.751,55.729,60.823z M48.514,57.271h7.238c-0.098-1.09-0.373-1.908-0.83-2.453c-0.699-0.847-1.607-1.27-2.723-1.27
		c-1.008,0-1.857,0.338-2.545,1.014C48.967,55.236,48.586,56.14,48.514,57.271z"/>
	<path class="path" fill="#3B5998" d="M62.784,64.998h-2.038V47.103h2.197v6.384c0.928-1.163,2.112-1.745,3.552-1.745
		c0.798,0,1.553,0.161,2.265,0.482s1.298,0.772,1.758,1.354s0.82,1.284,1.081,2.106c0.26,0.821,0.391,1.7,0.391,2.637
		c0,2.221-0.55,3.938-1.648,5.15c-1.099,1.213-2.417,1.819-3.955,1.819c-1.53,0-2.73-0.639-3.602-1.917V64.998z M62.761,58.419
		c0,1.554,0.211,2.677,0.635,3.369c0.691,1.131,1.627,1.696,2.807,1.696c0.961,0,1.791-0.417,2.49-1.251
		c0.7-0.834,1.051-2.077,1.051-3.729c0-1.692-0.336-2.942-1.008-3.747c-0.671-0.806-1.482-1.209-2.436-1.209
		c-0.96,0-1.79,0.417-2.49,1.251C63.11,55.634,62.761,56.84,62.761,58.419z"/>
	<path class="path" fill="#3B5998" d="M73.844,58.517c0-2.401,0.667-4.18,2.002-5.335c1.115-0.96,2.474-1.44,4.077-1.44
		c1.782,0,3.239,0.584,4.37,1.752s1.696,2.781,1.696,4.84c0,1.668-0.25,2.98-0.75,3.937c-0.501,0.957-1.229,1.699-2.186,2.228
		c-0.956,0.529-2,0.794-3.131,0.794c-1.814,0-3.282-0.582-4.4-1.745C74.403,62.382,73.844,60.705,73.844,58.517z M76.103,58.517
		c0,1.66,0.361,2.903,1.086,3.729c0.725,0.826,1.636,1.239,2.734,1.239c1.091,0,1.998-0.415,2.723-1.245
		c0.724-0.83,1.086-2.096,1.086-3.797c0-1.603-0.364-2.817-1.093-3.644s-1.634-1.238-2.716-1.238c-1.099,0-2.01,0.41-2.734,1.232
		S76.103,56.856,76.103,58.517z"/>
	<path class="path" fill="#3B5998" d="M87.747,58.517c0-2.401,0.667-4.18,2.002-5.335c1.115-0.96,2.474-1.44,4.077-1.44
		c1.782,0,3.239,0.584,4.37,1.752s1.697,2.781,1.697,4.84c0,1.668-0.251,2.98-0.751,3.937c-0.501,0.957-1.229,1.699-2.186,2.228
		c-0.956,0.529-2,0.794-3.131,0.794c-1.814,0-3.282-0.582-4.4-1.745C88.307,62.382,87.747,60.705,87.747,58.517z M90.005,58.517
		c0,1.66,0.362,2.903,1.087,3.729c0.725,0.826,1.636,1.239,2.734,1.239c1.091,0,1.998-0.415,2.722-1.245
		c0.725-0.83,1.087-2.096,1.087-3.797c0-1.603-0.364-2.817-1.093-3.644s-1.634-1.238-2.716-1.238c-1.099,0-2.01,0.41-2.734,1.232
		S90.005,56.856,90.005,58.517z"/>
	<path class="path" fill="#3B5998" d="M102.481,64.998V47.103h2.197v10.205l5.2-5.273h2.845l-4.957,4.81l5.457,8.154h-2.71l-4.284-6.628
		l-1.551,1.488v5.14H102.481z"/>
</g>
</svg>
