<?xml version="1.0" encoding="utf-8"?>
<!-- Generator: Adobe Illustrator 16.0.0, SVG Export Plug-In . SVG Version: 6.00 Build 0)  -->
<!DOCTYPE svg PUBLIC "-//W3C//DTD SVG 1.1//EN" "http://www.w3.org/Graphics/SVG/1.1/DTD/svg11.dtd">
<svg version="1.1" id="Layer_1" xmlns="http://www.w3.org/2000/svg" xmlns:xlink="http://www.w3.org/1999/xlink" x="0px" y="0px"
	 width="155px" height="40px" viewBox="0 0 155 40" enable-background="new 0 0 155 40" xml:space="preserve">
<path class="path" fill="#557398" d="M155,35c0,2.761-2.237,5-5,5H5c-2.761,0-5-2.239-5-5V5C0,2.239,2.24,0,5,0h145c2.763,0,5,2.239,5,5V35z"/>
<path fill="#FFFFFF" d="M77.218,27.428h1.569c0,0,0.476-0.052,0.718-0.313c0.223-0.24,0.215-0.689,0.215-0.689
	s-0.031-2.105,0.946-2.417c0.964-0.306,2.201,2.036,3.513,2.937c0.992,0.683,1.746,0.531,1.746,0.531l3.508-0.049
	c0,0,1.834-0.113,0.965-1.555c-0.071-0.119-0.508-1.066-2.608-3.018c-2.197-2.041-1.904-1.711,0.746-5.243
	c1.612-2.149,2.258-3.463,2.057-4.024c-0.193-0.536-1.379-0.394-1.379-0.394l-3.949,0.023c0,0-0.293-0.039-0.51,0.09
	c-0.213,0.128-0.35,0.424-0.35,0.424s-0.625,1.664-1.457,3.08c-1.761,2.985-2.463,3.143-2.75,2.957
	c-0.668-0.432-0.5-1.735-0.5-2.662c0-2.893,0.438-4.1-0.855-4.412c-0.43-0.104-0.746-0.172-1.844-0.184
	c-1.408-0.014-2.602,0.005-3.275,0.336c-0.449,0.22-0.797,0.71-0.586,0.738c0.262,0.035,0.853,0.159,1.166,0.586
	c0.404,0.551,0.391,1.787,0.391,1.787s0.232,3.406-0.543,3.829c-0.533,0.29-1.263-0.302-2.83-3.011
	c-0.804-1.388-1.41-2.922-1.41-2.922s-0.117-0.286-0.325-0.439c-0.253-0.186-0.606-0.245-0.606-0.245l-3.753,0.024
	c0,0-0.563,0.016-0.771,0.261c-0.184,0.218-0.014,0.669-0.014,0.669s2.938,6.873,6.264,10.336
	C73.754,27.637,77.218,27.428,77.218,27.428L77.218,27.428z"/>
</svg>
