<?xml version="1.0" encoding="utf-8"?>
<!-- Generator: Adobe Illustrator 16.0.0, SVG Export Plug-In . SVG Version: 6.00 Build 0)  -->
<!DOCTYPE svg PUBLIC "-//W3C//DTD SVG 1.1//EN" "http://www.w3.org/Graphics/SVG/1.1/DTD/svg11.dtd">
<svg version="1.1" id="Layer_1" xmlns="http://www.w3.org/2000/svg" xmlns:xlink="http://www.w3.org/1999/xlink" x="0px" y="0px"
	 width="132.203px" height="32px" viewBox="12.002 2.324 132.203 32" enable-background="new 12.002 2.324 132.203 32"
	 xml:space="preserve">
<rect class="path" x="12.002" y="2.324" fill="#557398" width="132.203" height="32"/>
<path fill="#FFFFFF" d="M35.727,25.264h1.468c0,0,0.445-0.053,0.67-0.291c0.209-0.227,0.201-0.644,0.201-0.644
	s-0.028-1.966,0.885-2.263c0.9-0.284,2.056,1.908,3.283,2.748c0.926,0.639,1.631,0.494,1.631,0.494l3.277-0.045
	c0,0,1.713-0.104,0.901-1.455c-0.064-0.107-0.474-0.996-2.435-2.822c-2.052-1.906-1.776-1.6,0.697-4.896
	c1.505-2.008,2.109-3.235,1.922-3.76c-0.179-0.5-1.29-0.367-1.29-0.367l-3.688,0.021c0,0-0.274-0.037-0.479,0.083
	c-0.199,0.12-0.33,0.396-0.33,0.396s-0.584,1.555-1.358,2.878c-1.647,2.792-2.305,2.937-2.57,2.765
	c-0.627-0.403-0.467-1.619-0.467-2.485c0-2.703,0.41-3.831-0.799-4.123c-0.401-0.097-0.695-0.161-1.724-0.172
	c-1.316-0.013-2.431,0.004-3.06,0.313c-0.419,0.206-0.745,0.663-0.548,0.69c0.244,0.032,0.798,0.148,1.089,0.547
	c0.378,0.516,0.366,1.669,0.366,1.669s0.217,3.183-0.507,3.578c-0.498,0.272-1.181-0.282-2.645-2.813
	c-0.751-1.296-1.317-2.73-1.317-2.73s-0.109-0.268-0.305-0.41c-0.237-0.173-0.566-0.228-0.566-0.228l-3.506,0.021
	c0,0-0.527,0.015-0.721,0.243c-0.171,0.204-0.014,0.625-0.014,0.625s2.747,6.423,5.853,9.659
	C32.491,25.46,35.727,25.264,35.727,25.264L35.727,25.264z"/>
<g>
	<path fill="#FFFFFF" d="M62.156,24.412l-3.896-11.93h1.664l1.858,5.875c0.514,1.613,0.956,3.063,1.274,4.463h0.036
		c0.336-1.381,0.831-2.887,1.362-4.445l2.018-5.894h1.647l-4.265,11.931H62.156z"/>
	<path fill="#FFFFFF" d="M70.811,19.773h0.035c0.213-0.301,0.514-0.672,0.762-0.974l2.514-2.956h1.877l-3.313,3.522l3.771,5.044
		h-1.895l-2.955-4.105l-0.797,0.885v3.223H69.27V11.845h1.541V19.773L70.811,19.773z"/>
	<path fill="#FFFFFF" d="M85.325,20.059c0,3.168-2.195,4.549-4.269,4.549c-2.315,0-4.104-1.698-4.104-4.408
		c0-2.867,1.875-4.549,4.248-4.549C83.661,15.65,85.325,17.438,85.325,20.059z M78.529,20.146c0,1.877,1.08,3.293,2.603,3.293
		c1.486,0,2.604-1.397,2.604-3.328c0-1.452-0.729-3.293-2.567-3.293C79.327,16.818,78.529,18.518,78.529,20.146z"/>
	<path fill="#FFFFFF" d="M87.29,18.164c0-0.885-0.021-1.611-0.069-2.318H88.6l0.09,1.415h0.035c0.426-0.813,1.416-1.61,2.832-1.61
		c1.188,0,3.026,0.709,3.026,3.646v5.116h-1.56v-4.938c0-1.381-0.516-2.531-1.981-2.531c-1.026,0-1.821,0.727-2.088,1.595
		c-0.072,0.194-0.106,0.46-0.106,0.726v5.15H87.29V18.164z"/>
	<path fill="#FFFFFF" d="M98.919,13.385v2.461h2.229v1.186h-2.229v4.621c0,1.062,0.302,1.662,1.168,1.662
		c0.406,0,0.709-0.053,0.901-0.104l0.068,1.168c-0.301,0.125-0.774,0.213-1.379,0.213c-0.727,0-1.311-0.229-1.684-0.653
		c-0.441-0.461-0.602-1.224-0.602-2.229v-4.675h-1.328v-1.186h1.328v-2.055L98.919,13.385z"/>
	<path fill="#FFFFFF" d="M107.646,24.412l-0.123-1.08h-0.056c-0.477,0.674-1.396,1.275-2.618,1.275
		c-1.732,0-2.619-1.222-2.619-2.461c0-2.071,1.842-3.207,5.149-3.188v-0.177c0-0.708-0.194-1.982-1.946-1.982
		c-0.797,0-1.629,0.248-2.229,0.639l-0.354-1.027c0.707-0.46,1.732-0.762,2.813-0.762c2.619,0,3.258,1.789,3.258,3.506v3.205
		c0,0.742,0.035,1.469,0.144,2.053H107.646L107.646,24.412z M107.415,20.041c-1.699-0.035-3.629,0.266-3.629,1.93
		c0,1.008,0.674,1.486,1.471,1.486c1.115,0,1.822-0.709,2.07-1.434c0.053-0.16,0.088-0.336,0.088-0.496V20.041z"/>
	<path fill="#FFFFFF" d="M112.975,19.773h0.034c0.214-0.301,0.515-0.672,0.763-0.974l2.514-2.956h1.877l-3.313,3.522l3.771,5.044
		h-1.896l-2.955-4.105l-0.797,0.885v3.223h-1.541V11.845h1.541v7.928H112.975z"/>
	<path fill="#FFFFFF" d="M121.609,13.385v2.461h2.23v1.186h-2.23v4.621c0,1.062,0.304,1.662,1.17,1.662
		c0.404,0,0.707-0.053,0.9-0.104l0.07,1.168c-0.301,0.125-0.777,0.213-1.379,0.213c-0.729,0-1.313-0.229-1.684-0.653
		c-0.441-0.461-0.603-1.224-0.603-2.229v-4.675h-1.328v-1.186h1.328v-2.055L121.609,13.385z"/>
	<path fill="#FFFFFF" d="M126.354,20.412c0.035,2.107,1.381,2.975,2.938,2.975c1.115,0,1.789-0.195,2.373-0.441l0.267,1.113
		c-0.55,0.248-1.484,0.531-2.853,0.531c-2.638,0-4.211-1.734-4.211-4.318s1.521-4.619,4.019-4.619c2.797,0,3.54,2.459,3.54,4.035
		c0,0.319-0.034,0.567-0.055,0.727L126.354,20.412L126.354,20.412z M130.921,19.296c0.019-0.991-0.405-2.53-2.159-2.53
		c-1.574,0-2.267,1.45-2.39,2.53H130.921z"/>
</g>
</svg>
