<?xml version="1.0" encoding="utf-8"?>
<!-- Generator: Adobe Illustrator 16.0.0, SVG Export Plug-In . SVG Version: 6.00 Build 0)  -->
<!DOCTYPE svg PUBLIC "-//W3C//DTD SVG 1.1//EN" "http://www.w3.org/Graphics/SVG/1.1/DTD/svg11.dtd">
<svg version="1.1" id="Layer_1" xmlns="http://www.w3.org/2000/svg" xmlns:xlink="http://www.w3.org/1999/xlink" x="0px" y="0px"
	 width="162.21px" height="90px" viewBox="-9.177 -10 162.21 90" enable-background="new -9.177 -10 162.21 90"
	 xml:space="preserve">
<path fill="#FFFFFF" d="M-9.177,80V-5c0-2.761,2.238-5,5-5h152.21c2.762,0,5,2.239,5,5v85"/>
<rect x="-9.177" y="76" class="path" fill="#4E76A1" width="162.21" height="4"/>
<g>
	<path class="path" fill="#4E76A1" d="M71.398,29.879h2.936c0,0,0.889-0.105,1.34-0.584c0.417-0.451,0.399-1.285,0.399-1.285
		s-0.055-3.931,1.771-4.521c1.802-0.569,4.113,3.817,6.567,5.499c1.853,1.274,3.259,0.984,3.259,0.984l6.555-0.093
		c0,0,3.428-0.208,1.801-2.908c-0.126-0.215-0.946-1.992-4.866-5.643c-4.104-3.815-3.551-3.201,1.395-9.796
		c3.007-4.016,4.217-6.469,3.841-7.519c-0.358-1-2.576-0.735-2.576-0.735l-7.376,0.042c0,0-0.55-0.074-0.957,0.168
		c-0.401,0.241-0.659,0.792-0.659,0.792s-1.169,3.108-2.719,5.755c-3.295,5.582-4.61,5.873-5.142,5.53
		c-1.255-0.808-0.932-3.239-0.932-4.972c0-5.407,0.82-7.663-1.6-8.243c-0.803-0.194-1.391-0.323-3.45-0.345
		c-2.631-0.028-4.858,0.009-6.117,0.625c-0.836,0.411-1.488,1.326-1.095,1.381c0.489,0.065,1.597,0.297,2.182,1.094
		c0.755,1.032,0.731,3.339,0.731,3.339s0.434,6.364-1.015,7.157c-0.995,0.544-2.361-0.564-5.289-5.627
		c-1.503-2.592-2.633-5.46-2.633-5.46s-0.219-0.536-0.611-0.821c-0.474-0.346-1.13-0.457-1.13-0.457l-7.011,0.042
		c0,0-1.054,0.032-1.44,0.486c-0.343,0.408-0.028,1.25-0.028,1.25S53.02,17.858,59.23,24.331
		C64.925,30.272,71.398,29.879,71.398,29.879L71.398,29.879z"/>
	<g>
		<path class="path" fill="#4E76A1" d="M23.845,65.707l-6.934-17.896h2.564l4.65,13.001c0.374,1.041,0.688,2.018,0.939,2.93
			c0.277-0.977,0.599-1.953,0.965-2.93l4.834-13.001h2.417l-7.007,17.896H23.845z"/>
		<path class="path" fill="#4E76A1" d="M35.137,65.707V47.812h2.197v10.205l5.2-5.273h2.844l-4.955,4.81l5.456,8.154h-2.71l-4.285-6.629
			l-1.55,1.49v5.139H35.137z"/>
		<path class="path" fill="#4E76A1" d="M46.807,59.225c0-2.4,0.667-4.178,2.002-5.334c1.115-0.96,2.474-1.44,4.077-1.44
			c1.782,0,3.239,0.584,4.37,1.752c1.131,1.167,1.696,2.781,1.696,4.84c0,1.669-0.25,2.98-0.75,3.937
			c-0.501,0.957-1.229,1.699-2.186,2.229c-0.956,0.528-2,0.793-3.131,0.793c-1.814,0-3.282-0.582-4.4-1.746
			C47.367,63.091,46.807,61.414,46.807,59.225z M49.066,59.225c0,1.66,0.361,2.904,1.086,3.729c0.725,0.826,1.636,1.239,2.734,1.239
			c1.091,0,1.998-0.415,2.723-1.245c0.724-0.83,1.086-2.095,1.086-3.796c0-1.604-0.364-2.818-1.093-3.645s-1.634-1.238-2.716-1.238
			c-1.099,0-2.01,0.41-2.734,1.232S49.066,57.564,49.066,59.225z"/>
		<path class="path" fill="#4E76A1" d="M61.529,65.707V52.743h1.977v1.843c0.953-1.424,2.328-2.136,4.127-2.136c0.781,0,1.499,0.141,2.154,0.421
			c0.654,0.281,1.146,0.649,1.471,1.105c0.325,0.455,0.554,0.996,0.684,1.623c0.081,0.407,0.122,1.119,0.122,2.137v7.971h-2.197
			v-7.886c0-0.896-0.085-1.564-0.257-2.008c-0.17-0.444-0.474-0.798-0.909-1.063s-0.946-0.396-1.532-0.396
			c-0.936,0-1.743,0.298-2.423,0.892s-1.019,1.721-1.019,3.381v7.08H61.529z"/>
		<path class="path" fill="#4E76A1" d="M80.23,63.742l0.317,1.94c-0.618,0.13-1.172,0.195-1.66,0.195c-0.798,0-1.416-0.126-1.855-0.378
			s-0.749-0.584-0.928-0.995s-0.269-1.276-0.269-2.595v-7.458h-1.611v-1.709h1.611v-3.21l2.186-1.318v4.528h2.209v1.709h-2.209
			v7.581c0,0.627,0.038,1.029,0.115,1.208s0.203,0.321,0.379,0.427c0.175,0.106,0.425,0.159,0.75,0.159
			C79.509,63.827,79.832,63.799,80.23,63.742z"/>
		<path class="path" fill="#4E76A1" d="M90.837,64.107c-0.813,0.692-1.598,1.181-2.35,1.465C87.735,65.857,86.927,66,86.064,66
			c-1.424,0-2.519-0.348-3.283-1.044c-0.765-0.695-1.147-1.585-1.147-2.667c0-0.635,0.145-1.215,0.434-1.739
			c0.288-0.525,0.667-0.946,1.135-1.264s0.995-0.558,1.581-0.72c0.432-0.114,1.082-0.225,1.953-0.33
			c1.774-0.211,3.08-0.464,3.918-0.757c0.009-0.301,0.013-0.492,0.013-0.573c0-0.896-0.208-1.526-0.622-1.893
			c-0.563-0.496-1.396-0.744-2.503-0.744c-1.033,0-1.797,0.181-2.289,0.543c-0.492,0.361-0.856,1.003-1.093,1.922l-2.148-0.293
			c0.195-0.919,0.518-1.662,0.965-2.228s1.095-1.001,1.941-1.306c0.846-0.306,1.826-0.458,2.941-0.458
			c1.106,0,2.006,0.13,2.697,0.391c0.692,0.261,1.201,0.588,1.526,0.982c0.325,0.396,0.554,0.894,0.684,1.495
			c0.073,0.375,0.11,1.051,0.11,2.027v2.93c0,2.043,0.046,3.334,0.14,3.875s0.279,1.061,0.556,1.557h-2.295
			C91.049,65.252,90.903,64.719,90.837,64.107z M90.654,59.201c-0.797,0.325-1.993,0.602-3.588,0.83
			c-0.904,0.13-1.543,0.276-1.917,0.439c-0.374,0.162-0.663,0.4-0.866,0.714c-0.204,0.313-0.306,0.661-0.306,1.044
			c0,0.586,0.222,1.074,0.665,1.465s1.093,0.586,1.947,0.586c0.847,0,1.6-0.186,2.258-0.556c0.66-0.37,1.144-0.877,1.453-1.521
			c0.236-0.496,0.354-1.229,0.354-2.197V59.201z"/>
		<path class="path" fill="#4E76A1" d="M96.294,65.707V47.812h2.197v10.205l5.2-5.273h2.845l-4.957,4.81l5.457,8.154h-2.71l-4.284-6.629
			l-1.551,1.49v5.139H96.294z"/>
		<path class="path" fill="#4E76A1" d="M113.58,63.742l0.317,1.94c-0.618,0.13-1.172,0.195-1.66,0.195c-0.798,0-1.416-0.126-1.855-0.378
			s-0.749-0.584-0.928-0.995s-0.269-1.276-0.269-2.595v-7.458h-1.611v-1.709h1.611v-3.21l2.186-1.318v4.528h2.209v1.709h-2.209
			v7.581c0,0.627,0.038,1.029,0.115,1.208s0.203,0.321,0.379,0.427c0.175,0.106,0.425,0.159,0.75,0.159
			C112.859,63.827,113.181,63.799,113.58,63.742z"/>
		<path class="path" fill="#4E76A1" d="M124.602,61.532l2.271,0.28c-0.358,1.327-1.021,2.356-1.99,3.089c-0.968,0.732-2.205,1.099-3.711,1.099
			c-1.896,0-3.399-0.584-4.51-1.752c-1.111-1.168-1.666-2.805-1.666-4.913c0-2.181,0.561-3.874,1.684-5.078s2.58-1.807,4.371-1.807
			c1.732,0,3.148,0.591,4.248,1.771c1.098,1.18,1.647,2.84,1.647,4.98c0,0.13-0.004,0.325-0.013,0.586h-9.668
			c0.082,1.424,0.484,2.514,1.209,3.271c0.725,0.756,1.628,1.135,2.71,1.135c0.806,0,1.493-0.211,2.063-0.635
			C123.817,63.136,124.268,62.46,124.602,61.532z M117.388,57.98h7.238c-0.098-1.091-0.374-1.908-0.83-2.454
			c-0.7-0.847-1.607-1.27-2.723-1.27c-1.009,0-1.857,0.338-2.545,1.013C117.841,55.945,117.46,56.85,117.388,57.98z"/>
	</g>
</g>
</svg>
