<?xml version="1.0" encoding="utf-8"?>
<!-- Generator: Adobe Illustrator 16.0.0, SVG Export Plug-In . SVG Version: 6.00 Build 0)  -->
<!DOCTYPE svg PUBLIC "-//W3C//DTD SVG 1.1//EN" "http://www.w3.org/Graphics/SVG/1.1/DTD/svg11.dtd">
<svg version="1.1" id="Layer_1" xmlns="http://www.w3.org/2000/svg" xmlns:xlink="http://www.w3.org/1999/xlink" x="0px" y="0px"
	 width="123px" height="40px" viewBox="0 0 123 40" enable-background="new 0 0 123 40" xml:space="preserve">
<path class="path" fill="#E3563F" d="M123,35c0,2.762-2.236,5-5,5H5c-2.762,0-5-2.238-5-5V5c0-2.761,2.238-5,5-5h113c2.764,0,5,2.239,5,5V35z"/>
<g>
	<polygon fill="#FFFFFF" points="71.617,16.594 71.617,18.844 73.867,18.844 73.867,21.094 71.617,21.094 71.617,23.344 
		69.367,23.344 69.367,21.094 67.117,21.094 67.117,18.844 69.367,18.844 69.367,16.594 	"/>
	<path fill="#FFFFFF" d="M51.367,25.594c-3-3-3-8.25,0.125-11.25c2.25-2.25,5.5-2.75,8.375-1.625l1.125,0.625l1.25,0.875l-2,2
		l-0.75-0.5c-1.75-1.125-4.25-0.875-5.875,0.75c-1.875,1.875-2,5.25,0,7.25c1.875,2,5.25,2,7,0c0.5-0.5,1.001-1.25,1.126-2v-0.25
		h-4.501v-2.5h7.125l0.125,0.625v1.75c-0.125,1.625-0.75,3.25-1.875,4.375C59.617,28.594,54.367,28.594,51.367,25.594z"/>
</g>
</svg>
