<?xml version="1.0" encoding="utf-8"?>
<!-- Generator: Adobe Illustrator 16.0.0, SVG Export Plug-In . SVG Version: 6.00 Build 0)  -->
<!DOCTYPE svg PUBLIC "-//W3C//DTD SVG 1.1//EN" "http://www.w3.org/Graphics/SVG/1.1/DTD/svg11.dtd">
<svg version="1.1" id="Layer_1" xmlns="http://www.w3.org/2000/svg" xmlns:xlink="http://www.w3.org/1999/xlink" x="0px" y="0px"
	 width="40px" height="40px" viewBox="0 0 40 40" enable-background="new 0 0 40 40" xml:space="preserve">
<rect y="0" fill="#E3563F" width="40" height="40" class="path"/>
<g>
	<g>
		<polygon fill="#FFFFFF" points="30.117,16.593 30.117,18.843 32.367,18.843 32.367,21.095 30.117,21.095 30.117,23.345 
			27.867,23.345 27.867,21.095 25.617,21.095 25.617,18.843 27.867,18.843 27.867,16.593 		"/>
		<path fill="#FFFFFF" d="M9.867,25.595c-3-3-3-8.25,0.125-11.25c2.25-2.25,5.5-2.75,8.375-1.625l1.125,0.625l1.25,0.875l-2,2
			l-0.75-0.5c-1.75-1.125-4.25-0.875-5.875,0.75c-1.875,1.875-2,5.25,0,7.25c1.875,2,5.25,2,7,0c0.5-0.5,1-1.25,1.125-2v-0.25h-4.5
			v-2.5h7.125l0.125,0.625v1.75c-0.125,1.625-0.75,3.25-1.875,4.375C18.118,28.595,12.867,28.595,9.867,25.595z"/>
	</g>
</g>
</svg>
