<?xml version="1.0" encoding="utf-8"?>
<!-- Generator: Adobe Illustrator 16.0.0, SVG Export Plug-In . SVG Version: 6.00 Build 0)  -->
<!DOCTYPE svg PUBLIC "-//W3C//DTD SVG 1.1//EN" "http://www.w3.org/Graphics/SVG/1.1/DTD/svg11.dtd">
<svg version="1.1" id="Layer_1" xmlns="http://www.w3.org/2000/svg" xmlns:xlink="http://www.w3.org/1999/xlink" x="0px" y="0px"
	 width="121.005px" height="40px" viewBox="-0.166 0.25 121.005 40" enable-background="new -0.166 0.25 121.005 40"
	 xml:space="preserve">
<path class="path" fill="#E3563F" d="M120.839,37.25c0,1.657-1.344,3-3,3H2.834c-1.656,0-3-1.343-3-3v-34c0-1.657,1.344-3,3-3h115.005
	c1.656,0,3,1.343,3,3V37.25z"/>
<path opacity="0.16" enable-background="new    " d="M-0.166,33.445c0,1.656,1.344,3,3,3h115.005c1.656,0,3-1.344,3-3v3.805
	c0,1.657-1.344,3-3,3H2.834c-1.656,0-3-1.343-3-3V33.445z"/>
<g>
	<path fill="#FFFFFF" d="M61.437,24.152c-0.689,0.248-2.054,0.656-3.664,0.656c-1.806,0-3.293-0.461-4.461-1.576
		c-1.026-0.99-1.664-2.584-1.664-4.443c0.019-3.557,2.461-6.159,6.461-6.159c1.381,0,2.461,0.301,2.975,0.549l-0.373,1.256
		c-0.637-0.283-1.434-0.513-2.637-0.513c-2.903,0-4.797,1.806-4.797,4.796c0,3.027,1.823,4.814,4.602,4.814
		c1.01,0,1.699-0.142,2.054-0.318v-3.557h-2.425v-1.24h3.931v5.735H61.437z"/>
	<path fill="#FFFFFF" d="M71.58,20.33c0,3.168-2.195,4.549-4.266,4.549c-2.32,0-4.107-1.699-4.107-4.408
		c0-2.867,1.877-4.548,4.248-4.548C69.916,15.922,71.58,17.711,71.58,20.33z M64.783,20.418c0,1.877,1.078,3.293,2.602,3.293
		c1.486,0,2.604-1.398,2.604-3.328c0-1.451-0.729-3.292-2.566-3.292C65.578,17.091,64.783,18.789,64.783,20.418z"/>
	<path fill="#FFFFFF" d="M81.296,20.33c0,3.168-2.195,4.549-4.266,4.549c-2.32,0-4.107-1.699-4.107-4.408
		c0-2.867,1.877-4.548,4.248-4.548C79.632,15.922,81.296,17.711,81.296,20.33z M74.5,20.418c0,1.877,1.08,3.293,2.604,3.293
		c1.486,0,2.604-1.398,2.604-3.328c0-1.451-0.727-3.292-2.566-3.292C75.298,17.091,74.5,18.789,74.5,20.418z"/>
	<path fill="#FFFFFF" d="M90.642,16.117c-0.035,0.62-0.07,1.311-0.07,2.354v4.974c0,1.966-0.391,3.169-1.223,3.912
		c-0.832,0.776-2.035,1.024-3.115,1.024c-1.025,0-2.158-0.248-2.85-0.707l0.391-1.186c0.564,0.354,1.451,0.672,2.514,0.672
		c1.594,0,2.762-0.832,2.762-2.992v-0.955h-0.033c-0.48,0.797-1.398,1.435-2.729,1.435c-2.123,0-3.646-1.806-3.646-4.177
		c0-2.902,1.895-4.548,3.857-4.548c1.486,0,2.301,0.779,2.672,1.488h0.035l0.072-1.293L90.642,16.117L90.642,16.117z M89.031,19.498
		c0-0.266-0.018-0.496-0.088-0.709c-0.283-0.902-1.045-1.645-2.178-1.645c-1.486,0-2.551,1.256-2.551,3.238
		c0,1.683,0.852,3.08,2.531,3.08c0.955,0,1.822-0.603,2.158-1.594c0.09-0.267,0.125-0.566,0.125-0.832v-1.538H89.031z"/>
	<path fill="#FFFFFF" d="M93.156,12.117h1.557v12.566h-1.557V12.117z"/>
	<path fill="#FFFFFF" d="M98.199,20.684c0.035,2.107,1.381,2.977,2.939,2.977c1.113,0,1.785-0.195,2.369-0.443l0.268,1.115
		c-0.549,0.248-1.486,0.529-2.852,0.529c-2.637,0-4.213-1.732-4.213-4.316s1.521-4.621,4.02-4.621c2.797,0,3.541,2.46,3.541,4.037
		c0,0.318-0.035,0.564-0.055,0.727h-6.018V20.684z M102.765,19.568c0.02-0.99-0.406-2.531-2.158-2.531
		c-1.576,0-2.268,1.451-2.391,2.531H102.765z"/>
</g>
<g>
	<g>
		<polygon fill="#FFFFFF" points="39.071,16.345 39.071,18.921 41.648,18.921 41.648,21.502 39.071,21.502 39.071,24.079 
			36.495,24.079 36.495,21.502 33.919,21.502 33.919,18.921 36.495,18.921 36.495,16.345 		"/>
		<path fill="#FFFFFF" d="M15.884,26.655c-3.435-3.436-3.435-9.447,0.143-12.882c2.577-2.576,6.298-3.149,9.59-1.861l1.288,0.716
			l1.431,1.002l-2.29,2.29l-0.858-0.573c-2.004-1.288-4.867-1.002-6.728,0.859c-2.147,2.147-2.29,6.011,0,8.301
			c2.147,2.29,6.012,2.29,8.016,0c0.572-0.572,1.145-1.431,1.288-2.29v-0.286h-5.153v-2.862h8.159l0.143,0.715v2.004
			c-0.143,1.86-0.859,3.721-2.147,5.009C25.331,30.09,19.319,30.09,15.884,26.655z"/>
	</g>
</g>
</svg>
