<?xml version="1.0" encoding="utf-8"?>
<!-- Generator: Adobe Illustrator 16.0.0, SVG Export Plug-In . SVG Version: 6.00 Build 0)  -->
<!DOCTYPE svg PUBLIC "-//W3C//DTD SVG 1.1//EN" "http://www.w3.org/Graphics/SVG/1.1/DTD/svg11.dtd">
<svg version="1.1" id="Layer_1" xmlns="http://www.w3.org/2000/svg" xmlns:xlink="http://www.w3.org/1999/xlink" x="0px" y="0px"
	 width="117.839px" height="40px" viewBox="0 0.076 117.839 40" enable-background="new 0 0.076 117.839 40" xml:space="preserve">
<g>
	<path class="path" fill="#666666" d="M59.789,23.979c-0.688,0.248-2.054,0.656-3.664,0.656c-1.806,0-3.293-0.461-4.461-1.576
		C50.638,22.069,50,20.477,50,18.617c0.019-3.557,2.461-6.159,6.461-6.159c1.381,0,2.461,0.301,2.974,0.549l-0.372,1.256
		c-0.637-0.283-1.434-0.513-2.637-0.513c-2.903,0-4.797,1.806-4.797,4.796c0,3.026,1.823,4.813,4.602,4.813
		c1.01,0,1.699-0.142,2.054-0.318v-3.556H55.86v-1.24h3.931v5.734H59.789z"/>
	<path class="path" fill="#666666" d="M69.931,20.158c0,3.167-2.195,4.548-4.266,4.548c-2.319,0-4.106-1.699-4.106-4.407
		c0-2.867,1.876-4.548,4.248-4.548C68.267,15.75,69.931,17.539,69.931,20.158z M63.134,20.246c0,1.876,1.078,3.292,2.602,3.292
		c1.487,0,2.604-1.398,2.604-3.327c0-1.451-0.728-3.292-2.563-3.292C63.93,16.919,63.134,18.617,63.134,20.246z"/>
	<path class="path" fill="#666666" d="M79.648,20.158c0,3.167-2.195,4.548-4.266,4.548c-2.319,0-4.106-1.699-4.106-4.407
		c0-2.867,1.876-4.548,4.248-4.548C77.984,15.75,79.648,17.539,79.648,20.158z M72.852,20.246c0,1.876,1.08,3.292,2.603,3.292
		c1.486,0,2.604-1.398,2.604-3.327c0-1.451-0.728-3.292-2.565-3.292C73.65,16.919,72.852,18.617,72.852,20.246z"/>
	<path class="path" fill="#666666" d="M88.994,15.945c-0.035,0.62-0.07,1.311-0.07,2.354v4.973c0,1.966-0.391,3.169-1.223,3.912
		c-0.832,0.773-2.035,1.021-3.115,1.021c-1.021,0-2.154-0.248-2.85-0.707l0.391-1.188c0.565,0.354,1.451,0.674,2.517,0.674
		c1.594,0,2.762-0.832,2.762-2.992v-0.955h-0.03c-0.479,0.797-1.398,1.438-2.729,1.438c-2.123,0-3.646-1.809-3.646-4.176
		c0-2.902,1.895-4.548,3.854-4.548c1.483,0,2.301,0.779,2.673,1.488h0.035l0.068-1.293L88.994,15.945L88.994,15.945z M87.382,19.326
		c0-0.266-0.021-0.496-0.088-0.709c-0.283-0.902-1.045-1.645-2.178-1.645c-1.486,0-2.553,1.256-2.553,3.238
		c0,1.682,0.854,3.079,2.531,3.079c0.953,0,1.818-0.603,2.154-1.594c0.094-0.267,0.125-0.566,0.125-0.832v-1.537H87.382z"/>
	<path class="path" fill="#666666" d="M91.507,11.945h1.558v12.565h-1.558V11.945z"/>
	<path class="path" fill="#666666" d="M96.55,20.512c0.035,2.106,1.382,2.979,2.938,2.979c1.113,0,1.786-0.195,2.37-0.443l0.269,1.115
		c-0.549,0.248-1.485,0.526-2.853,0.526c-2.638,0-4.213-1.729-4.213-4.313c0-2.584,1.521-4.621,4.021-4.621
		c2.797,0,3.541,2.46,3.541,4.037c0,0.318-0.035,0.563-0.057,0.729H96.55V20.512z M101.117,19.396
		c0.021-0.99-0.406-2.531-2.158-2.531c-1.576,0-2.267,1.451-2.391,2.531H101.117z"/>
</g>
<g>
	<g>
		<polygon class="path" fill="#666666" points="37.604,16.666 37.604,18.916 39.854,18.916 39.854,21.17 37.604,21.17 37.604,23.42 35.354,23.42 
			35.354,21.17 33.104,21.17 33.104,18.916 35.354,18.916 35.354,16.666 		"/>
		<path class="path" fill="#666666" d="M17.354,25.67c-3-3-3-8.25,0.125-11.25c2.25-2.25,5.5-2.75,8.375-1.625l1.125,0.625l1.25,0.875l-2,2
			l-0.75-0.5c-1.75-1.125-4.25-0.875-5.875,0.75c-1.875,1.875-2,5.25,0,7.25c1.875,2,5.25,2,7,0c0.5-0.5,1-1.25,1.125-2v-0.25h-4.5
			v-2.5h7.125l0.125,0.625v1.75c-0.125,1.625-0.75,3.25-1.875,4.375C25.604,28.67,20.354,28.67,17.354,25.67z"/>
	</g>
</g>
<g>
	<path class="path" fill="#666666" d="M116.839,1.076v38H1v-38H116.839 M117.839,0.076H0v40h117.839V0.076L117.839,0.076z"/>
</g>
</svg>
