<?xml version="1.0" encoding="utf-8"?>
<!-- Generator: Adobe Illustrator 16.0.0, SVG Export Plug-In . SVG Version: 6.00 Build 0)  -->
<!DOCTYPE svg PUBLIC "-//W3C//DTD SVG 1.1//EN" "http://www.w3.org/Graphics/SVG/1.1/DTD/svg11.dtd">
<svg version="1.1" id="Layer_1" xmlns="http://www.w3.org/2000/svg" xmlns:xlink="http://www.w3.org/1999/xlink" x="0px" y="0px"
	 width="117.839px" height="40px" viewBox="0 0 117.839 40" enable-background="new 0 0 117.839 40" xml:space="preserve">
<g>
	<path class="path" fill="#666666" d="M59.789,23.904c-0.688,0.248-2.054,0.656-3.664,0.656c-1.806,0-3.293-0.461-4.461-1.576
		C50.638,21.994,50,20.4,50,18.541c0.019-3.557,2.461-6.159,6.461-6.159c1.381,0,2.461,0.301,2.974,0.549l-0.372,1.256
		c-0.637-0.283-1.434-0.513-2.637-0.513c-2.903,0-4.797,1.806-4.797,4.796c0,3.027,1.823,4.814,4.602,4.814
		c1.01,0,1.699-0.142,2.054-0.318v-3.557H55.86v-1.24h3.931v5.735H59.789z"/>
	<path class="path" fill="#666666" d="M69.931,20.082c0,3.168-2.195,4.549-4.266,4.549c-2.319,0-4.106-1.699-4.106-4.408
		c0-2.867,1.876-4.548,4.248-4.548C68.267,15.674,69.931,17.463,69.931,20.082z M63.134,20.17c0,1.877,1.078,3.293,2.602,3.293
		c1.487,0,2.604-1.398,2.604-3.328c0-1.451-0.728-3.292-2.563-3.292C63.93,16.843,63.134,18.541,63.134,20.17z"/>
	<path class="path" fill="#666666" d="M79.648,20.082c0,3.168-2.195,4.549-4.266,4.549c-2.319,0-4.106-1.699-4.106-4.408
		c0-2.867,1.876-4.548,4.248-4.548C77.984,15.674,79.648,17.463,79.648,20.082z M72.852,20.17c0,1.877,1.08,3.293,2.603,3.293
		c1.486,0,2.604-1.398,2.604-3.328c0-1.451-0.728-3.292-2.565-3.292C73.65,16.843,72.852,18.541,72.852,20.17z"/>
	<path class="path" fill="#666666" d="M88.994,15.869c-0.035,0.62-0.07,1.311-0.07,2.354v4.974c0,1.966-0.391,3.169-1.223,3.912
		c-0.832,0.773-2.035,1.021-3.115,1.021c-1.021,0-2.154-0.248-2.85-0.707l0.391-1.188c0.565,0.354,1.451,0.674,2.517,0.674
		c1.594,0,2.762-0.832,2.762-2.992v-0.955h-0.03c-0.479,0.797-1.398,1.438-2.729,1.438C82.522,24.4,81,22.592,81,20.223
		c0-2.902,1.895-4.548,3.854-4.548c1.483,0,2.301,0.779,2.673,1.488h0.035l0.068-1.293L88.994,15.869L88.994,15.869z M87.382,19.25
		c0-0.266-0.021-0.496-0.088-0.709c-0.283-0.902-1.045-1.645-2.178-1.645c-1.486,0-2.553,1.256-2.553,3.238
		c0,1.683,0.854,3.08,2.531,3.08c0.953,0,1.818-0.603,2.154-1.594c0.094-0.267,0.125-0.566,0.125-0.832V19.25H87.382z"/>
	<path class="path" fill="#666666" d="M91.507,11.869h1.558v12.566h-1.558V11.869z"/>
	<path class="path" fill="#666666" d="M96.55,20.436c0.035,2.107,1.382,2.979,2.938,2.979c1.113,0,1.786-0.195,2.37-0.443l0.269,1.115
		c-0.549,0.248-1.485,0.526-2.853,0.526c-2.638,0-4.213-1.729-4.213-4.313s1.521-4.621,4.021-4.621c2.797,0,3.541,2.46,3.541,4.037
		c0,0.318-0.035,0.563-0.057,0.729H96.55V20.436z M101.117,19.32c0.021-0.99-0.406-2.531-2.158-2.531
		c-1.576,0-2.267,1.451-2.391,2.531H101.117z"/>
</g>
<g>
	<g>
		<polygon class="path" fill="#666666" points="37.604,16.59 37.604,18.84 39.854,18.84 39.854,21.094 37.604,21.094 37.604,23.344 
			35.354,23.344 35.354,21.094 33.104,21.094 33.104,18.84 35.354,18.84 35.354,16.59 		"/>
		<path class="path" fill="#666666" d="M17.354,25.594c-3-3-3-8.25,0.125-11.25c2.25-2.25,5.5-2.75,8.375-1.625l1.125,0.625l1.25,0.875l-2,2
			l-0.75-0.5c-1.75-1.125-4.25-0.875-5.875,0.75c-1.875,1.875-2,5.25,0,7.25c1.875,2,5.25,2,7,0c0.5-0.5,1-1.25,1.125-2v-0.25h-4.5
			v-2.5h7.125l0.125,0.625v1.75c-0.125,1.625-0.75,3.25-1.875,4.375C25.604,28.594,20.354,28.594,17.354,25.594z"/>
	</g>
</g>
<polygon class="path" fill="#E3563F" points="170.085,24.684 170.085,24.684 170.085,24.684 170.085,24.684 170.085,24.879 170.085,24.879 
	170.085,24.879 170.085,24.879 "/>
<g>
	<path class="path" fill="#666666" d="M97.839,1c10.477,0,19,8.523,19,19c0,10.477-8.523,19-19,19H20C9.523,39,1,30.477,1,20
		C1,9.524,9.523,1,20,1H97.839 M97.839,0H20C8.954,0,0,8.955,0,20c0,11.046,8.954,20,20,20h77.839c11.045,0,20-8.953,20-20
		C117.839,8.955,108.884,0,97.839,0L97.839,0z"/>
</g>
</svg>
