<?xml version="1.0" encoding="utf-8"?>
<!-- Generator: Adobe Illustrator 16.0.0, SVG Export Plug-In . SVG Version: 6.00 Build 0)  -->
<!DOCTYPE svg PUBLIC "-//W3C//DTD SVG 1.1//EN" "http://www.w3.org/Graphics/SVG/1.1/DTD/svg11.dtd">
<svg version="1.1" id="Layer_1" xmlns="http://www.w3.org/2000/svg" xmlns:xlink="http://www.w3.org/1999/xlink" x="0px" y="0px"
	 width="117.839px" height="40px" viewBox="0 0 117.839 40" enable-background="new 0 0 117.839 40" xml:space="preserve">
<path class="path" fill="#E3563F" d="M117.839,20c0,11.046-8.955,20-20,20H20C8.955,40,0,31.046,0,20l0,0C0,8.954,8.955,0,20,0h77.839
	C108.884,0,117.839,8.954,117.839,20L117.839,20z"/>
<g>
	<path fill="#FFFFFF" d="M59.837,23.904c-0.688,0.248-2.054,0.656-3.666,0.656c-1.806,0-3.293-0.461-4.461-1.576
		c-1.026-0.99-1.664-2.584-1.664-4.443c0.019-3.558,2.461-6.16,6.461-6.16c1.381,0,2.461,0.301,2.974,0.549l-0.372,1.256
		c-0.637-0.283-1.434-0.513-2.637-0.513c-2.903,0-4.797,1.806-4.797,4.795c0,3.028,1.823,4.815,4.602,4.815
		c1.01,0,1.699-0.143,2.054-0.318v-3.558h-2.425v-1.24h3.93v5.735h-0.002v0.002H59.837z"/>
	<path fill="#FFFFFF" d="M69.98,20.082c0,3.168-2.195,4.549-4.266,4.549c-2.319,0-4.106-1.699-4.106-4.408
		c0-2.867,1.876-4.548,4.248-4.548C68.316,15.673,69.98,17.462,69.98,20.082z M63.183,20.17c0,1.877,1.078,3.293,2.602,3.293
		c1.487,0,2.604-1.398,2.604-3.328c0-1.451-0.728-3.292-2.563-3.292C63.979,16.842,63.183,18.541,63.183,20.17z"/>
	<path fill="#FFFFFF" d="M79.697,20.082c0,3.168-2.195,4.549-4.266,4.549c-2.319,0-4.105-1.699-4.105-4.408
		c0-2.867,1.875-4.548,4.248-4.548C78.033,15.673,79.697,17.462,79.697,20.082z M72.901,20.17c0,1.877,1.08,3.293,2.603,3.293
		c1.486,0,2.604-1.398,2.604-3.328c0-1.451-0.728-3.292-2.565-3.292C73.699,16.842,72.901,18.541,72.901,20.17z"/>
	<path fill="#FFFFFF" d="M89.042,15.869c-0.035,0.62-0.07,1.311-0.07,2.354v4.975c0,1.966-0.391,3.169-1.223,3.911
		c-0.832,0.773-2.035,1.021-3.115,1.021c-1.022,0-2.155-0.248-2.85-0.707l0.391-1.188c0.563,0.354,1.451,0.674,2.516,0.674
		c1.594,0,2.762-0.832,2.762-2.992v-0.955h-0.031c-0.479,0.797-1.396,1.438-2.729,1.438c-2.123,0-3.646-1.809-3.646-4.177
		c0-2.902,1.896-4.548,3.855-4.548c1.484,0,2.301,0.779,2.674,1.488h0.034l0.069-1.293L89.042,15.869L89.042,15.869z M87.431,19.25
		c0-0.267-0.02-0.496-0.088-0.709c-0.283-0.902-1.045-1.646-2.178-1.646c-1.486,0-2.554,1.256-2.554,3.237
		c0,1.685,0.854,3.081,2.531,3.081c0.954,0,1.817-0.604,2.153-1.594c0.095-0.268,0.125-0.566,0.125-0.832V19.25H87.431z"/>
	<path fill="#FFFFFF" d="M91.556,11.869h1.558v12.566h-1.558V11.869z"/>
	<path fill="#FFFFFF" d="M96.599,20.436c0.035,2.107,1.382,2.979,2.938,2.979c1.113,0,1.787-0.194,2.371-0.442l0.268,1.114
		c-0.549,0.248-1.484,0.527-2.852,0.527c-2.639,0-4.214-1.73-4.214-4.314s1.521-4.622,4.021-4.622c2.799,0,3.541,2.46,3.541,4.038
		c0,0.318-0.033,0.563-0.057,0.729h-6.016V20.436L96.599,20.436z M101.166,19.319c0.021-0.99-0.406-2.531-2.158-2.531
		c-1.574,0-2.266,1.451-2.391,2.531H101.166z"/>
</g>
<g>
	<g>
		<polygon fill="#FFFFFF" points="37.653,16.59 37.653,18.84 39.903,18.84 39.903,21.094 37.653,21.094 37.653,23.344 
			35.403,23.344 35.403,21.094 33.153,21.094 33.153,18.84 35.403,18.84 35.403,16.59 		"/>
		<path fill="#FFFFFF" d="M17.403,25.594c-3-3-3-8.25,0.125-11.25c2.25-2.25,5.5-2.75,8.375-1.625l1.125,0.625l1.25,0.875l-2,2
			l-0.75-0.5c-1.75-1.125-4.25-0.875-5.875,0.75c-1.875,1.875-2,5.25,0,7.25c1.875,2,5.25,2,7,0c0.5-0.5,1-1.25,1.125-2v-0.25h-4.5
			v-2.5h7.125l0.125,0.625v1.75c-0.125,1.625-0.75,3.25-1.875,4.375C25.653,28.594,20.403,28.594,17.403,25.594z"/>
	</g>
</g>
<polygon fill="#E3563F" points="170.085,24.684 170.085,24.684 170.085,24.684 170.085,24.684 170.085,24.879 170.085,24.879 
	170.085,24.879 170.085,24.879 "/>
</svg>
