<?xml version="1.0" encoding="utf-8"?>
<!-- Generator: Adobe Illustrator 16.0.0, SVG Export Plug-In . SVG Version: 6.00 Build 0)  -->
<!DOCTYPE svg PUBLIC "-//W3C//DTD SVG 1.1//EN" "http://www.w3.org/Graphics/SVG/1.1/DTD/svg11.dtd">
<svg version="1.1" id="Layer_1" xmlns="http://www.w3.org/2000/svg" xmlns:xlink="http://www.w3.org/1999/xlink" x="0px" y="0px"
	 width="141.104px" height="90.001px" viewBox="-5.462 -10.001 141.104 90.001"
	 enable-background="new -5.462 -10.001 141.104 90.001" xml:space="preserve">
<path class="path" fill="#E8453C" d="M135.642,76.998c0,1.658-1.344,3-3,3H-2.462c-1.656,0-3-1.342-3-3v-84c0-1.657,1.344-3,3-3h135.104
	c1.656,0,3,1.343,3,3V76.998z"/>
<path opacity="0.16" enable-background="new    " d="M-5.462,73.194c0,1.656,1.344,3,3,3h135.104c1.656,0,3-1.344,3-3V77
	c0,1.656-1.344,3-3,3H-2.462c-1.656,0-3-1.344-3-3V73.194z"/>
<g>
	<g>
		<g>
			<polygon fill="#FFFFFF" points="83.327,10.024 83.327,14.079 87.383,14.079 87.383,18.14 83.327,18.14 83.327,22.195 
				79.27,22.195 79.27,18.14 75.216,18.14 75.216,14.079 79.27,14.079 79.27,10.024 			"/>
			<path fill="#FFFFFF" d="M46.825,26.252c-5.407-5.408-5.407-14.871,0.226-20.28c4.056-4.055,9.914-4.957,15.098-2.929l2.026,1.127
				l2.253,1.577l-3.604,3.605l-1.354-0.901c-3.154-2.028-7.661-1.578-10.59,1.351c-3.38,3.38-3.605,9.463,0,13.068
				c3.38,3.604,9.463,5.407,12.618,1.803c0.901-0.901,1.803-4.056,2.026-5.408v-0.45h-8.11v-4.507h12.843l0.227,1.127v3.155
				c-0.227,2.93-1.354,5.858-3.381,7.885C61.696,31.66,52.232,31.66,46.825,26.252z"/>
		</g>
	</g>
	<g>
		<path fill="#FFFFFF" d="M34.939,53.813v-2.101l7.58-0.012v6.641c-1.164,0.929-2.364,1.626-3.601,2.095
			c-1.237,0.467-2.507,0.701-3.809,0.701c-1.758,0-3.355-0.377-4.792-1.13c-1.436-0.752-2.521-1.841-3.253-3.265
			c-0.732-1.426-1.099-3.016-1.099-4.773c0-1.74,0.364-3.367,1.093-4.877c0.729-1.509,1.776-2.63,3.144-3.361
			c1.368-0.732,2.941-1.101,4.724-1.101c1.294,0,2.464,0.21,3.51,0.629c1.046,0.421,1.865,1.005,2.46,1.752
			c0.594,0.749,1.045,1.726,1.354,2.931l-2.136,0.586c-0.269-0.911-0.603-1.627-1.001-2.148c-0.399-0.521-0.969-0.938-1.709-1.251
			c-0.741-0.313-1.563-0.47-2.466-0.47c-1.083,0-2.019,0.164-2.808,0.494c-0.79,0.328-1.427,0.763-1.911,1.3
			c-0.483,0.537-0.86,1.128-1.129,1.771c-0.456,1.106-0.684,2.308-0.684,3.602c0,1.595,0.274,2.93,0.824,4.004
			c0.549,1.074,1.349,1.872,2.398,2.393c1.049,0.521,2.165,0.781,3.345,0.781c1.025,0,2.026-0.197,3.003-0.592
			c0.977-0.395,1.717-0.816,2.222-1.264v-3.332h-5.259V53.813z"/>
		<path fill="#FFFFFF" d="M44.912,54.352c0-2.401,0.667-4.18,2.002-5.336c1.115-0.959,2.474-1.439,4.077-1.439
			c1.782,0,3.239,0.584,4.37,1.752c1.131,1.167,1.696,2.781,1.696,4.84c0,1.668-0.25,2.98-0.75,3.938
			c-0.501,0.957-1.229,1.699-2.186,2.228c-0.956,0.528-2,0.794-3.131,0.794c-1.814,0-3.282-0.582-4.4-1.745
			C45.471,58.216,44.912,56.539,44.912,54.352z M47.171,54.352c0,1.659,0.361,2.902,1.086,3.729s1.636,1.238,2.734,1.238
			c1.091,0,1.998-0.414,2.723-1.244c0.724-0.83,1.086-2.096,1.086-3.797c0-1.604-0.364-2.817-1.093-3.645
			c-0.729-0.826-1.634-1.238-2.716-1.238c-1.099,0-2.01,0.41-2.734,1.232S47.171,52.689,47.171,54.352z"/>
		<path fill="#FFFFFF" d="M58.815,54.352c0-2.401,0.668-4.18,2.002-5.336c1.115-0.959,2.475-1.439,4.077-1.439
			c1.782,0,3.239,0.584,4.37,1.752c1.131,1.167,1.697,2.781,1.697,4.84c0,1.668-0.251,2.98-0.751,3.938
			c-0.501,0.957-1.229,1.699-2.187,2.228c-0.955,0.528-2,0.794-3.131,0.794c-1.814,0-3.281-0.582-4.4-1.745
			C59.375,58.216,58.815,56.539,58.815,54.352z M61.073,54.352c0,1.659,0.362,2.902,1.088,3.729
			c0.725,0.826,1.636,1.238,2.733,1.238c1.091,0,1.998-0.414,2.722-1.244c0.726-0.83,1.088-2.096,1.088-3.797
			c0-1.604-0.364-2.817-1.094-3.645c-0.729-0.826-1.634-1.238-2.715-1.238c-1.1,0-2.011,0.41-2.734,1.232
			C61.436,51.449,61.073,52.689,61.073,54.352z"/>
		<path fill="#FFFFFF" d="M73.134,61.906l2.136,0.316c0.09,0.659,0.338,1.141,0.745,1.44c0.545,0.407,1.29,0.61,2.233,0.61
			c1.018,0,1.803-0.203,2.355-0.61s0.928-0.978,1.123-1.709c0.114-0.447,0.168-1.388,0.159-2.819
			c-0.961,1.131-2.157,1.696-3.59,1.696c-1.781,0-3.161-0.644-4.138-1.929c-0.978-1.286-1.465-2.828-1.465-4.627
			c0-1.236,0.224-2.379,0.67-3.424c0.449-1.047,1.098-1.854,1.947-2.424c0.852-0.568,1.85-0.854,2.997-0.854
			c1.53,0,2.791,0.617,3.784,1.855v-1.563h2.025v11.206c0,2.019-0.205,3.447-0.615,4.291c-0.411,0.842-1.063,1.507-1.953,1.994
			c-0.893,0.488-1.988,0.732-3.29,0.732c-1.546,0-2.796-0.348-3.747-1.043C73.561,64.354,73.102,63.307,73.134,61.906z
			 M74.954,54.118c0,1.7,0.338,2.94,1.014,3.723s1.521,1.173,2.539,1.173c1.009,0,1.855-0.389,2.539-1.166s1.025-1.996,1.025-3.656
			c0-1.586-0.354-2.782-1.057-3.588c-0.704-0.807-1.553-1.209-2.545-1.209c-0.977,0-1.807,0.396-2.49,1.189
			C75.296,51.378,74.954,52.557,74.954,54.118z"/>
		<path fill="#FFFFFF" d="M87.393,60.832V42.938h2.197v17.896L87.393,60.832L87.393,60.832z"/>
		<path fill="#FFFFFF" d="M101.87,56.657l2.271,0.28c-0.357,1.326-1.021,2.355-1.988,3.088c-0.97,0.732-2.207,1.1-3.711,1.1
			c-1.896,0-3.4-0.584-4.512-1.752c-1.111-1.167-1.667-2.807-1.667-4.913c0-2.181,0.563-3.874,1.687-5.078s2.578-1.807,4.369-1.807
			c1.733,0,3.149,0.591,4.248,1.771c1.1,1.18,1.647,2.84,1.647,4.979c0,0.131-0.004,0.325-0.013,0.586h-9.668
			c0.082,1.425,0.483,2.516,1.209,3.271c0.725,0.758,1.627,1.137,2.709,1.137c0.807,0,1.494-0.213,2.063-0.635
			C101.085,58.261,101.536,57.585,101.87,56.657z M94.655,53.104h7.239c-0.098-1.09-0.374-1.906-0.829-2.453
			c-0.701-0.846-1.607-1.27-2.723-1.27c-1.01,0-1.857,0.338-2.546,1.014C95.11,51.07,94.729,51.975,94.655,53.104z"/>
	</g>
</g>
</svg>
