<?xml version="1.0" encoding="utf-8"?>
<!-- Generator: Adobe Illustrator 16.0.0, SVG Export Plug-In . SVG Version: 6.00 Build 0)  -->
<!DOCTYPE svg PUBLIC "-//W3C//DTD SVG 1.1//EN" "http://www.w3.org/Graphics/SVG/1.1/DTD/svg11.dtd">
<svg version="1.1" id="Layer_1" xmlns="http://www.w3.org/2000/svg" xmlns:xlink="http://www.w3.org/1999/xlink" x="0px" y="0px"
	 width="103.554px" height="40px" viewBox="14 0 103.554 40" enable-background="new 14 0 103.554 40" xml:space="preserve">
<path class="path" fill="#D02322" d="M117.554,35c0,2.762-2.238,5-5,5H19c-2.764,0-5-2.238-5-5V5c0-2.761,2.236-5,5-5h93.554c2.762,0,5,2.239,5,5
	V35z"/>
<g>
	<g>
		<path fill="#FFFFFF" d="M95.243,19.687L95.243,19.687h1.537c0.209,0,0.333-0.086,0.379-0.281c0.071-0.284,0.191-0.777,0.228-0.911
			c0.046-0.177-0.058-0.311-0.25-0.311H95.62c0.108-0.433,0.534-1.844,0.534-2.762c0-1.833-1.558-3.394-3.769-3.394
			c-2.496,0-4.12,1.674-4.12,4.031c0,0.688,0.257,1.488,0.575,1.987c-0.132-0.009-0.27-0.015-0.41-0.015
			c-1.898,0-3.091,1.03-3.091,2.529c0,1.405,1.105,1.952,2.148,2.313c0.929,0.324,1.778,0.473,1.778,1.196
			c0,0.487-0.468,0.774-1.386,0.774c-1.09,0-1.689-0.513-1.843-0.707c0.104-0.081,0.256-0.275,0.256-0.597
			c0-0.448-0.315-0.815-0.901-0.815c-0.498,0-0.918,0.405-1.022,0.938c-0.798,0.654-1.669,1.076-2.901,1.076
			c-1.218,0-1.85-0.636-1.85-1.98c0.286,0.086,1.029,0.189,1.521,0.189c2.058,0,3.462-0.935,3.462-2.809
			c0-1.008-0.885-2.065-2.636-2.065h-0.006c-2.301,0-3.588,1.458-4.154,3.063c-0.157-0.039-0.315-0.075-0.474-0.111
			c0.128-0.356,0.218-0.768,0.218-1.224c0-0.793-0.491-1.728-1.804-1.728c-0.915,0-1.783,0.598-2.384,1.496
			c0.149-0.585,0.246-0.975,0.256-1c0.038-0.153-0.026-0.325-0.265-0.325h-1.35c-0.188,0-0.328,0.067-0.382,0.287
			c-0.037,0.145-0.5,1.962-0.951,3.729c-0.282,1.103-1.752,2.477-3.597,2.477c-1.218,0-1.847-0.674-1.847-2.022
			c0.318,0.127,1.028,0.234,1.515,0.234c2.145,0,3.467-0.936,3.467-2.81c0-1.008-0.885-2.065-2.635-2.065H67.57
			c-2.591,0-4.178,2.013-4.449,4.296c-0.112,0.948-0.913,2.251-1.781,2.251c-0.423,0-0.659-0.264-0.659-0.717
			c0-0.389,0.273-1.341,0.575-2.536c0.101-0.398,0.253-1.007,0.423-1.682h1.411c0.21,0,0.331-0.085,0.379-0.281
			c0.069-0.284,0.19-0.777,0.226-0.911c0.046-0.177-0.056-0.311-0.251-0.311h-1.388c0,0,0.639-2.545,0.652-2.611
			c0.063-0.259-0.154-0.408-0.381-0.36c0,0-1.073,0.209-1.271,0.251c-0.199,0.04-0.354,0.149-0.427,0.439
			c-0.009,0.035-0.568,2.281-0.568,2.281h-1.11c-0.212,0-0.332,0.086-0.381,0.282c-0.068,0.282-0.192,0.776-0.228,0.91
			c-0.045,0.176,0.058,0.31,0.253,0.31h1.09c-0.007,0.032-0.392,1.501-0.705,2.816c-0.147,0.635-0.641,2.114-1.446,2.114
			c-0.481,0-0.685-0.243-0.685-0.765c0-0.819,0.807-2.876,0.807-3.809c0-1.247-0.668-1.969-2.037-1.969
			c-0.865,0-1.758,0.558-2.14,1.048c0,0,0.115-0.4,0.158-0.555c0.041-0.163-0.046-0.321-0.261-0.321h-1.338
			c-0.286,0-0.363,0.151-0.405,0.319c-0.017,0.067-0.5,1.961-0.962,3.78c-0.317,1.246-1.087,2.286-1.91,2.286
			c-0.424,0-0.613-0.265-0.613-0.717c0-0.391,0.25-1.351,0.553-2.546c0.367-1.452,0.688-2.647,0.722-2.789
			c0.045-0.179-0.034-0.334-0.265-0.334h-1.348c-0.243,0-0.332,0.127-0.384,0.306c0,0-0.379,1.434-0.78,3.031
			c-0.292,1.158-0.613,2.343-0.613,2.896c0,0.993,0.443,1.739,1.667,1.739c0.942,0,1.69-0.479,2.259-1.091
			c-0.084,0.329-0.138,0.541-0.143,0.56c-0.05,0.187,0.009,0.357,0.232,0.357h1.378c0.241,0,0.332-0.099,0.384-0.306
			c0.045-0.2,1.077-4.25,1.077-4.25c0.272-1.087,0.944-1.808,1.894-1.808c0.447,0,0.837,0.298,0.791,0.874
			c-0.049,0.636-0.814,2.921-0.814,3.921c0,0.758,0.28,1.742,1.707,1.742c0.975,0,1.693-0.471,2.213-1.072
			c0.189,0.642,0.695,1.072,1.623,1.072c1.54,0,2.469-0.915,3.013-1.832c0.455,1.065,1.514,1.832,3.071,1.832
			c1.586,0,2.812-0.671,3.679-1.578c-0.155,0.612-0.263,1.03-0.271,1.064c-0.05,0.188,0.035,0.342,0.26,0.342h1.364
			c0.186,0,0.319-0.099,0.366-0.297c0.021-0.092,0.22-0.855,0.5-1.937c0.531-2.072,1.387-4.219,2.673-4.219
			c0.456,0,0.642,0.253,0.642,0.653c0,0.187-0.054,0.349-0.103,0.438c-0.62-0.123-1.123,0.182-1.123,0.848
			c0,0.435,0.455,0.83,1.072,0.83c0.471,0,0.861-0.115,1.171-0.324c0.289,0.059,0.6,0.125,0.913,0.195
			c-0.048,0.312-0.072,0.618-0.072,0.907c0,1.663,1.249,3.073,3.376,3.073c1.671,0,2.737-0.558,3.739-1.393
			c0.475,0.779,1.675,1.406,3.248,1.406c2.155,0,3.379-1.125,3.379-2.603c0-1.342-1.102-1.837-2.237-2.244
			c-0.925-0.332-1.693-0.515-1.693-1.168c0-0.536,0.42-0.78,1.142-0.78c0.469,0,0.818,0.1,1.009,0.153
			c0.186,0.467,0.57,0.981,1.227,0.981c0.558,0,0.807-0.438,0.807-0.843c0-1.154-1.922-1.274-1.922-3.749
			c0-1.537,0.872-2.805,2.674-2.805c1.253,0,2.072,0.793,2.072,2.074c0,1.058-0.643,2.938-0.643,2.938h-1.091
			c-0.209,0-0.332,0.086-0.381,0.282c-0.069,0.282-0.191,0.776-0.228,0.91c-0.044,0.176,0.058,0.31,0.252,0.31h1.066
			c0,0-1.101,4.057-1.101,4.79c0,0.993,0.559,1.738,1.782,1.738c1.729,0,2.812-1.125,3.28-2.758c0.037-0.128-0.036-0.23-0.163-0.23
			h-0.659c-0.131,0-0.21,0.074-0.242,0.203c-0.148,0.581-0.52,1.189-1.245,1.189c-0.423,0-0.659-0.264-0.659-0.716
			c0-0.388,0.257-1.302,0.576-2.535C94.976,20.781,95.243,19.687,95.243,19.687z M81.606,19.618c0.614,0,0.903,0.407,0.903,0.891
			c0,0.82-0.635,1.321-1.629,1.321c-0.359,0-0.856-0.085-1.149-0.183C79.854,20.894,80.399,19.618,81.606,19.618z M67.218,19.618
			c0.67,0,0.9,0.407,0.9,0.891c0,0.82-0.636,1.321-1.63,1.321c-0.357,0-0.854-0.085-1.149-0.183
			C65.464,20.894,65.949,19.618,67.218,19.618z M48.833,17.414c0.688,0,1.285-0.579,1.332-1.291
			c0.048-0.711-0.469-1.289-1.158-1.289c-0.686,0-1.28,0.578-1.331,1.289C47.629,16.835,48.146,17.414,48.833,17.414z M40.567,12
			c-4.187,0-6.411,2.81-6.411,5.873c0,1.423,0.757,3.195,1.969,3.757c0.185,0.088,0.282,0.049,0.324-0.13
			c0.031-0.132,0.196-0.791,0.272-1.099c0.023-0.098,0.012-0.182-0.07-0.279c-0.398-0.485-0.72-1.379-0.72-2.213
			c0-2.14,1.621-4.21,4.38-4.21c2.387,0,4.054,1.624,4.054,3.947c0,2.625-1.323,4.443-3.048,4.443c-0.955,0-1.667-0.786-1.438-1.754
			c0.274-1.153,0.803-2.398,0.803-3.229c0-0.746-0.4-1.368-1.227-1.368c-0.973,0-1.756,1.007-1.756,2.357
			c0,0.86,0.292,1.44,0.292,1.44s-0.96,4.066-1.137,4.823c-0.3,1.285,0.041,3.364,0.07,3.547c0.014,0.101,0.124,0.131,0.185,0.05
			c0.096-0.128,1.254-1.865,1.583-3.122c0.116-0.453,0.603-2.306,0.603-2.306c0.319,0.603,1.241,1.113,2.225,1.113
			c2.928,0,5.035-2.693,5.035-6.035C46.549,14.398,43.933,12,40.567,12z"/>
	</g>
</g>
</svg>
