<?xml version="1.0" encoding="utf-8"?>
<!-- Generator: Adobe Illustrator 16.0.0, SVG Export Plug-In . SVG Version: 6.00 Build 0)  -->
<!DOCTYPE svg PUBLIC "-//W3C//DTD SVG 1.1//EN" "http://www.w3.org/Graphics/SVG/1.1/DTD/svg11.dtd">
<svg version="1.1" id="Layer_1" xmlns="http://www.w3.org/2000/svg" xmlns:xlink="http://www.w3.org/1999/xlink" x="0px" y="0px"
	 width="131.553px" height="40px" viewBox="0 0 131.553 40" enable-background="new 0 0 131.553 40" xml:space="preserve">
<path class="path" fill="#D02322" d="M131.554,35c0,2.762-2.238,5-5,5H5c-2.762,0-5-2.238-5-5V5c0-2.761,2.238-5,5-5h121.554c2.762,0,5,2.239,5,5
	V35z"/>
<path fill="#FFFFFF" d="M66.382,7.5c-7.047,0-10.6,4.893-10.6,8.971c0,2.471,0.965,4.667,3.038,5.486
	c0.339,0.135,0.646,0.006,0.743-0.359l0.302-1.153c0.102-0.358,0.063-0.485-0.212-0.8c-0.6-0.682-0.979-1.565-0.979-2.817
	c0-3.629,2.804-6.877,7.302-6.877c3.984,0,6.171,2.355,6.171,5.502c0,4.141-1.893,7.635-4.703,7.635c-1.55,0-2.712-1.24-2.339-2.767
	c0.444-1.817,1.31-3.782,1.31-5.095c0-1.173-0.651-2.156-2.001-2.156c-1.586,0-2.859,1.589-2.859,3.718
	c0,1.356,0.474,2.272,0.474,2.272l-1.908,7.827c-0.565,2.32-0.084,5.168-0.044,5.455c0.024,0.17,0.25,0.211,0.354,0.084
	c0.146-0.186,2.035-2.445,2.678-4.703c0.182-0.639,1.043-3.947,1.043-3.947c0.516,0.955,2.021,1.791,3.623,1.791
	c4.766,0,8.002-4.207,8.002-9.84C75.771,11.467,72.046,7.5,66.382,7.5z"/>
</svg>
