<?xml version="1.0" encoding="utf-8"?>
<!-- Generator: Adobe Illustrator 16.0.0, SVG Export Plug-In . SVG Version: 6.00 Build 0)  -->
<!DOCTYPE svg PUBLIC "-//W3C//DTD SVG 1.1//EN" "http://www.w3.org/Graphics/SVG/1.1/DTD/svg11.dtd">
<svg version="1.1" id="Layer_1" xmlns="http://www.w3.org/2000/svg" xmlns:xlink="http://www.w3.org/1999/xlink" x="0px" y="0px"
	 width="40px" height="40px" viewBox="0 0 40 40" enable-background="new 0 0 40 40" xml:space="preserve">
<path class="path" fill-rule="evenodd" clip-rule="evenodd" fill="#D02322" d="M10,0h20c2.842,0,10,0,10,0s0,7.32,0,10v20c0,5.523-4.477,10-10,10
	H10c-3.024,0-10,0-10,0s0-7.502,0-10V10C0,4.477,4.478,0,10,0z"/>
<path fill="#FFFFFF" d="M20.605,7.758c-7.048,0-10.602,4.893-10.602,8.971c0,2.471,0.965,4.667,3.038,5.486
	c0.339,0.135,0.646,0.006,0.743-0.359l0.302-1.151c0.101-0.358,0.062-0.485-0.212-0.8c-0.6-0.682-0.979-1.564-0.979-2.816
	c0-3.629,2.804-6.877,7.302-6.877c3.981,0,6.171,2.355,6.171,5.502c0,4.141-1.895,7.637-4.702,7.637c-1.551,0-2.713-1.24-2.34-2.77
	c0.444-1.816,1.312-3.781,1.312-5.095c0-1.173-0.653-2.156-2.001-2.156c-1.586,0-2.86,1.589-2.86,3.718
	c0,1.356,0.474,2.272,0.474,2.272l-1.908,7.828c-0.566,2.319-0.084,5.168-0.044,5.455c0.024,0.17,0.25,0.211,0.353,0.084
	c0.146-0.187,2.035-2.444,2.678-4.703c0.182-0.64,1.043-3.946,1.043-3.946c0.516,0.954,2.021,1.791,3.623,1.791
	c4.766,0,8.001-4.208,8.001-9.841C29.994,11.725,26.27,7.758,20.605,7.758z"/>
</svg>
