<?xml version="1.0" encoding="utf-8"?>
<!-- Generator: Adobe Illustrator 16.0.0, SVG Export Plug-In . SVG Version: 6.00 Build 0)  -->
<!DOCTYPE svg PUBLIC "-//W3C//DTD SVG 1.1//EN" "http://www.w3.org/Graphics/SVG/1.1/DTD/svg11.dtd">
<svg version="1.1" id="Layer_1" xmlns="http://www.w3.org/2000/svg" xmlns:xlink="http://www.w3.org/1999/xlink" x="0px" y="0px"
	 width="40px" height="40px" viewBox="0 0 40 40" enable-background="new 0 0 40 40" xml:space="preserve">
<path class="path" fill="#D02322" d="M40,35c0,2.762-2.238,5-5,5H5c-2.762,0-5-2.238-5-5V5c0-2.762,2.238-5,5-5h30c2.762,0,5,2.238,5,5V35z"/>
<g>
	<g>
		<g>
			<defs>
				<polygon id="SVGID_1_" points="26.888,9.817 60.848,39.294 45.918,56.542 14.299,32.604 15.958,28.125 16.812,26.604 
					18.25,23.063 20.542,24.25 26.75,22.875 				"/>
			</defs>
			<clipPath id="SVGID_2_">
				<use xlink:href="#SVGID_1_"  overflow="visible"/>
			</clipPath>
			<path clip-path="url(#SVGID_2_)" fill="#A31C1C" d="M40,35.042c0,2.762-2.238,4.998-5,4.998H5c-2.761,0-5-2.236-5-4.998v-30
				c0-2.761,2.239-5,5-5h30c2.762,0,5,2.239,5,5V35.042z"/>
		</g>
	</g>
</g>
<path fill="#FFFFFF" d="M20.605,7.758c-7.048,0-10.603,4.893-10.603,8.971c0,2.471,0.965,4.667,3.038,5.486
	c0.339,0.135,0.646,0.006,0.743-0.359l0.302-1.15c0.101-0.358,0.062-0.485-0.212-0.8c-0.6-0.682-0.979-1.564-0.979-2.816
	c0-3.629,2.804-6.877,7.302-6.877c3.981,0,6.171,2.355,6.171,5.502c0,4.141-1.896,7.638-4.702,7.638c-1.551,0-2.713-1.24-2.34-2.771
	c0.444-1.816,1.313-3.781,1.313-5.095c0-1.173-0.654-2.156-2.001-2.156c-1.586,0-2.86,1.589-2.86,3.718
	c0,1.356,0.474,2.272,0.474,2.272l-1.908,7.829c-0.566,2.318-0.084,5.168-0.044,5.455c0.024,0.17,0.25,0.211,0.353,0.084
	c0.146-0.188,2.035-2.444,2.678-4.703c0.182-0.641,1.043-3.946,1.043-3.946c0.516,0.954,2.021,1.791,3.623,1.791
	c4.766,0,8.001-4.208,8.001-9.841C29.994,11.725,26.27,7.758,20.605,7.758z"/>
</svg>
