<?xml version="1.0" encoding="utf-8"?>
<!-- Generator: Adobe Illustrator 16.0.0, SVG Export Plug-In . SVG Version: 6.00 Build 0)  -->
<!DOCTYPE svg PUBLIC "-//W3C//DTD SVG 1.1//EN" "http://www.w3.org/Graphics/SVG/1.1/DTD/svg11.dtd">
<svg version="1.1" id="Layer_1" xmlns="http://www.w3.org/2000/svg" xmlns:xlink="http://www.w3.org/1999/xlink" x="0px" y="0px"
	 width="117.582px" height="40px" viewBox="0 0 117.582 40" enable-background="new 0 0 117.582 40" xml:space="preserve">
<path fill="#FFFFFF" d="M0,40V5c0-2.761,2.238-5,5-5h107.582c2.761,0,5,2.239,5,5v35"/>
<g>
	<path class="path" fill="#D02322" d="M39.393,14.133c0.744-0.124,1.717-0.23,2.955-0.23c1.523,0,2.639,0.354,3.346,0.991
		c0.656,0.566,1.045,1.434,1.045,2.496c0,1.079-0.318,1.929-0.92,2.549c-0.814,0.868-2.143,1.31-3.646,1.31
		c-0.461,0-0.885-0.019-1.24-0.106v4.778h-1.539L39.393,14.133L39.393,14.133z M40.932,19.885c0.338,0.089,0.762,0.124,1.275,0.124
		c1.857,0,2.99-0.902,2.99-2.549c0-1.575-1.113-2.336-2.813-2.336c-0.674,0-1.188,0.053-1.453,0.124L40.932,19.885L40.932,19.885z"
		/>
	<path class="path" fill="#D02322" d="M50.207,14.947c0.018,0.531-0.371,0.956-0.99,0.956c-0.549,0-0.938-0.425-0.938-0.956
		c0-0.549,0.406-0.974,0.973-0.974C49.836,13.973,50.207,14.398,50.207,14.947z M48.473,25.92v-8.566h1.559v8.566H48.473z"/>
	<path class="path" fill="#D02322" d="M52.615,19.673c0-0.885-0.018-1.611-0.07-2.319h1.379l0.09,1.416h0.035c0.424-0.813,1.416-1.61,2.832-1.61
		c1.186,0,3.027,0.708,3.027,3.646v5.111H58.35V20.98c0-1.38-0.514-2.53-1.982-2.53c-1.027,0-1.822,0.726-2.088,1.594
		c-0.072,0.194-0.107,0.46-0.107,0.728v5.147h-1.557L52.615,19.673L52.615,19.673z"/>
	<path class="path" fill="#D02322" d="M64.244,14.894v2.46h2.23v1.186h-2.23v4.62c0,1.061,0.301,1.662,1.168,1.662
		c0.406,0,0.709-0.053,0.902-0.105l0.067,1.168c-0.301,0.125-0.774,0.213-1.379,0.213c-0.729,0-1.313-0.229-1.683-0.654
		c-0.442-0.461-0.604-1.223-0.604-2.229V18.54h-1.328v-1.186h1.328v-2.053L64.244,14.894z"/>
	<path class="path" fill="#D02322" d="M68.986,21.92c0.035,2.107,1.381,2.975,2.938,2.975c1.115,0,1.787-0.192,2.371-0.44l0.268,1.112
		c-0.549,0.248-1.485,0.531-2.852,0.531c-2.637,0-4.213-1.731-4.213-4.316c0-2.583,1.521-4.619,4.02-4.619
		c2.797,0,3.541,2.46,3.541,4.033c0,0.318-0.035,0.566-0.055,0.728L68.986,21.92L68.986,21.92z M73.553,20.807
		c0.021-0.992-0.406-2.532-2.158-2.532c-1.576,0-2.266,1.451-2.391,2.532H73.553z"/>
	<path class="path" fill="#D02322" d="M76.988,20.026c0-1.009-0.018-1.876-0.07-2.672h1.361l0.055,1.681h0.07c0.389-1.15,1.326-1.876,2.371-1.876
		c0.178,0,0.301,0.018,0.44,0.053v1.469c-0.157-0.035-0.315-0.053-0.528-0.053c-1.101,0-1.877,0.831-2.09,2
		c-0.035,0.212-0.07,0.46-0.07,0.726v4.565h-1.539V20.026z"/>
	<path class="path" fill="#D02322" d="M83.465,21.92c0.035,2.107,1.381,2.975,2.939,2.975c1.115,0,1.787-0.192,2.371-0.44l0.266,1.112
		c-0.549,0.248-1.486,0.531-2.85,0.531c-2.637,0-4.213-1.731-4.213-4.316c0-2.583,1.521-4.619,4.018-4.619
		c2.797,0,3.541,2.46,3.541,4.033c0,0.318-0.035,0.566-0.053,0.728L83.465,21.92L83.465,21.92z M88.031,20.807
		c0.02-0.992-0.406-2.532-2.158-2.532c-1.576,0-2.266,1.451-2.391,2.532H88.031z"/>
	<path class="path" fill="#D02322" d="M91.254,24.328c0.461,0.301,1.275,0.619,2.053,0.619c1.133,0,1.664-0.566,1.664-1.275
		c0-0.742-0.441-1.15-1.592-1.574c-1.541-0.549-2.266-1.396-2.266-2.425c0-1.381,1.113-2.514,2.955-2.514
		c0.867,0,1.629,0.248,2.104,0.531l-0.389,1.133c-0.336-0.213-0.955-0.496-1.752-0.496c-0.922,0-1.436,0.531-1.436,1.168
		c0,0.708,0.514,1.026,1.629,1.45c1.485,0.564,2.246,1.31,2.246,2.584c0,1.505-1.169,2.564-3.203,2.564
		c-0.938,0-1.806-0.229-2.404-0.584L91.254,24.328z"/>
	<path class="path" fill="#D02322" d="M100.352,14.894v2.46h2.23v1.186h-2.23v4.62c0,1.061,0.301,1.662,1.168,1.662
		c0.406,0,0.709-0.053,0.902-0.105l0.07,1.168c-0.301,0.125-0.777,0.213-1.379,0.213c-0.727,0-1.313-0.229-1.682-0.654
		c-0.443-0.461-0.604-1.223-0.604-2.229V18.54H97.5v-1.186h1.328v-2.053L100.352,14.894z"/>
</g>
<path class="path" fill="#D02322" d="M22.633,11.06c-5.074,0-7.633,3.522-7.633,6.458c0,1.779,0.694,3.36,2.187,3.949
	c0.244,0.098,0.465,0.006,0.535-0.259l0.217-0.829c0.072-0.257,0.044-0.348-0.153-0.574c-0.431-0.491-0.704-1.127-0.704-2.028
	c0-2.612,2.018-4.95,5.256-4.95c2.865,0,4.441,1.695,4.441,3.96c0,2.98-1.365,5.499-3.385,5.499c-1.115,0-1.952-0.894-1.684-1.996
	c0.32-1.308,0.945-2.722,0.945-3.668c0-0.844-0.471-1.552-1.441-1.552c-1.141,0-2.058,1.144-2.058,2.676
	c0,0.976,0.341,1.635,0.341,1.635l-1.374,5.637c-0.407,1.668-0.061,3.723-0.032,3.926c0.018,0.123,0.18,0.152,0.254,0.063
	c0.105-0.137,1.465-1.76,1.928-3.386c0.131-0.461,0.75-2.844,0.75-2.844c0.371,0.688,1.455,1.289,2.607,1.289
	c3.432,0,5.76-3.025,5.76-7.083C29.391,13.915,26.709,11.06,22.633,11.06z"/>
<rect y="36" class="path" fill="#D02322" width="117.582" height="4"/>
</svg>
