<?xml version="1.0" encoding="utf-8"?>
<!-- Generator: Adobe Illustrator 16.0.0, SVG Export Plug-In . SVG Version: 6.00 Build 0)  -->
<!DOCTYPE svg PUBLIC "-//W3C//DTD SVG 1.1//EN" "http://www.w3.org/Graphics/SVG/1.1/DTD/svg11.dtd">
<svg version="1.1" id="Layer_1" xmlns="http://www.w3.org/2000/svg" xmlns:xlink="http://www.w3.org/1999/xlink" x="0px" y="0px"
	 width="137.81px" height="90px" viewBox="-9.014 -10 137.81 90" enable-background="new -9.014 -10 137.81 90"
	 xml:space="preserve">
<path class="path" fill="#CB1F27" d="M128.796,77c0,1.656-1.344,3-3,3H-6.014c-1.657,0-3-1.344-3-3V-7c0-1.658,1.343-3,3-3h131.81
	c1.656,0,3,1.342,3,3V77z"/>
<path opacity="0.16" enable-background="new    " d="M-9.014,73.135c0,1.658,1.343,3,3,3h131.81c1.656,0,3-1.342,3-3v3.805
	c0,1.658-1.344,3-3,3H-6.014c-1.657,0-3-1.342-3-3V73.135z"/>
<g>
	<path fill="#FFFFFF" d="M60.571,0c-7.893,0-11.875,5.479-11.875,10.047c0,2.767,1.077,5.227,3.401,6.143
		c0.38,0.153,0.725,0.009,0.832-0.403l0.338-1.29c0.112-0.4,0.068-0.542-0.235-0.894c-0.672-0.763-1.096-1.753-1.096-3.155
		c0-4.063,3.141-7.701,8.177-7.701c4.457,0,6.906,2.637,6.906,6.161c0,4.636-2.122,8.555-5.266,8.555
		c-1.734,0-3.038-1.39-2.62-3.104c0.497-2.035,1.468-4.235,1.468-5.707c0-1.313-0.731-2.414-2.239-2.414
		c-1.776,0-3.205,1.78-3.205,4.163c0,1.519,0.532,2.544,0.532,2.544l-2.137,8.77c-0.634,2.595-0.097,5.793-0.051,6.107
		c0.028,0.191,0.28,0.236,0.396,0.098c0.163-0.213,2.28-2.738,3-5.268c0.204-0.717,1.167-4.424,1.167-4.424
		c0.577,1.07,2.264,2.005,4.055,2.005c5.341,0,8.962-4.706,8.962-11.019C71.084,4.442,66.912,0,60.571,0z"/>
	<g>
		<path fill="#FFFFFF" d="M11.619,63.708V45.813h6.751c1.188,0,2.095,0.058,2.722,0.17c0.879,0.146,1.615,0.427,2.21,0.836
			c0.594,0.412,1.071,0.988,1.435,1.729c0.361,0.741,0.543,1.555,0.543,2.441c0,1.521-0.483,2.81-1.452,3.863
			c-0.97,1.053-2.719,1.58-5.249,1.58h-4.591v7.275H11.619z M13.987,54.321h4.627c1.528,0,2.615-0.285,3.259-0.855
			c0.643-0.568,0.964-1.371,0.964-2.404c0-0.748-0.188-1.39-0.567-1.922c-0.378-0.533-0.877-0.886-1.495-1.057
			c-0.397-0.105-1.135-0.158-2.209-0.158h-4.578V54.321z"/>
		<path fill="#FFFFFF" d="M28.024,48.338v-2.525h2.197v2.525H28.024z M28.024,63.708V50.744h2.197v12.964H28.024z"/>
		<path fill="#FFFFFF" d="M33.566,63.708V50.744h1.978v1.843c0.953-1.424,2.328-2.136,4.127-2.136c0.781,0,1.499,0.141,2.154,0.421
			c0.653,0.281,1.146,0.648,1.471,1.105c0.325,0.455,0.554,0.996,0.684,1.623c0.081,0.406,0.122,1.118,0.122,2.137v7.971h-2.196
			v-7.887c0-0.896-0.085-1.563-0.258-2.008c-0.17-0.443-0.474-0.797-0.908-1.063c-0.436-0.266-0.946-0.396-1.532-0.396
			c-0.937,0-1.743,0.299-2.423,0.893c-0.681,0.594-1.02,1.721-1.02,3.381v7.08H33.566z"/>
		<path fill="#FFFFFF" d="M52.267,61.743l0.317,1.939c-0.618,0.131-1.172,0.195-1.66,0.195c-0.798,0-1.416-0.126-1.854-0.378
			c-0.439-0.252-0.749-0.584-0.929-0.995c-0.179-0.411-0.269-1.275-0.269-2.595v-7.458h-1.611v-1.709h1.611v-3.21l2.186-1.318v4.528
			h2.209v1.709h-2.209v7.581c0,0.627,0.038,1.028,0.115,1.208c0.077,0.179,0.203,0.32,0.379,0.427
			c0.175,0.106,0.425,0.159,0.75,0.159C51.547,61.828,51.87,61.799,52.267,61.743z"/>
		<path fill="#FFFFFF" d="M63.29,59.533l2.271,0.28c-0.357,1.326-1.021,2.355-1.989,3.088c-0.97,0.733-2.206,1.1-3.712,1.1
			c-1.896,0-3.399-0.584-4.51-1.752c-1.11-1.168-1.666-2.805-1.666-4.913c0-2.181,0.562-3.874,1.685-5.078s2.58-1.807,4.371-1.807
			c1.731,0,3.147,0.591,4.248,1.771c1.098,1.18,1.646,2.84,1.646,4.98c0,0.13-0.004,0.324-0.013,0.586h-9.667
			c0.082,1.424,0.483,2.514,1.209,3.271c0.725,0.756,1.628,1.135,2.709,1.135c0.806,0,1.493-0.211,2.063-0.635
			C62.505,61.136,62.956,60.46,63.29,59.533z M56.077,55.981h7.237c-0.098-1.092-0.374-1.908-0.829-2.455
			c-0.7-0.846-1.607-1.27-2.724-1.27c-1.008,0-1.856,0.338-2.544,1.014C56.53,53.946,56.148,54.85,56.077,55.981z"/>
		<path fill="#FFFFFF" d="M68.295,63.708V50.744h1.979v1.966c0.505-0.92,0.971-1.525,1.397-1.818s0.897-0.439,1.409-0.439
			c0.741,0,1.494,0.236,2.259,0.708l-0.757,2.039c-0.537-0.318-1.074-0.478-1.611-0.478c-0.479,0-0.911,0.146-1.294,0.435
			c-0.383,0.288-0.655,0.688-0.816,1.202c-0.244,0.781-0.367,1.636-0.367,2.563v6.787H68.295z"/>
		<path fill="#FFFFFF" d="M85.519,59.533l2.271,0.28c-0.358,1.326-1.021,2.355-1.989,3.088c-0.969,0.733-2.206,1.1-3.711,1.1
			c-1.896,0-3.4-0.584-4.511-1.752c-1.111-1.168-1.667-2.805-1.667-4.913c0-2.181,0.563-3.874,1.686-5.078s2.579-1.807,4.369-1.807
			c1.734,0,3.15,0.591,4.248,1.771c1.1,1.18,1.648,2.84,1.648,4.98c0,0.13-0.004,0.324-0.013,0.586h-9.668
			c0.081,1.424,0.483,2.514,1.208,3.271c0.726,0.756,1.628,1.135,2.71,1.135c0.807,0,1.493-0.211,2.063-0.635
			C84.734,61.136,85.185,60.46,85.519,59.533z M78.305,55.981h7.239c-0.098-1.092-0.374-1.908-0.83-2.455
			c-0.7-0.846-1.607-1.27-2.722-1.27c-1.011,0-1.858,0.338-2.546,1.014S78.379,54.85,78.305,55.981z"/>
		<path fill="#FFFFFF" d="M89.67,59.838l2.172-0.342c0.123,0.871,0.462,1.537,1.021,2.002c0.558,0.463,1.337,0.695,2.338,0.695
			c1.009,0,1.758-0.205,2.246-0.616c0.487-0.411,0.731-0.894,0.731-1.446c0-0.496-0.216-0.887-0.646-1.172
			c-0.303-0.195-1.052-0.443-2.246-0.745c-1.611-0.407-2.729-0.759-3.353-1.056c-0.622-0.297-1.095-0.708-1.416-1.233
			c-0.32-0.524-0.481-1.104-0.481-1.739c0-0.578,0.133-1.112,0.396-1.604c0.265-0.492,0.624-0.899,1.08-1.228
			c0.342-0.252,0.809-0.465,1.397-0.641c0.59-0.176,1.223-0.263,1.897-0.263c1.019,0,1.91,0.146,2.681,0.438
			c0.769,0.293,1.336,0.689,1.702,1.19c0.365,0.5,0.618,1.17,0.757,2.008l-2.148,0.293c-0.098-0.667-0.38-1.188-0.848-1.563
			c-0.47-0.373-1.129-0.562-1.984-0.562c-1.009,0-1.729,0.167-2.16,0.501c-0.431,0.334-0.646,0.725-0.646,1.172
			c0,0.285,0.089,0.541,0.268,0.77c0.18,0.236,0.46,0.432,0.843,0.586c0.221,0.081,0.866,0.269,1.94,0.562
			c1.555,0.415,2.639,0.755,3.254,1.021c0.614,0.264,1.097,0.648,1.446,1.152c0.349,0.506,0.523,1.133,0.523,1.881
			c0,0.731-0.213,1.422-0.641,2.068c-0.427,0.646-1.043,1.147-1.85,1.501C97.14,63.824,96.228,64,95.211,64
			c-1.684,0-2.968-0.35-3.851-1.05C90.476,62.25,89.914,61.213,89.67,59.838z"/>
		<path fill="#FFFFFF" d="M107.846,61.743l0.317,1.939c-0.618,0.131-1.172,0.195-1.66,0.195c-0.798,0-1.416-0.126-1.855-0.378
			c-0.438-0.252-0.749-0.584-0.928-0.995s-0.269-1.275-0.269-2.595v-7.458h-1.611v-1.709h1.611v-3.21l2.186-1.318v4.528h2.209v1.709
			h-2.209v7.581c0,0.627,0.038,1.028,0.115,1.208c0.077,0.179,0.203,0.32,0.379,0.427c0.175,0.106,0.425,0.159,0.75,0.159
			C107.125,61.828,107.447,61.799,107.846,61.743z"/>
	</g>
</g>
</svg>
