<?xml version="1.0" encoding="utf-8"?>
<!-- Generator: Adobe Illustrator 16.0.0, SVG Export Plug-In . SVG Version: 6.00 Build 0)  -->
<!DOCTYPE svg PUBLIC "-//W3C//DTD SVG 1.1//EN" "http://www.w3.org/Graphics/SVG/1.1/DTD/svg11.dtd">
<svg version="1.1" id="Layer_1" xmlns="http://www.w3.org/2000/svg" xmlns:xlink="http://www.w3.org/1999/xlink" x="0px" y="0px"
	 width="40px" height="40px" viewBox="0 0 40 40" enable-background="new 0 0 40 40" xml:space="preserve">
<circle fill="#E3563F" cx="20" cy="20" r="20" class="path"/>
<g>
	<polygon fill="#FFFFFF" points="30.118,16.594 30.118,18.844 32.368,18.844 32.368,21.094 30.118,21.094 30.118,23.344 
		27.868,23.344 27.868,21.094 25.618,21.094 25.618,18.844 27.868,18.844 27.868,16.594 	"/>
	<path fill="#FFFFFF" d="M9.868,25.594c-3-3-3-8.25,0.125-11.25c2.25-2.25,5.5-2.75,8.375-1.625l1.125,0.625l1.25,0.875l-2,2
		l-0.75-0.5c-1.75-1.125-4.25-0.875-5.875,0.75c-1.875,1.875-2,5.25,0,7.25c1.875,2,5.25,2,7,0c0.5-0.5,1-1.25,1.125-2v-0.25h-4.5
		v-2.5h7.125l0.125,0.625v1.75c-0.125,1.625-0.75,3.25-1.876,4.375C18.118,28.594,12.868,28.594,9.868,25.594z"/>
</g>
</svg>
