<?xml version="1.0" encoding="utf-8"?>
<!-- Generator: Adobe Illustrator 16.0.0, SVG Export Plug-In . SVG Version: 6.00 Build 0)  -->
<!DOCTYPE svg PUBLIC "-//W3C//DTD SVG 1.1//EN" "http://www.w3.org/Graphics/SVG/1.1/DTD/svg11.dtd">
<svg version="1.1" id="Layer_1" xmlns="http://www.w3.org/2000/svg" xmlns:xlink="http://www.w3.org/1999/xlink" x="0px" y="0px"
	 width="99px" height="40px" viewBox="-2 0 99 40" enable-background="new -2 0 99 40" xml:space="preserve">
<path class="path" fill="#E3563F" d="M97,35.002c0,2.762-2.236,5-5,5H3c-2.762,0-5-2.238-5-5V5c0-2.761,2.238-5,5-5h89c2.764,0,5,2.239,5,5
	V35.002z"/>
<g>
	<g>
		<path fill="#FFFFFF" stroke="#FFFFFF" stroke-width="0.25" stroke-miterlimit="10" d="M26.586,21.102
			c-0.217,0.22-0.443,0.432-0.651,0.659c0.713,0.007,1.425,0.002,2.138,0.002c-0.004,0.998,0.01,1.994-0.007,2.99
			c-0.61,0.181-1.241,0.278-1.875,0.312c-0.576,0.019-1.157,0.025-1.72-0.112c-1.155-0.251-2.2-0.924-2.949-1.834
			c-0.891-1.069-1.388-2.447-1.432-3.834c-0.041-1.263,0.3-2.574,1.118-3.559c0.646-0.797,1.595-1.331,2.608-1.495
			c0.908-0.132,1.86-0.063,2.72,0.269c0.581,0.221,1.068,0.613,1.534,1.013c0.008,0.325,0,0.649,0.006,0.975
			c0.549-0.538,1.1-1.077,1.627-1.633c-1.072-0.739-2.342-1.171-3.635-1.298c-1.33-0.133-2.711-0.043-3.958,0.473
			c-1.513,0.604-2.77,1.824-3.39,3.333c-0.407,0.956-0.53,2.018-0.404,3.046c0.145,1.451,0.794,2.873,1.899,3.839
			c1.202,1.073,2.836,1.589,4.434,1.58c1.72,0.019,3.43-0.274,5.079-0.749c0-0.988,0-1.973,0-2.961
			c0.003-0.146,0.006-0.31,0.111-0.422c0.203-0.219,0.427-0.419,0.628-0.641c-1.211-0.004-2.422,0-3.633-0.004
			C26.751,21.063,26.649,21.028,26.586,21.102z M59.71,24.792c-0.24-0.06-0.345-0.321-0.327-0.548c-0.003-3.149,0-6.299-0.003-9.449
			c0.007-0.145,0.007-0.308,0.111-0.422c0.201-0.219,0.427-0.421,0.631-0.641c-0.896-0.002-1.794,0-2.69,0
			c-0.082-0.016-0.134,0.054-0.186,0.104c-0.195,0.203-0.401,0.396-0.594,0.602c0.359,0.004,0.718,0.001,1.078,0.002
			c0,3.308,0,6.617,0,9.925c-0.001,0.146-0.01,0.307-0.111,0.421c-0.202,0.219-0.426,0.419-0.629,0.64
			c1.077,0.006,2.152,0,3.229,0.004c0.118-0.115,0.234-0.234,0.355-0.351c0.032-0.048,0.123-0.09,0.095-0.156
			C60.35,24.875,60.025,24.857,59.71,24.792z M37.407,18.165c-0.793-0.437-1.734-0.55-2.624-0.434
			c-1.029,0.135-2.019,0.637-2.692,1.433c-0.59,0.684-0.932,1.576-0.947,2.48c-0.025,1.018,0.363,2.039,1.058,2.783
			c0.611,0.667,1.468,1.085,2.363,1.198c1.004,0.126,2.069-0.037,2.94-0.576c0.842-0.508,1.467-1.347,1.745-2.284
			c0.232-0.763,0.227-1.593-0.014-2.354C38.945,19.467,38.282,18.636,37.407,18.165z M37.396,24.126
			c-0.496,0.857-1.647,1.242-2.563,0.863c-0.728-0.294-1.211-0.975-1.52-1.669c-0.333-0.771-0.507-1.604-0.528-2.441
			c-0.002-0.547,0.067-1.125,0.374-1.595c0.335-0.538,0.926-0.89,1.546-0.987c0.652-0.109,1.339,0.118,1.801,0.591
			c0.697,0.699,1.017,1.68,1.185,2.63C37.823,22.386,37.855,23.342,37.396,24.126z M46.543,18.188
			c-0.786-0.444-1.722-0.571-2.612-0.462c-1.047,0.125-2.059,0.627-2.743,1.438c-0.591,0.684-0.932,1.575-0.946,2.477
			c-0.027,1.019,0.362,2.042,1.058,2.786c0.604,0.661,1.452,1.077,2.336,1.194c1.027,0.137,2.117-0.033,3-0.594
			c0.824-0.509,1.438-1.338,1.712-2.265c0.229-0.761,0.223-1.588-0.016-2.347C48.048,19.484,47.4,18.661,46.543,18.188z
			 M46.498,24.118c-0.485,0.85-1.615,1.241-2.524,0.888c-0.737-0.275-1.231-0.951-1.544-1.645c-0.347-0.779-0.527-1.631-0.546-2.484
			c-0.004-0.56,0.071-1.151,0.395-1.626c0.34-0.52,0.918-0.86,1.526-0.954c0.637-0.104,1.31,0.108,1.768,0.561
			c0.701,0.679,1.029,1.646,1.203,2.584C46.919,22.33,46.965,23.313,46.498,24.118z M55.045,24.875
			c-0.292-0.244-0.639-0.436-0.855-0.752c-0.22-0.362-0.039-0.83,0.265-1.084c0.351-0.296,0.731-0.568,1.007-0.944
			c0.487-0.613,0.602-1.464,0.414-2.213c-0.15-0.593-0.547-1.085-0.998-1.481c0.3-0.005,0.603-0.004,0.906-0.001
			c0.238-0.232,0.475-0.467,0.706-0.707c-1.121-0.011-2.244-0.001-3.366-0.005c-0.644-0.009-1.301,0.087-1.893,0.352
			c-0.653,0.286-1.209,0.794-1.519,1.44c-0.335,0.708-0.417,1.553-0.142,2.295c0.262,0.752,0.886,1.368,1.647,1.603
			c0.455,0.161,0.944,0.145,1.417,0.146c-0.117,0.31-0.163,0.654-0.074,0.978c0.068,0.27,0.256,0.483,0.429,0.691
			c-1.105,0.085-2.249,0.264-3.211,0.848c-0.616,0.365-1.115,0.98-1.23,1.698c-0.116,0.605,0.094,1.248,0.508,1.693
			c0.604,0.653,1.498,0.941,2.359,1.033c0.996,0.091,2.029,0.02,2.967-0.353c0.751-0.302,1.439-0.816,1.835-1.532
			c0.397-0.716,0.458-1.629,0.083-2.365C56.013,25.66,55.517,25.262,55.045,24.875z M52.943,23.007
			c-0.508-0.005-0.97-0.294-1.281-0.677c-0.43-0.525-0.666-1.189-0.756-1.857c-0.068-0.514-0.044-1.068,0.216-1.53
			c0.198-0.357,0.558-0.615,0.959-0.688c0.519-0.099,1.066,0.088,1.445,0.447c0.525,0.492,0.833,1.177,0.985,1.871
			c0.111,0.522,0.145,1.1-0.101,1.592C54.15,22.707,53.535,23.024,52.943,23.007z M54.909,29.108
			c-0.511,0.472-1.229,0.634-1.907,0.642c-0.749-0.003-1.529-0.141-2.159-0.572c-0.472-0.323-0.822-0.863-0.808-1.447
			c-0.024-0.471,0.188-0.938,0.542-1.242c0.531-0.467,1.245-0.638,1.931-0.716c0.36-0.036,0.726-0.08,1.084-0.034
			c0.319,0.203,0.614,0.44,0.911,0.671c0.367,0.303,0.75,0.651,0.876,1.131C55.532,28.1,55.335,28.721,54.909,29.108z
			 M64.166,24.296c-0.852-0.551-1.407-1.475-1.646-2.445c1.698-0.67,3.388-1.366,5.084-2.045c-0.208-0.859-0.848-1.615-1.694-1.899
			c-0.887-0.303-1.892-0.298-2.762,0.067c-0.9,0.362-1.652,1.093-2.008,1.999c-0.384,0.977-0.365,2.091-0.027,3.076
			c0.317,0.937,0.979,1.766,1.869,2.212c0.763,0.391,1.649,0.47,2.491,0.372c0.953-0.111,1.835-0.659,2.399-1.429
			c-0.436,0.19-0.862,0.419-1.338,0.511C65.733,24.898,64.857,24.751,64.166,24.296z M62.581,19.295
			c0.389-0.757,1.346-1.232,2.173-0.949c0.5,0.167,0.951,0.558,1.098,1.076c0.034,0.143,0.067,0.32-0.033,0.445
			c-0.116,0.139-0.297,0.19-0.46,0.256c-0.988,0.398-1.973,0.802-2.96,1.197C62.275,20.649,62.263,19.917,62.581,19.295z
			 M76.73,19.955c-0.865,0-1.733,0-2.598,0c0-0.866,0-1.733,0-2.599c-0.236,0-1.219,0-1.454,0c0,0.866,0,1.732,0,2.599
			c-0.887,0-1.773,0-2.659,0c0,0.235,0,1.22,0,1.455c0.886,0,1.772,0,2.659,0c0,0.886,0,1.772,0,2.658c0.234,0,1.218,0,1.454,0
			c0-0.886,0-1.772,0-2.658c1.611,0,2.478,0,2.598,0C76.73,21.175,76.73,20.19,76.73,19.955z"/>
	</g>
</g>
</svg>
