<?xml version="1.0" encoding="utf-8"?>
<!-- Generator: Adobe Illustrator 16.0.0, SVG Export Plug-In . SVG Version: 6.00 Build 0)  -->
<!DOCTYPE svg PUBLIC "-//W3C//DTD SVG 1.1//EN" "http://www.w3.org/Graphics/SVG/1.1/DTD/svg11.dtd">
<svg version="1.1" id="Layer_1" xmlns="http://www.w3.org/2000/svg" xmlns:xlink="http://www.w3.org/1999/xlink" x="0px" y="0px"
	 width="121.007px" height="40px" viewBox="-19.633 -2.703 121.007 40" enable-background="new -19.633 -2.703 121.007 40"
	 xml:space="preserve">
<path class="path" fill="#E3563F" d="M101.374,31.297c0,3.314-2.688,6-6,6H-13.633c-3.313,0-6-2.686-6-6v-28c0-3.313,2.687-6,6-6H95.374
	c3.313,0,6,2.688,6,6V31.297z"/>
<g>
	<path fill="#FFFFFF" d="M41.97,21.236c-0.689,0.248-2.055,0.656-3.664,0.656c-1.807,0-3.293-0.461-4.461-1.578
		c-1.025-0.99-1.664-2.584-1.664-4.443c0.02-3.557,2.461-6.158,6.461-6.158c1.381,0,2.461,0.301,2.975,0.549l-0.373,1.256
		c-0.637-0.283-1.434-0.514-2.637-0.514c-2.902,0-4.797,1.807-4.797,4.797c0,3.027,1.823,4.814,4.602,4.814
		c1.011,0,1.699-0.143,2.055-0.318v-3.557h-2.426v-1.24h3.932v5.733H41.97V21.236z"/>
	<path fill="#FFFFFF" d="M52.113,17.414c0,3.168-2.195,4.549-4.266,4.549c-2.32,0-4.107-1.699-4.107-4.407
		c0-2.867,1.877-4.548,4.248-4.548C50.449,13.006,52.113,14.795,52.113,17.414z M45.316,17.502c0,1.877,1.078,3.293,2.602,3.293
		c1.486,0,2.604-1.398,2.604-3.328c0-1.45-0.729-3.291-2.566-3.291C46.111,14.176,45.316,15.873,45.316,17.502z"/>
	<path fill="#FFFFFF" d="M61.831,17.414c0,3.168-2.196,4.549-4.267,4.549c-2.32,0-4.107-1.699-4.107-4.407
		c0-2.867,1.877-4.548,4.248-4.548C60.166,13.006,61.831,14.795,61.831,17.414z M55.033,17.502c0,1.877,1.08,3.293,2.604,3.293
		c1.486,0,2.604-1.398,2.604-3.328c0-1.45-0.727-3.291-2.566-3.291C55.832,14.176,55.033,15.873,55.033,17.502z"/>
	<path fill="#FFFFFF" d="M71.174,13.201c-0.033,0.62-0.068,1.312-0.068,2.354v4.974c0,1.967-0.393,3.17-1.225,3.912
		c-0.832,0.775-2.033,1.023-3.113,1.023c-1.024,0-2.158-0.248-2.852-0.707l0.393-1.186c0.563,0.354,1.449,0.672,2.515,0.672
		c1.594,0,2.762-0.832,2.762-2.992v-0.955H69.55c-0.479,0.799-1.397,1.436-2.729,1.436c-2.122,0-3.646-1.807-3.646-4.177
		c0-2.902,1.896-4.548,3.857-4.548c1.485,0,2.301,0.779,2.672,1.488h0.035l0.071-1.293L71.174,13.201L71.174,13.201z M69.564,16.582
		c0-0.266-0.02-0.496-0.088-0.709c-0.283-0.901-1.045-1.645-2.18-1.645c-1.484,0-2.551,1.256-2.551,3.238
		c0,1.682,0.854,3.08,2.531,3.08c0.955,0,1.822-0.604,2.158-1.594c0.09-0.268,0.125-0.566,0.125-0.832v-1.539L69.564,16.582
		L69.564,16.582z"/>
	<path fill="#FFFFFF" d="M73.689,9.201h1.558v12.566h-1.558V9.201z"/>
	<path fill="#FFFFFF" d="M78.732,17.768c0.035,2.107,1.381,2.977,2.938,2.977c1.113,0,1.785-0.195,2.369-0.443l0.27,1.115
		c-0.551,0.248-1.486,0.528-2.854,0.528c-2.637,0-4.213-1.731-4.213-4.315s1.521-4.621,4.021-4.621c2.797,0,3.541,2.461,3.541,4.037
		c0,0.318-0.035,0.564-0.057,0.727H78.73L78.732,17.768L78.732,17.768z M83.297,16.652c0.021-0.99-0.404-2.531-2.156-2.531
		c-1.576,0-2.27,1.451-2.393,2.531H83.297z"/>
</g>
<polygon fill="#FFFFFF" points="19.605,13.43 19.605,16.006 22.181,16.006 22.181,18.586 19.605,18.586 19.605,21.164 
	17.029,21.164 17.029,18.586 14.453,18.586 14.453,16.006 17.029,16.006 17.029,13.43 "/>
<path fill="#FFFFFF" d="M-3.583,23.74c-3.435-3.436-3.435-9.447,0.143-12.883c2.577-2.576,6.298-3.148,9.589-1.86l1.289,0.716
	l1.431,1.002l-2.29,2.29l-0.858-0.573c-2.004-1.287-4.867-1.002-6.728,0.859c-2.147,2.146-2.29,6.012,0,8.301
	c2.147,2.291,6.012,2.291,8.016,0c0.572-0.572,1.145-1.43,1.288-2.289v-0.287H3.144v-2.861h8.159l0.144,0.715v2.004
	c-0.144,1.86-0.859,3.722-2.147,5.01C5.865,27.174-0.147,27.174-3.583,23.74z"/>
</svg>
