<?xml version="1.0" encoding="utf-8"?>
<!-- Generator: Adobe Illustrator 16.0.0, SVG Export Plug-In . SVG Version: 6.00 Build 0)  -->
<!DOCTYPE svg PUBLIC "-//W3C//DTD SVG 1.1//EN" "http://www.w3.org/Graphics/SVG/1.1/DTD/svg11.dtd">
<svg version="1.1" id="Layer_1" xmlns="http://www.w3.org/2000/svg" xmlns:xlink="http://www.w3.org/1999/xlink" x="0px" y="0px"
	 width="117.839px" height="40px" viewBox="0 0 117.839 40" enable-background="new 0 0 117.839 40" xml:space="preserve">
<g>
	<path class="path" fill="#E3563F" d="M115.839,2v36H2V2H115.839 M117.839,0H0v40h117.839V0L117.839,0z"/>
</g>
<g>
	<path class="path" fill="#E3563F" d="M59.789,24.152c-0.688,0.248-2.054,0.656-3.664,0.656c-1.806,0-3.293-0.461-4.461-1.576
		C50.638,22.242,50,20.648,50,18.789c0.019-3.557,2.461-6.159,6.461-6.159c1.381,0,2.461,0.301,2.974,0.549l-0.372,1.256
		c-0.637-0.283-1.434-0.513-2.637-0.513c-2.903,0-4.797,1.806-4.797,4.796c0,3.027,1.823,4.814,4.602,4.814
		c1.01,0,1.699-0.142,2.054-0.318v-3.557H55.86v-1.24h3.931v5.735H59.789z"/>
	<path class="path" fill="#E3563F" d="M69.931,20.33c0,3.168-2.195,4.549-4.266,4.549c-2.319,0-4.106-1.699-4.106-4.408
		c0-2.867,1.876-4.548,4.248-4.548C68.267,15.922,69.931,17.711,69.931,20.33z M63.134,20.418c0,1.877,1.078,3.293,2.602,3.293
		c1.487,0,2.604-1.398,2.604-3.328c0-1.451-0.728-3.292-2.564-3.292C63.93,17.091,63.134,18.789,63.134,20.418z"/>
	<path class="path" fill="#E3563F" d="M79.648,20.33c0,3.168-2.195,4.549-4.266,4.549c-2.319,0-4.106-1.699-4.106-4.408
		c0-2.867,1.876-4.548,4.248-4.548C77.984,15.922,79.648,17.711,79.648,20.33z M72.852,20.418c0,1.877,1.08,3.293,2.603,3.293
		c1.486,0,2.604-1.398,2.604-3.328c0-1.451-0.728-3.292-2.565-3.292C73.65,17.091,72.852,18.789,72.852,20.418z"/>
	<path class="path" fill="#E3563F" d="M88.994,16.117c-0.035,0.62-0.07,1.311-0.07,2.354v4.974c0,1.966-0.391,3.169-1.223,3.912
		c-0.832,0.775-2.035,1.023-3.115,1.023c-1.023,0-2.156-0.248-2.85-0.707l0.391-1.186c0.565,0.354,1.451,0.672,2.515,0.672
		c1.594,0,2.762-0.832,2.762-2.992v-0.955h-0.032c-0.479,0.797-1.398,1.436-2.729,1.436c-2.123,0-3.646-1.807-3.646-4.177
		c0-2.902,1.895-4.548,3.856-4.548c1.485,0,2.301,0.779,2.673,1.488h0.035l0.07-1.293L88.994,16.117L88.994,16.117z M87.382,19.498
		c0-0.266-0.019-0.496-0.088-0.709c-0.283-0.902-1.045-1.645-2.178-1.645c-1.486,0-2.551,1.256-2.551,3.238
		c0,1.683,0.852,3.08,2.531,3.08c0.955,0,1.82-0.603,2.156-1.594c0.092-0.267,0.125-0.566,0.125-0.832v-1.538H87.382z"/>
	<path class="path" fill="#E3563F" d="M91.507,12.117h1.558v12.566h-1.558V12.117z"/>
	<path class="path" fill="#E3563F" d="M96.55,20.684c0.035,2.107,1.382,2.978,2.938,2.978c1.113,0,1.786-0.195,2.37-0.443l0.268,1.115
		c-0.549,0.248-1.486,0.528-2.852,0.528c-2.638,0-4.213-1.731-4.213-4.315s1.521-4.621,4.02-4.621c2.797,0,3.541,2.46,3.541,4.037
		c0,0.318-0.035,0.563-0.056,0.728H96.55V20.684z M101.117,19.568c0.021-0.99-0.406-2.531-2.158-2.531
		c-1.576,0-2.267,1.451-2.391,2.531H101.117z"/>
</g>
<g>
	<g>
		<polygon class="path" fill="#E3563F" points="37.604,16.84 37.604,19.09 39.854,19.09 39.854,21.344 37.604,21.344 37.604,23.594 
			35.354,23.594 35.354,21.344 33.104,21.344 33.104,19.09 35.354,19.09 35.354,16.84 		"/>
		<path class="path" fill="#E3563F" d="M17.354,25.844c-3-3-3-8.25,0.125-11.25c2.25-2.25,5.5-2.75,8.375-1.625l1.125,0.625l1.25,0.875l-2,2
			l-0.75-0.5c-1.75-1.125-4.25-0.875-5.875,0.75c-1.875,1.875-2,5.25,0,7.25c1.875,2,5.25,2,7,0c0.5-0.5,1-1.25,1.125-2v-0.25h-4.5
			v-2.5h7.125l0.125,0.625v1.75c-0.125,1.625-0.75,3.25-1.875,4.375C25.604,28.844,20.354,28.844,17.354,25.844z"/>
	</g>
</g>
</svg>
