<?xml version="1.0" encoding="utf-8"?>
<!-- Generator: Adobe Illustrator 16.0.0, SVG Export Plug-In . SVG Version: 6.00 Build 0)  -->
<!DOCTYPE svg PUBLIC "-//W3C//DTD SVG 1.1//EN" "http://www.w3.org/Graphics/SVG/1.1/DTD/svg11.dtd">
<svg version="1.1" id="Layer_1" xmlns="http://www.w3.org/2000/svg" xmlns:xlink="http://www.w3.org/1999/xlink" x="0px" y="0px"
	 width="121.004px" height="40px" viewBox="0 0 121.004 40" enable-background="new 0 0 121.004 40" xml:space="preserve">
<g>
	<path class="path" fill="#E3563F" d="M61.603,23.939c-0.689,0.248-2.055,0.656-3.664,0.656c-1.807,0-3.293-0.461-4.461-1.576
		c-1.025-0.99-1.664-2.584-1.664-4.443c0.02-3.557,2.461-6.158,6.461-6.158c1.381,0,2.461,0.301,2.976,0.549l-0.374,1.256
		c-0.637-0.283-1.434-0.514-2.637-0.514c-2.902,0-4.797,1.807-4.797,4.797c0,3.027,1.823,4.814,4.602,4.814
		c1.011,0,1.699-0.143,2.055-0.318v-3.557h-2.426v-1.24h3.932v5.734H61.603z"/>
	<path class="path" fill="#E3563F" d="M71.744,20.116c0,3.168-2.195,4.55-4.266,4.55c-2.32,0-4.107-1.699-4.107-4.408
		c0-2.867,1.877-4.548,4.248-4.548C70.08,15.708,71.744,17.497,71.744,20.116z M64.947,20.204c0,1.878,1.078,3.293,2.602,3.293
		c1.486,0,2.604-1.397,2.604-3.328c0-1.45-0.729-3.291-2.565-3.291C65.742,16.878,64.947,18.575,64.947,20.204z"/>
	<path class="path" fill="#E3563F" d="M81.461,20.116c0,3.168-2.194,4.55-4.266,4.55c-2.32,0-4.107-1.699-4.107-4.408
		c0-2.867,1.877-4.548,4.248-4.548C79.797,15.708,81.461,17.497,81.461,20.116z M74.664,20.204c0,1.878,1.08,3.293,2.604,3.293
		c1.485,0,2.604-1.397,2.604-3.328c0-1.45-0.728-3.291-2.566-3.291C75.463,16.878,74.664,18.575,74.664,20.204z"/>
	<path class="path" fill="#E3563F" d="M90.808,15.903c-0.035,0.62-0.07,1.312-0.07,2.354v4.974c0,1.967-0.391,3.17-1.223,3.912
		c-0.832,0.776-2.035,1.024-3.115,1.024c-1.024,0-2.157-0.248-2.851-0.707l0.392-1.186c0.563,0.354,1.451,0.672,2.515,0.672
		c1.594,0,2.762-0.832,2.762-2.992V23h-0.033c-0.48,0.797-1.398,1.435-2.729,1.435c-2.123,0-3.646-1.806-3.646-4.177
		c0-2.902,1.895-4.548,3.857-4.548c1.485,0,2.301,0.779,2.672,1.488h0.035l0.071-1.293L90.808,15.903L90.808,15.903z M89.195,19.284
		c0-0.266-0.018-0.496-0.088-0.709c-0.283-0.901-1.045-1.645-2.178-1.645c-1.486,0-2.551,1.256-2.551,3.238
		c0,1.681,0.852,3.08,2.531,3.08c0.954,0,1.821-0.604,2.157-1.594c0.091-0.268,0.125-0.566,0.125-0.832v-1.539L89.195,19.284
		L89.195,19.284z"/>
	<path class="path" fill="#E3563F" d="M93.32,11.903h1.557v12.565H93.32V11.903z"/>
	<path class="path" fill="#E3563F" d="M98.363,20.47c0.035,2.107,1.381,2.977,2.939,2.977c1.113,0,1.785-0.195,2.369-0.443l0.268,1.115
		c-0.549,0.248-1.486,0.529-2.852,0.529c-2.637,0-4.213-1.732-4.213-4.316c0-2.584,1.521-4.621,4.02-4.621
		c2.797,0,3.541,2.461,3.541,4.037c0,0.318-0.035,0.564-0.055,0.727h-6.019L98.363,20.47L98.363,20.47z M102.931,19.355
		c0.021-0.99-0.406-2.531-2.158-2.531c-1.576,0-2.269,1.451-2.392,2.531H102.931z"/>
</g>
<g>
	<g>
		<polygon class="path" fill="#E3563F" points="39.236,16.132 39.236,18.708 41.813,18.708 41.813,21.288 39.236,21.288 39.236,23.866 
			36.661,23.866 36.661,21.288 34.084,21.288 34.084,18.708 36.661,18.708 36.661,16.132 		"/>
		<path class="path" fill="#E3563F" d="M16.049,26.443c-3.435-3.436-3.435-9.447,0.143-12.883c2.577-2.576,6.298-3.148,9.589-1.86l1.289,0.716
			l1.431,1.002l-2.29,2.29l-0.858-0.573c-2.004-1.287-4.867-1.002-6.728,0.859c-2.147,2.146-2.29,6.012,0,8.301
			c2.147,2.291,6.012,2.291,8.016,0c0.572-0.572,1.145-1.43,1.288-2.289v-0.287h-5.153v-2.86h8.159l0.144,0.715v2.004
			c-0.144,1.861-0.859,3.722-2.147,5.011C25.497,29.877,19.484,29.877,16.049,26.443z"/>
	</g>
</g>
</svg>
