<?xml version="1.0" encoding="utf-8"?>
<!-- Generator: Adobe Illustrator 16.0.0, SVG Export Plug-In . SVG Version: 6.00 Build 0)  -->
<!DOCTYPE svg PUBLIC "-//W3C//DTD SVG 1.1//EN" "http://www.w3.org/Graphics/SVG/1.1/DTD/svg11.dtd">
<svg version="1.1" id="Layer_1" xmlns="http://www.w3.org/2000/svg" xmlns:xlink="http://www.w3.org/1999/xlink" x="0px" y="0px"
	 width="111.839px" height="32px" viewBox="0 5.833 111.839 32" enable-background="new 0 5.833 111.839 32" xml:space="preserve">
<rect y="5.833" fill="#E3563F" class="path" width="111.839" height="32"/>
<g>
	<path fill="#FFFFFF" d="M56.939,25.736c-0.688,0.248-2.054,0.656-3.664,0.656c-1.806,0-3.293-0.461-4.461-1.576
		c-1.026-0.99-1.664-2.584-1.664-4.443c0.019-3.557,2.461-6.159,6.461-6.159c1.381,0,2.461,0.301,2.975,0.549l-0.373,1.256
		c-0.637-0.283-1.434-0.516-2.637-0.516c-2.903,0-4.797,1.809-4.797,4.796c0,3.027,1.823,4.814,4.602,4.814
		c1.01,0,1.699-0.144,2.054-0.318V21.24H53.01V20h3.931v5.734h-0.002V25.736z"/>
	<path fill="#FFFFFF" d="M67.082,21.914c0,3.168-2.192,4.549-4.266,4.549c-2.318,0-4.105-1.699-4.105-4.408
		c0-2.867,1.875-4.548,4.248-4.548C65.417,17.506,67.082,19.295,67.082,21.914z M60.285,22.002c0,1.877,1.078,3.293,2.604,3.293
		c1.485,0,2.604-1.398,2.604-3.328c0-1.451-0.729-3.292-2.563-3.292C61.082,18.675,60.285,20.373,60.285,22.002z"/>
	<path fill="#FFFFFF" d="M76.798,21.914c0,3.168-2.195,4.549-4.266,4.549c-2.32,0-4.107-1.699-4.107-4.408
		c0-2.867,1.877-4.548,4.248-4.548C75.134,17.506,76.798,19.295,76.798,21.914z M70.001,22.002c0,1.877,1.08,3.293,2.604,3.293
		c1.486,0,2.604-1.398,2.604-3.328c0-1.451-0.728-3.292-2.563-3.292C70.8,18.675,70.001,20.373,70.001,22.002z"/>
	<path fill="#FFFFFF" d="M86.144,17.701c-0.035,0.619-0.07,1.311-0.07,2.354v4.975c0,1.968-0.391,3.171-1.223,3.912
		c-0.832,0.774-2.035,1.022-3.115,1.022c-1.023,0-2.156-0.248-2.85-0.707l0.391-1.187c0.564,0.354,1.451,0.673,2.516,0.673
		c1.596,0,2.764-0.832,2.764-2.992v-0.955h-0.032c-0.479,0.797-1.396,1.437-2.729,1.437c-2.123,0-3.646-1.808-3.646-4.178
		c0-2.902,1.896-4.549,3.854-4.549c1.484,0,2.303,0.779,2.672,1.488h0.035l0.07-1.293H86.144L86.144,17.701z M84.533,21.082
		c0-0.268-0.018-0.496-0.088-0.709c-0.283-0.902-1.045-1.645-2.178-1.645c-1.486,0-2.551,1.256-2.551,3.235
		c0,1.685,0.852,3.08,2.531,3.08c0.955,0,1.817-0.604,2.153-1.594c0.095-0.269,0.125-0.566,0.125-0.832V21.08L84.533,21.082
		L84.533,21.082z"/>
	<path fill="#FFFFFF" d="M88.658,13.701h1.559v12.566h-1.559V13.701z"/>
	<path fill="#FFFFFF" d="M93.701,22.268c0.035,2.107,1.383,2.979,2.939,2.979c1.111,0,1.785-0.195,2.369-0.442l0.268,1.114
		c-0.549,0.248-1.486,0.526-2.852,0.526c-2.639,0-4.213-1.729-4.213-4.313s1.521-4.621,4.02-4.621c2.797,0,3.541,2.462,3.541,4.037
		c0,0.317-0.035,0.563-0.057,0.729h-6.016V22.268L93.701,22.268z M98.267,21.15c0.021-0.988-0.406-2.529-2.158-2.529
		c-1.576,0-2.268,1.451-2.391,2.529H98.267z"/>
</g>
<g>
	<g>
		<polygon fill="#FFFFFF" points="34.885,18.361 34.885,20.652 37.175,20.652 37.175,22.945 34.885,22.945 34.885,25.236 
			32.595,25.236 32.595,22.945 30.305,22.945 30.305,20.652 32.595,20.652 32.595,18.361 		"/>
		<path fill="#FFFFFF" d="M14.274,27.525c-3.053-3.053-3.053-8.396,0.127-11.449c2.29-2.29,5.598-2.799,8.524-1.654l1.145,0.636
			l1.272,0.891l-2.036,2.035l-0.763-0.508c-1.781-1.146-4.326-0.894-5.98,0.763c-1.908,1.909-2.036,5.343,0,7.379
			c1.909,2.034,5.344,2.034,7.125,0c0.509-0.509,1.018-1.272,1.145-2.036v-0.254h-4.58v-2.545h7.252l0.127,0.637v1.781
			c-0.127,1.652-0.763,3.308-1.908,4.451C22.671,30.58,17.328,30.58,14.274,27.525z"/>
	</g>
</g>
</svg>
