<?xml version="1.0" encoding="utf-8"?>
<!-- Generator: Adobe Illustrator 16.0.0, SVG Export Plug-In . SVG Version: 6.00 Build 0)  -->
<!DOCTYPE svg PUBLIC "-//W3C//DTD SVG 1.1//EN" "http://www.w3.org/Graphics/SVG/1.1/DTD/svg11.dtd">
<svg version="1.1" id="Layer_1" xmlns="http://www.w3.org/2000/svg" xmlns:xlink="http://www.w3.org/1999/xlink" x="0px" y="0px"
	 width="137.84px" height="90px" viewBox="-9.296 -10 137.84 90" enable-background="new -9.296 -10 137.84 90"
	 xml:space="preserve">
<path fill="#FFFFFF" d="M-9.296,80V-5c0-2.761,2.239-5,5-5h127.84c2.76,0,5,2.239,5,5v85"/>
<rect x="-9.296" y="76" class="path" fill="#E8453C" width="137.84" height="4"/>
<g>
	<g>
		<g>
			<polygon class="path" fill="#E8453C" points="77.86,10.024 77.86,14.079 81.916,14.079 81.916,18.14 77.86,18.14 77.86,22.195 73.803,22.195 
				73.803,18.14 69.749,18.14 69.749,14.079 73.803,14.079 73.803,10.024 			"/>
			<path class="path" fill="#E8453C" d="M41.358,26.252c-5.407-5.408-5.407-14.871,0.226-20.28c4.056-4.055,9.914-4.957,15.097-2.929l2.027,1.127
				l2.253,1.577l-3.604,3.605l-1.353-0.901c-3.154-2.028-7.661-1.578-10.59,1.351c-3.38,3.38-3.605,9.463,0,13.068
				c3.38,3.604,9.463,5.408,12.618,1.803c0.901-0.901,1.803-4.056,2.027-5.408v-0.45h-8.111v-4.507h12.843l0.226,1.127v3.155
				c-0.226,2.93-1.353,5.858-3.38,7.885C56.229,31.66,46.765,31.66,41.358,26.252z"/>
		</g>
	</g>
	<g>
		<path class="path" fill="#E8453C" d="M29.472,53.813v-2.101l7.58-0.012v6.641c-1.164,0.928-2.364,1.626-3.601,2.094
			c-1.237,0.468-2.507,0.702-3.809,0.702c-1.758,0-3.355-0.377-4.792-1.13c-1.436-0.752-2.521-1.841-3.253-3.265
			c-0.732-1.425-1.099-3.016-1.099-4.773c0-1.741,0.364-3.367,1.093-4.877c0.729-1.509,1.776-2.63,3.144-3.362s2.941-1.1,4.724-1.1
			c1.294,0,2.464,0.21,3.51,0.629c1.046,0.42,1.865,1.004,2.46,1.752c0.594,0.749,1.045,1.726,1.354,2.93l-2.136,0.586
			c-0.269-0.911-0.603-1.627-1.001-2.148c-0.399-0.521-0.969-0.938-1.709-1.251c-0.741-0.313-1.563-0.47-2.466-0.47
			c-1.083,0-2.019,0.164-2.808,0.494c-0.79,0.329-1.427,0.763-1.911,1.3c-0.483,0.537-0.86,1.128-1.129,1.771
			c-0.456,1.106-0.684,2.307-0.684,3.601c0,1.595,0.274,2.93,0.824,4.004c0.549,1.074,1.349,1.872,2.398,2.393
			s2.165,0.781,3.345,0.781c1.025,0,2.026-0.197,3.003-0.592s1.717-0.816,2.222-1.264v-3.332H29.472z"/>
		<path class="path" fill="#E8453C" d="M39.445,54.351c0-2.401,0.667-4.179,2.002-5.335c1.115-0.96,2.474-1.44,4.077-1.44
			c1.782,0,3.239,0.584,4.37,1.752c1.131,1.167,1.696,2.781,1.696,4.84c0,1.668-0.25,2.98-0.75,3.937
			c-0.501,0.957-1.229,1.699-2.186,2.228c-0.956,0.529-2,0.794-3.131,0.794c-1.814,0-3.282-0.582-4.4-1.745
			C40.004,58.216,39.445,56.539,39.445,54.351z M41.704,54.351c0,1.66,0.361,2.903,1.086,3.729c0.725,0.826,1.636,1.239,2.734,1.239
			c1.091,0,1.998-0.415,2.723-1.245c0.724-0.83,1.086-2.096,1.086-3.797c0-1.603-0.364-2.817-1.093-3.644s-1.634-1.238-2.716-1.238
			c-1.099,0-2.01,0.41-2.734,1.232S41.704,52.689,41.704,54.351z"/>
		<path class="path" fill="#E8453C" d="M53.348,54.351c0-2.401,0.667-4.179,2.002-5.335c1.115-0.96,2.474-1.44,4.077-1.44
			c1.782,0,3.239,0.584,4.37,1.752c1.131,1.167,1.697,2.781,1.697,4.84c0,1.668-0.251,2.98-0.751,3.937
			c-0.501,0.957-1.229,1.699-2.186,2.228c-0.956,0.529-2,0.794-3.131,0.794c-1.814,0-3.282-0.582-4.4-1.745
			C53.908,58.216,53.348,56.539,53.348,54.351z M55.606,54.351c0,1.66,0.362,2.903,1.087,3.729c0.725,0.826,1.636,1.239,2.734,1.239
			c1.091,0,1.998-0.415,2.722-1.245c0.725-0.83,1.087-2.096,1.087-3.797c0-1.603-0.364-2.817-1.093-3.644s-1.634-1.238-2.716-1.238
			c-1.099,0-2.01,0.41-2.734,1.232S55.606,52.689,55.606,54.351z"/>
		<path class="path" fill="#E8453C" d="M67.667,61.906l2.136,0.317c0.09,0.659,0.338,1.14,0.745,1.44c0.545,0.407,1.29,0.61,2.233,0.61
			c1.018,0,1.803-0.203,2.356-0.61s0.928-0.977,1.123-1.709c0.114-0.447,0.167-1.388,0.159-2.819
			c-0.961,1.131-2.157,1.696-3.59,1.696c-1.781,0-3.161-0.643-4.138-1.929s-1.465-2.828-1.465-4.627
			c0-1.236,0.224-2.378,0.671-3.424c0.448-1.046,1.097-1.853,1.947-2.423c0.851-0.569,1.85-0.854,2.997-0.854
			c1.53,0,2.791,0.618,3.784,1.855v-1.563h2.026v11.206c0,2.019-0.206,3.448-0.616,4.291c-0.411,0.842-1.063,1.507-1.953,1.995
			c-0.892,0.488-1.988,0.732-3.29,0.732c-1.546,0-2.796-0.348-3.747-1.043C68.094,64.354,67.635,63.306,67.667,61.906z
			 M69.487,54.118c0,1.701,0.337,2.941,1.013,3.723s1.521,1.172,2.539,1.172c1.009,0,1.855-0.388,2.539-1.165
			s1.025-1.996,1.025-3.656c0-1.587-0.353-2.783-1.056-3.589c-0.704-0.806-1.553-1.208-2.545-1.208c-0.977,0-1.807,0.396-2.49,1.189
			C69.829,51.378,69.487,52.556,69.487,54.118z"/>
		<path class="path" fill="#E8453C" d="M81.926,60.832V42.937h2.197v17.896H81.926z"/>
		<path class="path" fill="#E8453C" d="M96.403,56.657l2.271,0.281c-0.358,1.326-1.021,2.355-1.989,3.088c-0.969,0.732-2.206,1.099-3.711,1.099
			c-1.896,0-3.4-0.584-4.511-1.752c-1.111-1.167-1.667-2.806-1.667-4.913c0-2.181,0.563-3.874,1.686-5.078s2.579-1.807,4.369-1.807
			c1.734,0,3.15,0.591,4.248,1.771c1.1,1.18,1.648,2.84,1.648,4.979c0,0.131-0.004,0.326-0.012,0.586h-9.668
			c0.081,1.425,0.483,2.516,1.208,3.271c0.725,0.758,1.628,1.136,2.71,1.136c0.806,0,1.493-0.212,2.063-0.635
			C95.618,58.261,96.069,57.585,96.403,56.657z M89.188,53.104h7.239c-0.098-1.09-0.374-1.907-0.83-2.453
			c-0.7-0.847-1.607-1.27-2.722-1.27c-1.01,0-1.858,0.338-2.546,1.013C89.642,51.07,89.262,51.975,89.188,53.104z"/>
	</g>
</g>
</svg>
