<?xml version="1.0" encoding="utf-8"?>
<!-- Generator: Adobe Illustrator 16.0.0, SVG Export Plug-In . SVG Version: 6.00 Build 0)  -->
<!DOCTYPE svg PUBLIC "-//W3C//DTD SVG 1.1//EN" "http://www.w3.org/Graphics/SVG/1.1/DTD/svg11.dtd">
<svg version="1.1" id="Layer_1" xmlns="http://www.w3.org/2000/svg" xmlns:xlink="http://www.w3.org/1999/xlink" x="0px" y="0px"
	 width="129px" height="40px" viewBox="0 0 129 40" enable-background="new 0 0 129 40" xml:space="preserve">
<path  class="path" fill="#4863A0" d="M129,35c0,2.762-2.238,5-5,5H5c-2.762,0-5-2.238-5-5V5c0-2.761,2.238-5,5-5h119c2.762,0,5,2.239,5,5V35z"/>
<path fill="#FFFFFF" d="M67.393,12.646h3.062V8.125h-3.599v0.017c-4.359,0.154-5.254,2.605-5.332,5.179h-0.01v2.259h-2.969v4.429
	h2.969v11.868h4.475V20.007h3.664l0.71-4.429H65.99v-1.364C65.989,13.345,66.568,12.646,67.393,12.646z"/>
</svg>
