<?xml version="1.0" encoding="utf-8"?>
<!-- Generator: Adobe Illustrator 16.0.0, SVG Export Plug-In . SVG Version: 6.00 Build 0)  -->
<!DOCTYPE svg PUBLIC "-//W3C//DTD SVG 1.1//EN" "http://www.w3.org/Graphics/SVG/1.1/DTD/svg11.dtd">
<svg version="1.1" id="Layer_1" xmlns="http://www.w3.org/2000/svg" xmlns:xlink="http://www.w3.org/1999/xlink" x="0px" y="0px"
	 width="40px" height="40px" viewBox="0 0 40 40" enable-background="new 0 0 40 40" xml:space="preserve">
<path class="path" fill="#4863A0" d="M40,35c0,2.762-2.238,5-5,5H5c-2.762,0-5-2.238-5-5V5c0-2.761,2.238-5,5-5h30c2.762,0,5,2.239,5,5V35z"/>
<g>
	<g>
		<defs>
			<path id="SVGID_1_" d="M25.958,8.124l34.896,31.108L44.91,57.006l-27.824-24.96l-0.071-0.063l0.875-5.748
				c0,0,0.516-7.202,0.516-7.25c0-0.047,0.859-5.234,0.906-5.516c0.047-0.282,2.719-3.594,2.719-3.594L25.958,8.124z"/>
		</defs>
		<clipPath id="SVGID_2_">
			<use xlink:href="#SVGID_1_"  overflow="visible"/>
		</clipPath>
		<path clip-path="url(#SVGID_2_)" fill="#2E456D" d="M40,35.002C40,37.764,37.762,40,35,40H5c-2.761,0-5-2.236-5-4.998v-30
			c0-2.761,2.239-5,5-5h30c2.762,0,5,2.239,5,5V35.002z"/>
	</g>
</g>
<path fill="#FFFFFF" d="M22.895,12.645h3.063V8.124h-3.601v0.017c-4.357,0.154-5.252,2.605-5.334,5.18h-0.008v2.258h-2.97v4.429
	h2.97v11.868h4.474v-11.87h3.663l0.709-4.429h-4.37v-1.364C21.491,13.344,22.07,12.645,22.895,12.645z"/>
</svg>
