<?xml version="1.0" encoding="utf-8"?>
<!-- Generator: Adobe Illustrator 16.0.0, SVG Export Plug-In . SVG Version: 6.00 Build 0)  -->
<!DOCTYPE svg PUBLIC "-//W3C//DTD SVG 1.1//EN" "http://www.w3.org/Graphics/SVG/1.1/DTD/svg11.dtd">
<svg version="1.1" id="Layer_1" xmlns="http://www.w3.org/2000/svg" xmlns:xlink="http://www.w3.org/1999/xlink" x="0px" y="0px"
	 width="138px" height="90px" viewBox="-9.998 -10 138 90" enable-background="new -9.998 -10 138 90" xml:space="preserve">
<path class="path" fill="#3B5998" d="M128.002,77c0,1.657-1.342,3-3,3h-132c-1.657,0-3-1.343-3-3V-7c0-1.657,1.343-3,3-3h132c1.658,0,3,1.343,3,3
	V77z"/>
<path opacity="0.16" enable-background="new    " d="M-9.998,73.195c0,1.656,1.343,3,3,3h132c1.658,0,3-1.344,3-3V77
	c0,1.657-1.342,3-3,3h-132c-1.657,0-3-1.343-3-3V73.195z"/>
<g>
	<path fill="#FFFFFF" d="M62.814,8.426h3.611V3.097H62.18v0.019c-5.134,0.183-6.192,3.072-6.291,6.107h-0.005v2.663h-3.5v5.22h3.5
		v13.992h5.274V17.104h4.316l0.836-5.22h-5.149v-1.609C61.161,9.251,61.842,8.426,62.814,8.426z"/>
	<g>
		<path fill="#FFFFFF" d="M5.584,65.998V48.104h12.072v2.111H7.951v5.542h8.398v2.111H7.951v8.13H5.584z"/>
		<path fill="#FFFFFF" d="M28.91,64.398c-0.813,0.691-1.598,1.181-2.35,1.466c-0.752,0.284-1.561,0.427-2.424,0.427
			c-1.424,0-2.518-0.348-3.283-1.044c-0.764-0.695-1.146-1.585-1.146-2.667c0-0.635,0.145-1.215,0.434-1.739
			c0.287-0.524,0.666-0.946,1.135-1.264c0.467-0.317,0.994-0.558,1.58-0.722c0.432-0.112,1.082-0.224,1.953-0.328
			c1.775-0.213,3.08-0.465,3.918-0.758c0.01-0.301,0.014-0.492,0.014-0.574c0-0.895-0.209-1.524-0.623-1.891
			c-0.563-0.496-1.396-0.744-2.502-0.744c-1.033,0-1.797,0.181-2.289,0.543c-0.492,0.361-0.857,1.002-1.094,1.922l-2.148-0.293
			c0.195-0.92,0.518-1.662,0.965-2.229c0.447-0.566,1.096-1.001,1.941-1.306c0.846-0.306,1.826-0.458,2.941-0.458
			c1.107,0,2.006,0.13,2.697,0.391c0.693,0.262,1.201,0.588,1.527,0.982c0.324,0.396,0.553,0.894,0.684,1.496
			c0.072,0.373,0.109,1.049,0.109,2.024v2.931c0,2.043,0.047,3.334,0.141,3.875c0.094,0.543,0.279,1.062,0.555,1.558H29.35
			C29.123,65.542,28.977,65.009,28.91,64.398z M28.727,59.491c-0.797,0.325-1.992,0.603-3.588,0.829
			c-0.904,0.132-1.543,0.277-1.916,0.439c-0.375,0.163-0.664,0.401-0.867,0.715c-0.203,0.314-0.305,0.661-0.305,1.043
			c0,0.586,0.221,1.074,0.664,1.465c0.443,0.392,1.094,0.586,1.947,0.586c0.848,0,1.6-0.185,2.258-0.555
			c0.66-0.369,1.145-0.877,1.453-1.52c0.236-0.497,0.354-1.229,0.354-2.197V59.491z"/>
		<path fill="#FFFFFF" d="M42.815,61.249l2.16,0.281c-0.234,1.489-0.84,2.655-1.813,3.497c-0.973,0.843-2.166,1.264-3.582,1.264
			c-1.773,0-3.201-0.58-4.279-1.739c-1.078-1.159-1.617-2.821-1.617-4.985c0-1.4,0.232-2.625,0.695-3.676
			c0.465-1.05,1.17-1.836,2.119-2.361c0.947-0.524,1.979-0.787,3.094-0.787c1.408,0,2.561,0.355,3.455,1.068
			c0.894,0.711,1.469,1.723,1.721,3.032l-2.137,0.33c-0.203-0.871-0.563-1.526-1.08-1.966c-0.516-0.439-1.141-0.659-1.873-0.659
			c-1.107,0-2.006,0.396-2.697,1.19c-0.691,0.793-1.039,2.049-1.039,3.766c0,1.741,0.334,3.007,1.002,3.796
			c0.668,0.79,1.537,1.185,2.611,1.185c0.863,0,1.584-0.264,2.162-0.793C42.295,63.162,42.66,62.35,42.815,61.249z"/>
		<path fill="#FFFFFF" d="M55.731,61.823l2.27,0.28c-0.357,1.326-1.021,2.355-1.99,3.088c-0.967,0.732-2.205,1.1-3.711,1.1
			c-1.895,0-3.398-0.584-4.51-1.752c-1.111-1.167-1.666-2.807-1.666-4.913c0-2.181,0.561-3.874,1.684-5.078s2.58-1.807,4.371-1.807
			c1.732,0,3.148,0.591,4.248,1.771c1.098,1.18,1.648,2.84,1.648,4.979c0,0.131-0.004,0.325-0.014,0.586h-9.668
			c0.082,1.425,0.484,2.516,1.209,3.271c0.725,0.758,1.629,1.137,2.711,1.137c0.805,0,1.492-0.213,2.063-0.635
			C54.947,63.426,55.397,62.751,55.731,61.823z M48.516,58.271h7.238c-0.098-1.09-0.373-1.908-0.83-2.453
			c-0.699-0.848-1.607-1.271-2.723-1.271c-1.008,0-1.857,0.338-2.545,1.015C48.969,56.236,48.588,57.141,48.516,58.271z"/>
		<path fill="#FFFFFF" d="M62.786,65.998h-2.038V48.104h2.197v6.383c0.928-1.162,2.111-1.744,3.552-1.744
			c0.798,0,1.553,0.16,2.265,0.482c0.713,0.32,1.299,0.771,1.758,1.354c0.461,0.582,0.82,1.283,1.082,2.105
			c0.26,0.821,0.391,1.7,0.391,2.637c0,2.222-0.551,3.938-1.648,5.15c-1.099,1.213-2.417,1.819-3.955,1.819
			c-1.529,0-2.729-0.64-3.602-1.917L62.786,65.998L62.786,65.998z M62.764,59.419c0,1.554,0.211,2.677,0.635,3.369
			c0.69,1.131,1.627,1.696,2.807,1.696c0.961,0,1.791-0.418,2.49-1.252s1.051-2.076,1.051-3.729c0-1.691-0.336-2.941-1.008-3.747
			s-1.482-1.209-2.437-1.209c-0.96,0-1.79,0.417-2.489,1.251C63.111,56.634,62.764,57.84,62.764,59.419z"/>
		<path fill="#FFFFFF" d="M73.846,59.518c0-2.401,0.668-4.181,2.002-5.336c1.115-0.959,2.475-1.439,4.077-1.439
			c1.782,0,3.239,0.584,4.37,1.752s1.695,2.781,1.695,4.84c0,1.668-0.25,2.98-0.75,3.938s-1.229,1.698-2.186,2.228
			c-0.955,0.528-2,0.794-3.131,0.794c-1.814,0-3.281-0.582-4.4-1.745C74.404,63.382,73.846,61.705,73.846,59.518z M76.105,59.518
			c0,1.659,0.36,2.902,1.086,3.729c0.725,0.826,1.636,1.238,2.733,1.238c1.091,0,1.998-0.414,2.724-1.244
			c0.724-0.83,1.086-2.096,1.086-3.797c0-1.604-0.364-2.817-1.094-3.645c-0.729-0.826-1.634-1.238-2.716-1.238
			c-1.099,0-2.01,0.41-2.733,1.232C76.467,56.615,76.105,57.855,76.105,59.518z"/>
		<path fill="#FFFFFF" d="M87.749,59.518c0-2.401,0.667-4.181,2.002-5.336c1.114-0.959,2.474-1.439,4.077-1.439
			c1.781,0,3.238,0.584,4.369,1.752c1.132,1.168,1.697,2.781,1.697,4.84c0,1.668-0.25,2.98-0.75,3.938
			c-0.502,0.957-1.229,1.698-2.187,2.228c-0.956,0.528-2,0.794-3.131,0.794c-1.813,0-3.282-0.582-4.4-1.745
			C88.309,63.382,87.749,61.705,87.749,59.518z M90.007,59.518c0,1.659,0.362,2.902,1.087,3.729s1.637,1.238,2.734,1.238
			c1.091,0,1.998-0.414,2.722-1.244c0.726-0.83,1.087-2.096,1.087-3.797c0-1.604-0.363-2.817-1.093-3.645
			c-0.729-0.826-1.634-1.238-2.716-1.238c-1.1,0-2.01,0.41-2.734,1.232C90.37,56.615,90.007,57.855,90.007,59.518z"/>
		<path fill="#FFFFFF" d="M102.482,65.998V48.104h2.197v10.205l5.2-5.273h2.845l-4.957,4.81l5.457,8.154h-2.709l-4.285-6.628
			l-1.551,1.488v5.14L102.482,65.998L102.482,65.998z"/>
	</g>
</g>
</svg>
