<?xml version="1.0" encoding="utf-8"?>
<!-- Generator: Adobe Illustrator 16.0.0, SVG Export Plug-In . SVG Version: 6.00 Build 0)  -->
<!DOCTYPE svg PUBLIC "-//W3C//DTD SVG 1.1//EN" "http://www.w3.org/Graphics/SVG/1.1/DTD/svg11.dtd">
<svg version="1.1" id="Layer_1" xmlns="http://www.w3.org/2000/svg" xmlns:xlink="http://www.w3.org/1999/xlink" x="0px" y="0px"
	 width="103.071px" height="40px" viewBox="15.929 0 103.071 40" enable-background="new 15.929 0 103.071 40" xml:space="preserve"
	>
<path class="path" fill="#0F82BA" d="M119,35c0,2.762-2.238,5-5,5H20.929c-2.762,0-5-2.238-5-5V5c0-2.761,2.238-5,5-5H114c2.762,0,5,2.239,5,5V35
	z"/>
<g>
	<g>
		<polygon fill="#FFFFFF" points="35.929,14.367 38.397,14.367 38.397,23.356 42.967,23.356 42.967,25.634 35.929,25.634 		"/>
		<g>
			<path fill="#FFFFFF" d="M44.057,17.994h2.373v7.637h-2.373V17.994z M45.243,14.2c0.76,0,1.376,0.616,1.376,1.375
				c0,0.76-0.616,1.375-1.376,1.375c-0.759,0-1.375-0.615-1.375-1.375C43.868,14.816,44.484,14.2,45.243,14.2"/>
		</g>
		<polygon fill="#FFFFFF" points="56.346,14.366 58.718,14.366 58.718,21.1 61.403,17.991 64.312,17.991 61.2,21.527 64.246,25.634 
			61.266,25.634 58.748,21.858 58.718,21.858 58.718,25.634 56.346,25.634 		"/>
		<path fill="#FFFFFF" d="M47.742,17.997h2.277v1.043h0.031c0.316-0.601,1.091-1.233,2.247-1.233c2.403,0,2.847,1.581,2.847,3.637
			v4.187h-2.372v-3.712c0-0.887-0.016-2.025-1.234-2.025c-1.233,0-1.423,0.966-1.423,1.962v3.775h-2.372L47.742,17.997
			L47.742,17.997z"/>
		<path fill="#FFFFFF" d="M69.305,20.926c0.016-0.791-0.601-1.456-1.457-1.456c-1.042,0-1.612,0.711-1.676,1.456H69.305z
			 M71.313,24.31c-0.759,0.965-2.008,1.518-3.241,1.518c-2.371,0-4.27-1.581-4.27-4.033c0-2.451,1.898-4.031,4.27-4.031
			c2.215,0,3.605,1.581,3.605,4.031v0.743h-5.503c0.188,0.901,0.869,1.485,1.786,1.485c0.775,0,1.298-0.396,1.693-0.933
			L71.313,24.31z"/>
		<path fill="#FFFFFF" d="M76.618,19.842c-1.186,0-1.896,0.79-1.896,1.944s0.71,1.946,1.896,1.946s1.899-0.791,1.899-1.946
			C78.518,20.632,77.805,19.842,76.618,19.842 M80.7,25.629h-2.183v-1.011h-0.031c-0.365,0.553-1.282,1.201-2.357,1.201
			c-2.279,0-3.781-1.644-3.781-3.969c0-2.135,1.329-4.096,3.512-4.096c0.981,0,1.899,0.268,2.435,1.012h0.032v-4.4h2.372
			L80.7,25.629L80.7,25.629z"/>
	</g>
	<path fill="#FFFFFF" d="M97.888,12H84.253c-0.651,0-1.181,0.516-1.181,1.153v13.693c0,0.638,0.529,1.154,1.181,1.154h13.635
		c0.653,0,1.185-0.517,1.185-1.154V13.153C99.072,12.516,98.541,12,97.888,12z"/>
	<path fill="#0F82BA" d="M85.444,17.999h2.373v7.635h-2.373V17.999z M86.631,14.203c0.759,0,1.375,0.617,1.375,1.376
		c0,0.76-0.618,1.376-1.375,1.376c-0.76,0-1.376-0.616-1.376-1.376C85.255,14.819,85.871,14.203,86.631,14.203"/>
	<path fill="#0F82BA" d="M89.305,17.999h2.276v1.043h0.033c0.318-0.601,1.092-1.233,2.245-1.233c2.403,0,2.847,1.581,2.847,3.637
		v4.188h-2.372v-3.713c0-0.885-0.017-2.025-1.233-2.025c-1.234,0-1.425,0.964-1.425,1.961v3.776h-2.372L89.305,17.999L89.305,17.999
		z"/>
</g>
</svg>
