<?xml version="1.0" encoding="utf-8"?>
<!-- Generator: Adobe Illustrator 16.0.0, SVG Export Plug-In . SVG Version: 6.00 Build 0)  -->
<!DOCTYPE svg PUBLIC "-//W3C//DTD SVG 1.1//EN" "http://www.w3.org/Graphics/SVG/1.1/DTD/svg11.dtd">
<svg version="1.1" id="Layer_1" xmlns="http://www.w3.org/2000/svg" xmlns:xlink="http://www.w3.org/1999/xlink" x="0px" y="0px"
	 width="121.25px" height="40px" viewBox="-0.258 0 121.25 40" enable-background="new -0.258 0 121.25 40" xml:space="preserve">
<path class="path" fill="#666666" d="M15.02,28.795h3.856V15.941H15.02V28.795z M30.043,15.496c-1.869,0-3.545,0.684-4.736,2.192V15.9h-3.871
	v12.895h3.871V21.82c0-1.472,1.352-2.91,3.041-2.91s2.107,1.438,2.107,2.876v7.007h3.857v-7.294
	C34.316,16.431,31.918,15.496,30.043,15.496z M16.931,14.656c1.066,0,1.931-0.864,1.931-1.931c0-1.065-0.865-1.931-1.931-1.931
	S15,11.66,15,12.726S15.865,14.656,16.931,14.656z"/>
<path class="path" fill="none" d="M38,19.795"/>
<g>
	<path class="path" fill="#666666" d="M44.313,16.307h1.539v10.638h5.098v1.291h-6.637V16.307z"/>
	<path class="path" fill="#666666" d="M54.348,17.263c0.018,0.531-0.371,0.956-0.991,0.956c-0.548,0-0.938-0.425-0.938-0.956
		c0-0.549,0.407-0.974,0.974-0.974C53.977,16.289,54.348,16.714,54.348,17.263z M52.613,28.236V19.67h1.558v8.566H52.613
		L52.613,28.236z"/>
	<path class="path" fill="#666666" d="M56.755,21.988c0-0.885-0.018-1.61-0.07-2.318h1.38l0.089,1.416h0.035c0.425-0.814,1.416-1.611,2.832-1.611
		c1.187,0,3.027,0.708,3.027,3.647v5.114H62.49v-4.938c0-1.381-0.514-2.53-1.982-2.53c-1.027,0-1.823,0.728-2.089,1.594
		c-0.071,0.193-0.106,0.459-0.106,0.729v5.15h-1.558V21.988z"/>
	<path class="path" fill="#666666" d="M68.118,23.6h0.034c0.214-0.301,0.515-0.673,0.763-0.975l2.513-2.955h1.877l-3.311,3.521l3.771,5.045H71.87
		l-2.956-4.105l-0.797,0.885v3.227h-1.54V15.67h1.54L68.118,23.6L68.118,23.6z"/>
	<path class="path" fill="#666666" d="M75.747,24.236c0.036,2.104,1.381,2.975,2.938,2.975c1.11,0,1.787-0.195,2.371-0.441l0.267,1.113
		c-0.55,0.248-1.487,0.531-2.851,0.531c-2.642,0-4.217-1.734-4.217-4.318s1.521-4.621,4.021-4.621c2.798,0,3.541,2.46,3.541,4.037
		c0,0.318-0.035,0.566-0.053,0.729h-6.021L75.747,24.236L75.747,24.236z M80.314,23.122c0.018-0.991-0.407-2.532-2.16-2.532
		c-1.575,0-2.266,1.451-2.391,2.532H80.314z"/>
	<path class="path" fill="#666666" d="M91.146,15.67v10.355c0,0.762,0.019,1.629,0.066,2.213h-1.396l-0.068-1.487h-0.036
		c-0.479,0.956-1.521,1.683-2.92,1.683c-2.069,0-3.664-1.752-3.664-4.354c-0.019-2.852,1.752-4.603,3.843-4.603
		c1.309,0,2.192,0.62,2.584,1.309h0.033V15.67H91.146z M89.588,23.156c0-0.194-0.018-0.459-0.07-0.654
		c-0.229-0.99-1.08-1.805-2.248-1.805c-1.605,0-2.563,1.416-2.563,3.31c0,1.733,0.854,3.169,2.527,3.169
		c1.045,0,2-0.689,2.283-1.859c0.053-0.211,0.069-0.424,0.069-0.672L89.588,23.156L89.588,23.156z"/>
	<path class="path" fill="#666666" d="M95.465,17.263c0.018,0.531-0.371,0.956-0.99,0.956c-0.549,0-0.938-0.425-0.938-0.956
		c0-0.549,0.406-0.974,0.975-0.974C95.094,16.289,95.465,16.714,95.465,17.263z M93.73,28.236V19.67h1.558v8.566H93.73L93.73,28.236
		z"/>
	<path class="path" fill="#666666" d="M97.872,21.988c0-0.885-0.019-1.61-0.07-2.318h1.38l0.09,1.416h0.035c0.424-0.814,1.416-1.611,2.832-1.611
		c1.188,0,3.026,0.708,3.026,3.647v5.114h-1.558v-4.938c0-1.381-0.519-2.53-1.982-2.53c-1.027,0-1.823,0.728-2.089,1.594
		c-0.071,0.193-0.106,0.459-0.106,0.729v5.15h-1.558V21.988z"/>
</g>
<g>
	<path class="path" fill="#666666" d="M119.991,1v38H0.742V1H119.991 M120.991,0H-0.258v40h121.25L120.991,0L120.991,0z"/>
</g>
</svg>
