<?xml version="1.0" encoding="utf-8"?>
<!-- Generator: Adobe Illustrator 16.0.0, SVG Export Plug-In . SVG Version: 6.00 Build 0)  -->
<!DOCTYPE svg PUBLIC "-//W3C//DTD SVG 1.1//EN" "http://www.w3.org/Graphics/SVG/1.1/DTD/svg11.dtd">
<svg version="1.1" id="Layer_1" xmlns="http://www.w3.org/2000/svg" xmlns:xlink="http://www.w3.org/1999/xlink" x="0px" y="0px"
	 width="100px" height="40px" viewBox="-4.08 -0.824 100 40" enable-background="new -4.08 -0.824 100 40" xml:space="preserve">
<g>
	<path class="path" fill="#666666" d="M29.248,21.299c0.144-0.653,0.22-1.326,0.22-2.019c0-5.194-4.27-9.405-9.537-9.405
		c-0.555,0-1.101,0.049-1.63,0.138c-0.852-0.53-1.86-0.837-2.942-0.837c-3.056,0-5.531,2.443-5.531,5.456
		c0,1.005,0.278,1.949,0.759,2.759c-0.126,0.61-0.193,1.243-0.193,1.89c0,5.195,4.27,9.249,9.537,9.249
		c0.597,0,1.18-0.054,1.746-0.157c0.779,0.413,1.669,0.805,2.615,0.805c3.056,0,5.531-2.441,5.531-5.455
		C29.822,22.851,29.616,22.027,29.248,21.299L29.248,21.299z"/>
	<path fill="#FFFFFF" d="M24.282,23.118c-0.369,0.521-0.908,0.934-1.617,1.229c-0.708,0.3-1.549,0.446-2.521,0.446
		c-1.166,0-2.126-0.202-2.885-0.608c-0.536-0.291-0.973-0.68-1.309-1.166c-0.335-0.486-0.503-0.961-0.503-1.422
		c0-0.266,0.101-0.494,0.302-0.684c0.202-0.191,0.458-0.287,0.769-0.287c0.252,0,0.467,0.074,0.641,0.224
		c0.175,0.147,0.324,0.368,0.447,0.659c0.15,0.347,0.313,0.637,0.487,0.867c0.174,0.232,0.42,0.426,0.736,0.575
		c0.317,0.149,0.735,0.226,1.25,0.226c0.708,0,1.284-0.15,1.728-0.455c0.443-0.304,0.666-0.684,0.666-1.139
		c0-0.359-0.121-0.653-0.359-0.877c-0.239-0.225-0.549-0.396-0.926-0.514c-0.379-0.12-0.885-0.246-1.52-0.378
		c-0.848-0.182-1.559-0.397-2.13-0.641c-0.571-0.246-1.026-0.579-1.361-1c-0.336-0.424-0.503-0.949-0.503-1.576
		c0-0.598,0.176-1.129,0.531-1.593c0.355-0.465,0.866-0.822,1.539-1.072c0.671-0.25,1.461-0.375,2.368-0.375
		c0.725,0,1.353,0.084,1.881,0.248c0.53,0.166,0.968,0.386,1.315,0.66c0.35,0.275,0.605,0.562,0.766,0.864
		c0.161,0.299,0.241,0.595,0.241,0.88c0,0.262-0.1,0.5-0.3,0.709c-0.202,0.209-0.453,0.315-0.753,0.315
		c-0.274,0-0.482-0.064-0.625-0.19c-0.143-0.125-0.297-0.332-0.463-0.619c-0.215-0.41-0.472-0.729-0.773-0.959
		c-0.301-0.23-0.784-0.345-1.45-0.345c-0.617,0-1.116,0.124-1.495,0.374c-0.377,0.249-0.568,0.55-0.568,0.9
		c0,0.216,0.066,0.405,0.194,0.563c0.128,0.159,0.306,0.293,0.533,0.406c0.225,0.114,0.453,0.203,0.683,0.269
		c0.231,0.064,0.613,0.157,1.145,0.281c0.666,0.143,1.269,0.301,1.808,0.475c0.539,0.173,1,0.383,1.378,0.628
		c0.378,0.247,0.674,0.562,0.886,0.94s0.319,0.84,0.319,1.389C24.833,22.005,24.648,22.595,24.282,23.118L24.282,23.118z"/>
</g>
<g>
	<path class="path" fill="#666666" d="M39.109,21.518l1.43-0.125c0.067,0.572,0.225,1.043,0.473,1.409c0.247,0.367,0.631,0.664,1.152,0.892
		c0.521,0.227,1.106,0.34,1.758,0.34c0.578,0,1.088-0.086,1.531-0.258c0.442-0.172,0.771-0.407,0.988-0.707
		c0.216-0.301,0.324-0.627,0.324-0.98c0-0.359-0.104-0.673-0.313-0.941s-0.553-0.492-1.031-0.675
		c-0.308-0.12-0.987-0.306-2.039-0.559c-1.053-0.253-1.789-0.491-2.211-0.715c-0.547-0.286-0.955-0.642-1.223-1.066
		c-0.269-0.425-0.402-0.899-0.402-1.426c0-0.578,0.164-1.118,0.492-1.621c0.328-0.502,0.807-0.884,1.438-1.145
		c0.63-0.26,1.33-0.391,2.102-0.391c0.849,0,1.598,0.137,2.246,0.41c0.648,0.273,1.146,0.676,1.496,1.207
		c0.349,0.531,0.536,1.133,0.563,1.805l-1.453,0.109c-0.078-0.724-0.343-1.271-0.793-1.641c-0.451-0.37-1.116-0.555-1.996-0.555
		c-0.917,0-1.585,0.168-2.004,0.504c-0.42,0.336-0.629,0.741-0.629,1.215c0,0.411,0.148,0.75,0.445,1.016
		c0.291,0.266,1.053,0.538,2.285,0.816c1.231,0.278,2.076,0.522,2.535,0.73c0.666,0.308,1.158,0.696,1.477,1.168
		c0.317,0.473,0.477,1.016,0.477,1.629c0,0.609-0.175,1.184-0.523,1.723c-0.35,0.539-0.851,0.959-1.504,1.258
		c-0.654,0.301-1.39,0.449-2.207,0.449c-1.037,0-1.905-0.15-2.605-0.453c-0.701-0.302-1.25-0.756-1.648-1.362
		C39.342,22.969,39.13,22.282,39.109,21.518z"/>
	<path class="path" fill="#666666" d="M50.205,25.195V13.743h1.405v6.531l3.328-3.375h1.82l-3.172,3.078l3.492,5.218h-1.734l-2.742-4.241
		l-0.992,0.953v3.288H50.205z"/>
	<path class="path" fill="#666666" d="M58.215,28.393l-0.155-1.32c0.308,0.083,0.574,0.125,0.805,0.125c0.313,0,0.563-0.053,0.75-0.156
		c0.187-0.104,0.341-0.25,0.461-0.438c0.089-0.142,0.23-0.489,0.43-1.047c0.025-0.078,0.066-0.192,0.125-0.345l-3.148-8.313h1.517
		l1.728,4.805c0.224,0.608,0.424,1.25,0.602,1.922c0.16-0.646,0.354-1.276,0.578-1.892l1.773-4.835h1.405l-3.155,8.438
		c-0.34,0.911-0.603,1.539-0.789,1.883c-0.25,0.464-0.537,0.804-0.859,1.021c-0.323,0.216-0.709,0.324-1.156,0.324
		C58.851,28.563,58.548,28.506,58.215,28.393z"/>
	<path class="path" fill="#666666" d="M66.356,28.376V16.899h1.281v1.078c0.303-0.422,0.645-0.738,1.023-0.949
		c0.379-0.211,0.841-0.316,1.383-0.316c0.708,0,1.333,0.183,1.875,0.547c0.542,0.364,0.95,0.879,1.227,1.543
		c0.277,0.664,0.414,1.392,0.414,2.185c0,0.849-0.151,1.613-0.457,2.293c-0.305,0.68-0.746,1.199-1.328,1.563
		c-0.58,0.363-1.19,0.543-1.832,0.543c-0.469,0-0.889-0.099-1.262-0.297c-0.371-0.197-0.679-0.447-0.918-0.75v4.039L66.356,28.376
		L66.356,28.376z M67.631,21.095c0,1.067,0.216,1.856,0.647,2.367c0.433,0.511,0.957,0.767,1.57,0.767
		c0.625,0,1.16-0.266,1.605-0.793c0.445-0.528,0.668-1.349,0.668-2.457c0-1.059-0.219-1.85-0.652-2.375s-0.953-0.789-1.559-0.789
		c-0.6,0-1.129,0.28-1.59,0.84S67.631,20.027,67.631,21.095z"/>
	<path class="path" fill="#666666" d="M81.017,22.523l1.453,0.181c-0.229,0.849-0.654,1.508-1.273,1.978c-0.62,0.469-1.411,0.702-2.375,0.702
		c-1.215,0-2.176-0.374-2.887-1.12c-0.711-0.748-1.066-1.797-1.066-3.146c0-1.396,0.359-2.479,1.078-3.25s1.65-1.156,2.797-1.156
		c1.109,0,2.016,0.378,2.719,1.133c0.703,0.755,1.055,1.817,1.055,3.188c0,0.083-0.002,0.208-0.008,0.375h-6.189
		c0.053,0.91,0.311,1.609,0.773,2.094s1.042,0.727,1.734,0.727c0.516,0,0.956-0.136,1.32-0.405
		C80.511,23.553,80.802,23.118,81.017,22.523z M76.397,20.251h4.634c-0.063-0.698-0.239-1.222-0.531-1.57
		c-0.448-0.542-1.028-0.813-1.742-0.813c-0.646,0-1.188,0.216-1.629,0.648S76.444,19.527,76.397,20.251z"/>
</g>
<g>
	<path class="path" fill="#666666" d="M75.921,0.176c10.479,0,19,8.523,19,19c0,10.477-8.521,19-19,19h-60c-10.477,0-19-8.523-19-19
		c0-10.477,8.523-19,19-19H75.921 M75.921-0.824h-60c-11.045,0-20,8.954-20,20c0,11.045,8.955,20,20,20h60c11.045,0,20-8.955,20-20
		C95.921,8.13,86.968-0.824,75.921-0.824L75.921-0.824z"/>
</g>
</svg>
