<?xml version="1.0" encoding="utf-8"?>
<!-- Generator: Adobe Illustrator 16.0.0, SVG Export Plug-In . SVG Version: 6.00 Build 0)  -->
<!DOCTYPE svg PUBLIC "-//W3C//DTD SVG 1.1//EN" "http://www.w3.org/Graphics/SVG/1.1/DTD/svg11.dtd">
<svg version="1.1" id="Layer_1" xmlns="http://www.w3.org/2000/svg" xmlns:xlink="http://www.w3.org/1999/xlink" x="0px" y="0px"
	 width="100.004px" height="40px" viewBox="0 0 100.004 40" enable-background="new 0 0 100.004 40" xml:space="preserve">
<path fill="#FFFFFF" d="M0,40V5c0-2.761,2.239-5,5-5h90.004c2.762,0,5,2.239,5,5v35"/>
<rect y="36" class="path" fill="#00AFF0" width="100.004" height="4"/>
<path class="path" fill="#00AFF0" d="M32.42,22.91c0.144-0.652,0.22-1.326,0.22-2.019c0-5.194-4.27-9.405-9.537-9.405
	c-0.555,0-1.101,0.049-1.63,0.139c-0.852-0.53-1.86-0.837-2.942-0.837c-3.056,0-5.531,2.443-5.531,5.457
	c0,1.004,0.278,1.948,0.759,2.758c-0.126,0.61-0.193,1.244-0.193,1.891c0,5.195,4.27,9.249,9.537,9.249
	c0.597,0,1.18-0.054,1.746-0.157c0.779,0.413,1.669,0.805,2.615,0.805c3.056,0,5.531-2.441,5.531-5.455
	C32.994,24.463,32.788,23.64,32.42,22.91L32.42,22.91z"/>
<path fill="#FFFFFF" d="M27.454,24.73c-0.369,0.521-0.908,0.934-1.617,1.229c-0.708,0.3-1.549,0.446-2.521,0.446
	c-1.166,0-2.126-0.202-2.885-0.608c-0.536-0.291-0.973-0.68-1.309-1.166c-0.335-0.486-0.503-0.961-0.503-1.422
	c0-0.266,0.101-0.494,0.302-0.684c0.202-0.191,0.458-0.287,0.769-0.287c0.252,0,0.467,0.074,0.641,0.223
	c0.175,0.148,0.324,0.369,0.447,0.66c0.15,0.347,0.313,0.637,0.487,0.867c0.174,0.232,0.42,0.426,0.736,0.575
	c0.317,0.149,0.735,0.226,1.25,0.226c0.708,0,1.284-0.15,1.728-0.455c0.443-0.304,0.666-0.684,0.666-1.139
	c0-0.359-0.121-0.654-0.359-0.877c-0.239-0.226-0.549-0.396-0.926-0.515c-0.379-0.12-0.885-0.246-1.52-0.378
	c-0.848-0.182-1.559-0.397-2.13-0.641c-0.571-0.246-1.026-0.58-1.361-1c-0.336-0.425-0.503-0.949-0.503-1.576
	c0-0.599,0.176-1.129,0.531-1.594s0.866-0.822,1.539-1.072c0.671-0.25,1.461-0.375,2.368-0.375c0.725,0,1.353,0.084,1.881,0.248
	c0.53,0.166,0.968,0.387,1.315,0.66c0.35,0.275,0.605,0.563,0.766,0.864c0.161,0.3,0.241,0.595,0.241,0.88
	c0,0.262-0.1,0.5-0.3,0.709c-0.202,0.209-0.453,0.315-0.753,0.315c-0.274,0-0.482-0.064-0.625-0.19
	c-0.143-0.125-0.297-0.332-0.463-0.619c-0.215-0.41-0.472-0.729-0.773-0.959c-0.301-0.229-0.784-0.345-1.45-0.345
	c-0.617,0-1.116,0.124-1.495,0.374c-0.377,0.249-0.568,0.55-0.568,0.9c0,0.216,0.066,0.404,0.194,0.563
	c0.128,0.159,0.306,0.293,0.533,0.406c0.225,0.113,0.453,0.203,0.683,0.27c0.231,0.063,0.613,0.156,1.145,0.28
	c0.666,0.144,1.269,0.302,1.808,0.476c0.539,0.172,1,0.383,1.378,0.627c0.378,0.248,0.674,0.563,0.886,0.94s0.319,0.841,0.319,1.39
	C28.005,23.617,27.82,24.207,27.454,24.73L27.454,24.73z"/>
<g>
	<path class="path" fill="#00AFF0" d="M42.281,23.953l1.43-0.125c0.066,0.572,0.225,1.043,0.473,1.409c0.247,0.367,0.631,0.664,1.152,0.892
		c0.521,0.227,1.105,0.34,1.758,0.34c0.578,0,1.088-0.086,1.531-0.258c0.441-0.172,0.771-0.407,0.988-0.707
		c0.216-0.301,0.324-0.627,0.324-0.98c0-0.359-0.104-0.673-0.313-0.941s-0.554-0.492-1.031-0.676
		c-0.308-0.119-0.987-0.306-2.039-0.559c-1.053-0.253-1.789-0.491-2.211-0.715c-0.547-0.286-0.955-0.643-1.223-1.066
		c-0.269-0.425-0.402-0.898-0.402-1.426c0-0.578,0.164-1.118,0.492-1.621c0.328-0.502,0.808-0.884,1.438-1.145
		c0.629-0.26,1.33-0.392,2.102-0.392c0.849,0,1.598,0.138,2.246,0.41s1.146,0.676,1.496,1.207c0.349,0.53,0.535,1.133,0.563,1.805
		l-1.453,0.109c-0.078-0.724-0.343-1.271-0.793-1.642c-0.451-0.369-1.115-0.555-1.996-0.555c-0.916,0-1.584,0.168-2.004,0.504
		s-0.629,0.741-0.629,1.215c0,0.412,0.148,0.75,0.445,1.017c0.291,0.266,1.053,0.538,2.285,0.815c1.23,0.278,2.076,0.522,2.535,0.73
		c0.666,0.309,1.158,0.695,1.477,1.168c0.316,0.473,0.477,1.016,0.477,1.629c0,0.609-0.175,1.184-0.522,1.723
		c-0.351,0.539-0.851,0.959-1.504,1.258c-0.654,0.301-1.39,0.449-2.207,0.449c-1.037,0-1.905-0.15-2.604-0.453
		c-0.701-0.302-1.25-0.756-1.648-1.362C42.514,25.404,42.302,24.718,42.281,23.953z"/>
	<path class="path" fill="#00AFF0" d="M53.377,27.631V16.179h1.406v6.53l3.328-3.375h1.819l-3.172,3.078l3.492,5.219h-1.733l-2.742-4.241
		l-0.992,0.953v3.288H53.377z"/>
	<path class="path" fill="#00AFF0" d="M61.387,30.828l-0.156-1.32c0.309,0.083,0.575,0.125,0.805,0.125c0.313,0,0.563-0.053,0.75-0.156
		c0.188-0.104,0.342-0.25,0.462-0.438c0.089-0.142,0.231-0.489,0.43-1.047c0.026-0.078,0.067-0.192,0.125-0.345l-3.147-8.313h1.516
		l1.727,4.806c0.225,0.608,0.426,1.25,0.603,1.922c0.161-0.646,0.354-1.276,0.577-1.892l1.773-4.836h1.406L65.1,27.772
		c-0.339,0.911-0.602,1.539-0.789,1.883c-0.25,0.464-0.535,0.804-0.859,1.021C63.129,30.892,62.744,31,62.296,31
		C62.023,30.998,61.72,30.941,61.387,30.828z"/>
	<path class="path" fill="#00AFF0" d="M69.529,30.812V19.334h1.281v1.078c0.301-0.422,0.644-0.737,1.022-0.949
		c0.379-0.211,0.841-0.315,1.383-0.315c0.708,0,1.333,0.183,1.875,0.547s0.95,0.88,1.228,1.543c0.276,0.664,0.414,1.392,0.414,2.185
		c0,0.849-0.152,1.613-0.457,2.293c-0.306,0.68-0.748,1.199-1.328,1.563c-0.582,0.363-1.191,0.543-1.832,0.543
		c-0.469,0-0.891-0.099-1.262-0.297c-0.373-0.197-0.68-0.447-0.918-0.75v4.039L69.529,30.812L69.529,30.812z M70.803,23.53
		c0,1.067,0.217,1.856,0.648,2.367s0.955,0.767,1.57,0.767c0.625,0,1.159-0.266,1.604-0.793c0.444-0.528,0.668-1.349,0.668-2.457
		c0-1.059-0.218-1.85-0.651-2.375c-0.435-0.526-0.955-0.789-1.56-0.789c-0.599,0-1.129,0.279-1.591,0.84
		C71.031,21.649,70.803,22.463,70.803,23.53z"/>
	<path class="path" fill="#00AFF0" d="M84.188,24.959l1.453,0.181c-0.229,0.849-0.652,1.508-1.273,1.978c-0.619,0.469-1.41,0.702-2.375,0.702
		c-1.213,0-2.176-0.374-2.887-1.12c-0.711-0.748-1.065-1.797-1.065-3.146c0-1.396,0.358-2.479,1.077-3.25
		c0.72-0.771,1.652-1.156,2.798-1.156c1.108,0,2.016,0.378,2.719,1.133s1.056,1.817,1.056,3.188c0,0.083-0.004,0.208-0.009,0.375
		h-6.188c0.052,0.91,0.31,1.609,0.772,2.094c0.464,0.484,1.042,0.727,1.734,0.727c0.516,0,0.956-0.136,1.319-0.405
		C83.684,25.988,83.974,25.554,84.188,24.959z M79.57,22.687h4.633c-0.063-0.698-0.239-1.222-0.531-1.569
		c-0.447-0.543-1.027-0.813-1.742-0.813c-0.646,0-1.188,0.216-1.629,0.647C79.859,21.384,79.617,21.963,79.57,22.687z"/>
</g>
</svg>
