<?xml version="1.0" encoding="utf-8"?>
<!-- Generator: Adobe Illustrator 16.0.0, SVG Export Plug-In . SVG Version: 6.00 Build 0)  -->
<!DOCTYPE svg PUBLIC "-//W3C//DTD SVG 1.1//EN" "http://www.w3.org/Graphics/SVG/1.1/DTD/svg11.dtd">
<svg version="1.1" id="Layer_1" xmlns="http://www.w3.org/2000/svg" xmlns:xlink="http://www.w3.org/1999/xlink" x="0px" y="0px"
	 width="118.004px" height="90px" viewBox="-0.925 -0.5 118.004 90" enable-background="new -0.925 -0.5 118.004 90"
	 xml:space="preserve">
<g>
	<path fill="#FFFFFF" d="M-0.925,89.5v-85c0-2.761,2.238-5,5-5h108.004c2.762,0,5,2.239,5,5v85"/>
	<rect x="-0.925" y="85.5" class="path" fill="#00AFF0" width="118.004" height="4"/>
</g>
<path class="path" fill="#00AFF0" d="M71.28,29.828c0.203-0.914,0.31-1.857,0.31-2.826c0-7.273-5.979-13.168-13.354-13.168
	c-0.775,0-1.541,0.068-2.281,0.192c-1.193-0.741-2.604-1.172-4.119-1.172c-4.279,0-7.744,3.419-7.744,7.64
	c0,1.406,0.389,2.729,1.063,3.861c-0.176,0.855-0.27,1.74-0.27,2.646c0,7.273,5.979,12.951,13.352,12.951
	c0.836,0,1.652-0.076,2.445-0.221c1.092,0.578,2.336,1.125,3.662,1.125c4.278,0,7.743-3.416,7.743-7.637
	C72.085,32.002,71.797,30.85,71.28,29.828L71.28,29.828z"/>
<path fill="#FFFFFF" d="M64.328,32.377c-0.517,0.729-1.271,1.307-2.265,1.719c-0.99,0.422-2.168,0.625-3.529,0.625
	c-1.631,0-2.977-0.283-4.039-0.852c-0.75-0.406-1.362-0.951-1.833-1.633c-0.47-0.68-0.704-1.346-0.704-1.99
	c0-0.371,0.143-0.691,0.423-0.957c0.282-0.27,0.642-0.402,1.077-0.402c0.354,0,0.652,0.104,0.896,0.313
	c0.246,0.207,0.455,0.518,0.627,0.926c0.209,0.484,0.438,0.893,0.682,1.213c0.244,0.326,0.588,0.598,1.031,0.807
	c0.442,0.209,1.028,0.314,1.75,0.314c0.99,0,1.797-0.209,2.418-0.637c0.621-0.426,0.934-0.957,0.934-1.596
	c0-0.504-0.17-0.914-0.504-1.227c-0.334-0.316-0.77-0.557-1.296-0.723c-0.531-0.168-1.24-0.344-2.128-0.527
	c-1.188-0.256-2.184-0.557-2.982-0.898c-0.8-0.344-1.438-0.811-1.906-1.398c-0.47-0.596-0.703-1.33-0.703-2.207
	c0-0.838,0.246-1.582,0.744-2.23c0.496-0.652,1.211-1.152,2.154-1.502c0.939-0.35,2.046-0.525,3.314-0.525
	c1.016,0,1.895,0.119,2.634,0.348c0.741,0.232,1.354,0.541,1.841,0.924c0.49,0.385,0.848,0.787,1.072,1.209
	c0.226,0.42,0.338,0.834,0.338,1.232c0,0.367-0.141,0.699-0.42,0.992c-0.283,0.293-0.635,0.441-1.055,0.441
	c-0.385,0-0.676-0.09-0.875-0.266s-0.416-0.465-0.648-0.867c-0.301-0.574-0.66-1.021-1.082-1.342
	c-0.421-0.322-1.098-0.482-2.03-0.482c-0.864,0-1.563,0.172-2.093,0.521c-0.527,0.35-0.796,0.771-0.796,1.262
	c0,0.303,0.093,0.566,0.272,0.787c0.178,0.223,0.428,0.41,0.746,0.568c0.314,0.16,0.633,0.285,0.957,0.377
	c0.322,0.09,0.857,0.221,1.603,0.393c0.933,0.201,1.776,0.422,2.532,0.666c0.754,0.242,1.398,0.537,1.929,0.879
	c0.528,0.346,0.942,0.787,1.241,1.316c0.295,0.529,0.445,1.178,0.445,1.945C65.101,30.816,64.842,31.645,64.328,32.377
	L64.328,32.377z"/>
<g>
	<path class="path" fill="#00AFF0" d="M30.373,67.149l1.825-0.158c0.084,0.729,0.287,1.33,0.604,1.799c0.314,0.469,0.807,0.848,1.471,1.137
		c0.666,0.291,1.41,0.438,2.244,0.438c0.738,0,1.389-0.111,1.955-0.332c0.563-0.219,0.984-0.52,1.262-0.902
		c0.274-0.383,0.414-0.799,0.414-1.25c0-0.457-0.133-0.857-0.399-1.199c-0.267-0.344-0.708-0.629-1.315-0.861
		c-0.394-0.152-1.26-0.393-2.604-0.715s-2.284-0.627-2.822-0.912c-0.697-0.365-1.219-0.82-1.561-1.361
		c-0.344-0.541-0.514-1.145-0.514-1.818c0-0.738,0.209-1.428,0.629-2.068c0.418-0.643,1.03-1.129,1.834-1.461
		c0.803-0.332,1.697-0.5,2.684-0.5c1.083,0,2.04,0.176,2.865,0.521c0.828,0.35,1.463,0.863,1.912,1.541
		c0.444,0.678,0.683,1.445,0.717,2.307l-1.854,0.139c-0.099-0.924-0.438-1.623-1.012-2.096c-0.576-0.473-1.423-0.709-2.548-0.709
		c-1.168,0-2.021,0.215-2.559,0.643c-0.535,0.43-0.803,0.947-0.803,1.551c0,0.527,0.189,0.959,0.568,1.299
		c0.371,0.34,1.344,0.688,2.916,1.041c1.57,0.355,2.65,0.666,3.236,0.934c0.852,0.393,1.479,0.887,1.885,1.49
		c0.404,0.604,0.608,1.297,0.608,2.078c0,0.777-0.223,1.512-0.666,2.199c-0.448,0.688-1.087,1.225-1.92,1.605
		c-0.834,0.385-1.774,0.572-2.815,0.572c-1.324,0-2.433-0.189-3.324-0.578c-0.895-0.385-1.596-0.965-2.104-1.736
		C30.67,69.001,30.399,68.126,30.373,67.149z"/>
	<path class="path" fill="#00AFF0" d="M44.536,71.843V57.228h1.795v8.334l4.248-4.309h2.32l-4.049,3.93l4.459,6.66h-2.213l-3.499-5.412
		l-1.267,1.217v4.195H44.536z"/>
	<path class="path" fill="#00AFF0" d="M54.76,75.925l-0.198-1.684c0.394,0.104,0.733,0.158,1.026,0.158c0.399,0,0.72-0.068,0.957-0.199
		c0.241-0.133,0.438-0.318,0.591-0.561c0.113-0.18,0.294-0.621,0.549-1.336c0.032-0.1,0.084-0.242,0.159-0.439l-4.016-10.611h1.935
		l2.204,6.135c0.288,0.775,0.543,1.596,0.771,2.453c0.205-0.824,0.451-1.629,0.735-2.414l2.265-6.174h1.795l-4.03,10.771
		c-0.433,1.164-0.769,1.965-1.007,2.402c-0.319,0.594-0.684,1.027-1.098,1.307c-0.41,0.273-0.901,0.412-1.473,0.412
		C55.573,76.144,55.185,76.069,54.76,75.925z"/>
	<path class="path" fill="#00AFF0" d="M65.153,75.903v-14.65h1.636v1.377c0.384-0.539,0.821-0.941,1.305-1.213
		c0.483-0.268,1.073-0.402,1.767-0.402c0.902,0,1.701,0.234,2.393,0.699s1.213,1.123,1.566,1.971s0.528,1.775,0.528,2.787
		c0,1.084-0.194,2.061-0.583,2.928c-0.391,0.869-0.955,1.529-1.695,1.996c-0.742,0.463-1.52,0.691-2.338,0.691
		c-0.6,0-1.138-0.127-1.61-0.379c-0.478-0.25-0.867-0.57-1.173-0.957v5.154L65.153,75.903L65.153,75.903z M66.778,66.61
		c0,1.361,0.276,2.369,0.828,3.02c0.549,0.652,1.219,0.98,2.004,0.98c0.797,0,1.479-0.34,2.047-1.014
		c0.565-0.674,0.854-1.723,0.854-3.137c0-1.352-0.279-2.361-0.832-3.031c-0.555-0.67-1.218-1.008-1.99-1.008
		c-0.766,0-1.44,0.357-2.031,1.074C67.069,64.208,66.778,65.247,66.778,66.61z"/>
	<path class="path" fill="#00AFF0" d="M83.862,68.435l1.855,0.229c-0.292,1.084-0.833,1.926-1.626,2.525c-0.789,0.598-1.799,0.895-3.03,0.895
		c-1.549,0-2.777-0.477-3.686-1.43c-0.908-0.955-1.359-2.293-1.359-4.016c0-1.781,0.457-3.166,1.375-4.148
		c0.92-0.982,2.108-1.477,3.571-1.477c1.414,0,2.573,0.482,3.472,1.447c0.896,0.963,1.348,2.318,1.348,4.068
		c0,0.105-0.004,0.266-0.012,0.479h-7.897c0.065,1.162,0.396,2.057,0.983,2.674c0.594,0.617,1.33,0.928,2.215,0.928
		c0.658,0,1.219-0.174,1.683-0.518C83.221,69.747,83.591,69.192,83.862,68.435z M77.97,65.532h5.914
		c-0.08-0.893-0.305-1.561-0.677-2.002c-0.571-0.693-1.312-1.039-2.226-1.039c-0.822,0-1.517,0.273-2.078,0.826
		S78.03,64.608,77.97,65.532z"/>
</g>
</svg>
